%TF.GenerationSoftware,KiCad,Pcbnew,8.0.6*%
%TF.CreationDate,2024-11-26T02:45:54-05:00*%
%TF.ProjectId,final_imu_module,66696e61-6c5f-4696-9d75-5f6d6f64756c,rev?*%
%TF.SameCoordinates,Original*%
%TF.FileFunction,Copper,L2,Bot*%
%TF.FilePolarity,Positive*%
%FSLAX46Y46*%
G04 Gerber Fmt 4.6, Leading zero omitted, Abs format (unit mm)*
G04 Created by KiCad (PCBNEW 8.0.6) date 2024-11-26 02:45:54*
%MOMM*%
%LPD*%
G01*
G04 APERTURE LIST*
%TA.AperFunction,WasherPad*%
%ADD10C,1.300000*%
%TD*%
%TA.AperFunction,ViaPad*%
%ADD11C,0.700000*%
%TD*%
G04 APERTURE END LIST*
D10*
%TO.P,REF\u002A\u002A,*%
%TO.N,*%
X114750000Y-90250000D03*
%TD*%
%TO.P,REF\u002A\u002A,*%
%TO.N,*%
X102250000Y-90250000D03*
%TD*%
%TO.P,REF\u002A\u002A,*%
%TO.N,*%
X114500000Y-100750000D03*
%TD*%
D11*
%TO.N,GND*%
X111469402Y-98460000D03*
X113300000Y-92043672D03*
X114000000Y-95000000D03*
X108500000Y-97250000D03*
X107500000Y-99750000D03*
X107500000Y-90250000D03*
X114000000Y-94250000D03*
X114000000Y-97550000D03*
%TD*%
%TA.AperFunction,Conductor*%
%TO.N,GND*%
G36*
X113704738Y-89520185D02*
G01*
X113750493Y-89572989D01*
X113760437Y-89642147D01*
X113748699Y-89679771D01*
X113672596Y-89832605D01*
X113672596Y-89832607D01*
X113614244Y-90037689D01*
X113594571Y-90249999D01*
X113594571Y-90250000D01*
X113614244Y-90462310D01*
X113672596Y-90667392D01*
X113672596Y-90667394D01*
X113767632Y-90858253D01*
X113767634Y-90858255D01*
X113896128Y-91028407D01*
X114053698Y-91172052D01*
X114234981Y-91284298D01*
X114433802Y-91361321D01*
X114643390Y-91400500D01*
X114643392Y-91400500D01*
X114856608Y-91400500D01*
X114856610Y-91400500D01*
X115066198Y-91361321D01*
X115265019Y-91284298D01*
X115310223Y-91256308D01*
X115377583Y-91237753D01*
X115444282Y-91258561D01*
X115489144Y-91312127D01*
X115499500Y-91361736D01*
X115499500Y-99823516D01*
X115479815Y-99890555D01*
X115427011Y-99936310D01*
X115357853Y-99946254D01*
X115294297Y-99917229D01*
X115291962Y-99915153D01*
X115196303Y-99827949D01*
X115196302Y-99827948D01*
X115015019Y-99715702D01*
X115015017Y-99715701D01*
X114915608Y-99677190D01*
X114816198Y-99638679D01*
X114606610Y-99599500D01*
X114393390Y-99599500D01*
X114183802Y-99638679D01*
X114183799Y-99638679D01*
X114183799Y-99638680D01*
X113984982Y-99715701D01*
X113984980Y-99715702D01*
X113803699Y-99827947D01*
X113646127Y-99971593D01*
X113517632Y-100141746D01*
X113422596Y-100332605D01*
X113422596Y-100332607D01*
X113364244Y-100537689D01*
X113344571Y-100749999D01*
X113344571Y-100750000D01*
X113364244Y-100962310D01*
X113422596Y-101167392D01*
X113422596Y-101167394D01*
X113498699Y-101320229D01*
X113510960Y-101389014D01*
X113484087Y-101453509D01*
X113426611Y-101493237D01*
X113387699Y-101499500D01*
X102006962Y-101499500D01*
X101993078Y-101498720D01*
X101980553Y-101497308D01*
X101902735Y-101488540D01*
X101875666Y-101482362D01*
X101796462Y-101454648D01*
X101771444Y-101442600D01*
X101700395Y-101397957D01*
X101678686Y-101380644D01*
X101619355Y-101321313D01*
X101602042Y-101299604D01*
X101557399Y-101228555D01*
X101545351Y-101203537D01*
X101532704Y-101167394D01*
X101517636Y-101124331D01*
X101511459Y-101097263D01*
X101501280Y-101006922D01*
X101500500Y-100993038D01*
X101500500Y-91361736D01*
X101520185Y-91294697D01*
X101572989Y-91248942D01*
X101642147Y-91238998D01*
X101689776Y-91256308D01*
X101734981Y-91284298D01*
X101933802Y-91361321D01*
X102143390Y-91400500D01*
X102143392Y-91400500D01*
X102356608Y-91400500D01*
X102356610Y-91400500D01*
X102566198Y-91361321D01*
X102765019Y-91284298D01*
X102946302Y-91172052D01*
X103103872Y-91028407D01*
X103232366Y-90858255D01*
X103327405Y-90667389D01*
X103385756Y-90462310D01*
X103405429Y-90250000D01*
X103385756Y-90037690D01*
X103327405Y-89832611D01*
X103327403Y-89832606D01*
X103327403Y-89832605D01*
X103251301Y-89679771D01*
X103239040Y-89610986D01*
X103265913Y-89546491D01*
X103323389Y-89506763D01*
X103362301Y-89500500D01*
X113637699Y-89500500D01*
X113704738Y-89520185D01*
G37*
%TD.AperFunction*%
%TD*%
M02*
