%TF.GenerationSoftware,KiCad,Pcbnew,8.0.6*%
%TF.CreationDate,2024-11-26T02:45:54-05:00*%
%TF.ProjectId,final_imu_module,66696e61-6c5f-4696-9d75-5f6d6f64756c,rev?*%
%TF.SameCoordinates,Original*%
%TF.FileFunction,Soldermask,Top*%
%TF.FilePolarity,Negative*%
%FSLAX46Y46*%
G04 Gerber Fmt 4.6, Leading zero omitted, Abs format (unit mm)*
G04 Created by KiCad (PCBNEW 8.0.6) date 2024-11-26 02:45:54*
%MOMM*%
%LPD*%
G01*
G04 APERTURE LIST*
G04 Aperture macros list*
%AMRoundRect*
0 Rectangle with rounded corners*
0 $1 Rounding radius*
0 $2 $3 $4 $5 $6 $7 $8 $9 X,Y pos of 4 corners*
0 Add a 4 corners polygon primitive as box body*
4,1,4,$2,$3,$4,$5,$6,$7,$8,$9,$2,$3,0*
0 Add four circle primitives for the rounded corners*
1,1,$1+$1,$2,$3*
1,1,$1+$1,$4,$5*
1,1,$1+$1,$6,$7*
1,1,$1+$1,$8,$9*
0 Add four rect primitives between the rounded corners*
20,1,$1+$1,$2,$3,$4,$5,0*
20,1,$1+$1,$4,$5,$6,$7,0*
20,1,$1+$1,$6,$7,$8,$9,0*
20,1,$1+$1,$8,$9,$2,$3,0*%
G04 Aperture macros list end*
%ADD10C,0.000000*%
%ADD11C,1.300000*%
%ADD12R,0.800000X0.300000*%
%ADD13R,3.049999X1.300000*%
%ADD14RoundRect,0.140000X0.140000X0.170000X-0.140000X0.170000X-0.140000X-0.170000X0.140000X-0.170000X0*%
%ADD15RoundRect,0.200000X0.275000X-0.200000X0.275000X0.200000X-0.275000X0.200000X-0.275000X-0.200000X0*%
%ADD16RoundRect,0.050000X0.050000X-0.225000X0.050000X0.225000X-0.050000X0.225000X-0.050000X-0.225000X0*%
%ADD17RoundRect,0.050000X-0.225000X-0.050000X0.225000X-0.050000X0.225000X0.050000X-0.225000X0.050000X0*%
G04 APERTURE END LIST*
D10*
%TO.C,J1*%
G36*
X106500000Y-91200000D02*
G01*
X104300000Y-91200000D01*
X104300000Y-90100000D01*
X106500000Y-90100000D01*
X106500000Y-91200000D01*
G37*
G36*
X106500000Y-100900000D02*
G01*
X104300000Y-100900000D01*
X104300000Y-99800000D01*
X106500000Y-99800000D01*
X106500000Y-100900000D01*
G37*
%TD*%
D11*
%TO.C,REF\u002A\u002A*%
X114750000Y-90250000D03*
%TD*%
%TO.C,REF\u002A\u002A*%
X102250000Y-90250000D03*
%TD*%
D12*
%TO.C,J1*%
X106900000Y-93750004D03*
X106900000Y-94250003D03*
X106900000Y-94750004D03*
X106900000Y-95250003D03*
X106900000Y-95750005D03*
X106900000Y-96250004D03*
X106900000Y-96750003D03*
X106900000Y-97250004D03*
D13*
X104975000Y-91850003D03*
X104975000Y-99149997D03*
%TD*%
D11*
%TO.C,REF\u002A\u002A*%
X114500000Y-100750000D03*
%TD*%
D14*
%TO.C,C2*%
X109520000Y-98750000D03*
X110480000Y-98750000D03*
%TD*%
%TO.C,C5*%
X112540000Y-93000000D03*
X113500000Y-93000000D03*
%TD*%
%TO.C,C3*%
X112500000Y-98500000D03*
X113460000Y-98500000D03*
%TD*%
D15*
%TO.C,R2*%
X111250000Y-90925000D03*
X111250000Y-92575000D03*
%TD*%
%TO.C,R1*%
X109500000Y-90925000D03*
X109500000Y-92575000D03*
%TD*%
D16*
%TO.C,U1*%
X110500000Y-94400000D03*
X110900000Y-94400000D03*
X111300000Y-94400000D03*
X111700000Y-94400000D03*
X112100000Y-94400000D03*
X112500000Y-94400000D03*
D17*
X113000000Y-94900000D03*
X113000000Y-95300000D03*
X113000000Y-95700000D03*
X113000000Y-96100000D03*
X113000000Y-96500000D03*
X113000000Y-96900000D03*
D16*
X112500000Y-97400000D03*
X112100000Y-97400000D03*
X111700000Y-97400000D03*
X111300000Y-97400000D03*
X110900000Y-97400000D03*
X110500000Y-97400000D03*
D17*
X110000000Y-96900000D03*
X110000000Y-96500000D03*
X110000000Y-96100000D03*
X110000000Y-95700000D03*
X110000000Y-95300000D03*
X110000000Y-94900000D03*
%TD*%
M02*
