%TF.GenerationSoftware,KiCad,Pcbnew,8.0.6*%
%TF.CreationDate,2024-11-26T02:45:54-05:00*%
%TF.ProjectId,final_imu_module,66696e61-6c5f-4696-9d75-5f6d6f64756c,rev?*%
%TF.SameCoordinates,Original*%
%TF.FileFunction,Copper,L1,Top*%
%TF.FilePolarity,Positive*%
%FSLAX46Y46*%
G04 Gerber Fmt 4.6, Leading zero omitted, Abs format (unit mm)*
G04 Created by KiCad (PCBNEW 8.0.6) date 2024-11-26 02:45:54*
%MOMM*%
%LPD*%
G01*
G04 APERTURE LIST*
G04 Aperture macros list*
%AMRoundRect*
0 Rectangle with rounded corners*
0 $1 Rounding radius*
0 $2 $3 $4 $5 $6 $7 $8 $9 X,Y pos of 4 corners*
0 Add a 4 corners polygon primitive as box body*
4,1,4,$2,$3,$4,$5,$6,$7,$8,$9,$2,$3,0*
0 Add four circle primitives for the rounded corners*
1,1,$1+$1,$2,$3*
1,1,$1+$1,$4,$5*
1,1,$1+$1,$6,$7*
1,1,$1+$1,$8,$9*
0 Add four rect primitives between the rounded corners*
20,1,$1+$1,$2,$3,$4,$5,0*
20,1,$1+$1,$4,$5,$6,$7,0*
20,1,$1+$1,$6,$7,$8,$9,0*
20,1,$1+$1,$8,$9,$2,$3,0*%
G04 Aperture macros list end*
%TA.AperFunction,EtchedComponent*%
%ADD10C,0.000000*%
%TD*%
%TA.AperFunction,WasherPad*%
%ADD11C,1.300000*%
%TD*%
%TA.AperFunction,SMDPad,CuDef*%
%ADD12R,0.800000X0.300000*%
%TD*%
%TA.AperFunction,SMDPad,CuDef*%
%ADD13R,3.049999X1.300000*%
%TD*%
%TA.AperFunction,SMDPad,CuDef*%
%ADD14RoundRect,0.140000X0.140000X0.170000X-0.140000X0.170000X-0.140000X-0.170000X0.140000X-0.170000X0*%
%TD*%
%TA.AperFunction,SMDPad,CuDef*%
%ADD15RoundRect,0.200000X0.275000X-0.200000X0.275000X0.200000X-0.275000X0.200000X-0.275000X-0.200000X0*%
%TD*%
%TA.AperFunction,SMDPad,CuDef*%
%ADD16RoundRect,0.050000X0.050000X-0.225000X0.050000X0.225000X-0.050000X0.225000X-0.050000X-0.225000X0*%
%TD*%
%TA.AperFunction,SMDPad,CuDef*%
%ADD17RoundRect,0.050000X-0.225000X-0.050000X0.225000X-0.050000X0.225000X0.050000X-0.225000X0.050000X0*%
%TD*%
%TA.AperFunction,ViaPad*%
%ADD18C,0.700000*%
%TD*%
%TA.AperFunction,Conductor*%
%ADD19C,0.500000*%
%TD*%
%TA.AperFunction,Conductor*%
%ADD20C,0.300000*%
%TD*%
%TA.AperFunction,Conductor*%
%ADD21C,0.200000*%
%TD*%
G04 APERTURE END LIST*
D10*
%TA.AperFunction,EtchedComponent*%
%TO.C,J1*%
G36*
X106500000Y-91200000D02*
G01*
X104300000Y-91200000D01*
X104300000Y-90100000D01*
X106500000Y-90100000D01*
X106500000Y-91200000D01*
G37*
%TD.AperFunction*%
%TA.AperFunction,EtchedComponent*%
G36*
X106500000Y-100900000D02*
G01*
X104300000Y-100900000D01*
X104300000Y-99800000D01*
X106500000Y-99800000D01*
X106500000Y-100900000D01*
G37*
%TD.AperFunction*%
%TD*%
D11*
%TO.P,REF\u002A\u002A,*%
%TO.N,*%
X114750000Y-90250000D03*
%TD*%
%TO.P,REF\u002A\u002A,*%
%TO.N,*%
X102250000Y-90250000D03*
%TD*%
D12*
%TO.P,J1,1,1*%
%TO.N,+1V8*%
X106900000Y-93750004D03*
%TO.P,J1,2,2*%
X106900000Y-94250003D03*
%TO.P,J1,3,3*%
%TO.N,Net-(U1-SCL{slash}SCLK)*%
X106900000Y-94750004D03*
%TO.P,J1,4,4*%
X106900000Y-95250003D03*
%TO.P,J1,5,5*%
%TO.N,Net-(U1-SDA{slash}SDI)*%
X106900000Y-95750005D03*
%TO.P,J1,6,6*%
X106900000Y-96250004D03*
%TO.P,J1,7,7*%
%TO.N,GND*%
X106900000Y-96750003D03*
%TO.P,J1,8,8*%
X106900000Y-97250004D03*
D13*
%TO.P,J1,P1,P1*%
X104975000Y-91850003D03*
%TO.P,J1,P2,P2*%
X104975000Y-99149997D03*
%TD*%
D11*
%TO.P,REF\u002A\u002A,*%
%TO.N,*%
X114500000Y-100750000D03*
%TD*%
D14*
%TO.P,C2,2*%
%TO.N,+1V8*%
X109520000Y-98750000D03*
%TO.P,C2,1*%
%TO.N,GND*%
X110480000Y-98750000D03*
%TD*%
%TO.P,C5,2*%
%TO.N,+1V8*%
X112540000Y-93000000D03*
%TO.P,C5,1*%
%TO.N,GND*%
X113500000Y-93000000D03*
%TD*%
%TO.P,C3,2*%
%TO.N,Net-(U1-REGOUT)*%
X112500000Y-98500000D03*
%TO.P,C3,1*%
%TO.N,GND*%
X113460000Y-98500000D03*
%TD*%
D15*
%TO.P,R2,2*%
%TO.N,+1V8*%
X111250000Y-90925000D03*
%TO.P,R2,1*%
%TO.N,Net-(U1-SCL{slash}SCLK)*%
X111250000Y-92575000D03*
%TD*%
%TO.P,R1,2*%
%TO.N,+1V8*%
X109500000Y-90925000D03*
%TO.P,R1,1*%
%TO.N,Net-(U1-SDA{slash}SDI)*%
X109500000Y-92575000D03*
%TD*%
D16*
%TO.P,U1,24,SDA/SDI*%
%TO.N,Net-(U1-SDA{slash}SDI)*%
X110500000Y-94400000D03*
%TO.P,U1,23,SCL/SCLK*%
%TO.N,Net-(U1-SCL{slash}SCLK)*%
X110900000Y-94400000D03*
%TO.P,U1,22,~{CS}*%
%TO.N,+1V8*%
X111300000Y-94400000D03*
%TO.P,U1,21,AUX_DA*%
%TO.N,unconnected-(U1-AUX_DA-Pad21)*%
X111700000Y-94400000D03*
%TO.P,U1,20,GND*%
%TO.N,GND*%
X112100000Y-94400000D03*
%TO.P,U1,19,RESV*%
%TO.N,unconnected-(U1-RESV-Pad19)*%
X112500000Y-94400000D03*
D17*
%TO.P,U1,18,GND*%
%TO.N,GND*%
X113000000Y-94900000D03*
%TO.P,U1,17,NC*%
%TO.N,unconnected-(U1-NC-Pad17)*%
X113000000Y-95300000D03*
%TO.P,U1,16,NC*%
%TO.N,unconnected-(U1-NC-Pad16)*%
X113000000Y-95700000D03*
%TO.P,U1,15,NC*%
%TO.N,unconnected-(U1-NC-Pad15)*%
X113000000Y-96100000D03*
%TO.P,U1,14,NC*%
%TO.N,unconnected-(U1-NC-Pad14)*%
X113000000Y-96500000D03*
%TO.P,U1,13,VDD*%
%TO.N,+1V8*%
X113000000Y-96900000D03*
D16*
%TO.P,U1,12,INT1*%
%TO.N,unconnected-(U1-INT1-Pad12)*%
X112500000Y-97400000D03*
%TO.P,U1,11,FSYNC*%
%TO.N,unconnected-(U1-FSYNC-Pad11)*%
X112100000Y-97400000D03*
%TO.P,U1,10,REGOUT*%
%TO.N,Net-(U1-REGOUT)*%
X111700000Y-97400000D03*
%TO.P,U1,9,SDO/AD0*%
%TO.N,GND*%
X111300000Y-97400000D03*
%TO.P,U1,8,VDDIO*%
%TO.N,+1V8*%
X110900000Y-97400000D03*
%TO.P,U1,7,AUX_CL*%
%TO.N,unconnected-(U1-AUX_CL-Pad7)*%
X110500000Y-97400000D03*
D17*
%TO.P,U1,6,NC*%
%TO.N,unconnected-(U1-NC-Pad6)*%
X110000000Y-96900000D03*
%TO.P,U1,5,NC*%
%TO.N,unconnected-(U1-NC-Pad5)*%
X110000000Y-96500000D03*
%TO.P,U1,4,NC*%
%TO.N,unconnected-(U1-NC-Pad4)*%
X110000000Y-96100000D03*
%TO.P,U1,3,NC*%
%TO.N,unconnected-(U1-NC-Pad3)*%
X110000000Y-95700000D03*
%TO.P,U1,2,NC*%
%TO.N,unconnected-(U1-NC-Pad2)*%
X110000000Y-95300000D03*
%TO.P,U1,1,NC*%
%TO.N,unconnected-(U1-NC-Pad1)*%
X110000000Y-94900000D03*
%TD*%
D18*
%TO.N,GND*%
X111469402Y-98460000D03*
X113300000Y-92043672D03*
X114000000Y-95000000D03*
X108500000Y-97250000D03*
X107500000Y-99750000D03*
X107500000Y-90250000D03*
X114000000Y-94250000D03*
X114000000Y-97550000D03*
%TD*%
D19*
%TO.N,GND*%
X108500000Y-97250000D02*
X108100004Y-96850004D01*
X108100004Y-96850004D02*
X107750000Y-96850004D01*
%TO.N,+1V8*%
X106900000Y-93750004D02*
X106249996Y-93750004D01*
X106249996Y-93750004D02*
X105250000Y-94750000D01*
X105250000Y-94750000D02*
X105250000Y-97348528D01*
X105250000Y-97348528D02*
X105751476Y-97850004D01*
X105751476Y-97850004D02*
X106510051Y-97850004D01*
X106510051Y-97850004D02*
X106900047Y-98240000D01*
X106900047Y-98240000D02*
X109260000Y-98240000D01*
D20*
%TO.N,GND*%
X106900000Y-97250004D02*
X106900000Y-96750003D01*
D19*
X107750000Y-96850004D02*
X106900000Y-96850004D01*
D20*
X107350000Y-97250004D02*
X107750000Y-96850004D01*
X106900000Y-97250004D02*
X107350000Y-97250004D01*
D19*
%TO.N,+1V8*%
X106900000Y-93750004D02*
X106900000Y-94150004D01*
D20*
%TO.N,Net-(U1-SCL{slash}SCLK)*%
X106900000Y-95000000D02*
X107400003Y-95000000D01*
X107400003Y-95000000D02*
X108000000Y-94400003D01*
X110675000Y-91750000D02*
X111500000Y-92575000D01*
X108000000Y-94400003D02*
X108000000Y-92750000D01*
X108000000Y-92750000D02*
X109000000Y-91750000D01*
X109000000Y-91750000D02*
X110675000Y-91750000D01*
D21*
%TO.N,GND*%
X110480000Y-98750000D02*
X110759999Y-98750000D01*
X110759999Y-98750000D02*
X111049999Y-98460000D01*
X111049999Y-98460000D02*
X111469402Y-98460000D01*
%TO.N,+1V8*%
X113838067Y-99110000D02*
X111250000Y-99110000D01*
X111250000Y-99110000D02*
X111000000Y-99360000D01*
X111000000Y-99360000D02*
X110130000Y-99360000D01*
X110130000Y-99360000D02*
X109520000Y-98750000D01*
D19*
X109260000Y-98240000D02*
X109520000Y-98500000D01*
D21*
X110900000Y-97400000D02*
X110900000Y-97771360D01*
X110900000Y-97771360D02*
X110531360Y-98140000D01*
X110531360Y-98140000D02*
X109360000Y-98140000D01*
X109360000Y-98140000D02*
X109260000Y-98240000D01*
D19*
X109520000Y-98500000D02*
X109520000Y-98688266D01*
%TO.N,GND*%
X111429402Y-98500000D02*
X111469402Y-98460000D01*
D21*
X111300000Y-98290598D02*
X111469402Y-98460000D01*
X111300000Y-97400000D02*
X111300000Y-98290598D01*
D19*
X113460000Y-98500000D02*
X113460000Y-98090000D01*
X113460000Y-98090000D02*
X114000000Y-97550000D01*
D21*
%TO.N,+1V8*%
X113000000Y-96900000D02*
X114269239Y-96900000D01*
X114269239Y-96900000D02*
X114650000Y-97280761D01*
X114650000Y-97280761D02*
X114650000Y-98298067D01*
X114650000Y-98298067D02*
X113838067Y-99110000D01*
D19*
%TO.N,GND*%
X113500000Y-92243672D02*
X113300000Y-92043672D01*
X113500000Y-93000000D02*
X113500000Y-92243672D01*
D21*
X113900000Y-94900000D02*
X114000000Y-95000000D01*
X113000000Y-94900000D02*
X113900000Y-94900000D01*
D19*
%TO.N,+1V8*%
X111500000Y-90925000D02*
X112500000Y-91925000D01*
X106900000Y-93750004D02*
X106900000Y-92850000D01*
D21*
X111300000Y-94400000D02*
X111300000Y-93950000D01*
X111300000Y-93950000D02*
X111975000Y-93275000D01*
D19*
X108825000Y-90925000D02*
X109500000Y-90925000D01*
X106900000Y-92850000D02*
X108825000Y-90925000D01*
D21*
X111987648Y-93275000D02*
X112500000Y-92762648D01*
D19*
X112500000Y-91925000D02*
X112500000Y-92750000D01*
X109500000Y-90925000D02*
X111500000Y-90925000D01*
%TO.N,GND*%
X107500000Y-90836396D02*
X107500000Y-90250000D01*
D21*
X112100000Y-94400000D02*
X112100000Y-94028640D01*
X113250000Y-94250000D02*
X114000000Y-94250000D01*
D19*
X104975000Y-91850003D02*
X106486393Y-91850003D01*
X104975000Y-99149997D02*
X106899997Y-99149997D01*
X106486393Y-91850003D02*
X107500000Y-90836396D01*
D21*
X112100000Y-94028640D02*
X112378640Y-93750000D01*
X112750000Y-93750000D02*
X113250000Y-94250000D01*
D19*
X106899997Y-99149997D02*
X107500000Y-99750000D01*
D21*
%TO.N,Net-(U1-REGOUT)*%
X111700000Y-97400000D02*
X111700000Y-97771360D01*
X112428640Y-98500000D02*
X112500000Y-98500000D01*
X111700000Y-97771360D02*
X112428640Y-98500000D01*
%TO.N,Net-(U1-SCL{slash}SCLK)*%
X110900000Y-94400000D02*
X110900000Y-93175000D01*
X110900000Y-93175000D02*
X111500000Y-92575000D01*
D20*
X106900000Y-94750004D02*
X106900000Y-95000000D01*
X106900000Y-95000000D02*
X106900000Y-95250003D01*
%TO.N,Net-(U1-SDA{slash}SDI)*%
X108948748Y-92575000D02*
X109500000Y-92575000D01*
X106900000Y-95750005D02*
X107649998Y-95750005D01*
D21*
X109500000Y-92575000D02*
X109425000Y-92575000D01*
X110500000Y-93575000D02*
X109500000Y-92575000D01*
D20*
X107649998Y-95750005D02*
X108511874Y-94888129D01*
D21*
X110500000Y-94400000D02*
X110500000Y-93575000D01*
D20*
X108511874Y-93011874D02*
X108948748Y-92575000D01*
X108511874Y-94888129D02*
X108511874Y-93011874D01*
X106900000Y-96000000D02*
X106900000Y-96250004D01*
X106900000Y-95750005D02*
X106900000Y-96000000D01*
D21*
%TO.N,GND*%
X112378640Y-93750000D02*
X112750000Y-93750000D01*
%TO.N,+1V8*%
X112500000Y-92762648D02*
X112500000Y-92750000D01*
X111975000Y-93275000D02*
X111987648Y-93275000D01*
%TD*%
M02*
