%TF.GenerationSoftware,KiCad,Pcbnew,8.0.6*%
%TF.CreationDate,2024-11-26T02:45:54-05:00*%
%TF.ProjectId,final_imu_module,66696e61-6c5f-4696-9d75-5f6d6f64756c,rev?*%
%TF.SameCoordinates,Original*%
%TF.FileFunction,Other,Comment*%
%FSLAX46Y46*%
G04 Gerber Fmt 4.6, Leading zero omitted, Abs format (unit mm)*
G04 Created by KiCad (PCBNEW 8.0.6) date 2024-11-26 02:45:54*
%MOMM*%
%LPD*%
G01*
G04 APERTURE LIST*
%ADD10C,0.040000*%
G04 APERTURE END LIST*
D10*
X110833333Y-96521396D02*
X110823809Y-96530920D01*
X110823809Y-96530920D02*
X110795238Y-96540443D01*
X110795238Y-96540443D02*
X110776190Y-96540443D01*
X110776190Y-96540443D02*
X110747619Y-96530920D01*
X110747619Y-96530920D02*
X110728571Y-96511872D01*
X110728571Y-96511872D02*
X110719048Y-96492824D01*
X110719048Y-96492824D02*
X110709524Y-96454729D01*
X110709524Y-96454729D02*
X110709524Y-96426158D01*
X110709524Y-96426158D02*
X110719048Y-96388062D01*
X110719048Y-96388062D02*
X110728571Y-96369015D01*
X110728571Y-96369015D02*
X110747619Y-96349967D01*
X110747619Y-96349967D02*
X110776190Y-96340443D01*
X110776190Y-96340443D02*
X110795238Y-96340443D01*
X110795238Y-96340443D02*
X110823809Y-96349967D01*
X110823809Y-96349967D02*
X110833333Y-96359491D01*
X110947619Y-96540443D02*
X110928571Y-96530920D01*
X110928571Y-96530920D02*
X110919048Y-96521396D01*
X110919048Y-96521396D02*
X110909524Y-96502348D01*
X110909524Y-96502348D02*
X110909524Y-96445205D01*
X110909524Y-96445205D02*
X110919048Y-96426158D01*
X110919048Y-96426158D02*
X110928571Y-96416634D01*
X110928571Y-96416634D02*
X110947619Y-96407110D01*
X110947619Y-96407110D02*
X110976190Y-96407110D01*
X110976190Y-96407110D02*
X110995238Y-96416634D01*
X110995238Y-96416634D02*
X111004762Y-96426158D01*
X111004762Y-96426158D02*
X111014286Y-96445205D01*
X111014286Y-96445205D02*
X111014286Y-96502348D01*
X111014286Y-96502348D02*
X111004762Y-96521396D01*
X111004762Y-96521396D02*
X110995238Y-96530920D01*
X110995238Y-96530920D02*
X110976190Y-96540443D01*
X110976190Y-96540443D02*
X110947619Y-96540443D01*
X111100000Y-96540443D02*
X111100000Y-96407110D01*
X111100000Y-96426158D02*
X111109523Y-96416634D01*
X111109523Y-96416634D02*
X111128571Y-96407110D01*
X111128571Y-96407110D02*
X111157142Y-96407110D01*
X111157142Y-96407110D02*
X111176190Y-96416634D01*
X111176190Y-96416634D02*
X111185714Y-96435681D01*
X111185714Y-96435681D02*
X111185714Y-96540443D01*
X111185714Y-96435681D02*
X111195238Y-96416634D01*
X111195238Y-96416634D02*
X111214285Y-96407110D01*
X111214285Y-96407110D02*
X111242857Y-96407110D01*
X111242857Y-96407110D02*
X111261904Y-96416634D01*
X111261904Y-96416634D02*
X111271428Y-96435681D01*
X111271428Y-96435681D02*
X111271428Y-96540443D01*
X111366667Y-96407110D02*
X111366667Y-96607110D01*
X111366667Y-96416634D02*
X111385714Y-96407110D01*
X111385714Y-96407110D02*
X111423809Y-96407110D01*
X111423809Y-96407110D02*
X111442857Y-96416634D01*
X111442857Y-96416634D02*
X111452381Y-96426158D01*
X111452381Y-96426158D02*
X111461905Y-96445205D01*
X111461905Y-96445205D02*
X111461905Y-96502348D01*
X111461905Y-96502348D02*
X111452381Y-96521396D01*
X111452381Y-96521396D02*
X111442857Y-96530920D01*
X111442857Y-96530920D02*
X111423809Y-96540443D01*
X111423809Y-96540443D02*
X111385714Y-96540443D01*
X111385714Y-96540443D02*
X111366667Y-96530920D01*
X111576190Y-96540443D02*
X111557142Y-96530920D01*
X111557142Y-96530920D02*
X111547619Y-96521396D01*
X111547619Y-96521396D02*
X111538095Y-96502348D01*
X111538095Y-96502348D02*
X111538095Y-96445205D01*
X111538095Y-96445205D02*
X111547619Y-96426158D01*
X111547619Y-96426158D02*
X111557142Y-96416634D01*
X111557142Y-96416634D02*
X111576190Y-96407110D01*
X111576190Y-96407110D02*
X111604761Y-96407110D01*
X111604761Y-96407110D02*
X111623809Y-96416634D01*
X111623809Y-96416634D02*
X111633333Y-96426158D01*
X111633333Y-96426158D02*
X111642857Y-96445205D01*
X111642857Y-96445205D02*
X111642857Y-96502348D01*
X111642857Y-96502348D02*
X111633333Y-96521396D01*
X111633333Y-96521396D02*
X111623809Y-96530920D01*
X111623809Y-96530920D02*
X111604761Y-96540443D01*
X111604761Y-96540443D02*
X111576190Y-96540443D01*
X111728571Y-96407110D02*
X111728571Y-96540443D01*
X111728571Y-96426158D02*
X111738094Y-96416634D01*
X111738094Y-96416634D02*
X111757142Y-96407110D01*
X111757142Y-96407110D02*
X111785713Y-96407110D01*
X111785713Y-96407110D02*
X111804761Y-96416634D01*
X111804761Y-96416634D02*
X111814285Y-96435681D01*
X111814285Y-96435681D02*
X111814285Y-96540443D01*
X111985713Y-96530920D02*
X111966665Y-96540443D01*
X111966665Y-96540443D02*
X111928570Y-96540443D01*
X111928570Y-96540443D02*
X111909523Y-96530920D01*
X111909523Y-96530920D02*
X111899999Y-96511872D01*
X111899999Y-96511872D02*
X111899999Y-96435681D01*
X111899999Y-96435681D02*
X111909523Y-96416634D01*
X111909523Y-96416634D02*
X111928570Y-96407110D01*
X111928570Y-96407110D02*
X111966665Y-96407110D01*
X111966665Y-96407110D02*
X111985713Y-96416634D01*
X111985713Y-96416634D02*
X111995237Y-96435681D01*
X111995237Y-96435681D02*
X111995237Y-96454729D01*
X111995237Y-96454729D02*
X111899999Y-96473777D01*
X112080952Y-96407110D02*
X112080952Y-96540443D01*
X112080952Y-96426158D02*
X112090475Y-96416634D01*
X112090475Y-96416634D02*
X112109523Y-96407110D01*
X112109523Y-96407110D02*
X112138094Y-96407110D01*
X112138094Y-96407110D02*
X112157142Y-96416634D01*
X112157142Y-96416634D02*
X112166666Y-96435681D01*
X112166666Y-96435681D02*
X112166666Y-96540443D01*
X112233332Y-96407110D02*
X112309523Y-96407110D01*
X112261904Y-96340443D02*
X112261904Y-96511872D01*
X112261904Y-96511872D02*
X112271427Y-96530920D01*
X112271427Y-96530920D02*
X112290475Y-96540443D01*
X112290475Y-96540443D02*
X112309523Y-96540443D01*
X110880953Y-95490443D02*
X110880953Y-95290443D01*
X110995238Y-95490443D02*
X110909524Y-95376158D01*
X110995238Y-95290443D02*
X110880953Y-95404729D01*
X111080953Y-95385681D02*
X111147619Y-95385681D01*
X111176191Y-95490443D02*
X111080953Y-95490443D01*
X111080953Y-95490443D02*
X111080953Y-95290443D01*
X111080953Y-95290443D02*
X111176191Y-95290443D01*
X111261905Y-95385681D02*
X111328571Y-95385681D01*
X111357143Y-95490443D02*
X111261905Y-95490443D01*
X111261905Y-95490443D02*
X111261905Y-95290443D01*
X111261905Y-95290443D02*
X111357143Y-95290443D01*
X111442857Y-95490443D02*
X111442857Y-95290443D01*
X111442857Y-95290443D02*
X111519047Y-95290443D01*
X111519047Y-95290443D02*
X111538095Y-95299967D01*
X111538095Y-95299967D02*
X111547618Y-95309491D01*
X111547618Y-95309491D02*
X111557142Y-95328539D01*
X111557142Y-95328539D02*
X111557142Y-95357110D01*
X111557142Y-95357110D02*
X111547618Y-95376158D01*
X111547618Y-95376158D02*
X111538095Y-95385681D01*
X111538095Y-95385681D02*
X111519047Y-95395205D01*
X111519047Y-95395205D02*
X111442857Y-95395205D01*
X111680952Y-95290443D02*
X111719047Y-95290443D01*
X111719047Y-95290443D02*
X111738095Y-95299967D01*
X111738095Y-95299967D02*
X111757142Y-95319015D01*
X111757142Y-95319015D02*
X111766666Y-95357110D01*
X111766666Y-95357110D02*
X111766666Y-95423777D01*
X111766666Y-95423777D02*
X111757142Y-95461872D01*
X111757142Y-95461872D02*
X111738095Y-95480920D01*
X111738095Y-95480920D02*
X111719047Y-95490443D01*
X111719047Y-95490443D02*
X111680952Y-95490443D01*
X111680952Y-95490443D02*
X111661904Y-95480920D01*
X111661904Y-95480920D02*
X111642857Y-95461872D01*
X111642857Y-95461872D02*
X111633333Y-95423777D01*
X111633333Y-95423777D02*
X111633333Y-95357110D01*
X111633333Y-95357110D02*
X111642857Y-95319015D01*
X111642857Y-95319015D02*
X111661904Y-95299967D01*
X111661904Y-95299967D02*
X111680952Y-95290443D01*
X111852381Y-95290443D02*
X111852381Y-95452348D01*
X111852381Y-95452348D02*
X111861904Y-95471396D01*
X111861904Y-95471396D02*
X111871428Y-95480920D01*
X111871428Y-95480920D02*
X111890476Y-95490443D01*
X111890476Y-95490443D02*
X111928571Y-95490443D01*
X111928571Y-95490443D02*
X111947619Y-95480920D01*
X111947619Y-95480920D02*
X111957142Y-95471396D01*
X111957142Y-95471396D02*
X111966666Y-95452348D01*
X111966666Y-95452348D02*
X111966666Y-95290443D01*
X112033333Y-95290443D02*
X112147619Y-95290443D01*
X112090476Y-95490443D02*
X112090476Y-95290443D01*
X110471428Y-96240443D02*
X110471428Y-96040443D01*
X110471428Y-96040443D02*
X110519047Y-96040443D01*
X110519047Y-96040443D02*
X110547618Y-96049967D01*
X110547618Y-96049967D02*
X110566666Y-96069015D01*
X110566666Y-96069015D02*
X110576189Y-96088062D01*
X110576189Y-96088062D02*
X110585713Y-96126158D01*
X110585713Y-96126158D02*
X110585713Y-96154729D01*
X110585713Y-96154729D02*
X110576189Y-96192824D01*
X110576189Y-96192824D02*
X110566666Y-96211872D01*
X110566666Y-96211872D02*
X110547618Y-96230920D01*
X110547618Y-96230920D02*
X110519047Y-96240443D01*
X110519047Y-96240443D02*
X110471428Y-96240443D01*
X110671428Y-96240443D02*
X110671428Y-96107110D01*
X110671428Y-96040443D02*
X110661904Y-96049967D01*
X110661904Y-96049967D02*
X110671428Y-96059491D01*
X110671428Y-96059491D02*
X110680951Y-96049967D01*
X110680951Y-96049967D02*
X110671428Y-96040443D01*
X110671428Y-96040443D02*
X110671428Y-96059491D01*
X110766666Y-96240443D02*
X110766666Y-96107110D01*
X110766666Y-96145205D02*
X110776189Y-96126158D01*
X110776189Y-96126158D02*
X110785713Y-96116634D01*
X110785713Y-96116634D02*
X110804761Y-96107110D01*
X110804761Y-96107110D02*
X110823808Y-96107110D01*
X110966666Y-96230920D02*
X110947618Y-96240443D01*
X110947618Y-96240443D02*
X110909523Y-96240443D01*
X110909523Y-96240443D02*
X110890476Y-96230920D01*
X110890476Y-96230920D02*
X110880952Y-96211872D01*
X110880952Y-96211872D02*
X110880952Y-96135681D01*
X110880952Y-96135681D02*
X110890476Y-96116634D01*
X110890476Y-96116634D02*
X110909523Y-96107110D01*
X110909523Y-96107110D02*
X110947618Y-96107110D01*
X110947618Y-96107110D02*
X110966666Y-96116634D01*
X110966666Y-96116634D02*
X110976190Y-96135681D01*
X110976190Y-96135681D02*
X110976190Y-96154729D01*
X110976190Y-96154729D02*
X110880952Y-96173777D01*
X111147619Y-96230920D02*
X111128571Y-96240443D01*
X111128571Y-96240443D02*
X111090476Y-96240443D01*
X111090476Y-96240443D02*
X111071428Y-96230920D01*
X111071428Y-96230920D02*
X111061905Y-96221396D01*
X111061905Y-96221396D02*
X111052381Y-96202348D01*
X111052381Y-96202348D02*
X111052381Y-96145205D01*
X111052381Y-96145205D02*
X111061905Y-96126158D01*
X111061905Y-96126158D02*
X111071428Y-96116634D01*
X111071428Y-96116634D02*
X111090476Y-96107110D01*
X111090476Y-96107110D02*
X111128571Y-96107110D01*
X111128571Y-96107110D02*
X111147619Y-96116634D01*
X111204762Y-96107110D02*
X111280953Y-96107110D01*
X111233334Y-96040443D02*
X111233334Y-96211872D01*
X111233334Y-96211872D02*
X111242857Y-96230920D01*
X111242857Y-96230920D02*
X111261905Y-96240443D01*
X111261905Y-96240443D02*
X111280953Y-96240443D01*
X111376191Y-96240443D02*
X111357143Y-96230920D01*
X111357143Y-96230920D02*
X111347620Y-96211872D01*
X111347620Y-96211872D02*
X111347620Y-96040443D01*
X111433334Y-96107110D02*
X111480953Y-96240443D01*
X111528572Y-96107110D02*
X111480953Y-96240443D01*
X111480953Y-96240443D02*
X111461905Y-96288062D01*
X111461905Y-96288062D02*
X111452382Y-96297586D01*
X111452382Y-96297586D02*
X111433334Y-96307110D01*
X111823810Y-96135681D02*
X111852382Y-96145205D01*
X111852382Y-96145205D02*
X111861905Y-96154729D01*
X111861905Y-96154729D02*
X111871429Y-96173777D01*
X111871429Y-96173777D02*
X111871429Y-96202348D01*
X111871429Y-96202348D02*
X111861905Y-96221396D01*
X111861905Y-96221396D02*
X111852382Y-96230920D01*
X111852382Y-96230920D02*
X111833334Y-96240443D01*
X111833334Y-96240443D02*
X111757144Y-96240443D01*
X111757144Y-96240443D02*
X111757144Y-96040443D01*
X111757144Y-96040443D02*
X111823810Y-96040443D01*
X111823810Y-96040443D02*
X111842858Y-96049967D01*
X111842858Y-96049967D02*
X111852382Y-96059491D01*
X111852382Y-96059491D02*
X111861905Y-96078539D01*
X111861905Y-96078539D02*
X111861905Y-96097586D01*
X111861905Y-96097586D02*
X111852382Y-96116634D01*
X111852382Y-96116634D02*
X111842858Y-96126158D01*
X111842858Y-96126158D02*
X111823810Y-96135681D01*
X111823810Y-96135681D02*
X111757144Y-96135681D01*
X112033334Y-96230920D02*
X112014286Y-96240443D01*
X112014286Y-96240443D02*
X111976191Y-96240443D01*
X111976191Y-96240443D02*
X111957144Y-96230920D01*
X111957144Y-96230920D02*
X111947620Y-96211872D01*
X111947620Y-96211872D02*
X111947620Y-96135681D01*
X111947620Y-96135681D02*
X111957144Y-96116634D01*
X111957144Y-96116634D02*
X111976191Y-96107110D01*
X111976191Y-96107110D02*
X112014286Y-96107110D01*
X112014286Y-96107110D02*
X112033334Y-96116634D01*
X112033334Y-96116634D02*
X112042858Y-96135681D01*
X112042858Y-96135681D02*
X112042858Y-96154729D01*
X112042858Y-96154729D02*
X111947620Y-96173777D01*
X112157144Y-96240443D02*
X112138096Y-96230920D01*
X112138096Y-96230920D02*
X112128573Y-96211872D01*
X112128573Y-96211872D02*
X112128573Y-96040443D01*
X112261906Y-96240443D02*
X112242858Y-96230920D01*
X112242858Y-96230920D02*
X112233335Y-96221396D01*
X112233335Y-96221396D02*
X112223811Y-96202348D01*
X112223811Y-96202348D02*
X112223811Y-96145205D01*
X112223811Y-96145205D02*
X112233335Y-96126158D01*
X112233335Y-96126158D02*
X112242858Y-96116634D01*
X112242858Y-96116634D02*
X112261906Y-96107110D01*
X112261906Y-96107110D02*
X112290477Y-96107110D01*
X112290477Y-96107110D02*
X112309525Y-96116634D01*
X112309525Y-96116634D02*
X112319049Y-96126158D01*
X112319049Y-96126158D02*
X112328573Y-96145205D01*
X112328573Y-96145205D02*
X112328573Y-96202348D01*
X112328573Y-96202348D02*
X112319049Y-96221396D01*
X112319049Y-96221396D02*
X112309525Y-96230920D01*
X112309525Y-96230920D02*
X112290477Y-96240443D01*
X112290477Y-96240443D02*
X112261906Y-96240443D01*
X112395239Y-96107110D02*
X112433334Y-96240443D01*
X112433334Y-96240443D02*
X112471429Y-96145205D01*
X112471429Y-96145205D02*
X112509525Y-96240443D01*
X112509525Y-96240443D02*
X112547620Y-96107110D01*
X110757143Y-95890443D02*
X110757143Y-95690443D01*
X110757143Y-95690443D02*
X110871428Y-95890443D01*
X110871428Y-95890443D02*
X110871428Y-95690443D01*
X110995238Y-95890443D02*
X110976190Y-95880920D01*
X110976190Y-95880920D02*
X110966667Y-95871396D01*
X110966667Y-95871396D02*
X110957143Y-95852348D01*
X110957143Y-95852348D02*
X110957143Y-95795205D01*
X110957143Y-95795205D02*
X110966667Y-95776158D01*
X110966667Y-95776158D02*
X110976190Y-95766634D01*
X110976190Y-95766634D02*
X110995238Y-95757110D01*
X110995238Y-95757110D02*
X111023809Y-95757110D01*
X111023809Y-95757110D02*
X111042857Y-95766634D01*
X111042857Y-95766634D02*
X111052381Y-95776158D01*
X111052381Y-95776158D02*
X111061905Y-95795205D01*
X111061905Y-95795205D02*
X111061905Y-95852348D01*
X111061905Y-95852348D02*
X111052381Y-95871396D01*
X111052381Y-95871396D02*
X111042857Y-95880920D01*
X111042857Y-95880920D02*
X111023809Y-95890443D01*
X111023809Y-95890443D02*
X110995238Y-95890443D01*
X111414285Y-95871396D02*
X111404761Y-95880920D01*
X111404761Y-95880920D02*
X111376190Y-95890443D01*
X111376190Y-95890443D02*
X111357142Y-95890443D01*
X111357142Y-95890443D02*
X111328571Y-95880920D01*
X111328571Y-95880920D02*
X111309523Y-95861872D01*
X111309523Y-95861872D02*
X111300000Y-95842824D01*
X111300000Y-95842824D02*
X111290476Y-95804729D01*
X111290476Y-95804729D02*
X111290476Y-95776158D01*
X111290476Y-95776158D02*
X111300000Y-95738062D01*
X111300000Y-95738062D02*
X111309523Y-95719015D01*
X111309523Y-95719015D02*
X111328571Y-95699967D01*
X111328571Y-95699967D02*
X111357142Y-95690443D01*
X111357142Y-95690443D02*
X111376190Y-95690443D01*
X111376190Y-95690443D02*
X111404761Y-95699967D01*
X111404761Y-95699967D02*
X111414285Y-95709491D01*
X111528571Y-95890443D02*
X111509523Y-95880920D01*
X111509523Y-95880920D02*
X111500000Y-95871396D01*
X111500000Y-95871396D02*
X111490476Y-95852348D01*
X111490476Y-95852348D02*
X111490476Y-95795205D01*
X111490476Y-95795205D02*
X111500000Y-95776158D01*
X111500000Y-95776158D02*
X111509523Y-95766634D01*
X111509523Y-95766634D02*
X111528571Y-95757110D01*
X111528571Y-95757110D02*
X111557142Y-95757110D01*
X111557142Y-95757110D02*
X111576190Y-95766634D01*
X111576190Y-95766634D02*
X111585714Y-95776158D01*
X111585714Y-95776158D02*
X111595238Y-95795205D01*
X111595238Y-95795205D02*
X111595238Y-95852348D01*
X111595238Y-95852348D02*
X111585714Y-95871396D01*
X111585714Y-95871396D02*
X111576190Y-95880920D01*
X111576190Y-95880920D02*
X111557142Y-95890443D01*
X111557142Y-95890443D02*
X111528571Y-95890443D01*
X111680952Y-95757110D02*
X111680952Y-95957110D01*
X111680952Y-95766634D02*
X111699999Y-95757110D01*
X111699999Y-95757110D02*
X111738094Y-95757110D01*
X111738094Y-95757110D02*
X111757142Y-95766634D01*
X111757142Y-95766634D02*
X111766666Y-95776158D01*
X111766666Y-95776158D02*
X111776190Y-95795205D01*
X111776190Y-95795205D02*
X111776190Y-95852348D01*
X111776190Y-95852348D02*
X111766666Y-95871396D01*
X111766666Y-95871396D02*
X111757142Y-95880920D01*
X111757142Y-95880920D02*
X111738094Y-95890443D01*
X111738094Y-95890443D02*
X111699999Y-95890443D01*
X111699999Y-95890443D02*
X111680952Y-95880920D01*
X111861904Y-95757110D02*
X111861904Y-95957110D01*
X111861904Y-95766634D02*
X111880951Y-95757110D01*
X111880951Y-95757110D02*
X111919046Y-95757110D01*
X111919046Y-95757110D02*
X111938094Y-95766634D01*
X111938094Y-95766634D02*
X111947618Y-95776158D01*
X111947618Y-95776158D02*
X111957142Y-95795205D01*
X111957142Y-95795205D02*
X111957142Y-95852348D01*
X111957142Y-95852348D02*
X111947618Y-95871396D01*
X111947618Y-95871396D02*
X111938094Y-95880920D01*
X111938094Y-95880920D02*
X111919046Y-95890443D01*
X111919046Y-95890443D02*
X111880951Y-95890443D01*
X111880951Y-95890443D02*
X111861904Y-95880920D01*
X112119046Y-95880920D02*
X112099998Y-95890443D01*
X112099998Y-95890443D02*
X112061903Y-95890443D01*
X112061903Y-95890443D02*
X112042856Y-95880920D01*
X112042856Y-95880920D02*
X112033332Y-95861872D01*
X112033332Y-95861872D02*
X112033332Y-95785681D01*
X112033332Y-95785681D02*
X112042856Y-95766634D01*
X112042856Y-95766634D02*
X112061903Y-95757110D01*
X112061903Y-95757110D02*
X112099998Y-95757110D01*
X112099998Y-95757110D02*
X112119046Y-95766634D01*
X112119046Y-95766634D02*
X112128570Y-95785681D01*
X112128570Y-95785681D02*
X112128570Y-95804729D01*
X112128570Y-95804729D02*
X112033332Y-95823777D01*
X112214285Y-95890443D02*
X112214285Y-95757110D01*
X112214285Y-95795205D02*
X112223808Y-95776158D01*
X112223808Y-95776158D02*
X112233332Y-95766634D01*
X112233332Y-95766634D02*
X112252380Y-95757110D01*
X112252380Y-95757110D02*
X112271427Y-95757110D01*
M02*
