%TF.GenerationSoftware,KiCad,Pcbnew,8.0.5*%
%TF.CreationDate,2024-10-09T18:33:24-04:00*%
%TF.ProjectId,PostureBestICM20948,506f7374-7572-4654-9265-737449434d32,rev?*%
%TF.SameCoordinates,Original*%
%TF.FileFunction,Paste,Top*%
%TF.FilePolarity,Positive*%
%FSLAX46Y46*%
G04 Gerber Fmt 4.6, Leading zero omitted, Abs format (unit mm)*
G04 Created by KiCad (PCBNEW 8.0.5) date 2024-10-09 18:33:24*
%MOMM*%
%LPD*%
G01*
G04 APERTURE LIST*
G04 Aperture macros list*
%AMRoundRect*
0 Rectangle with rounded corners*
0 $1 Rounding radius*
0 $2 $3 $4 $5 $6 $7 $8 $9 X,Y pos of 4 corners*
0 Add a 4 corners polygon primitive as box body*
4,1,4,$2,$3,$4,$5,$6,$7,$8,$9,$2,$3,0*
0 Add four circle primitives for the rounded corners*
1,1,$1+$1,$2,$3*
1,1,$1+$1,$4,$5*
1,1,$1+$1,$6,$7*
1,1,$1+$1,$8,$9*
0 Add four rect primitives between the rounded corners*
20,1,$1+$1,$2,$3,$4,$5,0*
20,1,$1+$1,$4,$5,$6,$7,0*
20,1,$1+$1,$6,$7,$8,$9,0*
20,1,$1+$1,$8,$9,$2,$3,0*%
G04 Aperture macros list end*
%ADD10RoundRect,0.250000X0.250000X0.475000X-0.250000X0.475000X-0.250000X-0.475000X0.250000X-0.475000X0*%
%ADD11RoundRect,0.140000X-0.170000X0.140000X-0.170000X-0.140000X0.170000X-0.140000X0.170000X0.140000X0*%
%ADD12RoundRect,0.200000X0.275000X-0.200000X0.275000X0.200000X-0.275000X0.200000X-0.275000X-0.200000X0*%
%ADD13RoundRect,0.140000X0.140000X0.170000X-0.140000X0.170000X-0.140000X-0.170000X0.140000X-0.170000X0*%
%ADD14R,1.500000X0.700000*%
%ADD15R,0.800000X1.000000*%
%ADD16RoundRect,0.140000X-0.140000X-0.170000X0.140000X-0.170000X0.140000X0.170000X-0.140000X0.170000X0*%
%ADD17RoundRect,0.375000X-0.375000X0.625000X-0.375000X-0.625000X0.375000X-0.625000X0.375000X0.625000X0*%
%ADD18RoundRect,0.500000X-1.400000X0.500000X-1.400000X-0.500000X1.400000X-0.500000X1.400000X0.500000X0*%
%ADD19RoundRect,0.050000X-0.225000X-0.050000X0.225000X-0.050000X0.225000X0.050000X-0.225000X0.050000X0*%
%ADD20RoundRect,0.050000X0.050000X-0.225000X0.050000X0.225000X-0.050000X0.225000X-0.050000X-0.225000X0*%
G04 APERTURE END LIST*
D10*
%TO.C,C1*%
X112950000Y-103700000D03*
X111050000Y-103700000D03*
%TD*%
D11*
%TO.C,C2*%
X120000000Y-90020000D03*
X120000000Y-90980000D03*
%TD*%
D12*
%TO.C,R2*%
X115900000Y-87625000D03*
X115900000Y-85975000D03*
%TD*%
D13*
%TO.C,C4*%
X113230000Y-97300000D03*
X112270000Y-97300000D03*
%TD*%
D14*
%TO.C,SW1*%
X123750000Y-95500000D03*
X123750000Y-92500000D03*
X123750000Y-91000000D03*
D15*
X124400000Y-96900000D03*
X124400000Y-89600000D03*
X126600000Y-96900000D03*
X126600000Y-89600000D03*
%TD*%
D16*
%TO.C,C3*%
X117540000Y-94400000D03*
X118500000Y-94400000D03*
%TD*%
D13*
%TO.C,C5*%
X116520000Y-94400000D03*
X115560000Y-94400000D03*
%TD*%
D12*
%TO.C,R1*%
X117500000Y-87625000D03*
X117500000Y-85975000D03*
%TD*%
D17*
%TO.C,U2*%
X119800000Y-97350000D03*
X117500000Y-97350000D03*
D18*
X117500000Y-103650000D03*
D17*
X115200000Y-97350000D03*
%TD*%
D19*
%TO.C,U1*%
X115750000Y-90000000D03*
X115750000Y-90400000D03*
X115750000Y-90800000D03*
X115750000Y-91200000D03*
X115750000Y-91600000D03*
X115750000Y-92000000D03*
D20*
X116250000Y-92500000D03*
X116650000Y-92500000D03*
X117050000Y-92500000D03*
X117450000Y-92500000D03*
X117850000Y-92500000D03*
X118250000Y-92500000D03*
D19*
X118750000Y-92000000D03*
X118750000Y-91600000D03*
X118750000Y-91200000D03*
X118750000Y-90800000D03*
X118750000Y-90400000D03*
X118750000Y-90000000D03*
D20*
X118250000Y-89500000D03*
X117850000Y-89500000D03*
X117450000Y-89500000D03*
X117050000Y-89500000D03*
X116650000Y-89500000D03*
X116250000Y-89500000D03*
%TD*%
M02*
