%TF.GenerationSoftware,KiCad,Pcbnew,8.0.6*%
%TF.CreationDate,2024-11-26T20:51:27-05:00*%
%TF.ProjectId,pb_mobo_final,70625f6d-6f62-46f5-9f66-696e616c2e6b,rev?*%
%TF.SameCoordinates,Original*%
%TF.FileFunction,Copper,L1,Top*%
%TF.FilePolarity,Positive*%
%FSLAX46Y46*%
G04 Gerber Fmt 4.6, Leading zero omitted, Abs format (unit mm)*
G04 Created by KiCad (PCBNEW 8.0.6) date 2024-11-26 20:51:27*
%MOMM*%
%LPD*%
G01*
G04 APERTURE LIST*
G04 Aperture macros list*
%AMRoundRect*
0 Rectangle with rounded corners*
0 $1 Rounding radius*
0 $2 $3 $4 $5 $6 $7 $8 $9 X,Y pos of 4 corners*
0 Add a 4 corners polygon primitive as box body*
4,1,4,$2,$3,$4,$5,$6,$7,$8,$9,$2,$3,0*
0 Add four circle primitives for the rounded corners*
1,1,$1+$1,$2,$3*
1,1,$1+$1,$4,$5*
1,1,$1+$1,$6,$7*
1,1,$1+$1,$8,$9*
0 Add four rect primitives between the rounded corners*
20,1,$1+$1,$2,$3,$4,$5,0*
20,1,$1+$1,$4,$5,$6,$7,0*
20,1,$1+$1,$6,$7,$8,$9,0*
20,1,$1+$1,$8,$9,$2,$3,0*%
G04 Aperture macros list end*
%TA.AperFunction,EtchedComponent*%
%ADD10C,0.000000*%
%TD*%
%TA.AperFunction,WasherPad*%
%ADD11C,1.300000*%
%TD*%
%TA.AperFunction,SMDPad,CuDef*%
%ADD12RoundRect,0.050000X-0.050000X0.225000X-0.050000X-0.225000X0.050000X-0.225000X0.050000X0.225000X0*%
%TD*%
%TA.AperFunction,SMDPad,CuDef*%
%ADD13RoundRect,0.050000X-0.225000X-0.050000X0.225000X-0.050000X0.225000X0.050000X-0.225000X0.050000X0*%
%TD*%
%TA.AperFunction,SMDPad,CuDef*%
%ADD14RoundRect,0.250000X-0.250000X-0.475000X0.250000X-0.475000X0.250000X0.475000X-0.250000X0.475000X0*%
%TD*%
%TA.AperFunction,SMDPad,CuDef*%
%ADD15RoundRect,0.140000X0.170000X-0.140000X0.170000X0.140000X-0.170000X0.140000X-0.170000X-0.140000X0*%
%TD*%
%TA.AperFunction,SMDPad,CuDef*%
%ADD16RoundRect,0.140000X-0.170000X0.140000X-0.170000X-0.140000X0.170000X-0.140000X0.170000X0.140000X0*%
%TD*%
%TA.AperFunction,SMDPad,CuDef*%
%ADD17RoundRect,0.140000X-0.140000X-0.170000X0.140000X-0.170000X0.140000X0.170000X-0.140000X0.170000X0*%
%TD*%
%TA.AperFunction,SMDPad,CuDef*%
%ADD18RoundRect,0.375000X-0.625000X-0.375000X0.625000X-0.375000X0.625000X0.375000X-0.625000X0.375000X0*%
%TD*%
%TA.AperFunction,SMDPad,CuDef*%
%ADD19RoundRect,0.500000X-0.500000X-1.400000X0.500000X-1.400000X0.500000X1.400000X-0.500000X1.400000X0*%
%TD*%
%TA.AperFunction,ComponentPad*%
%ADD20R,1.700000X1.700000*%
%TD*%
%TA.AperFunction,ComponentPad*%
%ADD21O,1.700000X1.700000*%
%TD*%
%TA.AperFunction,SMDPad,CuDef*%
%ADD22RoundRect,0.200000X0.275000X-0.200000X0.275000X0.200000X-0.275000X0.200000X-0.275000X-0.200000X0*%
%TD*%
%TA.AperFunction,ConnectorPad*%
%ADD23R,0.400000X0.400000*%
%TD*%
%TA.AperFunction,SMDPad,CuDef*%
%ADD24R,3.049999X1.300000*%
%TD*%
%TA.AperFunction,SMDPad,CuDef*%
%ADD25R,0.800000X0.300000*%
%TD*%
%TA.AperFunction,SMDPad,CuDef*%
%ADD26R,0.300000X0.800000*%
%TD*%
%TA.AperFunction,SMDPad,CuDef*%
%ADD27R,1.300000X3.049999*%
%TD*%
%TA.AperFunction,SMDPad,CuDef*%
%ADD28RoundRect,0.150000X-0.625000X0.150000X-0.625000X-0.150000X0.625000X-0.150000X0.625000X0.150000X0*%
%TD*%
%TA.AperFunction,SMDPad,CuDef*%
%ADD29RoundRect,0.250000X-0.650000X0.350000X-0.650000X-0.350000X0.650000X-0.350000X0.650000X0.350000X0*%
%TD*%
%TA.AperFunction,SMDPad,CuDef*%
%ADD30RoundRect,0.200000X0.200000X0.275000X-0.200000X0.275000X-0.200000X-0.275000X0.200000X-0.275000X0*%
%TD*%
%TA.AperFunction,SMDPad,CuDef*%
%ADD31RoundRect,0.225000X-0.225000X-0.250000X0.225000X-0.250000X0.225000X0.250000X-0.225000X0.250000X0*%
%TD*%
%TA.AperFunction,SMDPad,CuDef*%
%ADD32R,0.900000X1.000000*%
%TD*%
%TA.AperFunction,SMDPad,CuDef*%
%ADD33R,1.700000X0.550000*%
%TD*%
%TA.AperFunction,SMDPad,CuDef*%
%ADD34RoundRect,0.140000X0.140000X0.170000X-0.140000X0.170000X-0.140000X-0.170000X0.140000X-0.170000X0*%
%TD*%
%TA.AperFunction,SMDPad,CuDef*%
%ADD35RoundRect,0.135000X-0.135000X-0.185000X0.135000X-0.185000X0.135000X0.185000X-0.135000X0.185000X0*%
%TD*%
%TA.AperFunction,SMDPad,CuDef*%
%ADD36RoundRect,0.062500X0.062500X-0.375000X0.062500X0.375000X-0.062500X0.375000X-0.062500X-0.375000X0*%
%TD*%
%TA.AperFunction,SMDPad,CuDef*%
%ADD37RoundRect,0.062500X0.375000X-0.062500X0.375000X0.062500X-0.375000X0.062500X-0.375000X-0.062500X0*%
%TD*%
%TA.AperFunction,HeatsinkPad*%
%ADD38R,5.600000X5.600000*%
%TD*%
%TA.AperFunction,SMDPad,CuDef*%
%ADD39RoundRect,0.147500X-0.147500X-0.172500X0.147500X-0.172500X0.147500X0.172500X-0.147500X0.172500X0*%
%TD*%
%TA.AperFunction,SMDPad,CuDef*%
%ADD40RoundRect,0.250000X0.475000X-0.250000X0.475000X0.250000X-0.475000X0.250000X-0.475000X-0.250000X0*%
%TD*%
%TA.AperFunction,SMDPad,CuDef*%
%ADD41RoundRect,0.375000X0.625000X0.375000X-0.625000X0.375000X-0.625000X-0.375000X0.625000X-0.375000X0*%
%TD*%
%TA.AperFunction,SMDPad,CuDef*%
%ADD42RoundRect,0.500000X0.500000X1.400000X-0.500000X1.400000X-0.500000X-1.400000X0.500000X-1.400000X0*%
%TD*%
%TA.AperFunction,SMDPad,CuDef*%
%ADD43R,0.800000X0.900000*%
%TD*%
%TA.AperFunction,SMDPad,CuDef*%
%ADD44R,0.457200X0.254000*%
%TD*%
%TA.AperFunction,SMDPad,CuDef*%
%ADD45R,0.279400X0.711200*%
%TD*%
%TA.AperFunction,SMDPad,CuDef*%
%ADD46RoundRect,0.135000X0.135000X0.185000X-0.135000X0.185000X-0.135000X-0.185000X0.135000X-0.185000X0*%
%TD*%
%TA.AperFunction,SMDPad,CuDef*%
%ADD47RoundRect,0.250000X-0.475000X0.250000X-0.475000X-0.250000X0.475000X-0.250000X0.475000X0.250000X0*%
%TD*%
%TA.AperFunction,SMDPad,CuDef*%
%ADD48R,1.473200X0.355600*%
%TD*%
%TA.AperFunction,ViaPad*%
%ADD49C,0.700000*%
%TD*%
%TA.AperFunction,Conductor*%
%ADD50C,0.500000*%
%TD*%
%TA.AperFunction,Conductor*%
%ADD51C,0.400000*%
%TD*%
%TA.AperFunction,Conductor*%
%ADD52C,0.700000*%
%TD*%
%TA.AperFunction,Conductor*%
%ADD53C,0.300000*%
%TD*%
%TA.AperFunction,Conductor*%
%ADD54C,0.200000*%
%TD*%
G04 APERTURE END LIST*
%TA.AperFunction,EtchedComponent*%
%TO.C,AE1*%
G36*
X207912500Y-83312500D02*
G01*
X208312500Y-83312500D01*
X208312500Y-89912500D01*
X207912500Y-89912500D01*
X207912500Y-83312500D01*
G37*
%TD.AperFunction*%
%TA.AperFunction,EtchedComponent*%
G36*
X207112500Y-89512500D02*
G01*
X207912500Y-89512500D01*
X207912500Y-89912500D01*
X207112500Y-89912500D01*
X207112500Y-89512500D01*
G37*
%TD.AperFunction*%
%TA.AperFunction,EtchedComponent*%
G36*
X206712500Y-80612500D02*
G01*
X207112500Y-80612500D01*
X207112500Y-89912500D01*
X206712500Y-89912500D01*
X206712500Y-80612500D01*
G37*
%TD.AperFunction*%
%TA.AperFunction,EtchedComponent*%
G36*
X205912500Y-80612500D02*
G01*
X206712500Y-80612500D01*
X206712500Y-81012500D01*
X205912500Y-81012500D01*
X205912500Y-80612500D01*
G37*
%TD.AperFunction*%
%TA.AperFunction,EtchedComponent*%
G36*
X205512500Y-80612500D02*
G01*
X205912500Y-80612500D01*
X205912500Y-89912500D01*
X205512500Y-89912500D01*
X205512500Y-80612500D01*
G37*
%TD.AperFunction*%
%TA.AperFunction,EtchedComponent*%
G36*
X204712500Y-89512500D02*
G01*
X205512500Y-89512500D01*
X205512500Y-89912500D01*
X204712500Y-89912500D01*
X204712500Y-89512500D01*
G37*
%TD.AperFunction*%
%TA.AperFunction,EtchedComponent*%
G36*
X204312500Y-80612500D02*
G01*
X204712500Y-80612500D01*
X204712500Y-89912500D01*
X204312500Y-89912500D01*
X204312500Y-80612500D01*
G37*
%TD.AperFunction*%
%TA.AperFunction,EtchedComponent*%
G36*
X203112500Y-80612500D02*
G01*
X204712500Y-80612500D01*
X204712500Y-81012500D01*
X203112500Y-81012500D01*
X203112500Y-80612500D01*
G37*
%TD.AperFunction*%
%TA.AperFunction,EtchedComponent*%
G36*
X203112500Y-80612500D02*
G01*
X203512500Y-80612500D01*
X203512500Y-83312500D01*
X203112500Y-83312500D01*
X203112500Y-80612500D01*
G37*
%TD.AperFunction*%
%TA.AperFunction,EtchedComponent*%
G36*
X202012500Y-82912500D02*
G01*
X203512500Y-82912500D01*
X203512500Y-83312500D01*
X202012500Y-83312500D01*
X202012500Y-82912500D01*
G37*
%TD.AperFunction*%
D10*
%TA.AperFunction,EtchedComponent*%
%TO.C,J6*%
G36*
X162025000Y-77200003D02*
G01*
X159825000Y-77200003D01*
X159825000Y-76100003D01*
X162025000Y-76100003D01*
X162025000Y-77200003D01*
G37*
%TD.AperFunction*%
%TA.AperFunction,EtchedComponent*%
G36*
X162025000Y-67500003D02*
G01*
X159825000Y-67500003D01*
X159825000Y-66400003D01*
X162025000Y-66400003D01*
X162025000Y-67500003D01*
G37*
%TD.AperFunction*%
%TA.AperFunction,EtchedComponent*%
%TO.C,J4*%
G36*
X169500000Y-85175000D02*
G01*
X168400000Y-85175000D01*
X168400000Y-82975000D01*
X169500000Y-82975000D01*
X169500000Y-85175000D01*
G37*
%TD.AperFunction*%
%TA.AperFunction,EtchedComponent*%
G36*
X179200000Y-85175000D02*
G01*
X178100000Y-85175000D01*
X178100000Y-82975000D01*
X179200000Y-82975000D01*
X179200000Y-85175000D01*
G37*
%TD.AperFunction*%
%TA.AperFunction,EtchedComponent*%
%TO.C,J5*%
G36*
X209726070Y-77300000D02*
G01*
X207526070Y-77300000D01*
X207526070Y-76200000D01*
X209726070Y-76200000D01*
X209726070Y-77300000D01*
G37*
%TD.AperFunction*%
%TA.AperFunction,EtchedComponent*%
G36*
X209726070Y-67600000D02*
G01*
X207526070Y-67600000D01*
X207526070Y-66500000D01*
X209726070Y-66500000D01*
X209726070Y-67600000D01*
G37*
%TD.AperFunction*%
%TA.AperFunction,EtchedComponent*%
%TO.C,J3*%
G36*
X169500000Y-95900000D02*
G01*
X168400000Y-95900000D01*
X168400000Y-93700000D01*
X169500000Y-93700000D01*
X169500000Y-95900000D01*
G37*
%TD.AperFunction*%
%TA.AperFunction,EtchedComponent*%
G36*
X179200000Y-95900000D02*
G01*
X178100000Y-95900000D01*
X178100000Y-93700000D01*
X179200000Y-93700000D01*
X179200000Y-95900000D01*
G37*
%TD.AperFunction*%
%TD*%
D11*
%TO.P,REF\u002A\u002A,*%
%TO.N,*%
X166000000Y-99250000D03*
%TD*%
%TO.P,REF\u002A\u002A,*%
%TO.N,*%
X202250000Y-67500000D03*
%TD*%
%TO.P,REF\u002A\u002A,*%
%TO.N,*%
X209500000Y-98250000D03*
%TD*%
D12*
%TO.P,U6,1,NC*%
%TO.N,unconnected-(U6-NC-Pad1)*%
X174443101Y-70913101D03*
%TO.P,U6,2,NC*%
%TO.N,unconnected-(U6-NC-Pad2)*%
X174043101Y-70913101D03*
%TO.P,U6,3,NC*%
%TO.N,unconnected-(U6-NC-Pad3)*%
X173643101Y-70913101D03*
%TO.P,U6,4,NC*%
%TO.N,unconnected-(U6-NC-Pad4)*%
X173243101Y-70913101D03*
%TO.P,U6,5,NC*%
%TO.N,unconnected-(U6-NC-Pad5)*%
X172843101Y-70913101D03*
%TO.P,U6,6,NC*%
%TO.N,unconnected-(U6-NC-Pad6)*%
X172443101Y-70913101D03*
D13*
%TO.P,U6,7,AUX_CL*%
%TO.N,unconnected-(U6-AUX_CL-Pad7)*%
X171943101Y-71413101D03*
%TO.P,U6,8,VDDIO*%
%TO.N,+1V8*%
X171943101Y-71813101D03*
%TO.P,U6,9,SDO/AD0*%
%TO.N,GND*%
X171943101Y-72213101D03*
%TO.P,U6,10,REGOUT*%
%TO.N,Net-(U6-REGOUT)*%
X171943101Y-72613101D03*
%TO.P,U6,11,FSYNC*%
%TO.N,unconnected-(U6-FSYNC-Pad11)*%
X171943101Y-73013101D03*
%TO.P,U6,12,INT1*%
%TO.N,unconnected-(U6-INT1-Pad12)*%
X171943101Y-73413101D03*
D12*
%TO.P,U6,13,VDD*%
%TO.N,+1V8*%
X172443101Y-73913101D03*
%TO.P,U6,14,NC*%
%TO.N,unconnected-(U6-NC-Pad14)*%
X172843101Y-73913101D03*
%TO.P,U6,15,NC*%
%TO.N,unconnected-(U6-NC-Pad15)*%
X173243101Y-73913101D03*
%TO.P,U6,16,NC*%
%TO.N,unconnected-(U6-NC-Pad16)*%
X173643101Y-73913101D03*
%TO.P,U6,17,NC*%
%TO.N,unconnected-(U6-NC-Pad17)*%
X174043101Y-73913101D03*
%TO.P,U6,18,GND*%
%TO.N,GND*%
X174443101Y-73913101D03*
D13*
%TO.P,U6,19,RESV*%
%TO.N,unconnected-(U6-RESV-Pad19)*%
X174943101Y-73413101D03*
%TO.P,U6,20,GND*%
%TO.N,GND*%
X174943101Y-73013101D03*
%TO.P,U6,21,AUX_DA*%
%TO.N,unconnected-(U6-AUX_DA-Pad21)*%
X174943101Y-72613101D03*
%TO.P,U6,22,~{CS}*%
%TO.N,+1V8*%
X174943101Y-72213101D03*
%TO.P,U6,23,SCL/SCLK*%
%TO.N,Net-(U4-SC0)*%
X174943101Y-71813101D03*
%TO.P,U6,24,SDA/SDI*%
%TO.N,Net-(U4-SD0)*%
X174943101Y-71413101D03*
%TD*%
D14*
%TO.P,C21,1*%
%TO.N,VBUS*%
X163250000Y-86700000D03*
%TO.P,C21,2*%
%TO.N,GND*%
X165150000Y-86700000D03*
%TD*%
D15*
%TO.P,C5,1*%
%TO.N,+3.3V*%
X189500000Y-79580000D03*
%TO.P,C5,2*%
%TO.N,GND*%
X189500000Y-78620000D03*
%TD*%
D16*
%TO.P,C3,1*%
%TO.N,Net-(U1-NRST(PB11))*%
X190400000Y-89220000D03*
%TO.P,C3,2*%
%TO.N,GND*%
X190400000Y-90180000D03*
%TD*%
D17*
%TO.P,C13,1*%
%TO.N,+3.3VA*%
X191520000Y-90200000D03*
%TO.P,C13,2*%
%TO.N,GND*%
X192480000Y-90200000D03*
%TD*%
D18*
%TO.P,U5,1,GND*%
%TO.N,GND*%
X157350000Y-79650000D03*
%TO.P,U5,2,VO*%
%TO.N,+1V8*%
X157350000Y-81950000D03*
D19*
X163650000Y-81950000D03*
D18*
%TO.P,U5,3,VI*%
%TO.N,VBUS*%
X157350000Y-84250000D03*
%TD*%
D20*
%TO.P,J1,1,Pin_1*%
%TO.N,+3.3V*%
X192100000Y-75500000D03*
D21*
%TO.P,J1,2,Pin_2*%
%TO.N,Net-(J1-Pin_2)*%
X189560000Y-75500000D03*
%TO.P,J1,3,Pin_3*%
%TO.N,Net-(J1-Pin_3)*%
X187020000Y-75500000D03*
%TO.P,J1,4,Pin_4*%
%TO.N,SWO*%
X184480000Y-75500000D03*
%TO.P,J1,5,Pin_5*%
%TO.N,GND*%
X181940000Y-75500000D03*
%TD*%
D22*
%TO.P,R5,1*%
%TO.N,Net-(U4-SD0)*%
X176293101Y-71263101D03*
%TO.P,R5,2*%
%TO.N,+1V8*%
X176293101Y-69613101D03*
%TD*%
D23*
%TO.P,AE1,1,A*%
%TO.N,Net-(AE1-A)*%
X202212500Y-83112500D03*
%TD*%
D17*
%TO.P,C12,1*%
%TO.N,+3.3VA*%
X191520000Y-89130000D03*
%TO.P,C12,2*%
%TO.N,GND*%
X192480000Y-89130000D03*
%TD*%
D24*
%TO.P,J6,P2,P2*%
%TO.N,GND*%
X160500000Y-75450000D03*
%TO.P,J6,P1,P1*%
X160500000Y-68150006D03*
D25*
%TO.P,J6,8,8*%
%TO.N,+1V8*%
X162425000Y-73550007D03*
%TO.P,J6,7,7*%
X162425000Y-73050006D03*
%TO.P,J6,6,6*%
%TO.N,LS_CLK*%
X162425000Y-72550007D03*
%TO.P,J6,5,5*%
X162425000Y-72050008D03*
%TO.P,J6,4,4*%
%TO.N,LS_DA*%
X162425000Y-71550006D03*
%TO.P,J6,3,3*%
X162425000Y-71050007D03*
%TO.P,J6,2,2*%
%TO.N,GND*%
X162425000Y-70550006D03*
%TO.P,J6,1,1*%
X162425000Y-70050007D03*
%TD*%
D26*
%TO.P,J4,1,1*%
%TO.N,GND*%
X172050004Y-82575000D03*
%TO.P,J4,2,2*%
X172550003Y-82575000D03*
%TO.P,J4,3,3*%
%TO.N,MB_DA*%
X173050004Y-82575000D03*
%TO.P,J4,4,4*%
X173550003Y-82575000D03*
%TO.P,J4,5,5*%
%TO.N,MB_CLK*%
X174050005Y-82575000D03*
%TO.P,J4,6,6*%
X174550004Y-82575000D03*
%TO.P,J4,7,7*%
%TO.N,+1V8*%
X175050003Y-82575000D03*
%TO.P,J4,8,8*%
X175550004Y-82575000D03*
D27*
%TO.P,J4,P1,P1*%
%TO.N,GND*%
X170150003Y-84500000D03*
%TO.P,J4,P2,P2*%
X177449997Y-84500000D03*
%TD*%
D28*
%TO.P,J2,1,Pin_1*%
%TO.N,GND*%
X161000000Y-87950000D03*
%TO.P,J2,2,Pin_2*%
%TO.N,VBUS*%
X161000000Y-88950000D03*
D29*
%TO.P,J2,MP*%
%TO.N,N/C*%
X157125000Y-86650000D03*
X157125000Y-90250000D03*
%TD*%
D15*
%TO.P,C9,1*%
%TO.N,+3.3V*%
X187400000Y-79580000D03*
%TO.P,C9,2*%
%TO.N,GND*%
X187400000Y-78620000D03*
%TD*%
%TO.P,C24,1*%
%TO.N,+1V8*%
X170793101Y-71263101D03*
%TO.P,C24,2*%
%TO.N,GND*%
X170793101Y-70303101D03*
%TD*%
%TO.P,C6,1*%
%TO.N,+3.3V*%
X190500000Y-79560000D03*
%TO.P,C6,2*%
%TO.N,GND*%
X190500000Y-78600000D03*
%TD*%
D16*
%TO.P,C16,2*%
%TO.N,GND*%
X199100000Y-83980000D03*
%TO.P,C16,1*%
%TO.N,Net-(U2-IN)*%
X199100000Y-83020000D03*
%TD*%
D30*
%TO.P,R2,2*%
%TO.N,Net-(U1-PB8)*%
X193375000Y-93600000D03*
%TO.P,R2,1*%
%TO.N,+3.3V*%
X195025000Y-93600000D03*
%TD*%
D15*
%TO.P,C22,1*%
%TO.N,Net-(U6-REGOUT)*%
X170693101Y-73143101D03*
%TO.P,C22,2*%
%TO.N,GND*%
X170693101Y-72183101D03*
%TD*%
%TO.P,C10,1*%
%TO.N,+3.3V*%
X188500000Y-79580000D03*
%TO.P,C10,2*%
%TO.N,GND*%
X188500000Y-78620000D03*
%TD*%
D17*
%TO.P,C15,1*%
%TO.N,+3.3V*%
X194620000Y-81900000D03*
%TO.P,C15,2*%
%TO.N,GND*%
X195580000Y-81900000D03*
%TD*%
D31*
%TO.P,C11,1*%
%TO.N,+3.3V*%
X191725000Y-79300000D03*
%TO.P,C11,2*%
%TO.N,GND*%
X193275000Y-79300000D03*
%TD*%
D32*
%TO.P,SW2,1,1*%
%TO.N,Net-(U1-PA6)*%
X199200000Y-94700000D03*
X203300000Y-94700000D03*
%TO.P,SW2,2,2*%
%TO.N,GND*%
X199200000Y-96300000D03*
X203300000Y-96300000D03*
D33*
%TO.P,SW2,SH*%
%TO.N,N/C*%
X201250000Y-94075000D03*
%TD*%
D34*
%TO.P,C1,1*%
%TO.N,Net-(U1-OSC_IN)*%
X193460000Y-77900000D03*
%TO.P,C1,2*%
%TO.N,GND*%
X192500000Y-77900000D03*
%TD*%
D15*
%TO.P,C2,2*%
%TO.N,GND*%
X197300000Y-78520000D03*
%TO.P,C2,1*%
%TO.N,Net-(U1-OSC_OUT)*%
X197300000Y-79480000D03*
%TD*%
%TO.P,C4,1*%
%TO.N,+3.3V*%
X185200000Y-87880000D03*
%TO.P,C4,2*%
%TO.N,GND*%
X185200000Y-86920000D03*
%TD*%
D30*
%TO.P,R1,1*%
%TO.N,+3.3V*%
X195025000Y-91900000D03*
%TO.P,R1,2*%
%TO.N,Net-(U1-PB9)*%
X193375000Y-91900000D03*
%TD*%
D35*
%TO.P,R4,1*%
%TO.N,GND*%
X187480000Y-89000000D03*
%TO.P,R4,2*%
%TO.N,Net-(U1-PH3)*%
X188500000Y-89000000D03*
%TD*%
D17*
%TO.P,C14,1*%
%TO.N,+3.3V*%
X196020000Y-80900000D03*
%TO.P,C14,2*%
%TO.N,GND*%
X196980000Y-80900000D03*
%TD*%
D34*
%TO.P,C7,1*%
%TO.N,+3.3V*%
X186460000Y-89000000D03*
%TO.P,C7,2*%
%TO.N,GND*%
X185500000Y-89000000D03*
%TD*%
D36*
%TO.P,U1,1,VBAT*%
%TO.N,+3.3V*%
X187150000Y-87737500D03*
%TO.P,U1,2,PC14*%
%TO.N,unconnected-(U1-PC14-Pad2)*%
X187650000Y-87737500D03*
%TO.P,U1,3,PC15*%
%TO.N,unconnected-(U1-PC15-Pad3)*%
X188150000Y-87737500D03*
%TO.P,U1,4,PH3*%
%TO.N,Net-(U1-PH3)*%
X188650000Y-87737500D03*
%TO.P,U1,5,PB8*%
%TO.N,Net-(U1-PB8)*%
X189150000Y-87737500D03*
%TO.P,U1,6,PB9*%
%TO.N,Net-(U1-PB9)*%
X189650000Y-87737500D03*
%TO.P,U1,7,NRST(PB11)*%
%TO.N,Net-(U1-NRST(PB11))*%
X190150000Y-87737500D03*
%TO.P,U1,8,VDDA*%
%TO.N,+3.3VA*%
X190650000Y-87737500D03*
%TO.P,U1,9,PA0*%
%TO.N,unconnected-(U1-PA0-Pad9)*%
X191150000Y-87737500D03*
%TO.P,U1,10,PA1*%
%TO.N,unconnected-(U1-PA1-Pad10)*%
X191650000Y-87737500D03*
%TO.P,U1,11,PA2*%
%TO.N,unconnected-(U1-PA2-Pad11)*%
X192150000Y-87737500D03*
%TO.P,U1,12,PA3*%
%TO.N,unconnected-(U1-PA3-Pad12)*%
X192650000Y-87737500D03*
D37*
%TO.P,U1,13,PA4*%
%TO.N,unconnected-(U1-PA4-Pad13)*%
X193337500Y-87050000D03*
%TO.P,U1,14,PA5*%
%TO.N,unconnected-(U1-PA5-Pad14)*%
X193337500Y-86550000D03*
%TO.P,U1,15,PA6*%
%TO.N,Net-(U1-PA6)*%
X193337500Y-86050000D03*
%TO.P,U1,16,PA7*%
%TO.N,unconnected-(U1-PA7-Pad16)*%
X193337500Y-85550000D03*
%TO.P,U1,17,PA8*%
%TO.N,unconnected-(U1-PA8-Pad17)*%
X193337500Y-85050000D03*
%TO.P,U1,18,PA9*%
%TO.N,unconnected-(U1-PA9-Pad18)*%
X193337500Y-84550000D03*
%TO.P,U1,19,PB2*%
%TO.N,unconnected-(U1-PB2-Pad19)*%
X193337500Y-84050000D03*
%TO.P,U1,20,VDD*%
%TO.N,+3.3V*%
X193337500Y-83550000D03*
%TO.P,U1,21,RF1*%
%TO.N,RF_OUT*%
X193337500Y-83050000D03*
%TO.P,U1,22,VSSRF*%
%TO.N,GND*%
X193337500Y-82550000D03*
%TO.P,U1,23,VDDRF*%
%TO.N,+3.3V*%
X193337500Y-82050000D03*
%TO.P,U1,24,OSC_OUT*%
%TO.N,Net-(U1-OSC_OUT)*%
X193337500Y-81550000D03*
D36*
%TO.P,U1,25,OSC_IN*%
%TO.N,Net-(U1-OSC_IN)*%
X192650000Y-80862500D03*
%TO.P,U1,26,AT0*%
%TO.N,unconnected-(U1-AT0-Pad26)*%
X192150000Y-80862500D03*
%TO.P,U1,27,AT1*%
%TO.N,unconnected-(U1-AT1-Pad27)*%
X191650000Y-80862500D03*
%TO.P,U1,28,PB0*%
%TO.N,unconnected-(U1-PB0-Pad28)*%
X191150000Y-80862500D03*
%TO.P,U1,29,PB1*%
%TO.N,unconnected-(U1-PB1-Pad29)*%
X190650000Y-80862500D03*
%TO.P,U1,30,PE4*%
%TO.N,unconnected-(U1-PE4-Pad30)*%
X190150000Y-80862500D03*
%TO.P,U1,31,VDD*%
%TO.N,+3.3V*%
X189650000Y-80862500D03*
%TO.P,U1,32,VSS*%
%TO.N,GND*%
X189150000Y-80862500D03*
%TO.P,U1,33,VDD*%
%TO.N,+3.3V*%
X188650000Y-80862500D03*
%TO.P,U1,34,VDD*%
X188150000Y-80862500D03*
%TO.P,U1,35,VDD*%
X187650000Y-80862500D03*
%TO.P,U1,36,PA10*%
%TO.N,unconnected-(U1-PA10-Pad36)*%
X187150000Y-80862500D03*
D37*
%TO.P,U1,37,PA11*%
%TO.N,unconnected-(U1-PA11-Pad37)*%
X186462500Y-81550000D03*
%TO.P,U1,38,PA12*%
%TO.N,unconnected-(U1-PA12-Pad38)*%
X186462500Y-82050000D03*
%TO.P,U1,39,PA13*%
%TO.N,Net-(J1-Pin_2)*%
X186462500Y-82550000D03*
%TO.P,U1,40,VDD*%
%TO.N,+3.3V*%
X186462500Y-83050000D03*
%TO.P,U1,41,PA14*%
%TO.N,Net-(J1-Pin_3)*%
X186462500Y-83550000D03*
%TO.P,U1,42,PA15*%
%TO.N,unconnected-(U1-PA15-Pad42)*%
X186462500Y-84050000D03*
%TO.P,U1,43,PB3*%
%TO.N,SWO*%
X186462500Y-84550000D03*
%TO.P,U1,44,PB4*%
%TO.N,unconnected-(U1-PB4-Pad44)*%
X186462500Y-85050000D03*
%TO.P,U1,45,PB5*%
%TO.N,unconnected-(U1-PB5-Pad45)*%
X186462500Y-85550000D03*
%TO.P,U1,46,PB6*%
%TO.N,unconnected-(U1-PB6-Pad46)*%
X186462500Y-86050000D03*
%TO.P,U1,47,PB7*%
%TO.N,unconnected-(U1-PB7-Pad47)*%
X186462500Y-86550000D03*
%TO.P,U1,48,VDD*%
%TO.N,+3.3V*%
X186462500Y-87050000D03*
D38*
%TO.P,U1,49,VSS*%
%TO.N,GND*%
X189900000Y-84300000D03*
%TD*%
D39*
%TO.P,L1,2,2*%
%TO.N,Net-(U2-IN)*%
X197985000Y-83000000D03*
%TO.P,L1,1,1*%
%TO.N,RF_OUT*%
X197015000Y-83000000D03*
%TD*%
D40*
%TO.P,C20,1*%
%TO.N,+1V8*%
X166200000Y-80400000D03*
%TO.P,C20,2*%
%TO.N,GND*%
X166200000Y-78500000D03*
%TD*%
D24*
%TO.P,J5,P2,P2*%
%TO.N,GND*%
X209051070Y-68250003D03*
%TO.P,J5,P1,P1*%
X209051070Y-75549997D03*
D25*
%TO.P,J5,8,8*%
%TO.N,+1V8*%
X207126070Y-70149996D03*
%TO.P,J5,7,7*%
X207126070Y-70649997D03*
%TO.P,J5,6,6*%
%TO.N,RS_CLK*%
X207126070Y-71149996D03*
%TO.P,J5,5,5*%
X207126070Y-71649995D03*
%TO.P,J5,4,4*%
%TO.N,RS_DA*%
X207126070Y-72149997D03*
%TO.P,J5,3,3*%
X207126070Y-72649996D03*
%TO.P,J5,2,2*%
%TO.N,GND*%
X207126070Y-73149997D03*
%TO.P,J5,1,1*%
X207126070Y-73649996D03*
%TD*%
D17*
%TO.P,C8,1*%
%TO.N,+3.3V*%
X194520000Y-85000000D03*
%TO.P,C8,2*%
%TO.N,GND*%
X195480000Y-85000000D03*
%TD*%
D41*
%TO.P,U3,1,GND*%
%TO.N,GND*%
X163650000Y-97500000D03*
%TO.P,U3,2,VO*%
%TO.N,+3.3V*%
X163650000Y-95200000D03*
D42*
X157350000Y-95200000D03*
D41*
%TO.P,U3,3,VI*%
%TO.N,VBUS*%
X163650000Y-92900000D03*
%TD*%
D43*
%TO.P,Y1,4,4*%
%TO.N,GND*%
X195950000Y-78100000D03*
%TO.P,Y1,3,3*%
%TO.N,Net-(U1-OSC_OUT)*%
X195950000Y-79500000D03*
%TO.P,Y1,2,2*%
%TO.N,GND*%
X194850000Y-79500000D03*
%TO.P,Y1,1,1*%
%TO.N,Net-(U1-OSC_IN)*%
X194850000Y-78100000D03*
%TD*%
D16*
%TO.P,C17,2*%
%TO.N,GND*%
X195900000Y-84000000D03*
%TO.P,C17,1*%
%TO.N,RF_OUT*%
X195900000Y-83040000D03*
%TD*%
D44*
%TO.P,U2,4,GND*%
%TO.N,GND*%
X200790400Y-83328600D03*
D45*
%TO.P,U2,3,OUT*%
%TO.N,Net-(AE1-A)*%
X201400000Y-83100000D03*
D44*
%TO.P,U2,2,GND*%
%TO.N,GND*%
X200790400Y-82871400D03*
D45*
%TO.P,U2,1,IN*%
%TO.N,Net-(U2-IN)*%
X200180800Y-83100000D03*
%TD*%
D46*
%TO.P,R3,1*%
%TO.N,+3.3V*%
X185710000Y-90500000D03*
%TO.P,R3,2*%
%TO.N,Net-(U4-\u002ARESET)*%
X184690000Y-90500000D03*
%TD*%
D47*
%TO.P,C18,2*%
%TO.N,GND*%
X166000000Y-97250000D03*
%TO.P,C18,1*%
%TO.N,+3.3V*%
X166000000Y-95350000D03*
%TD*%
D17*
%TO.P,C23,2*%
%TO.N,GND*%
X177173101Y-73463101D03*
%TO.P,C23,1*%
%TO.N,+1V8*%
X176213101Y-73463101D03*
%TD*%
D14*
%TO.P,C19,1*%
%TO.N,VBUS*%
X163150000Y-90450000D03*
%TO.P,C19,2*%
%TO.N,GND*%
X165050000Y-90450000D03*
%TD*%
D22*
%TO.P,R6,1*%
%TO.N,Net-(U4-SC0)*%
X177893101Y-72188101D03*
%TO.P,R6,2*%
%TO.N,+1V8*%
X177893101Y-70538101D03*
%TD*%
D48*
%TO.P,U4,1,A0*%
%TO.N,GND*%
X185658000Y-91800000D03*
%TO.P,U4,2,A1*%
X185658000Y-92449999D03*
%TO.P,U4,3,\u002ARESET*%
%TO.N,Net-(U4-\u002ARESET)*%
X185658000Y-93099997D03*
%TO.P,U4,4,SD0*%
%TO.N,Net-(U4-SD0)*%
X185658000Y-93749998D03*
%TO.P,U4,5,SC0*%
%TO.N,Net-(U4-SC0)*%
X185658000Y-94399997D03*
%TO.P,U4,6,SD1*%
%TO.N,LS_DA*%
X185658000Y-95049998D03*
%TO.P,U4,7,SC1*%
%TO.N,LS_CLK*%
X185658000Y-95699997D03*
%TO.P,U4,8,SD2*%
%TO.N,MB_DA*%
X185658000Y-96349998D03*
%TO.P,U4,9,SC2*%
%TO.N,MB_CLK*%
X185658000Y-96999997D03*
%TO.P,U4,10,SD3*%
%TO.N,LB_DA*%
X185658000Y-97649998D03*
%TO.P,U4,11,SC3*%
%TO.N,LB_CLK*%
X185658000Y-98299997D03*
%TO.P,U4,12,GND*%
%TO.N,GND*%
X185658000Y-98949998D03*
%TO.P,U4,13,SD4*%
%TO.N,unconnected-(U4-SD4-Pad13)*%
X191500000Y-98949998D03*
%TO.P,U4,14,SC4*%
%TO.N,unconnected-(U4-SC4-Pad14)*%
X191500000Y-98299999D03*
%TO.P,U4,15,SD5*%
%TO.N,unconnected-(U4-SD5-Pad15)*%
X191500000Y-97649998D03*
%TO.P,U4,16,SC5*%
%TO.N,unconnected-(U4-SC5-Pad16)*%
X191500000Y-97000000D03*
%TO.P,U4,17,SD6*%
%TO.N,unconnected-(U4-SD6-Pad17)*%
X191500000Y-96349998D03*
%TO.P,U4,18,SC6*%
%TO.N,unconnected-(U4-SC6-Pad18)*%
X191500000Y-95700000D03*
%TO.P,U4,19,SD7*%
%TO.N,RS_DA*%
X191500000Y-95050001D03*
%TO.P,U4,20,SC7*%
%TO.N,RS_CLK*%
X191500000Y-94400000D03*
%TO.P,U4,21,A2*%
%TO.N,GND*%
X191500000Y-93750001D03*
%TO.P,U4,22,SCL*%
%TO.N,Net-(U1-PB8)*%
X191500000Y-93100000D03*
%TO.P,U4,23,SDA*%
%TO.N,Net-(U1-PB9)*%
X191500000Y-92450001D03*
%TO.P,U4,24,VCC*%
%TO.N,+3.3V*%
X191500000Y-91800000D03*
%TD*%
D26*
%TO.P,J3,1,1*%
%TO.N,GND*%
X172050004Y-93300000D03*
%TO.P,J3,2,2*%
X172550003Y-93300000D03*
%TO.P,J3,3,3*%
%TO.N,LB_DA*%
X173050004Y-93300000D03*
%TO.P,J3,4,4*%
X173550003Y-93300000D03*
%TO.P,J3,5,5*%
%TO.N,LB_CLK*%
X174050005Y-93300000D03*
%TO.P,J3,6,6*%
X174550004Y-93300000D03*
%TO.P,J3,7,7*%
%TO.N,+1V8*%
X175050003Y-93300000D03*
%TO.P,J3,8,8*%
X175550004Y-93300000D03*
D27*
%TO.P,J3,P1,P1*%
%TO.N,GND*%
X170150003Y-95225000D03*
%TO.P,J3,P2,P2*%
X177449997Y-95225000D03*
%TD*%
D49*
%TO.N,GND*%
X201250000Y-96300000D03*
X208250000Y-73500000D03*
X191500000Y-72500000D03*
X184700000Y-88900000D03*
%TO.N,+3.3V*%
X186400000Y-79700000D03*
X184900000Y-81700000D03*
X156500000Y-92750000D03*
%TO.N,GND*%
X186375000Y-78600000D03*
%TO.N,RS_CLK*%
X195704987Y-71397507D03*
%TO.N,RS_DA*%
X194900000Y-72250000D03*
X189617351Y-95347508D03*
%TO.N,RS_CLK*%
X189554413Y-94449708D03*
%TO.N,GND*%
X190162719Y-93786407D03*
X157920000Y-77076000D03*
X209051070Y-68250003D03*
X209051070Y-75549997D03*
X160500000Y-68150006D03*
X160500000Y-75450000D03*
X177449997Y-95225000D03*
X170150003Y-95225000D03*
X177449997Y-84500000D03*
X170150003Y-84500000D03*
X161400000Y-70300000D03*
X166100000Y-88900000D03*
X166100000Y-88100000D03*
X172300000Y-81600000D03*
X192887616Y-78609845D03*
X172400000Y-92200000D03*
%TO.N,Net-(U1-PA6)*%
X194316311Y-86883969D03*
X195900000Y-86900000D03*
%TO.N,GND*%
X186985714Y-98785714D03*
X186900000Y-92600000D03*
X187000000Y-91700000D03*
X164700000Y-77600000D03*
X161000000Y-86700000D03*
X162000000Y-97200000D03*
X193200000Y-89100000D03*
X190800000Y-90900000D03*
X185300000Y-86000000D03*
X194880025Y-79880025D03*
X187817567Y-89598413D03*
X197800000Y-80900000D03*
X196300000Y-84900000D03*
X196800000Y-77700000D03*
X196500000Y-81900000D03*
X188000000Y-86250000D03*
X189900000Y-84300000D03*
X176874913Y-72838100D03*
X200800000Y-82000000D03*
X196800000Y-84100000D03*
X198300000Y-84000000D03*
X200800000Y-84300000D03*
X171593101Y-70563101D03*
X175450000Y-73993576D03*
X169993101Y-72463101D03*
%TD*%
D50*
%TO.N,+1V8*%
X176293101Y-69613101D02*
X176781202Y-69125000D01*
X176781202Y-69125000D02*
X205500000Y-69125000D01*
X167600000Y-69250006D02*
X167600000Y-69720006D01*
X167600000Y-69720006D02*
X168543101Y-70663107D01*
D51*
%TO.N,Net-(U4-SD0)*%
X176293101Y-71263101D02*
X176418101Y-71388101D01*
X176418101Y-71388101D02*
X178422171Y-71388101D01*
X178422171Y-71388101D02*
X178768101Y-71734031D01*
X178768101Y-75389573D02*
X183000000Y-79621472D01*
X183949998Y-93749998D02*
X185658000Y-93749998D01*
X178768101Y-71734031D02*
X178768101Y-75389573D01*
X183000000Y-79621472D02*
X183000000Y-90957360D01*
X183000000Y-90957360D02*
X183900000Y-91857360D01*
X183900000Y-93700000D02*
X183949998Y-93749998D01*
X183900000Y-91857360D02*
X183900000Y-93700000D01*
%TO.N,Net-(U4-SC0)*%
X185658000Y-94399997D02*
X183499997Y-94399997D01*
X183499997Y-94399997D02*
X183200000Y-94100000D01*
X182400000Y-79870000D02*
X177893101Y-75363101D01*
X183200000Y-94100000D02*
X183200000Y-92005888D01*
X183200000Y-92005888D02*
X182400000Y-91205888D01*
X182400000Y-91205888D02*
X182400000Y-79870000D01*
X177893101Y-75363101D02*
X177893101Y-72188101D01*
D52*
%TO.N,+3.3V*%
X156500000Y-92750000D02*
X156500000Y-94350000D01*
X156500000Y-94350000D02*
X157350000Y-95200000D01*
D50*
%TO.N,Net-(U1-PA6)*%
X199200000Y-94700000D02*
X199200000Y-90200000D01*
X199200000Y-90200000D02*
X195900000Y-86900000D01*
X199200000Y-94700000D02*
X199300000Y-94800000D01*
X199300000Y-94800000D02*
X203200000Y-94800000D01*
X203200000Y-94800000D02*
X203300000Y-94700000D01*
%TO.N,GND*%
X201250000Y-96300000D02*
X203300000Y-96300000D01*
X199200000Y-96300000D02*
X201250000Y-96300000D01*
D53*
%TO.N,RS_DA*%
X206000000Y-72149997D02*
X207126070Y-72149997D01*
X195000003Y-72149997D02*
X206000000Y-72149997D01*
X206000000Y-72149997D02*
X206626071Y-72149997D01*
X206626071Y-72149997D02*
X207126070Y-72649996D01*
X194900000Y-72250000D02*
X195000003Y-72149997D01*
%TO.N,RS_CLK*%
X205750000Y-71149996D02*
X195952498Y-71149996D01*
X207126070Y-71149996D02*
X205750000Y-71149996D01*
X205750000Y-71149996D02*
X206626071Y-71149996D01*
X206626071Y-71149996D02*
X207126070Y-71649995D01*
X195952498Y-71149996D02*
X195704987Y-71397507D01*
X207126070Y-71649995D02*
X207126070Y-71149996D01*
D50*
%TO.N,+1V8*%
X205500000Y-69125000D02*
X206101074Y-69125000D01*
X205500000Y-69125000D02*
X206924996Y-70549996D01*
X206924996Y-70549996D02*
X207126070Y-70549996D01*
X206101074Y-69125000D02*
X207126070Y-70149996D01*
%TO.N,GND*%
X208250000Y-73500000D02*
X207999996Y-73249996D01*
X207999996Y-73249996D02*
X207126070Y-73249996D01*
X208100004Y-73649996D02*
X208250000Y-73500000D01*
X207126070Y-73649996D02*
X208100004Y-73649996D01*
D53*
X191500000Y-72500000D02*
X190900000Y-73100000D01*
X190900000Y-73100000D02*
X190900000Y-78200000D01*
X190900000Y-78200000D02*
X190500000Y-78600000D01*
D50*
X192500000Y-78222229D02*
X192500000Y-77900000D01*
X192887616Y-78609845D02*
X192500000Y-78222229D01*
X192887616Y-78609845D02*
X192887616Y-78912616D01*
X192887616Y-78912616D02*
X193275000Y-79300000D01*
X157350000Y-77646000D02*
X157350000Y-79650000D01*
X157920000Y-77076000D02*
X157350000Y-77646000D01*
X184800000Y-89000000D02*
X184700000Y-88900000D01*
X185500000Y-89000000D02*
X184800000Y-89000000D01*
D53*
%TO.N,+3.3V*%
X186462500Y-83050000D02*
X185732798Y-83050000D01*
X185732798Y-83050000D02*
X184900000Y-82217202D01*
X184900000Y-82217202D02*
X184900000Y-81700000D01*
X186400000Y-79700000D02*
X187280000Y-79700000D01*
X187280000Y-79700000D02*
X187400000Y-79580000D01*
%TO.N,Net-(J1-Pin_3)*%
X186920000Y-75700000D02*
X184000000Y-78620000D01*
X184000000Y-78620000D02*
X184000000Y-78666547D01*
X184000000Y-78666547D02*
X184050000Y-78716547D01*
X184050000Y-78716547D02*
X184050000Y-82250000D01*
X184050000Y-82250000D02*
X185350000Y-83550000D01*
X185350000Y-83550000D02*
X186462500Y-83550000D01*
%TO.N,SWO*%
X184380000Y-75700000D02*
X183500000Y-76580000D01*
X183550000Y-78923654D02*
X183550000Y-82850000D01*
X183500000Y-76580000D02*
X183500000Y-78873654D01*
X185250000Y-84550000D02*
X186462500Y-84550000D01*
X183500000Y-78873654D02*
X183550000Y-78923654D01*
X183550000Y-82850000D02*
X185250000Y-84550000D01*
D50*
%TO.N,+3.3V*%
X163650000Y-95200000D02*
X165650000Y-95200000D01*
X170302799Y-99602799D02*
X187300000Y-99602799D01*
X165650000Y-95200000D02*
X165750000Y-95300000D01*
X166000000Y-95300000D02*
X170302799Y-99602799D01*
X165750000Y-95300000D02*
X166000000Y-95300000D01*
%TO.N,GND*%
X190500000Y-78600000D02*
X186375000Y-78600000D01*
D53*
%TO.N,Net-(J1-Pin_2)*%
X189460000Y-75700000D02*
X188460000Y-76700000D01*
X185939904Y-82550000D02*
X186462500Y-82550000D01*
X188460000Y-76700000D02*
X186800000Y-76700000D01*
X186800000Y-76700000D02*
X185675000Y-77825000D01*
X185675000Y-77825000D02*
X185675000Y-82285096D01*
X185675000Y-82285096D02*
X185939904Y-82550000D01*
%TO.N,RS_DA*%
X191500000Y-95050001D02*
X189914858Y-95050001D01*
X189914858Y-95050001D02*
X189617351Y-95347508D01*
%TO.N,RS_CLK*%
X191413593Y-94486407D02*
X189591112Y-94486407D01*
X189591112Y-94486407D02*
X189554413Y-94449708D01*
X191500000Y-94400000D02*
X191413593Y-94486407D01*
%TO.N,GND*%
X190199125Y-93750001D02*
X190162719Y-93786407D01*
X191500000Y-93750001D02*
X190199125Y-93750001D01*
D50*
X197300000Y-78520000D02*
X197300000Y-78200000D01*
X197300000Y-78200000D02*
X196800000Y-77700000D01*
D54*
%TO.N,+1V8*%
X172443101Y-73913101D02*
X171562626Y-74793576D01*
X171562626Y-74793576D02*
X171192205Y-74793576D01*
D50*
X168543101Y-70663107D02*
X169193095Y-70663107D01*
X161149994Y-69250006D02*
X167600000Y-69250006D01*
X168543101Y-72144472D02*
X171192205Y-74793576D01*
X168543101Y-70663107D02*
X168543101Y-72144472D01*
X176250000Y-73500000D02*
X176213101Y-73463101D01*
X176162626Y-74793576D02*
X176250000Y-74706202D01*
X176250000Y-74706202D02*
X176250000Y-73500000D01*
X169193095Y-70663107D02*
X169793089Y-71263101D01*
X169793089Y-71263101D02*
X170793101Y-71263101D01*
X157350000Y-81950000D02*
X158800000Y-80500000D01*
X158800000Y-80500000D02*
X158800000Y-76824999D01*
X158800000Y-76824999D02*
X158500000Y-76524999D01*
X158500000Y-76524999D02*
X158500000Y-71900000D01*
X158500000Y-71900000D02*
X161149994Y-69250006D01*
X169193095Y-70663107D02*
X170343101Y-69513101D01*
X170343101Y-69513101D02*
X176193101Y-69513101D01*
X176193101Y-69513101D02*
X176293101Y-69613101D01*
D51*
%TO.N,MB_DA*%
X185658000Y-96349998D02*
X181404418Y-96349998D01*
X174225000Y-81175000D02*
X173500005Y-81899995D01*
X181404418Y-96349998D02*
X181400000Y-96354416D01*
X181400000Y-96354416D02*
X181400000Y-92751472D01*
X178814214Y-81175000D02*
X174225000Y-81175000D01*
X181400000Y-92751472D02*
X180600000Y-91951472D01*
X180600000Y-91951472D02*
X180600000Y-82960786D01*
X180600000Y-82960786D02*
X178814214Y-81175000D01*
D50*
%TO.N,GND*%
X161400000Y-70300000D02*
X161550006Y-70450006D01*
X161550006Y-70450006D02*
X162425000Y-70450006D01*
X161649993Y-70050007D02*
X161400000Y-70300000D01*
X162425000Y-70050007D02*
X161649993Y-70050007D01*
X165050000Y-89950000D02*
X166100000Y-88900000D01*
X165050000Y-90450000D02*
X165050000Y-89950000D01*
X165150000Y-87150000D02*
X166100000Y-88100000D01*
X165150000Y-86700000D02*
X165150000Y-87150000D01*
X172300000Y-81600000D02*
X172450003Y-81750003D01*
X172450003Y-81750003D02*
X172450003Y-82569235D01*
X172050004Y-81849996D02*
X172300000Y-81600000D01*
X172050004Y-82575000D02*
X172050004Y-81849996D01*
%TO.N,+1V8*%
X174875004Y-83500000D02*
X175075004Y-83500000D01*
X175075004Y-83500000D02*
X175150004Y-83425000D01*
X175150004Y-83425000D02*
X175150004Y-82575000D01*
X163650000Y-81950000D02*
X170675002Y-81950000D01*
X175550004Y-82825000D02*
X175550004Y-82575000D01*
X170675002Y-81950000D02*
X171250003Y-82525001D01*
X174875004Y-83500000D02*
X175550004Y-82825000D01*
X171250003Y-82525001D02*
X171250003Y-83224999D01*
X171250003Y-83224999D02*
X171525004Y-83500000D01*
X171525004Y-83500000D02*
X174875004Y-83500000D01*
X163650000Y-74775007D02*
X163650000Y-74275006D01*
X163650000Y-74275006D02*
X162525001Y-73150007D01*
X162525001Y-73150007D02*
X162425000Y-73150007D01*
X163650000Y-81950000D02*
X163650000Y-74775007D01*
X163650000Y-74775007D02*
X162425000Y-73550007D01*
D51*
%TO.N,LS_CLK*%
X185658000Y-95699997D02*
X182000000Y-95699997D01*
X181200000Y-91702944D02*
X181200000Y-81500000D01*
X182000000Y-95699997D02*
X182000000Y-92502944D01*
X182000000Y-92502944D02*
X181200000Y-91702944D01*
X170600000Y-78900000D02*
X164200006Y-72500006D01*
X164200006Y-72500006D02*
X163225000Y-72500006D01*
X181200000Y-81500000D02*
X178600000Y-78900000D01*
X178600000Y-78900000D02*
X170600000Y-78900000D01*
%TO.N,MB_CLK*%
X185658000Y-96999997D02*
X181197053Y-96999997D01*
X181197053Y-96999997D02*
X180800000Y-96602944D01*
X180800000Y-96602944D02*
X180800000Y-93000000D01*
X180800000Y-93000000D02*
X180000000Y-92200000D01*
X180000000Y-92200000D02*
X180000000Y-83209314D01*
X180000000Y-83209314D02*
X178565686Y-81775000D01*
X178565686Y-81775000D02*
X174500003Y-81775000D01*
%TO.N,LS_DA*%
X185658000Y-95049998D02*
X182749998Y-95049998D01*
X182749998Y-95049998D02*
X182600000Y-94900000D01*
X182600000Y-94900000D02*
X182600000Y-92254416D01*
X178824264Y-78275736D02*
X170824264Y-78275736D01*
X182600000Y-92254416D02*
X181800000Y-91454416D01*
X181800000Y-91454416D02*
X181800000Y-81251472D01*
X181800000Y-81251472D02*
X178824264Y-78275736D01*
X170824264Y-78275736D02*
X164048534Y-71500006D01*
X164048534Y-71500006D02*
X163648534Y-71100006D01*
X163648534Y-71100006D02*
X162425000Y-71100006D01*
D54*
%TO.N,Net-(U4-SC0)*%
X174943101Y-71813101D02*
X175655453Y-71813101D01*
X175655453Y-71813101D02*
X176030453Y-72188101D01*
X176030453Y-72188101D02*
X177893101Y-72188101D01*
D51*
%TO.N,LS_DA*%
X164048534Y-71500006D02*
X162576472Y-71500006D01*
%TO.N,LS_CLK*%
X163225000Y-72500006D02*
X162825000Y-72100006D01*
X162825000Y-72100006D02*
X162425000Y-72100006D01*
X163225000Y-72500006D02*
X162425000Y-72500006D01*
%TO.N,LB_DA*%
X185658000Y-97649998D02*
X184564212Y-97649998D01*
X178814214Y-91900000D02*
X174100005Y-91900000D01*
X184564212Y-97649998D02*
X184514213Y-97699997D01*
X184514213Y-97699997D02*
X181048525Y-97699997D01*
X181048525Y-97699997D02*
X180200000Y-96851472D01*
X180200000Y-96851472D02*
X180200000Y-93285786D01*
X180200000Y-93285786D02*
X178814214Y-91900000D01*
X174100005Y-91900000D02*
X173500005Y-92500000D01*
%TO.N,LB_CLK*%
X185658000Y-98299997D02*
X180799997Y-98299997D01*
X180799997Y-98299997D02*
X179600000Y-97100000D01*
X179600000Y-97100000D02*
X179600000Y-93534314D01*
X179600000Y-93534314D02*
X178565686Y-92500000D01*
X178565686Y-92500000D02*
X174500003Y-92500000D01*
%TO.N,MB_DA*%
X173500005Y-81899995D02*
X173100003Y-82299997D01*
X173100003Y-82299997D02*
X173100003Y-82575000D01*
X173500005Y-81899995D02*
X173500005Y-82575000D01*
%TO.N,MB_CLK*%
X174500003Y-81775000D02*
X174100003Y-82175000D01*
X174100003Y-82175000D02*
X174100003Y-82575000D01*
X174500003Y-81775000D02*
X174500003Y-82575000D01*
D53*
%TO.N,+3.3V*%
X196020000Y-80900000D02*
X196020000Y-80853154D01*
X196020000Y-80853154D02*
X196673154Y-80200000D01*
X196673154Y-80200000D02*
X197586846Y-80200000D01*
X197586846Y-80200000D02*
X198000000Y-79786846D01*
X198000000Y-79786846D02*
X198000000Y-77910050D01*
X198000000Y-77910050D02*
X195589950Y-75500000D01*
X195589950Y-75500000D02*
X192100000Y-75500000D01*
X194620000Y-81900000D02*
X194620000Y-81853154D01*
X194620000Y-81853154D02*
X195573154Y-80900000D01*
X195573154Y-80900000D02*
X196020000Y-80900000D01*
X193337500Y-82050000D02*
X194470000Y-82050000D01*
X194470000Y-82050000D02*
X194620000Y-81900000D01*
D50*
X191725000Y-79300000D02*
X191725000Y-75875000D01*
X191725000Y-75875000D02*
X192100000Y-75500000D01*
%TO.N,Net-(U1-OSC_IN)*%
X193460000Y-77900000D02*
X194650000Y-77900000D01*
X194650000Y-77900000D02*
X194850000Y-78100000D01*
D53*
%TO.N,Net-(U1-OSC_OUT)*%
X195950000Y-79500000D02*
X197020000Y-79500000D01*
D50*
%TO.N,GND*%
X172400000Y-92200000D02*
X172450004Y-92250004D01*
X172450004Y-92250004D02*
X172450004Y-93300000D01*
X172050004Y-92549996D02*
X172400000Y-92200000D01*
X172050004Y-93300000D02*
X172050004Y-92549996D01*
%TO.N,+1V8*%
X175100004Y-94200000D02*
X175150004Y-94150000D01*
X175150004Y-94150000D02*
X175150004Y-93300000D01*
D51*
%TO.N,LB_CLK*%
X174500003Y-92500000D02*
X174100005Y-92899998D01*
X174100005Y-92899998D02*
X174100005Y-93300000D01*
%TO.N,LB_DA*%
X173500005Y-92500000D02*
X173100003Y-92900002D01*
X173100003Y-92900002D02*
X173100003Y-93300000D01*
X173500005Y-92500000D02*
X173500005Y-93500000D01*
%TO.N,LB_CLK*%
X174500003Y-92500000D02*
X174500003Y-93300000D01*
%TO.N,+3.3V*%
X195025000Y-91900000D02*
X195066311Y-91858689D01*
X195066311Y-91858689D02*
X195066311Y-85866311D01*
X195066311Y-85866311D02*
X194520000Y-85320000D01*
X194520000Y-85320000D02*
X194520000Y-85000000D01*
D53*
%TO.N,Net-(U1-PA6)*%
X194316311Y-86506215D02*
X194316311Y-86883969D01*
X193860096Y-86050000D02*
X194316311Y-86506215D01*
X193337500Y-86050000D02*
X193860096Y-86050000D01*
D51*
%TO.N,+3.3V*%
X191500000Y-91800000D02*
X192300000Y-91000000D01*
X192300000Y-91000000D02*
X194125000Y-91000000D01*
X194125000Y-91000000D02*
X195025000Y-91900000D01*
D50*
X195025000Y-93600000D02*
X195025000Y-91900000D01*
X187300000Y-99602799D02*
X193897201Y-99602799D01*
X193897201Y-99602799D02*
X195025000Y-98475000D01*
X195025000Y-98475000D02*
X195025000Y-93600000D01*
D53*
%TO.N,Net-(U1-PB8)*%
X191500000Y-93100000D02*
X192875000Y-93100000D01*
X192875000Y-93100000D02*
X193375000Y-93600000D01*
%TO.N,Net-(U1-PB9)*%
X191500000Y-92450001D02*
X192824999Y-92450001D01*
X192824999Y-92450001D02*
X193375000Y-91900000D01*
D51*
%TO.N,GND*%
X186821430Y-98949998D02*
X186985714Y-98785714D01*
X185658000Y-98949998D02*
X186821430Y-98949998D01*
D50*
%TO.N,+3.3V*%
X185710000Y-90500000D02*
X187587783Y-90500000D01*
X187587783Y-90500000D02*
X187800000Y-90712217D01*
D51*
%TO.N,Net-(U4-\u002ARESET)*%
X184690000Y-90500000D02*
X184521400Y-90668600D01*
X184521400Y-90668600D02*
X184521400Y-93027799D01*
X184521400Y-93027799D02*
X184593600Y-93099999D01*
X184593600Y-93099999D02*
X185658000Y-93099999D01*
D50*
%TO.N,GND*%
X186749999Y-92449999D02*
X186900000Y-92600000D01*
X185658000Y-92449999D02*
X186749999Y-92449999D01*
X186900000Y-91800000D02*
X187000000Y-91700000D01*
X185658000Y-91800000D02*
X186900000Y-91800000D01*
%TO.N,+3.3V*%
X187300000Y-99602799D02*
X187800000Y-99102799D01*
X187800000Y-99102799D02*
X187800000Y-90712217D01*
X187800000Y-90712217D02*
X186460000Y-89372217D01*
X186460000Y-89372217D02*
X186460000Y-89000000D01*
D53*
%TO.N,Net-(U1-PB8)*%
X189150000Y-87737500D02*
X189150000Y-91950000D01*
X189150000Y-91950000D02*
X190300000Y-93100000D01*
X190300000Y-93100000D02*
X191500000Y-93100000D01*
%TO.N,Net-(U1-PB9)*%
X189650000Y-87737500D02*
X189650000Y-91650000D01*
X189650000Y-91650000D02*
X190450001Y-92450001D01*
X190450001Y-92450001D02*
X191500000Y-92450001D01*
%TO.N,GND*%
X190400000Y-90500000D02*
X190400000Y-90180000D01*
X190800000Y-90900000D02*
X190400000Y-90500000D01*
D50*
X165600000Y-78500000D02*
X164700000Y-77600000D01*
X166200000Y-78500000D02*
X165600000Y-78500000D01*
%TO.N,+1V8*%
X166200000Y-80400000D02*
X165200000Y-80400000D01*
X165200000Y-80400000D02*
X163650000Y-81950000D01*
D53*
%TO.N,GND*%
X194880025Y-79880025D02*
X194850000Y-79850000D01*
X194850000Y-79850000D02*
X194850000Y-79500000D01*
%TO.N,RF_OUT*%
X195900000Y-83040000D02*
X196975000Y-83040000D01*
X196975000Y-83040000D02*
X197015000Y-83000000D01*
X193337500Y-83050000D02*
X195890000Y-83050000D01*
X195890000Y-83050000D02*
X195900000Y-83040000D01*
D50*
%TO.N,+1V8*%
X163650000Y-81950000D02*
X171250003Y-89550003D01*
X171250003Y-89550003D02*
X171250003Y-93949999D01*
X175100004Y-94200000D02*
X175550004Y-93750000D01*
X171250003Y-93949999D02*
X171500004Y-94200000D01*
X171500004Y-94200000D02*
X175100004Y-94200000D01*
X175550004Y-93750000D02*
X175550004Y-93300000D01*
D53*
%TO.N,+3.3V*%
X185200000Y-87880000D02*
X185509999Y-87880000D01*
X185509999Y-87880000D02*
X186460000Y-88830001D01*
X186460000Y-88830001D02*
X186460000Y-89000000D01*
D50*
%TO.N,VBUS*%
X161000000Y-88950000D02*
X160372316Y-88950000D01*
X160372316Y-88950000D02*
X159400000Y-87977684D01*
X159400000Y-87977684D02*
X159400000Y-86300000D01*
X159400000Y-86300000D02*
X157350000Y-84250000D01*
X163100000Y-90450000D02*
X163100000Y-86850000D01*
X163100000Y-86850000D02*
X163250000Y-86700000D01*
%TO.N,GND*%
X161000000Y-87950000D02*
X161000000Y-86700000D01*
X165750000Y-97200000D02*
X163950000Y-97200000D01*
X163950000Y-97200000D02*
X163650000Y-97500000D01*
X162300000Y-97500000D02*
X162000000Y-97200000D01*
X163650000Y-97500000D02*
X162300000Y-97500000D01*
%TO.N,+1V8*%
X157350000Y-81950000D02*
X163650000Y-81950000D01*
%TO.N,+3.3V*%
X156850000Y-95200000D02*
X163150000Y-95200000D01*
%TO.N,VBUS*%
X163150000Y-92900000D02*
X163150000Y-91100000D01*
X163150000Y-91100000D02*
X161000000Y-88950000D01*
D53*
%TO.N,GND*%
X193170000Y-89130000D02*
X193200000Y-89100000D01*
X192480000Y-89130000D02*
X193170000Y-89130000D01*
X192480000Y-89130000D02*
X192480000Y-90200000D01*
%TO.N,+3.3VA*%
X190650000Y-87737500D02*
X190650000Y-88260000D01*
X190650000Y-88260000D02*
X191520000Y-89130000D01*
X191520000Y-90200000D02*
X191520000Y-89130000D01*
%TO.N,Net-(U1-NRST(PB11))*%
X190150000Y-87737500D02*
X190150000Y-88970000D01*
X190150000Y-88970000D02*
X190400000Y-89220000D01*
%TO.N,GND*%
X185200000Y-86100000D02*
X185300000Y-86000000D01*
X185200000Y-86920000D02*
X185200000Y-86100000D01*
%TO.N,+3.3V*%
X186462500Y-87050000D02*
X185632500Y-87880000D01*
X185632500Y-87880000D02*
X185200000Y-87880000D01*
X187150000Y-87737500D02*
X187150000Y-88310000D01*
X187150000Y-88310000D02*
X186460000Y-89000000D01*
%TO.N,Net-(U1-OSC_IN)*%
X194850000Y-78100000D02*
X194850000Y-78650000D01*
X194850000Y-78650000D02*
X194284190Y-78650000D01*
X194284190Y-78650000D02*
X194100000Y-78834190D01*
X194100000Y-78834190D02*
X194100000Y-79900000D01*
X194100000Y-79900000D02*
X193137500Y-80862500D01*
X193137500Y-80862500D02*
X192650000Y-80862500D01*
%TO.N,Net-(U1-OSC_OUT)*%
X193337500Y-81550000D02*
X193953532Y-80933968D01*
X193953532Y-80933968D02*
X194816032Y-80933968D01*
X194816032Y-80933968D02*
X195950000Y-79800000D01*
X195950000Y-79800000D02*
X195950000Y-79500000D01*
%TO.N,GND*%
X187480000Y-89260846D02*
X187817567Y-89598413D01*
X187480000Y-89000000D02*
X187480000Y-89260846D01*
%TO.N,Net-(U1-PH3)*%
X188650000Y-87737500D02*
X188650000Y-88850000D01*
X188650000Y-88850000D02*
X188500000Y-89000000D01*
%TO.N,GND*%
X196980000Y-80900000D02*
X197800000Y-80900000D01*
X196200000Y-85000000D02*
X196300000Y-84900000D01*
X195480000Y-85000000D02*
X196200000Y-85000000D01*
D54*
%TO.N,+3.3V*%
X193337500Y-83550000D02*
X193789386Y-83550000D01*
X193789386Y-83550000D02*
X194620000Y-84380614D01*
X194620000Y-84380614D02*
X194620000Y-84900000D01*
D50*
%TO.N,GND*%
X196400000Y-78100000D02*
X196800000Y-77700000D01*
X195950000Y-78100000D02*
X196400000Y-78100000D01*
%TO.N,+3.3V*%
X191725000Y-75975000D02*
X192000000Y-75700000D01*
X190500000Y-79560000D02*
X191465000Y-79560000D01*
X191465000Y-79560000D02*
X191725000Y-79300000D01*
D54*
%TO.N,RF_OUT*%
X195740000Y-83040000D02*
X195730000Y-83050000D01*
%TO.N,GND*%
X195580000Y-81900000D02*
X196500000Y-81900000D01*
%TO.N,Net-(U1-OSC_IN)*%
X192650000Y-80862500D02*
X192650000Y-80600000D01*
%TO.N,+3.3V*%
X189650000Y-80862500D02*
X189650000Y-79730000D01*
X189650000Y-79730000D02*
X189500000Y-79580000D01*
X188650000Y-80862500D02*
X188650000Y-80120001D01*
X188650000Y-80120001D02*
X189190001Y-79580000D01*
X189190001Y-79580000D02*
X189500000Y-79580000D01*
X188150000Y-80862500D02*
X188150000Y-79930000D01*
X188150000Y-79930000D02*
X188500000Y-79580000D01*
X187650000Y-80862500D02*
X187650000Y-79830000D01*
X187650000Y-79830000D02*
X187400000Y-79580000D01*
D50*
X190500000Y-79560000D02*
X187420000Y-79560000D01*
X187420000Y-79560000D02*
X187400000Y-79580000D01*
D54*
%TO.N,GND*%
X193337500Y-82550000D02*
X191650000Y-82550000D01*
X191650000Y-82550000D02*
X189900000Y-84300000D01*
X189150000Y-80862500D02*
X189150000Y-83550000D01*
X189150000Y-83550000D02*
X189900000Y-84300000D01*
D50*
X189900000Y-84350000D02*
X188000000Y-86250000D01*
X189900000Y-84300000D02*
X189900000Y-84350000D01*
X177173101Y-73136288D02*
X176874913Y-72838100D01*
X177173101Y-73463101D02*
X177173101Y-73136288D01*
D53*
X199100000Y-83980000D02*
X198320000Y-83980000D01*
D54*
X170273101Y-72183101D02*
X169993101Y-72463101D01*
X175314461Y-73013101D02*
X174943101Y-73013101D01*
X175518101Y-73216741D02*
X175314461Y-73013101D01*
X175518101Y-73216741D02*
X175518101Y-73925475D01*
X175450000Y-73993576D02*
X175369525Y-73913101D01*
X170723101Y-72213101D02*
X170693101Y-72183101D01*
X175518101Y-73925475D02*
X175450000Y-73993576D01*
D53*
X198320000Y-83980000D02*
X198300000Y-84000000D01*
D54*
X175369525Y-73913101D02*
X174443101Y-73913101D01*
D53*
X200790400Y-82871400D02*
X200790400Y-82009600D01*
D54*
X171943101Y-72213101D02*
X170723101Y-72213101D01*
X170693101Y-72183101D02*
X170273101Y-72183101D01*
D53*
X200790400Y-84290400D02*
X200800000Y-84300000D01*
D54*
X171333101Y-70303101D02*
X171593101Y-70563101D01*
D53*
X200790400Y-82009600D02*
X200800000Y-82000000D01*
X195900000Y-84000000D02*
X196700000Y-84000000D01*
X200790400Y-83328600D02*
X200790400Y-84290400D01*
D54*
X170793101Y-70303101D02*
X171333101Y-70303101D01*
D53*
X196700000Y-84000000D02*
X196800000Y-84100000D01*
D54*
%TO.N,Net-(U2-IN)*%
X198005000Y-83020000D02*
X197985000Y-83000000D01*
X199180000Y-83100000D02*
X199100000Y-83020000D01*
X199100000Y-83020000D02*
X198005000Y-83020000D01*
X200180800Y-83100000D02*
X199180000Y-83100000D01*
D51*
%TO.N,Net-(AE1-A)*%
X202212500Y-83112500D02*
X201431500Y-83112500D01*
X201431500Y-83112500D02*
X201419000Y-83100000D01*
D53*
%TO.N,Net-(U4-SD0)*%
X176293101Y-71263101D02*
X176318101Y-71288101D01*
D54*
X176143101Y-71413101D02*
X176293101Y-71263101D01*
X174943101Y-71413101D02*
X176143101Y-71413101D01*
%TO.N,+1V8*%
X176213101Y-73111741D02*
X176213101Y-73463101D01*
X174943101Y-72213101D02*
X175314461Y-72213101D01*
D50*
X177893101Y-70538101D02*
X177218101Y-70538101D01*
X177218101Y-70538101D02*
X176293101Y-69613101D01*
D54*
X171943101Y-71813101D02*
X171343101Y-71813101D01*
X175314461Y-72213101D02*
X176213101Y-73111741D01*
X171343101Y-71813101D02*
X170793101Y-71263101D01*
%TO.N,Net-(U6-REGOUT)*%
X171943101Y-72613101D02*
X171223101Y-72613101D01*
X171223101Y-72613101D02*
X170693101Y-73143101D01*
D50*
%TO.N,+1V8*%
X171192205Y-74793576D02*
X176162626Y-74793576D01*
%TD*%
M02*
