M48
; DRILL file {KiCad 8.0.6} date 2024-11-26T20:51:27-0500
; FORMAT={-:-/ absolute / inch / decimal}
; #@! TF.CreationDate,2024-11-26T20:51:27-05:00
; #@! TF.GenerationSoftware,Kicad,Pcbnew,8.0.6
; #@! TF.FileFunction,Plated,1,2,PTH
FMAT,2
INCH
; #@! TA.AperFunction,Plated,PTH,ViaDrill
T1C0.0118
; #@! TA.AperFunction,Plated,PTH,ComponentDrill
T2C0.0394
%
G90
G05
T1
X6.1614Y-3.6516
X6.2173Y-3.0345
X6.3189Y-2.6831
X6.3189Y-2.9705
X6.3386Y-3.4134
X6.3543Y-2.7677
X6.378Y-3.8268
X6.4843Y-3.0551
X6.5394Y-3.4685
X6.5394Y-3.5
X6.6926Y-2.8529
X6.6988Y-3.3268
X6.6988Y-3.749
X6.7556Y-2.7781
X6.7835Y-3.2126
X6.7874Y-3.6299
X6.9075Y-2.9131
X6.9636Y-2.8676
X6.9862Y-3.3268
X6.9862Y-3.749
X7.2717Y-3.5
X7.2795Y-3.2165
X7.2953Y-3.3858
X7.3376Y-3.0945
X7.3386Y-3.1378
X7.3583Y-3.6457
X7.3616Y-3.8892
X7.3622Y-3.6102
X7.3944Y-3.5275
X7.4016Y-3.3957
X7.4628Y-3.7185
X7.4653Y-3.7538
X7.4764Y-3.3189
X7.4867Y-3.6924
X7.5118Y-3.5787
X7.5394Y-2.8543
X7.594Y-3.0949
X7.6063Y-3.5079
X7.6502Y-3.4206
X7.6724Y-3.1449
X7.6732Y-2.8445
X7.7049Y-2.8109
X7.7126Y-3.4213
X7.7283Y-3.3425
X7.7362Y-3.2244
X7.748Y-3.0591
X7.748Y-3.311
X7.7874Y-3.185
X7.8071Y-3.3071
X7.9055Y-3.2283
X7.9055Y-3.3189
X7.9232Y-3.7913
X8.1988Y-2.8937
X8.2304Y-2.687
X8.2304Y-2.9744
T2
X7.163Y-2.9724
X7.263Y-2.9724
X7.363Y-2.9724
X7.463Y-2.9724
X7.563Y-2.9724
M30
