%TF.GenerationSoftware,KiCad,Pcbnew,8.0.6*%
%TF.CreationDate,2024-11-26T20:51:27-05:00*%
%TF.ProjectId,pb_mobo_final,70625f6d-6f62-46f5-9f66-696e616c2e6b,rev?*%
%TF.SameCoordinates,Original*%
%TF.FileFunction,Paste,Top*%
%TF.FilePolarity,Positive*%
%FSLAX46Y46*%
G04 Gerber Fmt 4.6, Leading zero omitted, Abs format (unit mm)*
G04 Created by KiCad (PCBNEW 8.0.6) date 2024-11-26 20:51:27*
%MOMM*%
%LPD*%
G01*
G04 APERTURE LIST*
G04 Aperture macros list*
%AMRoundRect*
0 Rectangle with rounded corners*
0 $1 Rounding radius*
0 $2 $3 $4 $5 $6 $7 $8 $9 X,Y pos of 4 corners*
0 Add a 4 corners polygon primitive as box body*
4,1,4,$2,$3,$4,$5,$6,$7,$8,$9,$2,$3,0*
0 Add four circle primitives for the rounded corners*
1,1,$1+$1,$2,$3*
1,1,$1+$1,$4,$5*
1,1,$1+$1,$6,$7*
1,1,$1+$1,$8,$9*
0 Add four rect primitives between the rounded corners*
20,1,$1+$1,$2,$3,$4,$5,0*
20,1,$1+$1,$4,$5,$6,$7,0*
20,1,$1+$1,$6,$7,$8,$9,0*
20,1,$1+$1,$8,$9,$2,$3,0*%
G04 Aperture macros list end*
%ADD10C,0.000000*%
%ADD11RoundRect,0.050000X-0.050000X0.225000X-0.050000X-0.225000X0.050000X-0.225000X0.050000X0.225000X0*%
%ADD12RoundRect,0.050000X-0.225000X-0.050000X0.225000X-0.050000X0.225000X0.050000X-0.225000X0.050000X0*%
%ADD13RoundRect,0.250000X-0.250000X-0.475000X0.250000X-0.475000X0.250000X0.475000X-0.250000X0.475000X0*%
%ADD14RoundRect,0.140000X0.170000X-0.140000X0.170000X0.140000X-0.170000X0.140000X-0.170000X-0.140000X0*%
%ADD15RoundRect,0.140000X-0.170000X0.140000X-0.170000X-0.140000X0.170000X-0.140000X0.170000X0.140000X0*%
%ADD16RoundRect,0.140000X-0.140000X-0.170000X0.140000X-0.170000X0.140000X0.170000X-0.140000X0.170000X0*%
%ADD17RoundRect,0.375000X-0.625000X-0.375000X0.625000X-0.375000X0.625000X0.375000X-0.625000X0.375000X0*%
%ADD18RoundRect,0.500000X-0.500000X-1.400000X0.500000X-1.400000X0.500000X1.400000X-0.500000X1.400000X0*%
%ADD19RoundRect,0.200000X0.275000X-0.200000X0.275000X0.200000X-0.275000X0.200000X-0.275000X-0.200000X0*%
%ADD20R,3.049999X1.300000*%
%ADD21R,0.800000X0.300000*%
%ADD22R,0.300000X0.800000*%
%ADD23R,1.300000X3.049999*%
%ADD24RoundRect,0.150000X-0.625000X0.150000X-0.625000X-0.150000X0.625000X-0.150000X0.625000X0.150000X0*%
%ADD25RoundRect,0.250000X-0.650000X0.350000X-0.650000X-0.350000X0.650000X-0.350000X0.650000X0.350000X0*%
%ADD26RoundRect,0.200000X0.200000X0.275000X-0.200000X0.275000X-0.200000X-0.275000X0.200000X-0.275000X0*%
%ADD27RoundRect,0.225000X-0.225000X-0.250000X0.225000X-0.250000X0.225000X0.250000X-0.225000X0.250000X0*%
%ADD28R,0.900000X1.000000*%
%ADD29R,1.700000X0.550000*%
%ADD30RoundRect,0.140000X0.140000X0.170000X-0.140000X0.170000X-0.140000X-0.170000X0.140000X-0.170000X0*%
%ADD31RoundRect,0.135000X-0.135000X-0.185000X0.135000X-0.185000X0.135000X0.185000X-0.135000X0.185000X0*%
%ADD32RoundRect,0.250000X0.315000X-0.315000X0.315000X0.315000X-0.315000X0.315000X-0.315000X-0.315000X0*%
%ADD33RoundRect,0.062500X0.062500X-0.375000X0.062500X0.375000X-0.062500X0.375000X-0.062500X-0.375000X0*%
%ADD34RoundRect,0.062500X0.375000X-0.062500X0.375000X0.062500X-0.375000X0.062500X-0.375000X-0.062500X0*%
%ADD35RoundRect,0.147500X-0.147500X-0.172500X0.147500X-0.172500X0.147500X0.172500X-0.147500X0.172500X0*%
%ADD36RoundRect,0.250000X0.475000X-0.250000X0.475000X0.250000X-0.475000X0.250000X-0.475000X-0.250000X0*%
%ADD37RoundRect,0.375000X0.625000X0.375000X-0.625000X0.375000X-0.625000X-0.375000X0.625000X-0.375000X0*%
%ADD38RoundRect,0.500000X0.500000X1.400000X-0.500000X1.400000X-0.500000X-1.400000X0.500000X-1.400000X0*%
%ADD39R,0.800000X0.900000*%
%ADD40R,0.457200X0.254000*%
%ADD41R,0.279400X0.711200*%
%ADD42RoundRect,0.135000X0.135000X0.185000X-0.135000X0.185000X-0.135000X-0.185000X0.135000X-0.185000X0*%
%ADD43RoundRect,0.250000X-0.475000X0.250000X-0.475000X-0.250000X0.475000X-0.250000X0.475000X0.250000X0*%
%ADD44R,1.473200X0.355600*%
G04 APERTURE END LIST*
D10*
%TO.C,J6*%
G36*
X162025000Y-77200003D02*
G01*
X159825000Y-77200003D01*
X159825000Y-76100003D01*
X162025000Y-76100003D01*
X162025000Y-77200003D01*
G37*
G36*
X162025000Y-67500003D02*
G01*
X159825000Y-67500003D01*
X159825000Y-66400003D01*
X162025000Y-66400003D01*
X162025000Y-67500003D01*
G37*
%TO.C,J4*%
G36*
X169500000Y-85175000D02*
G01*
X168400000Y-85175000D01*
X168400000Y-82975000D01*
X169500000Y-82975000D01*
X169500000Y-85175000D01*
G37*
G36*
X179200000Y-85175000D02*
G01*
X178100000Y-85175000D01*
X178100000Y-82975000D01*
X179200000Y-82975000D01*
X179200000Y-85175000D01*
G37*
%TO.C,J5*%
G36*
X209726070Y-77300000D02*
G01*
X207526070Y-77300000D01*
X207526070Y-76200000D01*
X209726070Y-76200000D01*
X209726070Y-77300000D01*
G37*
G36*
X209726070Y-67600000D02*
G01*
X207526070Y-67600000D01*
X207526070Y-66500000D01*
X209726070Y-66500000D01*
X209726070Y-67600000D01*
G37*
%TO.C,J3*%
G36*
X169500000Y-95900000D02*
G01*
X168400000Y-95900000D01*
X168400000Y-93700000D01*
X169500000Y-93700000D01*
X169500000Y-95900000D01*
G37*
G36*
X179200000Y-95900000D02*
G01*
X178100000Y-95900000D01*
X178100000Y-93700000D01*
X179200000Y-93700000D01*
X179200000Y-95900000D01*
G37*
%TD*%
D11*
%TO.C,U6*%
X174443101Y-70913101D03*
X174043101Y-70913101D03*
X173643101Y-70913101D03*
X173243101Y-70913101D03*
X172843101Y-70913101D03*
X172443101Y-70913101D03*
D12*
X171943101Y-71413101D03*
X171943101Y-71813101D03*
X171943101Y-72213101D03*
X171943101Y-72613101D03*
X171943101Y-73013101D03*
X171943101Y-73413101D03*
D11*
X172443101Y-73913101D03*
X172843101Y-73913101D03*
X173243101Y-73913101D03*
X173643101Y-73913101D03*
X174043101Y-73913101D03*
X174443101Y-73913101D03*
D12*
X174943101Y-73413101D03*
X174943101Y-73013101D03*
X174943101Y-72613101D03*
X174943101Y-72213101D03*
X174943101Y-71813101D03*
X174943101Y-71413101D03*
%TD*%
D13*
%TO.C,C21*%
X163250000Y-86700000D03*
X165150000Y-86700000D03*
%TD*%
D14*
%TO.C,C5*%
X189500000Y-79580000D03*
X189500000Y-78620000D03*
%TD*%
D15*
%TO.C,C3*%
X190400000Y-89220000D03*
X190400000Y-90180000D03*
%TD*%
D16*
%TO.C,C13*%
X191520000Y-90200000D03*
X192480000Y-90200000D03*
%TD*%
D17*
%TO.C,U5*%
X157350000Y-79650000D03*
X157350000Y-81950000D03*
D18*
X163650000Y-81950000D03*
D17*
X157350000Y-84250000D03*
%TD*%
D19*
%TO.C,R5*%
X176293101Y-71263101D03*
X176293101Y-69613101D03*
%TD*%
D16*
%TO.C,C12*%
X191520000Y-89130000D03*
X192480000Y-89130000D03*
%TD*%
D20*
%TO.C,J6*%
X160500000Y-75450000D03*
X160500000Y-68150006D03*
D21*
X162425000Y-73550007D03*
X162425000Y-73050006D03*
X162425000Y-72550007D03*
X162425000Y-72050008D03*
X162425000Y-71550006D03*
X162425000Y-71050007D03*
X162425000Y-70550006D03*
X162425000Y-70050007D03*
%TD*%
D22*
%TO.C,J4*%
X172050004Y-82575000D03*
X172550003Y-82575000D03*
X173050004Y-82575000D03*
X173550003Y-82575000D03*
X174050005Y-82575000D03*
X174550004Y-82575000D03*
X175050003Y-82575000D03*
X175550004Y-82575000D03*
D23*
X170150003Y-84500000D03*
X177449997Y-84500000D03*
%TD*%
D24*
%TO.C,J2*%
X161000000Y-87950000D03*
X161000000Y-88950000D03*
D25*
X157125000Y-86650000D03*
X157125000Y-90250000D03*
%TD*%
D14*
%TO.C,C9*%
X187400000Y-79580000D03*
X187400000Y-78620000D03*
%TD*%
%TO.C,C24*%
X170793101Y-71263101D03*
X170793101Y-70303101D03*
%TD*%
%TO.C,C6*%
X190500000Y-79560000D03*
X190500000Y-78600000D03*
%TD*%
D15*
%TO.C,C16*%
X199100000Y-83980000D03*
X199100000Y-83020000D03*
%TD*%
D26*
%TO.C,R2*%
X193375000Y-93600000D03*
X195025000Y-93600000D03*
%TD*%
D14*
%TO.C,C22*%
X170693101Y-73143101D03*
X170693101Y-72183101D03*
%TD*%
%TO.C,C10*%
X188500000Y-79580000D03*
X188500000Y-78620000D03*
%TD*%
D16*
%TO.C,C15*%
X194620000Y-81900000D03*
X195580000Y-81900000D03*
%TD*%
D27*
%TO.C,C11*%
X191725000Y-79300000D03*
X193275000Y-79300000D03*
%TD*%
D28*
%TO.C,SW2*%
X199200000Y-94700000D03*
X203300000Y-94700000D03*
X199200000Y-96300000D03*
X203300000Y-96300000D03*
D29*
X201250000Y-94075000D03*
%TD*%
D30*
%TO.C,C1*%
X193460000Y-77900000D03*
X192500000Y-77900000D03*
%TD*%
D14*
%TO.C,C2*%
X197300000Y-78520000D03*
X197300000Y-79480000D03*
%TD*%
%TO.C,C4*%
X185200000Y-87880000D03*
X185200000Y-86920000D03*
%TD*%
D26*
%TO.C,R1*%
X195025000Y-91900000D03*
X193375000Y-91900000D03*
%TD*%
D31*
%TO.C,R4*%
X187480000Y-89000000D03*
X188500000Y-89000000D03*
%TD*%
D16*
%TO.C,C14*%
X196020000Y-80900000D03*
X196980000Y-80900000D03*
%TD*%
D30*
%TO.C,C7*%
X186460000Y-89000000D03*
X185500000Y-89000000D03*
%TD*%
D32*
%TO.C,U1*%
X187800000Y-86400000D03*
X189200000Y-86400000D03*
X190600000Y-86400000D03*
X192000000Y-86400000D03*
X187800000Y-85000000D03*
X189200000Y-85000000D03*
X190600000Y-85000000D03*
X192000000Y-85000000D03*
X187800000Y-83600000D03*
X189200000Y-83600000D03*
X190600000Y-83600000D03*
X192000000Y-83600000D03*
X187800000Y-82200000D03*
X189200000Y-82200000D03*
X190600000Y-82200000D03*
X192000000Y-82200000D03*
D33*
X187150000Y-87737500D03*
X187650000Y-87737500D03*
X188150000Y-87737500D03*
X188650000Y-87737500D03*
X189150000Y-87737500D03*
X189650000Y-87737500D03*
X190150000Y-87737500D03*
X190650000Y-87737500D03*
X191150000Y-87737500D03*
X191650000Y-87737500D03*
X192150000Y-87737500D03*
X192650000Y-87737500D03*
D34*
X193337500Y-87050000D03*
X193337500Y-86550000D03*
X193337500Y-86050000D03*
X193337500Y-85550000D03*
X193337500Y-85050000D03*
X193337500Y-84550000D03*
X193337500Y-84050000D03*
X193337500Y-83550000D03*
X193337500Y-83050000D03*
X193337500Y-82550000D03*
X193337500Y-82050000D03*
X193337500Y-81550000D03*
D33*
X192650000Y-80862500D03*
X192150000Y-80862500D03*
X191650000Y-80862500D03*
X191150000Y-80862500D03*
X190650000Y-80862500D03*
X190150000Y-80862500D03*
X189650000Y-80862500D03*
X189150000Y-80862500D03*
X188650000Y-80862500D03*
X188150000Y-80862500D03*
X187650000Y-80862500D03*
X187150000Y-80862500D03*
D34*
X186462500Y-81550000D03*
X186462500Y-82050000D03*
X186462500Y-82550000D03*
X186462500Y-83050000D03*
X186462500Y-83550000D03*
X186462500Y-84050000D03*
X186462500Y-84550000D03*
X186462500Y-85050000D03*
X186462500Y-85550000D03*
X186462500Y-86050000D03*
X186462500Y-86550000D03*
X186462500Y-87050000D03*
%TD*%
D35*
%TO.C,L1*%
X197985000Y-83000000D03*
X197015000Y-83000000D03*
%TD*%
D36*
%TO.C,C20*%
X166200000Y-80400000D03*
X166200000Y-78500000D03*
%TD*%
D20*
%TO.C,J5*%
X209051070Y-68250003D03*
X209051070Y-75549997D03*
D21*
X207126070Y-70149996D03*
X207126070Y-70649997D03*
X207126070Y-71149996D03*
X207126070Y-71649995D03*
X207126070Y-72149997D03*
X207126070Y-72649996D03*
X207126070Y-73149997D03*
X207126070Y-73649996D03*
%TD*%
D16*
%TO.C,C8*%
X194520000Y-85000000D03*
X195480000Y-85000000D03*
%TD*%
D37*
%TO.C,U3*%
X163650000Y-97500000D03*
X163650000Y-95200000D03*
D38*
X157350000Y-95200000D03*
D37*
X163650000Y-92900000D03*
%TD*%
D39*
%TO.C,Y1*%
X195950000Y-78100000D03*
X195950000Y-79500000D03*
X194850000Y-79500000D03*
X194850000Y-78100000D03*
%TD*%
D15*
%TO.C,C17*%
X195900000Y-84000000D03*
X195900000Y-83040000D03*
%TD*%
D40*
%TO.C,U2*%
X200790400Y-83328600D03*
D41*
X201400000Y-83100000D03*
D40*
X200790400Y-82871400D03*
D41*
X200180800Y-83100000D03*
%TD*%
D42*
%TO.C,R3*%
X185710000Y-90500000D03*
X184690000Y-90500000D03*
%TD*%
D43*
%TO.C,C18*%
X166000000Y-97250000D03*
X166000000Y-95350000D03*
%TD*%
D16*
%TO.C,C23*%
X177173101Y-73463101D03*
X176213101Y-73463101D03*
%TD*%
D13*
%TO.C,C19*%
X163150000Y-90450000D03*
X165050000Y-90450000D03*
%TD*%
D19*
%TO.C,R6*%
X177893101Y-72188101D03*
X177893101Y-70538101D03*
%TD*%
D44*
%TO.C,U4*%
X185658000Y-91800000D03*
X185658000Y-92449999D03*
X185658000Y-93099997D03*
X185658000Y-93749998D03*
X185658000Y-94399997D03*
X185658000Y-95049998D03*
X185658000Y-95699997D03*
X185658000Y-96349998D03*
X185658000Y-96999997D03*
X185658000Y-97649998D03*
X185658000Y-98299997D03*
X185658000Y-98949998D03*
X191500000Y-98949998D03*
X191500000Y-98299999D03*
X191500000Y-97649998D03*
X191500000Y-97000000D03*
X191500000Y-96349998D03*
X191500000Y-95700000D03*
X191500000Y-95050001D03*
X191500000Y-94400000D03*
X191500000Y-93750001D03*
X191500000Y-93100000D03*
X191500000Y-92450001D03*
X191500000Y-91800000D03*
%TD*%
D22*
%TO.C,J3*%
X172050004Y-93300000D03*
X172550003Y-93300000D03*
X173050004Y-93300000D03*
X173550003Y-93300000D03*
X174050005Y-93300000D03*
X174550004Y-93300000D03*
X175050003Y-93300000D03*
X175550004Y-93300000D03*
D23*
X170150003Y-95225000D03*
X177449997Y-95225000D03*
%TD*%
M02*
