%TF.GenerationSoftware,KiCad,Pcbnew,8.0.6*%
%TF.CreationDate,2024-11-26T20:51:27-05:00*%
%TF.ProjectId,pb_mobo_final,70625f6d-6f62-46f5-9f66-696e616c2e6b,rev?*%
%TF.SameCoordinates,Original*%
%TF.FileFunction,Legend,Top*%
%TF.FilePolarity,Positive*%
%FSLAX46Y46*%
G04 Gerber Fmt 4.6, Leading zero omitted, Abs format (unit mm)*
G04 Created by KiCad (PCBNEW 8.0.6) date 2024-11-26 20:51:27*
%MOMM*%
%LPD*%
G01*
G04 APERTURE LIST*
G04 Aperture macros list*
%AMRoundRect*
0 Rectangle with rounded corners*
0 $1 Rounding radius*
0 $2 $3 $4 $5 $6 $7 $8 $9 X,Y pos of 4 corners*
0 Add a 4 corners polygon primitive as box body*
4,1,4,$2,$3,$4,$5,$6,$7,$8,$9,$2,$3,0*
0 Add four circle primitives for the rounded corners*
1,1,$1+$1,$2,$3*
1,1,$1+$1,$4,$5*
1,1,$1+$1,$6,$7*
1,1,$1+$1,$8,$9*
0 Add four rect primitives between the rounded corners*
20,1,$1+$1,$2,$3,$4,$5,0*
20,1,$1+$1,$4,$5,$6,$7,0*
20,1,$1+$1,$6,$7,$8,$9,0*
20,1,$1+$1,$8,$9,$2,$3,0*%
G04 Aperture macros list end*
%ADD10C,0.150000*%
%ADD11C,0.153000*%
%ADD12C,0.120000*%
%ADD13C,0.152400*%
%ADD14C,0.000000*%
%ADD15C,1.300000*%
%ADD16RoundRect,0.050000X-0.050000X0.225000X-0.050000X-0.225000X0.050000X-0.225000X0.050000X0.225000X0*%
%ADD17RoundRect,0.050000X-0.225000X-0.050000X0.225000X-0.050000X0.225000X0.050000X-0.225000X0.050000X0*%
%ADD18RoundRect,0.250000X-0.250000X-0.475000X0.250000X-0.475000X0.250000X0.475000X-0.250000X0.475000X0*%
%ADD19RoundRect,0.140000X0.170000X-0.140000X0.170000X0.140000X-0.170000X0.140000X-0.170000X-0.140000X0*%
%ADD20RoundRect,0.140000X-0.170000X0.140000X-0.170000X-0.140000X0.170000X-0.140000X0.170000X0.140000X0*%
%ADD21RoundRect,0.140000X-0.140000X-0.170000X0.140000X-0.170000X0.140000X0.170000X-0.140000X0.170000X0*%
%ADD22RoundRect,0.375000X-0.625000X-0.375000X0.625000X-0.375000X0.625000X0.375000X-0.625000X0.375000X0*%
%ADD23RoundRect,0.500000X-0.500000X-1.400000X0.500000X-1.400000X0.500000X1.400000X-0.500000X1.400000X0*%
%ADD24R,1.700000X1.700000*%
%ADD25O,1.700000X1.700000*%
%ADD26RoundRect,0.200000X0.275000X-0.200000X0.275000X0.200000X-0.275000X0.200000X-0.275000X-0.200000X0*%
%ADD27R,3.049999X1.300000*%
%ADD28R,0.800000X0.300000*%
%ADD29R,0.300000X0.800000*%
%ADD30R,1.300000X3.049999*%
%ADD31RoundRect,0.150000X-0.625000X0.150000X-0.625000X-0.150000X0.625000X-0.150000X0.625000X0.150000X0*%
%ADD32RoundRect,0.250000X-0.650000X0.350000X-0.650000X-0.350000X0.650000X-0.350000X0.650000X0.350000X0*%
%ADD33RoundRect,0.200000X0.200000X0.275000X-0.200000X0.275000X-0.200000X-0.275000X0.200000X-0.275000X0*%
%ADD34RoundRect,0.225000X-0.225000X-0.250000X0.225000X-0.250000X0.225000X0.250000X-0.225000X0.250000X0*%
%ADD35R,0.900000X1.000000*%
%ADD36R,1.700000X0.550000*%
%ADD37RoundRect,0.140000X0.140000X0.170000X-0.140000X0.170000X-0.140000X-0.170000X0.140000X-0.170000X0*%
%ADD38RoundRect,0.135000X-0.135000X-0.185000X0.135000X-0.185000X0.135000X0.185000X-0.135000X0.185000X0*%
%ADD39RoundRect,0.062500X0.062500X-0.375000X0.062500X0.375000X-0.062500X0.375000X-0.062500X-0.375000X0*%
%ADD40RoundRect,0.062500X0.375000X-0.062500X0.375000X0.062500X-0.375000X0.062500X-0.375000X-0.062500X0*%
%ADD41R,5.600000X5.600000*%
%ADD42RoundRect,0.147500X-0.147500X-0.172500X0.147500X-0.172500X0.147500X0.172500X-0.147500X0.172500X0*%
%ADD43RoundRect,0.250000X0.475000X-0.250000X0.475000X0.250000X-0.475000X0.250000X-0.475000X-0.250000X0*%
%ADD44RoundRect,0.375000X0.625000X0.375000X-0.625000X0.375000X-0.625000X-0.375000X0.625000X-0.375000X0*%
%ADD45RoundRect,0.500000X0.500000X1.400000X-0.500000X1.400000X-0.500000X-1.400000X0.500000X-1.400000X0*%
%ADD46R,0.800000X0.900000*%
%ADD47R,0.457200X0.254000*%
%ADD48R,0.279400X0.711200*%
%ADD49RoundRect,0.135000X0.135000X0.185000X-0.135000X0.185000X-0.135000X-0.185000X0.135000X-0.185000X0*%
%ADD50RoundRect,0.250000X-0.475000X0.250000X-0.475000X-0.250000X0.475000X-0.250000X0.475000X0.250000X0*%
%ADD51R,1.473200X0.355600*%
G04 APERTURE END LIST*
D10*
X205420112Y-93346009D02*
X205086779Y-93346009D01*
X205086779Y-93869819D02*
X205086779Y-92869819D01*
X205086779Y-92869819D02*
X205562969Y-92869819D01*
X205943922Y-93869819D02*
X205943922Y-92869819D01*
X206420112Y-93869819D02*
X206420112Y-92869819D01*
X206420112Y-92869819D02*
X206991540Y-93869819D01*
X206991540Y-93869819D02*
X206991540Y-92869819D01*
X207420112Y-93584104D02*
X207896302Y-93584104D01*
X207324874Y-93869819D02*
X207658207Y-92869819D01*
X207658207Y-92869819D02*
X207991540Y-93869819D01*
X208801064Y-93869819D02*
X208324874Y-93869819D01*
X208324874Y-93869819D02*
X208324874Y-92869819D01*
X210467731Y-93869819D02*
X210134398Y-93393628D01*
X209896303Y-93869819D02*
X209896303Y-92869819D01*
X209896303Y-92869819D02*
X210277255Y-92869819D01*
X210277255Y-92869819D02*
X210372493Y-92917438D01*
X210372493Y-92917438D02*
X210420112Y-92965057D01*
X210420112Y-92965057D02*
X210467731Y-93060295D01*
X210467731Y-93060295D02*
X210467731Y-93203152D01*
X210467731Y-93203152D02*
X210420112Y-93298390D01*
X210420112Y-93298390D02*
X210372493Y-93346009D01*
X210372493Y-93346009D02*
X210277255Y-93393628D01*
X210277255Y-93393628D02*
X209896303Y-93393628D01*
X210896303Y-93346009D02*
X211229636Y-93346009D01*
X211372493Y-93869819D02*
X210896303Y-93869819D01*
X210896303Y-93869819D02*
X210896303Y-92869819D01*
X210896303Y-92869819D02*
X211372493Y-92869819D01*
X211658208Y-92869819D02*
X211991541Y-93869819D01*
X211991541Y-93869819D02*
X212324874Y-92869819D01*
X201836779Y-92119819D02*
X201836779Y-91119819D01*
X201836779Y-91119819D02*
X202217731Y-91119819D01*
X202217731Y-91119819D02*
X202312969Y-91167438D01*
X202312969Y-91167438D02*
X202360588Y-91215057D01*
X202360588Y-91215057D02*
X202408207Y-91310295D01*
X202408207Y-91310295D02*
X202408207Y-91453152D01*
X202408207Y-91453152D02*
X202360588Y-91548390D01*
X202360588Y-91548390D02*
X202312969Y-91596009D01*
X202312969Y-91596009D02*
X202217731Y-91643628D01*
X202217731Y-91643628D02*
X201836779Y-91643628D01*
X203027255Y-91119819D02*
X203217731Y-91119819D01*
X203217731Y-91119819D02*
X203312969Y-91167438D01*
X203312969Y-91167438D02*
X203408207Y-91262676D01*
X203408207Y-91262676D02*
X203455826Y-91453152D01*
X203455826Y-91453152D02*
X203455826Y-91786485D01*
X203455826Y-91786485D02*
X203408207Y-91976961D01*
X203408207Y-91976961D02*
X203312969Y-92072200D01*
X203312969Y-92072200D02*
X203217731Y-92119819D01*
X203217731Y-92119819D02*
X203027255Y-92119819D01*
X203027255Y-92119819D02*
X202932017Y-92072200D01*
X202932017Y-92072200D02*
X202836779Y-91976961D01*
X202836779Y-91976961D02*
X202789160Y-91786485D01*
X202789160Y-91786485D02*
X202789160Y-91453152D01*
X202789160Y-91453152D02*
X202836779Y-91262676D01*
X202836779Y-91262676D02*
X202932017Y-91167438D01*
X202932017Y-91167438D02*
X203027255Y-91119819D01*
X203836779Y-92072200D02*
X203979636Y-92119819D01*
X203979636Y-92119819D02*
X204217731Y-92119819D01*
X204217731Y-92119819D02*
X204312969Y-92072200D01*
X204312969Y-92072200D02*
X204360588Y-92024580D01*
X204360588Y-92024580D02*
X204408207Y-91929342D01*
X204408207Y-91929342D02*
X204408207Y-91834104D01*
X204408207Y-91834104D02*
X204360588Y-91738866D01*
X204360588Y-91738866D02*
X204312969Y-91691247D01*
X204312969Y-91691247D02*
X204217731Y-91643628D01*
X204217731Y-91643628D02*
X204027255Y-91596009D01*
X204027255Y-91596009D02*
X203932017Y-91548390D01*
X203932017Y-91548390D02*
X203884398Y-91500771D01*
X203884398Y-91500771D02*
X203836779Y-91405533D01*
X203836779Y-91405533D02*
X203836779Y-91310295D01*
X203836779Y-91310295D02*
X203884398Y-91215057D01*
X203884398Y-91215057D02*
X203932017Y-91167438D01*
X203932017Y-91167438D02*
X204027255Y-91119819D01*
X204027255Y-91119819D02*
X204265350Y-91119819D01*
X204265350Y-91119819D02*
X204408207Y-91167438D01*
X204693922Y-91119819D02*
X205265350Y-91119819D01*
X204979636Y-92119819D02*
X204979636Y-91119819D01*
X205598684Y-91119819D02*
X205598684Y-91929342D01*
X205598684Y-91929342D02*
X205646303Y-92024580D01*
X205646303Y-92024580D02*
X205693922Y-92072200D01*
X205693922Y-92072200D02*
X205789160Y-92119819D01*
X205789160Y-92119819D02*
X205979636Y-92119819D01*
X205979636Y-92119819D02*
X206074874Y-92072200D01*
X206074874Y-92072200D02*
X206122493Y-92024580D01*
X206122493Y-92024580D02*
X206170112Y-91929342D01*
X206170112Y-91929342D02*
X206170112Y-91119819D01*
X207217731Y-92119819D02*
X206884398Y-91643628D01*
X206646303Y-92119819D02*
X206646303Y-91119819D01*
X206646303Y-91119819D02*
X207027255Y-91119819D01*
X207027255Y-91119819D02*
X207122493Y-91167438D01*
X207122493Y-91167438D02*
X207170112Y-91215057D01*
X207170112Y-91215057D02*
X207217731Y-91310295D01*
X207217731Y-91310295D02*
X207217731Y-91453152D01*
X207217731Y-91453152D02*
X207170112Y-91548390D01*
X207170112Y-91548390D02*
X207122493Y-91596009D01*
X207122493Y-91596009D02*
X207027255Y-91643628D01*
X207027255Y-91643628D02*
X206646303Y-91643628D01*
X207646303Y-91596009D02*
X207979636Y-91596009D01*
X208122493Y-92119819D02*
X207646303Y-92119819D01*
X207646303Y-92119819D02*
X207646303Y-91119819D01*
X207646303Y-91119819D02*
X208122493Y-91119819D01*
X209646303Y-91596009D02*
X209789160Y-91643628D01*
X209789160Y-91643628D02*
X209836779Y-91691247D01*
X209836779Y-91691247D02*
X209884398Y-91786485D01*
X209884398Y-91786485D02*
X209884398Y-91929342D01*
X209884398Y-91929342D02*
X209836779Y-92024580D01*
X209836779Y-92024580D02*
X209789160Y-92072200D01*
X209789160Y-92072200D02*
X209693922Y-92119819D01*
X209693922Y-92119819D02*
X209312970Y-92119819D01*
X209312970Y-92119819D02*
X209312970Y-91119819D01*
X209312970Y-91119819D02*
X209646303Y-91119819D01*
X209646303Y-91119819D02*
X209741541Y-91167438D01*
X209741541Y-91167438D02*
X209789160Y-91215057D01*
X209789160Y-91215057D02*
X209836779Y-91310295D01*
X209836779Y-91310295D02*
X209836779Y-91405533D01*
X209836779Y-91405533D02*
X209789160Y-91500771D01*
X209789160Y-91500771D02*
X209741541Y-91548390D01*
X209741541Y-91548390D02*
X209646303Y-91596009D01*
X209646303Y-91596009D02*
X209312970Y-91596009D01*
X210312970Y-91596009D02*
X210646303Y-91596009D01*
X210789160Y-92119819D02*
X210312970Y-92119819D01*
X210312970Y-92119819D02*
X210312970Y-91119819D01*
X210312970Y-91119819D02*
X210789160Y-91119819D01*
X211170113Y-92072200D02*
X211312970Y-92119819D01*
X211312970Y-92119819D02*
X211551065Y-92119819D01*
X211551065Y-92119819D02*
X211646303Y-92072200D01*
X211646303Y-92072200D02*
X211693922Y-92024580D01*
X211693922Y-92024580D02*
X211741541Y-91929342D01*
X211741541Y-91929342D02*
X211741541Y-91834104D01*
X211741541Y-91834104D02*
X211693922Y-91738866D01*
X211693922Y-91738866D02*
X211646303Y-91691247D01*
X211646303Y-91691247D02*
X211551065Y-91643628D01*
X211551065Y-91643628D02*
X211360589Y-91596009D01*
X211360589Y-91596009D02*
X211265351Y-91548390D01*
X211265351Y-91548390D02*
X211217732Y-91500771D01*
X211217732Y-91500771D02*
X211170113Y-91405533D01*
X211170113Y-91405533D02*
X211170113Y-91310295D01*
X211170113Y-91310295D02*
X211217732Y-91215057D01*
X211217732Y-91215057D02*
X211265351Y-91167438D01*
X211265351Y-91167438D02*
X211360589Y-91119819D01*
X211360589Y-91119819D02*
X211598684Y-91119819D01*
X211598684Y-91119819D02*
X211741541Y-91167438D01*
X212027256Y-91119819D02*
X212598684Y-91119819D01*
X212312970Y-92119819D02*
X212312970Y-91119819D01*
X172731196Y-74617920D02*
X172731196Y-75427443D01*
X172731196Y-75427443D02*
X172778815Y-75522681D01*
X172778815Y-75522681D02*
X172826434Y-75570301D01*
X172826434Y-75570301D02*
X172921672Y-75617920D01*
X172921672Y-75617920D02*
X173112148Y-75617920D01*
X173112148Y-75617920D02*
X173207386Y-75570301D01*
X173207386Y-75570301D02*
X173255005Y-75522681D01*
X173255005Y-75522681D02*
X173302624Y-75427443D01*
X173302624Y-75427443D02*
X173302624Y-74617920D01*
X174207386Y-74617920D02*
X174016910Y-74617920D01*
X174016910Y-74617920D02*
X173921672Y-74665539D01*
X173921672Y-74665539D02*
X173874053Y-74713158D01*
X173874053Y-74713158D02*
X173778815Y-74856015D01*
X173778815Y-74856015D02*
X173731196Y-75046491D01*
X173731196Y-75046491D02*
X173731196Y-75427443D01*
X173731196Y-75427443D02*
X173778815Y-75522681D01*
X173778815Y-75522681D02*
X173826434Y-75570301D01*
X173826434Y-75570301D02*
X173921672Y-75617920D01*
X173921672Y-75617920D02*
X174112148Y-75617920D01*
X174112148Y-75617920D02*
X174207386Y-75570301D01*
X174207386Y-75570301D02*
X174255005Y-75522681D01*
X174255005Y-75522681D02*
X174302624Y-75427443D01*
X174302624Y-75427443D02*
X174302624Y-75189348D01*
X174302624Y-75189348D02*
X174255005Y-75094110D01*
X174255005Y-75094110D02*
X174207386Y-75046491D01*
X174207386Y-75046491D02*
X174112148Y-74998872D01*
X174112148Y-74998872D02*
X173921672Y-74998872D01*
X173921672Y-74998872D02*
X173826434Y-75046491D01*
X173826434Y-75046491D02*
X173778815Y-75094110D01*
X173778815Y-75094110D02*
X173731196Y-75189348D01*
X163557142Y-85259580D02*
X163509523Y-85307200D01*
X163509523Y-85307200D02*
X163366666Y-85354819D01*
X163366666Y-85354819D02*
X163271428Y-85354819D01*
X163271428Y-85354819D02*
X163128571Y-85307200D01*
X163128571Y-85307200D02*
X163033333Y-85211961D01*
X163033333Y-85211961D02*
X162985714Y-85116723D01*
X162985714Y-85116723D02*
X162938095Y-84926247D01*
X162938095Y-84926247D02*
X162938095Y-84783390D01*
X162938095Y-84783390D02*
X162985714Y-84592914D01*
X162985714Y-84592914D02*
X163033333Y-84497676D01*
X163033333Y-84497676D02*
X163128571Y-84402438D01*
X163128571Y-84402438D02*
X163271428Y-84354819D01*
X163271428Y-84354819D02*
X163366666Y-84354819D01*
X163366666Y-84354819D02*
X163509523Y-84402438D01*
X163509523Y-84402438D02*
X163557142Y-84450057D01*
X163938095Y-84450057D02*
X163985714Y-84402438D01*
X163985714Y-84402438D02*
X164080952Y-84354819D01*
X164080952Y-84354819D02*
X164319047Y-84354819D01*
X164319047Y-84354819D02*
X164414285Y-84402438D01*
X164414285Y-84402438D02*
X164461904Y-84450057D01*
X164461904Y-84450057D02*
X164509523Y-84545295D01*
X164509523Y-84545295D02*
X164509523Y-84640533D01*
X164509523Y-84640533D02*
X164461904Y-84783390D01*
X164461904Y-84783390D02*
X163890476Y-85354819D01*
X163890476Y-85354819D02*
X164509523Y-85354819D01*
X165461904Y-85354819D02*
X164890476Y-85354819D01*
X165176190Y-85354819D02*
X165176190Y-84354819D01*
X165176190Y-84354819D02*
X165080952Y-84497676D01*
X165080952Y-84497676D02*
X164985714Y-84592914D01*
X164985714Y-84592914D02*
X164890476Y-84640533D01*
X185609580Y-77916666D02*
X185657200Y-77964285D01*
X185657200Y-77964285D02*
X185704819Y-78107142D01*
X185704819Y-78107142D02*
X185704819Y-78202380D01*
X185704819Y-78202380D02*
X185657200Y-78345237D01*
X185657200Y-78345237D02*
X185561961Y-78440475D01*
X185561961Y-78440475D02*
X185466723Y-78488094D01*
X185466723Y-78488094D02*
X185276247Y-78535713D01*
X185276247Y-78535713D02*
X185133390Y-78535713D01*
X185133390Y-78535713D02*
X184942914Y-78488094D01*
X184942914Y-78488094D02*
X184847676Y-78440475D01*
X184847676Y-78440475D02*
X184752438Y-78345237D01*
X184752438Y-78345237D02*
X184704819Y-78202380D01*
X184704819Y-78202380D02*
X184704819Y-78107142D01*
X184704819Y-78107142D02*
X184752438Y-77964285D01*
X184752438Y-77964285D02*
X184800057Y-77916666D01*
X184704819Y-77011904D02*
X184704819Y-77488094D01*
X184704819Y-77488094D02*
X185181009Y-77535713D01*
X185181009Y-77535713D02*
X185133390Y-77488094D01*
X185133390Y-77488094D02*
X185085771Y-77392856D01*
X185085771Y-77392856D02*
X185085771Y-77154761D01*
X185085771Y-77154761D02*
X185133390Y-77059523D01*
X185133390Y-77059523D02*
X185181009Y-77011904D01*
X185181009Y-77011904D02*
X185276247Y-76964285D01*
X185276247Y-76964285D02*
X185514342Y-76964285D01*
X185514342Y-76964285D02*
X185609580Y-77011904D01*
X185609580Y-77011904D02*
X185657200Y-77059523D01*
X185657200Y-77059523D02*
X185704819Y-77154761D01*
X185704819Y-77154761D02*
X185704819Y-77392856D01*
X185704819Y-77392856D02*
X185657200Y-77488094D01*
X185657200Y-77488094D02*
X185609580Y-77535713D01*
X188833333Y-90759580D02*
X188785714Y-90807200D01*
X188785714Y-90807200D02*
X188642857Y-90854819D01*
X188642857Y-90854819D02*
X188547619Y-90854819D01*
X188547619Y-90854819D02*
X188404762Y-90807200D01*
X188404762Y-90807200D02*
X188309524Y-90711961D01*
X188309524Y-90711961D02*
X188261905Y-90616723D01*
X188261905Y-90616723D02*
X188214286Y-90426247D01*
X188214286Y-90426247D02*
X188214286Y-90283390D01*
X188214286Y-90283390D02*
X188261905Y-90092914D01*
X188261905Y-90092914D02*
X188309524Y-89997676D01*
X188309524Y-89997676D02*
X188404762Y-89902438D01*
X188404762Y-89902438D02*
X188547619Y-89854819D01*
X188547619Y-89854819D02*
X188642857Y-89854819D01*
X188642857Y-89854819D02*
X188785714Y-89902438D01*
X188785714Y-89902438D02*
X188833333Y-89950057D01*
X189166667Y-89854819D02*
X189785714Y-89854819D01*
X189785714Y-89854819D02*
X189452381Y-90235771D01*
X189452381Y-90235771D02*
X189595238Y-90235771D01*
X189595238Y-90235771D02*
X189690476Y-90283390D01*
X189690476Y-90283390D02*
X189738095Y-90331009D01*
X189738095Y-90331009D02*
X189785714Y-90426247D01*
X189785714Y-90426247D02*
X189785714Y-90664342D01*
X189785714Y-90664342D02*
X189738095Y-90759580D01*
X189738095Y-90759580D02*
X189690476Y-90807200D01*
X189690476Y-90807200D02*
X189595238Y-90854819D01*
X189595238Y-90854819D02*
X189309524Y-90854819D01*
X189309524Y-90854819D02*
X189214286Y-90807200D01*
X189214286Y-90807200D02*
X189166667Y-90759580D01*
X193937142Y-90659580D02*
X193889523Y-90707200D01*
X193889523Y-90707200D02*
X193746666Y-90754819D01*
X193746666Y-90754819D02*
X193651428Y-90754819D01*
X193651428Y-90754819D02*
X193508571Y-90707200D01*
X193508571Y-90707200D02*
X193413333Y-90611961D01*
X193413333Y-90611961D02*
X193365714Y-90516723D01*
X193365714Y-90516723D02*
X193318095Y-90326247D01*
X193318095Y-90326247D02*
X193318095Y-90183390D01*
X193318095Y-90183390D02*
X193365714Y-89992914D01*
X193365714Y-89992914D02*
X193413333Y-89897676D01*
X193413333Y-89897676D02*
X193508571Y-89802438D01*
X193508571Y-89802438D02*
X193651428Y-89754819D01*
X193651428Y-89754819D02*
X193746666Y-89754819D01*
X193746666Y-89754819D02*
X193889523Y-89802438D01*
X193889523Y-89802438D02*
X193937142Y-89850057D01*
X194889523Y-90754819D02*
X194318095Y-90754819D01*
X194603809Y-90754819D02*
X194603809Y-89754819D01*
X194603809Y-89754819D02*
X194508571Y-89897676D01*
X194508571Y-89897676D02*
X194413333Y-89992914D01*
X194413333Y-89992914D02*
X194318095Y-90040533D01*
X195222857Y-89754819D02*
X195841904Y-89754819D01*
X195841904Y-89754819D02*
X195508571Y-90135771D01*
X195508571Y-90135771D02*
X195651428Y-90135771D01*
X195651428Y-90135771D02*
X195746666Y-90183390D01*
X195746666Y-90183390D02*
X195794285Y-90231009D01*
X195794285Y-90231009D02*
X195841904Y-90326247D01*
X195841904Y-90326247D02*
X195841904Y-90564342D01*
X195841904Y-90564342D02*
X195794285Y-90659580D01*
X195794285Y-90659580D02*
X195746666Y-90707200D01*
X195746666Y-90707200D02*
X195651428Y-90754819D01*
X195651428Y-90754819D02*
X195365714Y-90754819D01*
X195365714Y-90754819D02*
X195270476Y-90707200D01*
X195270476Y-90707200D02*
X195222857Y-90659580D01*
X165454819Y-83261904D02*
X166264342Y-83261904D01*
X166264342Y-83261904D02*
X166359580Y-83214285D01*
X166359580Y-83214285D02*
X166407200Y-83166666D01*
X166407200Y-83166666D02*
X166454819Y-83071428D01*
X166454819Y-83071428D02*
X166454819Y-82880952D01*
X166454819Y-82880952D02*
X166407200Y-82785714D01*
X166407200Y-82785714D02*
X166359580Y-82738095D01*
X166359580Y-82738095D02*
X166264342Y-82690476D01*
X166264342Y-82690476D02*
X165454819Y-82690476D01*
X165454819Y-81738095D02*
X165454819Y-82214285D01*
X165454819Y-82214285D02*
X165931009Y-82261904D01*
X165931009Y-82261904D02*
X165883390Y-82214285D01*
X165883390Y-82214285D02*
X165835771Y-82119047D01*
X165835771Y-82119047D02*
X165835771Y-81880952D01*
X165835771Y-81880952D02*
X165883390Y-81785714D01*
X165883390Y-81785714D02*
X165931009Y-81738095D01*
X165931009Y-81738095D02*
X166026247Y-81690476D01*
X166026247Y-81690476D02*
X166264342Y-81690476D01*
X166264342Y-81690476D02*
X166359580Y-81738095D01*
X166359580Y-81738095D02*
X166407200Y-81785714D01*
X166407200Y-81785714D02*
X166454819Y-81880952D01*
X166454819Y-81880952D02*
X166454819Y-82119047D01*
X166454819Y-82119047D02*
X166407200Y-82214285D01*
X166407200Y-82214285D02*
X166359580Y-82261904D01*
X194154819Y-70633333D02*
X194869104Y-70633333D01*
X194869104Y-70633333D02*
X195011961Y-70680952D01*
X195011961Y-70680952D02*
X195107200Y-70776190D01*
X195107200Y-70776190D02*
X195154819Y-70919047D01*
X195154819Y-70919047D02*
X195154819Y-71014285D01*
X195154819Y-69633333D02*
X195154819Y-70204761D01*
X195154819Y-69919047D02*
X194154819Y-69919047D01*
X194154819Y-69919047D02*
X194297676Y-70014285D01*
X194297676Y-70014285D02*
X194392914Y-70109523D01*
X194392914Y-70109523D02*
X194440533Y-70204761D01*
X174276434Y-70117920D02*
X173943101Y-69641729D01*
X173705006Y-70117920D02*
X173705006Y-69117920D01*
X173705006Y-69117920D02*
X174085958Y-69117920D01*
X174085958Y-69117920D02*
X174181196Y-69165539D01*
X174181196Y-69165539D02*
X174228815Y-69213158D01*
X174228815Y-69213158D02*
X174276434Y-69308396D01*
X174276434Y-69308396D02*
X174276434Y-69451253D01*
X174276434Y-69451253D02*
X174228815Y-69546491D01*
X174228815Y-69546491D02*
X174181196Y-69594110D01*
X174181196Y-69594110D02*
X174085958Y-69641729D01*
X174085958Y-69641729D02*
X173705006Y-69641729D01*
X175181196Y-69117920D02*
X174705006Y-69117920D01*
X174705006Y-69117920D02*
X174657387Y-69594110D01*
X174657387Y-69594110D02*
X174705006Y-69546491D01*
X174705006Y-69546491D02*
X174800244Y-69498872D01*
X174800244Y-69498872D02*
X175038339Y-69498872D01*
X175038339Y-69498872D02*
X175133577Y-69546491D01*
X175133577Y-69546491D02*
X175181196Y-69594110D01*
X175181196Y-69594110D02*
X175228815Y-69689348D01*
X175228815Y-69689348D02*
X175228815Y-69927443D01*
X175228815Y-69927443D02*
X175181196Y-70022681D01*
X175181196Y-70022681D02*
X175133577Y-70070301D01*
X175133577Y-70070301D02*
X175038339Y-70117920D01*
X175038339Y-70117920D02*
X174800244Y-70117920D01*
X174800244Y-70117920D02*
X174705006Y-70070301D01*
X174705006Y-70070301D02*
X174657387Y-70022681D01*
D11*
X201131051Y-84933333D02*
X201131051Y-85409523D01*
X200845336Y-84838095D02*
X201845336Y-85171428D01*
X201845336Y-85171428D02*
X200845336Y-85504761D01*
X201369146Y-85838095D02*
X201369146Y-86171428D01*
X200845336Y-86314285D02*
X200845336Y-85838095D01*
X200845336Y-85838095D02*
X201845336Y-85838095D01*
X201845336Y-85838095D02*
X201845336Y-86314285D01*
X200845336Y-87266666D02*
X200845336Y-86695238D01*
X200845336Y-86980952D02*
X201845336Y-86980952D01*
X201845336Y-86980952D02*
X201702479Y-86885714D01*
X201702479Y-86885714D02*
X201607241Y-86790476D01*
X201607241Y-86790476D02*
X201559622Y-86695238D01*
D10*
X193937142Y-89359580D02*
X193889523Y-89407200D01*
X193889523Y-89407200D02*
X193746666Y-89454819D01*
X193746666Y-89454819D02*
X193651428Y-89454819D01*
X193651428Y-89454819D02*
X193508571Y-89407200D01*
X193508571Y-89407200D02*
X193413333Y-89311961D01*
X193413333Y-89311961D02*
X193365714Y-89216723D01*
X193365714Y-89216723D02*
X193318095Y-89026247D01*
X193318095Y-89026247D02*
X193318095Y-88883390D01*
X193318095Y-88883390D02*
X193365714Y-88692914D01*
X193365714Y-88692914D02*
X193413333Y-88597676D01*
X193413333Y-88597676D02*
X193508571Y-88502438D01*
X193508571Y-88502438D02*
X193651428Y-88454819D01*
X193651428Y-88454819D02*
X193746666Y-88454819D01*
X193746666Y-88454819D02*
X193889523Y-88502438D01*
X193889523Y-88502438D02*
X193937142Y-88550057D01*
X194889523Y-89454819D02*
X194318095Y-89454819D01*
X194603809Y-89454819D02*
X194603809Y-88454819D01*
X194603809Y-88454819D02*
X194508571Y-88597676D01*
X194508571Y-88597676D02*
X194413333Y-88692914D01*
X194413333Y-88692914D02*
X194318095Y-88740533D01*
X195270476Y-88550057D02*
X195318095Y-88502438D01*
X195318095Y-88502438D02*
X195413333Y-88454819D01*
X195413333Y-88454819D02*
X195651428Y-88454819D01*
X195651428Y-88454819D02*
X195746666Y-88502438D01*
X195746666Y-88502438D02*
X195794285Y-88550057D01*
X195794285Y-88550057D02*
X195841904Y-88645295D01*
X195841904Y-88645295D02*
X195841904Y-88740533D01*
X195841904Y-88740533D02*
X195794285Y-88883390D01*
X195794285Y-88883390D02*
X195222857Y-89454819D01*
X195222857Y-89454819D02*
X195841904Y-89454819D01*
X164045180Y-74666666D02*
X163330895Y-74666666D01*
X163330895Y-74666666D02*
X163188038Y-74619047D01*
X163188038Y-74619047D02*
X163092800Y-74523809D01*
X163092800Y-74523809D02*
X163045180Y-74380952D01*
X163045180Y-74380952D02*
X163045180Y-74285714D01*
X164045180Y-75571428D02*
X164045180Y-75380952D01*
X164045180Y-75380952D02*
X163997561Y-75285714D01*
X163997561Y-75285714D02*
X163949942Y-75238095D01*
X163949942Y-75238095D02*
X163807085Y-75142857D01*
X163807085Y-75142857D02*
X163616609Y-75095238D01*
X163616609Y-75095238D02*
X163235657Y-75095238D01*
X163235657Y-75095238D02*
X163140419Y-75142857D01*
X163140419Y-75142857D02*
X163092800Y-75190476D01*
X163092800Y-75190476D02*
X163045180Y-75285714D01*
X163045180Y-75285714D02*
X163045180Y-75476190D01*
X163045180Y-75476190D02*
X163092800Y-75571428D01*
X163092800Y-75571428D02*
X163140419Y-75619047D01*
X163140419Y-75619047D02*
X163235657Y-75666666D01*
X163235657Y-75666666D02*
X163473752Y-75666666D01*
X163473752Y-75666666D02*
X163568990Y-75619047D01*
X163568990Y-75619047D02*
X163616609Y-75571428D01*
X163616609Y-75571428D02*
X163664228Y-75476190D01*
X163664228Y-75476190D02*
X163664228Y-75285714D01*
X163664228Y-75285714D02*
X163616609Y-75190476D01*
X163616609Y-75190476D02*
X163568990Y-75142857D01*
X163568990Y-75142857D02*
X163473752Y-75095238D01*
X158797561Y-70883340D02*
X158845180Y-70788102D01*
X158845180Y-70788102D02*
X158845180Y-70645245D01*
X158845180Y-70645245D02*
X158797561Y-70502388D01*
X158797561Y-70502388D02*
X158702323Y-70407150D01*
X158702323Y-70407150D02*
X158607085Y-70359531D01*
X158607085Y-70359531D02*
X158416609Y-70311912D01*
X158416609Y-70311912D02*
X158273752Y-70311912D01*
X158273752Y-70311912D02*
X158083276Y-70359531D01*
X158083276Y-70359531D02*
X157988038Y-70407150D01*
X157988038Y-70407150D02*
X157892800Y-70502388D01*
X157892800Y-70502388D02*
X157845180Y-70645245D01*
X157845180Y-70645245D02*
X157845180Y-70740483D01*
X157845180Y-70740483D02*
X157892800Y-70883340D01*
X157892800Y-70883340D02*
X157940419Y-70930959D01*
X157940419Y-70930959D02*
X158273752Y-70930959D01*
X158273752Y-70930959D02*
X158273752Y-70740483D01*
X157845180Y-71359531D02*
X158845180Y-71359531D01*
X158845180Y-71359531D02*
X158845180Y-71597626D01*
X158845180Y-71597626D02*
X158797561Y-71740483D01*
X158797561Y-71740483D02*
X158702323Y-71835721D01*
X158702323Y-71835721D02*
X158607085Y-71883340D01*
X158607085Y-71883340D02*
X158416609Y-71930959D01*
X158416609Y-71930959D02*
X158273752Y-71930959D01*
X158273752Y-71930959D02*
X158083276Y-71883340D01*
X158083276Y-71883340D02*
X157988038Y-71835721D01*
X157988038Y-71835721D02*
X157892800Y-71740483D01*
X157892800Y-71740483D02*
X157845180Y-71597626D01*
X157845180Y-71597626D02*
X157845180Y-71359531D01*
X157940419Y-72930959D02*
X157892800Y-72883340D01*
X157892800Y-72883340D02*
X157845180Y-72740483D01*
X157845180Y-72740483D02*
X157845180Y-72645245D01*
X157845180Y-72645245D02*
X157892800Y-72502388D01*
X157892800Y-72502388D02*
X157988038Y-72407150D01*
X157988038Y-72407150D02*
X158083276Y-72359531D01*
X158083276Y-72359531D02*
X158273752Y-72311912D01*
X158273752Y-72311912D02*
X158416609Y-72311912D01*
X158416609Y-72311912D02*
X158607085Y-72359531D01*
X158607085Y-72359531D02*
X158702323Y-72407150D01*
X158702323Y-72407150D02*
X158797561Y-72502388D01*
X158797561Y-72502388D02*
X158845180Y-72645245D01*
X158845180Y-72645245D02*
X158845180Y-72740483D01*
X158845180Y-72740483D02*
X158797561Y-72883340D01*
X158797561Y-72883340D02*
X158749942Y-72930959D01*
X158845180Y-73216674D02*
X157845180Y-73550007D01*
X157845180Y-73550007D02*
X158845180Y-73883340D01*
X176716669Y-80054819D02*
X176716669Y-80769104D01*
X176716669Y-80769104D02*
X176669050Y-80911961D01*
X176669050Y-80911961D02*
X176573812Y-81007200D01*
X176573812Y-81007200D02*
X176430955Y-81054819D01*
X176430955Y-81054819D02*
X176335717Y-81054819D01*
X177621431Y-80388152D02*
X177621431Y-81054819D01*
X177383336Y-80007200D02*
X177145241Y-80721485D01*
X177145241Y-80721485D02*
X177764288Y-80721485D01*
X172633336Y-86252438D02*
X172538098Y-86204819D01*
X172538098Y-86204819D02*
X172395241Y-86204819D01*
X172395241Y-86204819D02*
X172252384Y-86252438D01*
X172252384Y-86252438D02*
X172157146Y-86347676D01*
X172157146Y-86347676D02*
X172109527Y-86442914D01*
X172109527Y-86442914D02*
X172061908Y-86633390D01*
X172061908Y-86633390D02*
X172061908Y-86776247D01*
X172061908Y-86776247D02*
X172109527Y-86966723D01*
X172109527Y-86966723D02*
X172157146Y-87061961D01*
X172157146Y-87061961D02*
X172252384Y-87157200D01*
X172252384Y-87157200D02*
X172395241Y-87204819D01*
X172395241Y-87204819D02*
X172490479Y-87204819D01*
X172490479Y-87204819D02*
X172633336Y-87157200D01*
X172633336Y-87157200D02*
X172680955Y-87109580D01*
X172680955Y-87109580D02*
X172680955Y-86776247D01*
X172680955Y-86776247D02*
X172490479Y-86776247D01*
X173109527Y-87204819D02*
X173109527Y-86204819D01*
X173109527Y-86204819D02*
X173347622Y-86204819D01*
X173347622Y-86204819D02*
X173490479Y-86252438D01*
X173490479Y-86252438D02*
X173585717Y-86347676D01*
X173585717Y-86347676D02*
X173633336Y-86442914D01*
X173633336Y-86442914D02*
X173680955Y-86633390D01*
X173680955Y-86633390D02*
X173680955Y-86776247D01*
X173680955Y-86776247D02*
X173633336Y-86966723D01*
X173633336Y-86966723D02*
X173585717Y-87061961D01*
X173585717Y-87061961D02*
X173490479Y-87157200D01*
X173490479Y-87157200D02*
X173347622Y-87204819D01*
X173347622Y-87204819D02*
X173109527Y-87204819D01*
X174680955Y-87109580D02*
X174633336Y-87157200D01*
X174633336Y-87157200D02*
X174490479Y-87204819D01*
X174490479Y-87204819D02*
X174395241Y-87204819D01*
X174395241Y-87204819D02*
X174252384Y-87157200D01*
X174252384Y-87157200D02*
X174157146Y-87061961D01*
X174157146Y-87061961D02*
X174109527Y-86966723D01*
X174109527Y-86966723D02*
X174061908Y-86776247D01*
X174061908Y-86776247D02*
X174061908Y-86633390D01*
X174061908Y-86633390D02*
X174109527Y-86442914D01*
X174109527Y-86442914D02*
X174157146Y-86347676D01*
X174157146Y-86347676D02*
X174252384Y-86252438D01*
X174252384Y-86252438D02*
X174395241Y-86204819D01*
X174395241Y-86204819D02*
X174490479Y-86204819D01*
X174490479Y-86204819D02*
X174633336Y-86252438D01*
X174633336Y-86252438D02*
X174680955Y-86300057D01*
X174966670Y-86204819D02*
X175300003Y-87204819D01*
X175300003Y-87204819D02*
X175633336Y-86204819D01*
X162434819Y-88783333D02*
X163149104Y-88783333D01*
X163149104Y-88783333D02*
X163291961Y-88830952D01*
X163291961Y-88830952D02*
X163387200Y-88926190D01*
X163387200Y-88926190D02*
X163434819Y-89069047D01*
X163434819Y-89069047D02*
X163434819Y-89164285D01*
X162530057Y-88354761D02*
X162482438Y-88307142D01*
X162482438Y-88307142D02*
X162434819Y-88211904D01*
X162434819Y-88211904D02*
X162434819Y-87973809D01*
X162434819Y-87973809D02*
X162482438Y-87878571D01*
X162482438Y-87878571D02*
X162530057Y-87830952D01*
X162530057Y-87830952D02*
X162625295Y-87783333D01*
X162625295Y-87783333D02*
X162720533Y-87783333D01*
X162720533Y-87783333D02*
X162863390Y-87830952D01*
X162863390Y-87830952D02*
X163434819Y-88402380D01*
X163434819Y-88402380D02*
X163434819Y-87783333D01*
X182859580Y-78416666D02*
X182907200Y-78464285D01*
X182907200Y-78464285D02*
X182954819Y-78607142D01*
X182954819Y-78607142D02*
X182954819Y-78702380D01*
X182954819Y-78702380D02*
X182907200Y-78845237D01*
X182907200Y-78845237D02*
X182811961Y-78940475D01*
X182811961Y-78940475D02*
X182716723Y-78988094D01*
X182716723Y-78988094D02*
X182526247Y-79035713D01*
X182526247Y-79035713D02*
X182383390Y-79035713D01*
X182383390Y-79035713D02*
X182192914Y-78988094D01*
X182192914Y-78988094D02*
X182097676Y-78940475D01*
X182097676Y-78940475D02*
X182002438Y-78845237D01*
X182002438Y-78845237D02*
X181954819Y-78702380D01*
X181954819Y-78702380D02*
X181954819Y-78607142D01*
X181954819Y-78607142D02*
X182002438Y-78464285D01*
X182002438Y-78464285D02*
X182050057Y-78416666D01*
X182954819Y-77940475D02*
X182954819Y-77749999D01*
X182954819Y-77749999D02*
X182907200Y-77654761D01*
X182907200Y-77654761D02*
X182859580Y-77607142D01*
X182859580Y-77607142D02*
X182716723Y-77511904D01*
X182716723Y-77511904D02*
X182526247Y-77464285D01*
X182526247Y-77464285D02*
X182145295Y-77464285D01*
X182145295Y-77464285D02*
X182050057Y-77511904D01*
X182050057Y-77511904D02*
X182002438Y-77559523D01*
X182002438Y-77559523D02*
X181954819Y-77654761D01*
X181954819Y-77654761D02*
X181954819Y-77845237D01*
X181954819Y-77845237D02*
X182002438Y-77940475D01*
X182002438Y-77940475D02*
X182050057Y-77988094D01*
X182050057Y-77988094D02*
X182145295Y-78035713D01*
X182145295Y-78035713D02*
X182383390Y-78035713D01*
X182383390Y-78035713D02*
X182478628Y-77988094D01*
X182478628Y-77988094D02*
X182526247Y-77940475D01*
X182526247Y-77940475D02*
X182573866Y-77845237D01*
X182573866Y-77845237D02*
X182573866Y-77654761D01*
X182573866Y-77654761D02*
X182526247Y-77559523D01*
X182526247Y-77559523D02*
X182478628Y-77511904D01*
X182478628Y-77511904D02*
X182383390Y-77464285D01*
X169802681Y-70305958D02*
X169850301Y-70353577D01*
X169850301Y-70353577D02*
X169897920Y-70496434D01*
X169897920Y-70496434D02*
X169897920Y-70591672D01*
X169897920Y-70591672D02*
X169850301Y-70734529D01*
X169850301Y-70734529D02*
X169755062Y-70829767D01*
X169755062Y-70829767D02*
X169659824Y-70877386D01*
X169659824Y-70877386D02*
X169469348Y-70925005D01*
X169469348Y-70925005D02*
X169326491Y-70925005D01*
X169326491Y-70925005D02*
X169136015Y-70877386D01*
X169136015Y-70877386D02*
X169040777Y-70829767D01*
X169040777Y-70829767D02*
X168945539Y-70734529D01*
X168945539Y-70734529D02*
X168897920Y-70591672D01*
X168897920Y-70591672D02*
X168897920Y-70496434D01*
X168897920Y-70496434D02*
X168945539Y-70353577D01*
X168945539Y-70353577D02*
X168993158Y-70305958D01*
X168993158Y-69925005D02*
X168945539Y-69877386D01*
X168945539Y-69877386D02*
X168897920Y-69782148D01*
X168897920Y-69782148D02*
X168897920Y-69544053D01*
X168897920Y-69544053D02*
X168945539Y-69448815D01*
X168945539Y-69448815D02*
X168993158Y-69401196D01*
X168993158Y-69401196D02*
X169088396Y-69353577D01*
X169088396Y-69353577D02*
X169183634Y-69353577D01*
X169183634Y-69353577D02*
X169326491Y-69401196D01*
X169326491Y-69401196D02*
X169897920Y-69972624D01*
X169897920Y-69972624D02*
X169897920Y-69353577D01*
X169231253Y-68496434D02*
X169897920Y-68496434D01*
X168850301Y-68734529D02*
X169564586Y-68972624D01*
X169564586Y-68972624D02*
X169564586Y-68353577D01*
X186859580Y-77666666D02*
X186907200Y-77714285D01*
X186907200Y-77714285D02*
X186954819Y-77857142D01*
X186954819Y-77857142D02*
X186954819Y-77952380D01*
X186954819Y-77952380D02*
X186907200Y-78095237D01*
X186907200Y-78095237D02*
X186811961Y-78190475D01*
X186811961Y-78190475D02*
X186716723Y-78238094D01*
X186716723Y-78238094D02*
X186526247Y-78285713D01*
X186526247Y-78285713D02*
X186383390Y-78285713D01*
X186383390Y-78285713D02*
X186192914Y-78238094D01*
X186192914Y-78238094D02*
X186097676Y-78190475D01*
X186097676Y-78190475D02*
X186002438Y-78095237D01*
X186002438Y-78095237D02*
X185954819Y-77952380D01*
X185954819Y-77952380D02*
X185954819Y-77857142D01*
X185954819Y-77857142D02*
X186002438Y-77714285D01*
X186002438Y-77714285D02*
X186050057Y-77666666D01*
X185954819Y-76809523D02*
X185954819Y-76999999D01*
X185954819Y-76999999D02*
X186002438Y-77095237D01*
X186002438Y-77095237D02*
X186050057Y-77142856D01*
X186050057Y-77142856D02*
X186192914Y-77238094D01*
X186192914Y-77238094D02*
X186383390Y-77285713D01*
X186383390Y-77285713D02*
X186764342Y-77285713D01*
X186764342Y-77285713D02*
X186859580Y-77238094D01*
X186859580Y-77238094D02*
X186907200Y-77190475D01*
X186907200Y-77190475D02*
X186954819Y-77095237D01*
X186954819Y-77095237D02*
X186954819Y-76904761D01*
X186954819Y-76904761D02*
X186907200Y-76809523D01*
X186907200Y-76809523D02*
X186859580Y-76761904D01*
X186859580Y-76761904D02*
X186764342Y-76714285D01*
X186764342Y-76714285D02*
X186526247Y-76714285D01*
X186526247Y-76714285D02*
X186431009Y-76761904D01*
X186431009Y-76761904D02*
X186383390Y-76809523D01*
X186383390Y-76809523D02*
X186335771Y-76904761D01*
X186335771Y-76904761D02*
X186335771Y-77095237D01*
X186335771Y-77095237D02*
X186383390Y-77190475D01*
X186383390Y-77190475D02*
X186431009Y-77238094D01*
X186431009Y-77238094D02*
X186526247Y-77285713D01*
X199559580Y-86542857D02*
X199607200Y-86590476D01*
X199607200Y-86590476D02*
X199654819Y-86733333D01*
X199654819Y-86733333D02*
X199654819Y-86828571D01*
X199654819Y-86828571D02*
X199607200Y-86971428D01*
X199607200Y-86971428D02*
X199511961Y-87066666D01*
X199511961Y-87066666D02*
X199416723Y-87114285D01*
X199416723Y-87114285D02*
X199226247Y-87161904D01*
X199226247Y-87161904D02*
X199083390Y-87161904D01*
X199083390Y-87161904D02*
X198892914Y-87114285D01*
X198892914Y-87114285D02*
X198797676Y-87066666D01*
X198797676Y-87066666D02*
X198702438Y-86971428D01*
X198702438Y-86971428D02*
X198654819Y-86828571D01*
X198654819Y-86828571D02*
X198654819Y-86733333D01*
X198654819Y-86733333D02*
X198702438Y-86590476D01*
X198702438Y-86590476D02*
X198750057Y-86542857D01*
X199654819Y-85590476D02*
X199654819Y-86161904D01*
X199654819Y-85876190D02*
X198654819Y-85876190D01*
X198654819Y-85876190D02*
X198797676Y-85971428D01*
X198797676Y-85971428D02*
X198892914Y-86066666D01*
X198892914Y-86066666D02*
X198940533Y-86161904D01*
X198654819Y-84733333D02*
X198654819Y-84923809D01*
X198654819Y-84923809D02*
X198702438Y-85019047D01*
X198702438Y-85019047D02*
X198750057Y-85066666D01*
X198750057Y-85066666D02*
X198892914Y-85161904D01*
X198892914Y-85161904D02*
X199083390Y-85209523D01*
X199083390Y-85209523D02*
X199464342Y-85209523D01*
X199464342Y-85209523D02*
X199559580Y-85161904D01*
X199559580Y-85161904D02*
X199607200Y-85114285D01*
X199607200Y-85114285D02*
X199654819Y-85019047D01*
X199654819Y-85019047D02*
X199654819Y-84828571D01*
X199654819Y-84828571D02*
X199607200Y-84733333D01*
X199607200Y-84733333D02*
X199559580Y-84685714D01*
X199559580Y-84685714D02*
X199464342Y-84638095D01*
X199464342Y-84638095D02*
X199226247Y-84638095D01*
X199226247Y-84638095D02*
X199131009Y-84685714D01*
X199131009Y-84685714D02*
X199083390Y-84733333D01*
X199083390Y-84733333D02*
X199035771Y-84828571D01*
X199035771Y-84828571D02*
X199035771Y-85019047D01*
X199035771Y-85019047D02*
X199083390Y-85114285D01*
X199083390Y-85114285D02*
X199131009Y-85161904D01*
X199131009Y-85161904D02*
X199226247Y-85209523D01*
X194033333Y-95484819D02*
X193700000Y-95008628D01*
X193461905Y-95484819D02*
X193461905Y-94484819D01*
X193461905Y-94484819D02*
X193842857Y-94484819D01*
X193842857Y-94484819D02*
X193938095Y-94532438D01*
X193938095Y-94532438D02*
X193985714Y-94580057D01*
X193985714Y-94580057D02*
X194033333Y-94675295D01*
X194033333Y-94675295D02*
X194033333Y-94818152D01*
X194033333Y-94818152D02*
X193985714Y-94913390D01*
X193985714Y-94913390D02*
X193938095Y-94961009D01*
X193938095Y-94961009D02*
X193842857Y-95008628D01*
X193842857Y-95008628D02*
X193461905Y-95008628D01*
X194414286Y-94580057D02*
X194461905Y-94532438D01*
X194461905Y-94532438D02*
X194557143Y-94484819D01*
X194557143Y-94484819D02*
X194795238Y-94484819D01*
X194795238Y-94484819D02*
X194890476Y-94532438D01*
X194890476Y-94532438D02*
X194938095Y-94580057D01*
X194938095Y-94580057D02*
X194985714Y-94675295D01*
X194985714Y-94675295D02*
X194985714Y-94770533D01*
X194985714Y-94770533D02*
X194938095Y-94913390D01*
X194938095Y-94913390D02*
X194366667Y-95484819D01*
X194366667Y-95484819D02*
X194985714Y-95484819D01*
X169892681Y-73305958D02*
X169940301Y-73353577D01*
X169940301Y-73353577D02*
X169987920Y-73496434D01*
X169987920Y-73496434D02*
X169987920Y-73591672D01*
X169987920Y-73591672D02*
X169940301Y-73734529D01*
X169940301Y-73734529D02*
X169845062Y-73829767D01*
X169845062Y-73829767D02*
X169749824Y-73877386D01*
X169749824Y-73877386D02*
X169559348Y-73925005D01*
X169559348Y-73925005D02*
X169416491Y-73925005D01*
X169416491Y-73925005D02*
X169226015Y-73877386D01*
X169226015Y-73877386D02*
X169130777Y-73829767D01*
X169130777Y-73829767D02*
X169035539Y-73734529D01*
X169035539Y-73734529D02*
X168987920Y-73591672D01*
X168987920Y-73591672D02*
X168987920Y-73496434D01*
X168987920Y-73496434D02*
X169035539Y-73353577D01*
X169035539Y-73353577D02*
X169083158Y-73305958D01*
X169083158Y-72925005D02*
X169035539Y-72877386D01*
X169035539Y-72877386D02*
X168987920Y-72782148D01*
X168987920Y-72782148D02*
X168987920Y-72544053D01*
X168987920Y-72544053D02*
X169035539Y-72448815D01*
X169035539Y-72448815D02*
X169083158Y-72401196D01*
X169083158Y-72401196D02*
X169178396Y-72353577D01*
X169178396Y-72353577D02*
X169273634Y-72353577D01*
X169273634Y-72353577D02*
X169416491Y-72401196D01*
X169416491Y-72401196D02*
X169987920Y-72972624D01*
X169987920Y-72972624D02*
X169987920Y-72353577D01*
X169083158Y-71972624D02*
X169035539Y-71925005D01*
X169035539Y-71925005D02*
X168987920Y-71829767D01*
X168987920Y-71829767D02*
X168987920Y-71591672D01*
X168987920Y-71591672D02*
X169035539Y-71496434D01*
X169035539Y-71496434D02*
X169083158Y-71448815D01*
X169083158Y-71448815D02*
X169178396Y-71401196D01*
X169178396Y-71401196D02*
X169273634Y-71401196D01*
X169273634Y-71401196D02*
X169416491Y-71448815D01*
X169416491Y-71448815D02*
X169987920Y-72020243D01*
X169987920Y-72020243D02*
X169987920Y-71401196D01*
X184109580Y-78642857D02*
X184157200Y-78690476D01*
X184157200Y-78690476D02*
X184204819Y-78833333D01*
X184204819Y-78833333D02*
X184204819Y-78928571D01*
X184204819Y-78928571D02*
X184157200Y-79071428D01*
X184157200Y-79071428D02*
X184061961Y-79166666D01*
X184061961Y-79166666D02*
X183966723Y-79214285D01*
X183966723Y-79214285D02*
X183776247Y-79261904D01*
X183776247Y-79261904D02*
X183633390Y-79261904D01*
X183633390Y-79261904D02*
X183442914Y-79214285D01*
X183442914Y-79214285D02*
X183347676Y-79166666D01*
X183347676Y-79166666D02*
X183252438Y-79071428D01*
X183252438Y-79071428D02*
X183204819Y-78928571D01*
X183204819Y-78928571D02*
X183204819Y-78833333D01*
X183204819Y-78833333D02*
X183252438Y-78690476D01*
X183252438Y-78690476D02*
X183300057Y-78642857D01*
X184204819Y-77690476D02*
X184204819Y-78261904D01*
X184204819Y-77976190D02*
X183204819Y-77976190D01*
X183204819Y-77976190D02*
X183347676Y-78071428D01*
X183347676Y-78071428D02*
X183442914Y-78166666D01*
X183442914Y-78166666D02*
X183490533Y-78261904D01*
X183204819Y-77071428D02*
X183204819Y-76976190D01*
X183204819Y-76976190D02*
X183252438Y-76880952D01*
X183252438Y-76880952D02*
X183300057Y-76833333D01*
X183300057Y-76833333D02*
X183395295Y-76785714D01*
X183395295Y-76785714D02*
X183585771Y-76738095D01*
X183585771Y-76738095D02*
X183823866Y-76738095D01*
X183823866Y-76738095D02*
X184014342Y-76785714D01*
X184014342Y-76785714D02*
X184109580Y-76833333D01*
X184109580Y-76833333D02*
X184157200Y-76880952D01*
X184157200Y-76880952D02*
X184204819Y-76976190D01*
X184204819Y-76976190D02*
X184204819Y-77071428D01*
X184204819Y-77071428D02*
X184157200Y-77166666D01*
X184157200Y-77166666D02*
X184109580Y-77214285D01*
X184109580Y-77214285D02*
X184014342Y-77261904D01*
X184014342Y-77261904D02*
X183823866Y-77309523D01*
X183823866Y-77309523D02*
X183585771Y-77309523D01*
X183585771Y-77309523D02*
X183395295Y-77261904D01*
X183395295Y-77261904D02*
X183300057Y-77214285D01*
X183300057Y-77214285D02*
X183252438Y-77166666D01*
X183252438Y-77166666D02*
X183204819Y-77071428D01*
X197157142Y-82359580D02*
X197109523Y-82407200D01*
X197109523Y-82407200D02*
X196966666Y-82454819D01*
X196966666Y-82454819D02*
X196871428Y-82454819D01*
X196871428Y-82454819D02*
X196728571Y-82407200D01*
X196728571Y-82407200D02*
X196633333Y-82311961D01*
X196633333Y-82311961D02*
X196585714Y-82216723D01*
X196585714Y-82216723D02*
X196538095Y-82026247D01*
X196538095Y-82026247D02*
X196538095Y-81883390D01*
X196538095Y-81883390D02*
X196585714Y-81692914D01*
X196585714Y-81692914D02*
X196633333Y-81597676D01*
X196633333Y-81597676D02*
X196728571Y-81502438D01*
X196728571Y-81502438D02*
X196871428Y-81454819D01*
X196871428Y-81454819D02*
X196966666Y-81454819D01*
X196966666Y-81454819D02*
X197109523Y-81502438D01*
X197109523Y-81502438D02*
X197157142Y-81550057D01*
X198109523Y-82454819D02*
X197538095Y-82454819D01*
X197823809Y-82454819D02*
X197823809Y-81454819D01*
X197823809Y-81454819D02*
X197728571Y-81597676D01*
X197728571Y-81597676D02*
X197633333Y-81692914D01*
X197633333Y-81692914D02*
X197538095Y-81740533D01*
X199014285Y-81454819D02*
X198538095Y-81454819D01*
X198538095Y-81454819D02*
X198490476Y-81931009D01*
X198490476Y-81931009D02*
X198538095Y-81883390D01*
X198538095Y-81883390D02*
X198633333Y-81835771D01*
X198633333Y-81835771D02*
X198871428Y-81835771D01*
X198871428Y-81835771D02*
X198966666Y-81883390D01*
X198966666Y-81883390D02*
X199014285Y-81931009D01*
X199014285Y-81931009D02*
X199061904Y-82026247D01*
X199061904Y-82026247D02*
X199061904Y-82264342D01*
X199061904Y-82264342D02*
X199014285Y-82359580D01*
X199014285Y-82359580D02*
X198966666Y-82407200D01*
X198966666Y-82407200D02*
X198871428Y-82454819D01*
X198871428Y-82454819D02*
X198633333Y-82454819D01*
X198633333Y-82454819D02*
X198538095Y-82407200D01*
X198538095Y-82407200D02*
X198490476Y-82359580D01*
X188857142Y-77859580D02*
X188809523Y-77907200D01*
X188809523Y-77907200D02*
X188666666Y-77954819D01*
X188666666Y-77954819D02*
X188571428Y-77954819D01*
X188571428Y-77954819D02*
X188428571Y-77907200D01*
X188428571Y-77907200D02*
X188333333Y-77811961D01*
X188333333Y-77811961D02*
X188285714Y-77716723D01*
X188285714Y-77716723D02*
X188238095Y-77526247D01*
X188238095Y-77526247D02*
X188238095Y-77383390D01*
X188238095Y-77383390D02*
X188285714Y-77192914D01*
X188285714Y-77192914D02*
X188333333Y-77097676D01*
X188333333Y-77097676D02*
X188428571Y-77002438D01*
X188428571Y-77002438D02*
X188571428Y-76954819D01*
X188571428Y-76954819D02*
X188666666Y-76954819D01*
X188666666Y-76954819D02*
X188809523Y-77002438D01*
X188809523Y-77002438D02*
X188857142Y-77050057D01*
X189809523Y-77954819D02*
X189238095Y-77954819D01*
X189523809Y-77954819D02*
X189523809Y-76954819D01*
X189523809Y-76954819D02*
X189428571Y-77097676D01*
X189428571Y-77097676D02*
X189333333Y-77192914D01*
X189333333Y-77192914D02*
X189238095Y-77240533D01*
X190761904Y-77954819D02*
X190190476Y-77954819D01*
X190476190Y-77954819D02*
X190476190Y-76954819D01*
X190476190Y-76954819D02*
X190380952Y-77097676D01*
X190380952Y-77097676D02*
X190285714Y-77192914D01*
X190285714Y-77192914D02*
X190190476Y-77240533D01*
X197907200Y-96833332D02*
X197954819Y-96690475D01*
X197954819Y-96690475D02*
X197954819Y-96452380D01*
X197954819Y-96452380D02*
X197907200Y-96357142D01*
X197907200Y-96357142D02*
X197859580Y-96309523D01*
X197859580Y-96309523D02*
X197764342Y-96261904D01*
X197764342Y-96261904D02*
X197669104Y-96261904D01*
X197669104Y-96261904D02*
X197573866Y-96309523D01*
X197573866Y-96309523D02*
X197526247Y-96357142D01*
X197526247Y-96357142D02*
X197478628Y-96452380D01*
X197478628Y-96452380D02*
X197431009Y-96642856D01*
X197431009Y-96642856D02*
X197383390Y-96738094D01*
X197383390Y-96738094D02*
X197335771Y-96785713D01*
X197335771Y-96785713D02*
X197240533Y-96833332D01*
X197240533Y-96833332D02*
X197145295Y-96833332D01*
X197145295Y-96833332D02*
X197050057Y-96785713D01*
X197050057Y-96785713D02*
X197002438Y-96738094D01*
X197002438Y-96738094D02*
X196954819Y-96642856D01*
X196954819Y-96642856D02*
X196954819Y-96404761D01*
X196954819Y-96404761D02*
X197002438Y-96261904D01*
X196954819Y-95928570D02*
X197954819Y-95690475D01*
X197954819Y-95690475D02*
X197240533Y-95499999D01*
X197240533Y-95499999D02*
X197954819Y-95309523D01*
X197954819Y-95309523D02*
X196954819Y-95071428D01*
X197050057Y-94738094D02*
X197002438Y-94690475D01*
X197002438Y-94690475D02*
X196954819Y-94595237D01*
X196954819Y-94595237D02*
X196954819Y-94357142D01*
X196954819Y-94357142D02*
X197002438Y-94261904D01*
X197002438Y-94261904D02*
X197050057Y-94214285D01*
X197050057Y-94214285D02*
X197145295Y-94166666D01*
X197145295Y-94166666D02*
X197240533Y-94166666D01*
X197240533Y-94166666D02*
X197383390Y-94214285D01*
X197383390Y-94214285D02*
X197954819Y-94785713D01*
X197954819Y-94785713D02*
X197954819Y-94166666D01*
X194859580Y-75416666D02*
X194907200Y-75464285D01*
X194907200Y-75464285D02*
X194954819Y-75607142D01*
X194954819Y-75607142D02*
X194954819Y-75702380D01*
X194954819Y-75702380D02*
X194907200Y-75845237D01*
X194907200Y-75845237D02*
X194811961Y-75940475D01*
X194811961Y-75940475D02*
X194716723Y-75988094D01*
X194716723Y-75988094D02*
X194526247Y-76035713D01*
X194526247Y-76035713D02*
X194383390Y-76035713D01*
X194383390Y-76035713D02*
X194192914Y-75988094D01*
X194192914Y-75988094D02*
X194097676Y-75940475D01*
X194097676Y-75940475D02*
X194002438Y-75845237D01*
X194002438Y-75845237D02*
X193954819Y-75702380D01*
X193954819Y-75702380D02*
X193954819Y-75607142D01*
X193954819Y-75607142D02*
X194002438Y-75464285D01*
X194002438Y-75464285D02*
X194050057Y-75416666D01*
X194954819Y-74464285D02*
X194954819Y-75035713D01*
X194954819Y-74749999D02*
X193954819Y-74749999D01*
X193954819Y-74749999D02*
X194097676Y-74845237D01*
X194097676Y-74845237D02*
X194192914Y-74940475D01*
X194192914Y-74940475D02*
X194240533Y-75035713D01*
X198959580Y-78966666D02*
X199007200Y-79014285D01*
X199007200Y-79014285D02*
X199054819Y-79157142D01*
X199054819Y-79157142D02*
X199054819Y-79252380D01*
X199054819Y-79252380D02*
X199007200Y-79395237D01*
X199007200Y-79395237D02*
X198911961Y-79490475D01*
X198911961Y-79490475D02*
X198816723Y-79538094D01*
X198816723Y-79538094D02*
X198626247Y-79585713D01*
X198626247Y-79585713D02*
X198483390Y-79585713D01*
X198483390Y-79585713D02*
X198292914Y-79538094D01*
X198292914Y-79538094D02*
X198197676Y-79490475D01*
X198197676Y-79490475D02*
X198102438Y-79395237D01*
X198102438Y-79395237D02*
X198054819Y-79252380D01*
X198054819Y-79252380D02*
X198054819Y-79157142D01*
X198054819Y-79157142D02*
X198102438Y-79014285D01*
X198102438Y-79014285D02*
X198150057Y-78966666D01*
X198150057Y-78585713D02*
X198102438Y-78538094D01*
X198102438Y-78538094D02*
X198054819Y-78442856D01*
X198054819Y-78442856D02*
X198054819Y-78204761D01*
X198054819Y-78204761D02*
X198102438Y-78109523D01*
X198102438Y-78109523D02*
X198150057Y-78061904D01*
X198150057Y-78061904D02*
X198245295Y-78014285D01*
X198245295Y-78014285D02*
X198340533Y-78014285D01*
X198340533Y-78014285D02*
X198483390Y-78061904D01*
X198483390Y-78061904D02*
X199054819Y-78633332D01*
X199054819Y-78633332D02*
X199054819Y-78014285D01*
X184399580Y-87566666D02*
X184447200Y-87614285D01*
X184447200Y-87614285D02*
X184494819Y-87757142D01*
X184494819Y-87757142D02*
X184494819Y-87852380D01*
X184494819Y-87852380D02*
X184447200Y-87995237D01*
X184447200Y-87995237D02*
X184351961Y-88090475D01*
X184351961Y-88090475D02*
X184256723Y-88138094D01*
X184256723Y-88138094D02*
X184066247Y-88185713D01*
X184066247Y-88185713D02*
X183923390Y-88185713D01*
X183923390Y-88185713D02*
X183732914Y-88138094D01*
X183732914Y-88138094D02*
X183637676Y-88090475D01*
X183637676Y-88090475D02*
X183542438Y-87995237D01*
X183542438Y-87995237D02*
X183494819Y-87852380D01*
X183494819Y-87852380D02*
X183494819Y-87757142D01*
X183494819Y-87757142D02*
X183542438Y-87614285D01*
X183542438Y-87614285D02*
X183590057Y-87566666D01*
X183828152Y-86709523D02*
X184494819Y-86709523D01*
X183447200Y-86947618D02*
X184161485Y-87185713D01*
X184161485Y-87185713D02*
X184161485Y-86566666D01*
X194033333Y-93784819D02*
X193700000Y-93308628D01*
X193461905Y-93784819D02*
X193461905Y-92784819D01*
X193461905Y-92784819D02*
X193842857Y-92784819D01*
X193842857Y-92784819D02*
X193938095Y-92832438D01*
X193938095Y-92832438D02*
X193985714Y-92880057D01*
X193985714Y-92880057D02*
X194033333Y-92975295D01*
X194033333Y-92975295D02*
X194033333Y-93118152D01*
X194033333Y-93118152D02*
X193985714Y-93213390D01*
X193985714Y-93213390D02*
X193938095Y-93261009D01*
X193938095Y-93261009D02*
X193842857Y-93308628D01*
X193842857Y-93308628D02*
X193461905Y-93308628D01*
X194985714Y-93784819D02*
X194414286Y-93784819D01*
X194700000Y-93784819D02*
X194700000Y-92784819D01*
X194700000Y-92784819D02*
X194604762Y-92927676D01*
X194604762Y-92927676D02*
X194509524Y-93022914D01*
X194509524Y-93022914D02*
X194414286Y-93070533D01*
X187823333Y-88284819D02*
X187490000Y-87808628D01*
X187251905Y-88284819D02*
X187251905Y-87284819D01*
X187251905Y-87284819D02*
X187632857Y-87284819D01*
X187632857Y-87284819D02*
X187728095Y-87332438D01*
X187728095Y-87332438D02*
X187775714Y-87380057D01*
X187775714Y-87380057D02*
X187823333Y-87475295D01*
X187823333Y-87475295D02*
X187823333Y-87618152D01*
X187823333Y-87618152D02*
X187775714Y-87713390D01*
X187775714Y-87713390D02*
X187728095Y-87761009D01*
X187728095Y-87761009D02*
X187632857Y-87808628D01*
X187632857Y-87808628D02*
X187251905Y-87808628D01*
X188680476Y-87618152D02*
X188680476Y-88284819D01*
X188442381Y-87237200D02*
X188204286Y-87951485D01*
X188204286Y-87951485D02*
X188823333Y-87951485D01*
X198557142Y-81159580D02*
X198509523Y-81207200D01*
X198509523Y-81207200D02*
X198366666Y-81254819D01*
X198366666Y-81254819D02*
X198271428Y-81254819D01*
X198271428Y-81254819D02*
X198128571Y-81207200D01*
X198128571Y-81207200D02*
X198033333Y-81111961D01*
X198033333Y-81111961D02*
X197985714Y-81016723D01*
X197985714Y-81016723D02*
X197938095Y-80826247D01*
X197938095Y-80826247D02*
X197938095Y-80683390D01*
X197938095Y-80683390D02*
X197985714Y-80492914D01*
X197985714Y-80492914D02*
X198033333Y-80397676D01*
X198033333Y-80397676D02*
X198128571Y-80302438D01*
X198128571Y-80302438D02*
X198271428Y-80254819D01*
X198271428Y-80254819D02*
X198366666Y-80254819D01*
X198366666Y-80254819D02*
X198509523Y-80302438D01*
X198509523Y-80302438D02*
X198557142Y-80350057D01*
X199509523Y-81254819D02*
X198938095Y-81254819D01*
X199223809Y-81254819D02*
X199223809Y-80254819D01*
X199223809Y-80254819D02*
X199128571Y-80397676D01*
X199128571Y-80397676D02*
X199033333Y-80492914D01*
X199033333Y-80492914D02*
X198938095Y-80540533D01*
X200366666Y-80588152D02*
X200366666Y-81254819D01*
X200128571Y-80207200D02*
X199890476Y-80921485D01*
X199890476Y-80921485D02*
X200509523Y-80921485D01*
X184013333Y-89259580D02*
X183965714Y-89307200D01*
X183965714Y-89307200D02*
X183822857Y-89354819D01*
X183822857Y-89354819D02*
X183727619Y-89354819D01*
X183727619Y-89354819D02*
X183584762Y-89307200D01*
X183584762Y-89307200D02*
X183489524Y-89211961D01*
X183489524Y-89211961D02*
X183441905Y-89116723D01*
X183441905Y-89116723D02*
X183394286Y-88926247D01*
X183394286Y-88926247D02*
X183394286Y-88783390D01*
X183394286Y-88783390D02*
X183441905Y-88592914D01*
X183441905Y-88592914D02*
X183489524Y-88497676D01*
X183489524Y-88497676D02*
X183584762Y-88402438D01*
X183584762Y-88402438D02*
X183727619Y-88354819D01*
X183727619Y-88354819D02*
X183822857Y-88354819D01*
X183822857Y-88354819D02*
X183965714Y-88402438D01*
X183965714Y-88402438D02*
X184013333Y-88450057D01*
X184346667Y-88354819D02*
X185013333Y-88354819D01*
X185013333Y-88354819D02*
X184584762Y-89354819D01*
X184524819Y-85061904D02*
X185334342Y-85061904D01*
X185334342Y-85061904D02*
X185429580Y-85014285D01*
X185429580Y-85014285D02*
X185477200Y-84966666D01*
X185477200Y-84966666D02*
X185524819Y-84871428D01*
X185524819Y-84871428D02*
X185524819Y-84680952D01*
X185524819Y-84680952D02*
X185477200Y-84585714D01*
X185477200Y-84585714D02*
X185429580Y-84538095D01*
X185429580Y-84538095D02*
X185334342Y-84490476D01*
X185334342Y-84490476D02*
X184524819Y-84490476D01*
X185524819Y-83490476D02*
X185524819Y-84061904D01*
X185524819Y-83776190D02*
X184524819Y-83776190D01*
X184524819Y-83776190D02*
X184667676Y-83871428D01*
X184667676Y-83871428D02*
X184762914Y-83966666D01*
X184762914Y-83966666D02*
X184810533Y-84061904D01*
X197433333Y-84754819D02*
X196957143Y-84754819D01*
X196957143Y-84754819D02*
X196957143Y-83754819D01*
X198290476Y-84754819D02*
X197719048Y-84754819D01*
X198004762Y-84754819D02*
X198004762Y-83754819D01*
X198004762Y-83754819D02*
X197909524Y-83897676D01*
X197909524Y-83897676D02*
X197814286Y-83992914D01*
X197814286Y-83992914D02*
X197719048Y-84040533D01*
X164879580Y-80092857D02*
X164927200Y-80140476D01*
X164927200Y-80140476D02*
X164974819Y-80283333D01*
X164974819Y-80283333D02*
X164974819Y-80378571D01*
X164974819Y-80378571D02*
X164927200Y-80521428D01*
X164927200Y-80521428D02*
X164831961Y-80616666D01*
X164831961Y-80616666D02*
X164736723Y-80664285D01*
X164736723Y-80664285D02*
X164546247Y-80711904D01*
X164546247Y-80711904D02*
X164403390Y-80711904D01*
X164403390Y-80711904D02*
X164212914Y-80664285D01*
X164212914Y-80664285D02*
X164117676Y-80616666D01*
X164117676Y-80616666D02*
X164022438Y-80521428D01*
X164022438Y-80521428D02*
X163974819Y-80378571D01*
X163974819Y-80378571D02*
X163974819Y-80283333D01*
X163974819Y-80283333D02*
X164022438Y-80140476D01*
X164022438Y-80140476D02*
X164070057Y-80092857D01*
X164070057Y-79711904D02*
X164022438Y-79664285D01*
X164022438Y-79664285D02*
X163974819Y-79569047D01*
X163974819Y-79569047D02*
X163974819Y-79330952D01*
X163974819Y-79330952D02*
X164022438Y-79235714D01*
X164022438Y-79235714D02*
X164070057Y-79188095D01*
X164070057Y-79188095D02*
X164165295Y-79140476D01*
X164165295Y-79140476D02*
X164260533Y-79140476D01*
X164260533Y-79140476D02*
X164403390Y-79188095D01*
X164403390Y-79188095D02*
X164974819Y-79759523D01*
X164974819Y-79759523D02*
X164974819Y-79140476D01*
X163974819Y-78521428D02*
X163974819Y-78426190D01*
X163974819Y-78426190D02*
X164022438Y-78330952D01*
X164022438Y-78330952D02*
X164070057Y-78283333D01*
X164070057Y-78283333D02*
X164165295Y-78235714D01*
X164165295Y-78235714D02*
X164355771Y-78188095D01*
X164355771Y-78188095D02*
X164593866Y-78188095D01*
X164593866Y-78188095D02*
X164784342Y-78235714D01*
X164784342Y-78235714D02*
X164879580Y-78283333D01*
X164879580Y-78283333D02*
X164927200Y-78330952D01*
X164927200Y-78330952D02*
X164974819Y-78426190D01*
X164974819Y-78426190D02*
X164974819Y-78521428D01*
X164974819Y-78521428D02*
X164927200Y-78616666D01*
X164927200Y-78616666D02*
X164879580Y-78664285D01*
X164879580Y-78664285D02*
X164784342Y-78711904D01*
X164784342Y-78711904D02*
X164593866Y-78759523D01*
X164593866Y-78759523D02*
X164355771Y-78759523D01*
X164355771Y-78759523D02*
X164165295Y-78711904D01*
X164165295Y-78711904D02*
X164070057Y-78664285D01*
X164070057Y-78664285D02*
X164022438Y-78616666D01*
X164022438Y-78616666D02*
X163974819Y-78521428D01*
X205543539Y-68533333D02*
X206257824Y-68533333D01*
X206257824Y-68533333D02*
X206400681Y-68580952D01*
X206400681Y-68580952D02*
X206495920Y-68676190D01*
X206495920Y-68676190D02*
X206543539Y-68819047D01*
X206543539Y-68819047D02*
X206543539Y-68914285D01*
X205543539Y-67580952D02*
X205543539Y-68057142D01*
X205543539Y-68057142D02*
X206019729Y-68104761D01*
X206019729Y-68104761D02*
X205972110Y-68057142D01*
X205972110Y-68057142D02*
X205924491Y-67961904D01*
X205924491Y-67961904D02*
X205924491Y-67723809D01*
X205924491Y-67723809D02*
X205972110Y-67628571D01*
X205972110Y-67628571D02*
X206019729Y-67580952D01*
X206019729Y-67580952D02*
X206114967Y-67533333D01*
X206114967Y-67533333D02*
X206353062Y-67533333D01*
X206353062Y-67533333D02*
X206448300Y-67580952D01*
X206448300Y-67580952D02*
X206495920Y-67628571D01*
X206495920Y-67628571D02*
X206543539Y-67723809D01*
X206543539Y-67723809D02*
X206543539Y-67961904D01*
X206543539Y-67961904D02*
X206495920Y-68057142D01*
X206495920Y-68057142D02*
X206448300Y-68104761D01*
X210828508Y-72966666D02*
X210780889Y-73061904D01*
X210780889Y-73061904D02*
X210780889Y-73204761D01*
X210780889Y-73204761D02*
X210828508Y-73347618D01*
X210828508Y-73347618D02*
X210923746Y-73442856D01*
X210923746Y-73442856D02*
X211018984Y-73490475D01*
X211018984Y-73490475D02*
X211209460Y-73538094D01*
X211209460Y-73538094D02*
X211352317Y-73538094D01*
X211352317Y-73538094D02*
X211542793Y-73490475D01*
X211542793Y-73490475D02*
X211638031Y-73442856D01*
X211638031Y-73442856D02*
X211733270Y-73347618D01*
X211733270Y-73347618D02*
X211780889Y-73204761D01*
X211780889Y-73204761D02*
X211780889Y-73109523D01*
X211780889Y-73109523D02*
X211733270Y-72966666D01*
X211733270Y-72966666D02*
X211685650Y-72919047D01*
X211685650Y-72919047D02*
X211352317Y-72919047D01*
X211352317Y-72919047D02*
X211352317Y-73109523D01*
X211780889Y-72490475D02*
X210780889Y-72490475D01*
X210780889Y-72490475D02*
X210780889Y-72252380D01*
X210780889Y-72252380D02*
X210828508Y-72109523D01*
X210828508Y-72109523D02*
X210923746Y-72014285D01*
X210923746Y-72014285D02*
X211018984Y-71966666D01*
X211018984Y-71966666D02*
X211209460Y-71919047D01*
X211209460Y-71919047D02*
X211352317Y-71919047D01*
X211352317Y-71919047D02*
X211542793Y-71966666D01*
X211542793Y-71966666D02*
X211638031Y-72014285D01*
X211638031Y-72014285D02*
X211733270Y-72109523D01*
X211733270Y-72109523D02*
X211780889Y-72252380D01*
X211780889Y-72252380D02*
X211780889Y-72490475D01*
X211685650Y-70919047D02*
X211733270Y-70966666D01*
X211733270Y-70966666D02*
X211780889Y-71109523D01*
X211780889Y-71109523D02*
X211780889Y-71204761D01*
X211780889Y-71204761D02*
X211733270Y-71347618D01*
X211733270Y-71347618D02*
X211638031Y-71442856D01*
X211638031Y-71442856D02*
X211542793Y-71490475D01*
X211542793Y-71490475D02*
X211352317Y-71538094D01*
X211352317Y-71538094D02*
X211209460Y-71538094D01*
X211209460Y-71538094D02*
X211018984Y-71490475D01*
X211018984Y-71490475D02*
X210923746Y-71442856D01*
X210923746Y-71442856D02*
X210828508Y-71347618D01*
X210828508Y-71347618D02*
X210780889Y-71204761D01*
X210780889Y-71204761D02*
X210780889Y-71109523D01*
X210780889Y-71109523D02*
X210828508Y-70966666D01*
X210828508Y-70966666D02*
X210876127Y-70919047D01*
X210780889Y-70633332D02*
X211780889Y-70299999D01*
X211780889Y-70299999D02*
X210780889Y-69966666D01*
X195059580Y-83666666D02*
X195107200Y-83714285D01*
X195107200Y-83714285D02*
X195154819Y-83857142D01*
X195154819Y-83857142D02*
X195154819Y-83952380D01*
X195154819Y-83952380D02*
X195107200Y-84095237D01*
X195107200Y-84095237D02*
X195011961Y-84190475D01*
X195011961Y-84190475D02*
X194916723Y-84238094D01*
X194916723Y-84238094D02*
X194726247Y-84285713D01*
X194726247Y-84285713D02*
X194583390Y-84285713D01*
X194583390Y-84285713D02*
X194392914Y-84238094D01*
X194392914Y-84238094D02*
X194297676Y-84190475D01*
X194297676Y-84190475D02*
X194202438Y-84095237D01*
X194202438Y-84095237D02*
X194154819Y-83952380D01*
X194154819Y-83952380D02*
X194154819Y-83857142D01*
X194154819Y-83857142D02*
X194202438Y-83714285D01*
X194202438Y-83714285D02*
X194250057Y-83666666D01*
X194583390Y-83095237D02*
X194535771Y-83190475D01*
X194535771Y-83190475D02*
X194488152Y-83238094D01*
X194488152Y-83238094D02*
X194392914Y-83285713D01*
X194392914Y-83285713D02*
X194345295Y-83285713D01*
X194345295Y-83285713D02*
X194250057Y-83238094D01*
X194250057Y-83238094D02*
X194202438Y-83190475D01*
X194202438Y-83190475D02*
X194154819Y-83095237D01*
X194154819Y-83095237D02*
X194154819Y-82904761D01*
X194154819Y-82904761D02*
X194202438Y-82809523D01*
X194202438Y-82809523D02*
X194250057Y-82761904D01*
X194250057Y-82761904D02*
X194345295Y-82714285D01*
X194345295Y-82714285D02*
X194392914Y-82714285D01*
X194392914Y-82714285D02*
X194488152Y-82761904D01*
X194488152Y-82761904D02*
X194535771Y-82809523D01*
X194535771Y-82809523D02*
X194583390Y-82904761D01*
X194583390Y-82904761D02*
X194583390Y-83095237D01*
X194583390Y-83095237D02*
X194631009Y-83190475D01*
X194631009Y-83190475D02*
X194678628Y-83238094D01*
X194678628Y-83238094D02*
X194773866Y-83285713D01*
X194773866Y-83285713D02*
X194964342Y-83285713D01*
X194964342Y-83285713D02*
X195059580Y-83238094D01*
X195059580Y-83238094D02*
X195107200Y-83190475D01*
X195107200Y-83190475D02*
X195154819Y-83095237D01*
X195154819Y-83095237D02*
X195154819Y-82904761D01*
X195154819Y-82904761D02*
X195107200Y-82809523D01*
X195107200Y-82809523D02*
X195059580Y-82761904D01*
X195059580Y-82761904D02*
X194964342Y-82714285D01*
X194964342Y-82714285D02*
X194773866Y-82714285D01*
X194773866Y-82714285D02*
X194678628Y-82761904D01*
X194678628Y-82761904D02*
X194631009Y-82809523D01*
X194631009Y-82809523D02*
X194583390Y-82904761D01*
X156738095Y-91704819D02*
X156738095Y-92514342D01*
X156738095Y-92514342D02*
X156785714Y-92609580D01*
X156785714Y-92609580D02*
X156833333Y-92657200D01*
X156833333Y-92657200D02*
X156928571Y-92704819D01*
X156928571Y-92704819D02*
X157119047Y-92704819D01*
X157119047Y-92704819D02*
X157214285Y-92657200D01*
X157214285Y-92657200D02*
X157261904Y-92609580D01*
X157261904Y-92609580D02*
X157309523Y-92514342D01*
X157309523Y-92514342D02*
X157309523Y-91704819D01*
X157690476Y-91704819D02*
X158309523Y-91704819D01*
X158309523Y-91704819D02*
X157976190Y-92085771D01*
X157976190Y-92085771D02*
X158119047Y-92085771D01*
X158119047Y-92085771D02*
X158214285Y-92133390D01*
X158214285Y-92133390D02*
X158261904Y-92181009D01*
X158261904Y-92181009D02*
X158309523Y-92276247D01*
X158309523Y-92276247D02*
X158309523Y-92514342D01*
X158309523Y-92514342D02*
X158261904Y-92609580D01*
X158261904Y-92609580D02*
X158214285Y-92657200D01*
X158214285Y-92657200D02*
X158119047Y-92704819D01*
X158119047Y-92704819D02*
X157833333Y-92704819D01*
X157833333Y-92704819D02*
X157738095Y-92657200D01*
X157738095Y-92657200D02*
X157690476Y-92609580D01*
X195123809Y-76678628D02*
X195123809Y-77154819D01*
X194790476Y-76154819D02*
X195123809Y-76678628D01*
X195123809Y-76678628D02*
X195457142Y-76154819D01*
X196314285Y-77154819D02*
X195742857Y-77154819D01*
X196028571Y-77154819D02*
X196028571Y-76154819D01*
X196028571Y-76154819D02*
X195933333Y-76297676D01*
X195933333Y-76297676D02*
X195838095Y-76392914D01*
X195838095Y-76392914D02*
X195742857Y-76440533D01*
X196459580Y-86542857D02*
X196507200Y-86590476D01*
X196507200Y-86590476D02*
X196554819Y-86733333D01*
X196554819Y-86733333D02*
X196554819Y-86828571D01*
X196554819Y-86828571D02*
X196507200Y-86971428D01*
X196507200Y-86971428D02*
X196411961Y-87066666D01*
X196411961Y-87066666D02*
X196316723Y-87114285D01*
X196316723Y-87114285D02*
X196126247Y-87161904D01*
X196126247Y-87161904D02*
X195983390Y-87161904D01*
X195983390Y-87161904D02*
X195792914Y-87114285D01*
X195792914Y-87114285D02*
X195697676Y-87066666D01*
X195697676Y-87066666D02*
X195602438Y-86971428D01*
X195602438Y-86971428D02*
X195554819Y-86828571D01*
X195554819Y-86828571D02*
X195554819Y-86733333D01*
X195554819Y-86733333D02*
X195602438Y-86590476D01*
X195602438Y-86590476D02*
X195650057Y-86542857D01*
X196554819Y-85590476D02*
X196554819Y-86161904D01*
X196554819Y-85876190D02*
X195554819Y-85876190D01*
X195554819Y-85876190D02*
X195697676Y-85971428D01*
X195697676Y-85971428D02*
X195792914Y-86066666D01*
X195792914Y-86066666D02*
X195840533Y-86161904D01*
X195554819Y-85257142D02*
X195554819Y-84590476D01*
X195554819Y-84590476D02*
X196554819Y-85019047D01*
X200028495Y-82554819D02*
X200028495Y-83364342D01*
X200028495Y-83364342D02*
X200076114Y-83459580D01*
X200076114Y-83459580D02*
X200123733Y-83507200D01*
X200123733Y-83507200D02*
X200218971Y-83554819D01*
X200218971Y-83554819D02*
X200409447Y-83554819D01*
X200409447Y-83554819D02*
X200504685Y-83507200D01*
X200504685Y-83507200D02*
X200552304Y-83459580D01*
X200552304Y-83459580D02*
X200599923Y-83364342D01*
X200599923Y-83364342D02*
X200599923Y-82554819D01*
X201028495Y-82650057D02*
X201076114Y-82602438D01*
X201076114Y-82602438D02*
X201171352Y-82554819D01*
X201171352Y-82554819D02*
X201409447Y-82554819D01*
X201409447Y-82554819D02*
X201504685Y-82602438D01*
X201504685Y-82602438D02*
X201552304Y-82650057D01*
X201552304Y-82650057D02*
X201599923Y-82745295D01*
X201599923Y-82745295D02*
X201599923Y-82840533D01*
X201599923Y-82840533D02*
X201552304Y-82983390D01*
X201552304Y-82983390D02*
X200980876Y-83554819D01*
X200980876Y-83554819D02*
X201599923Y-83554819D01*
X187033333Y-90954819D02*
X186700000Y-90478628D01*
X186461905Y-90954819D02*
X186461905Y-89954819D01*
X186461905Y-89954819D02*
X186842857Y-89954819D01*
X186842857Y-89954819D02*
X186938095Y-90002438D01*
X186938095Y-90002438D02*
X186985714Y-90050057D01*
X186985714Y-90050057D02*
X187033333Y-90145295D01*
X187033333Y-90145295D02*
X187033333Y-90288152D01*
X187033333Y-90288152D02*
X186985714Y-90383390D01*
X186985714Y-90383390D02*
X186938095Y-90431009D01*
X186938095Y-90431009D02*
X186842857Y-90478628D01*
X186842857Y-90478628D02*
X186461905Y-90478628D01*
X187366667Y-89954819D02*
X187985714Y-89954819D01*
X187985714Y-89954819D02*
X187652381Y-90335771D01*
X187652381Y-90335771D02*
X187795238Y-90335771D01*
X187795238Y-90335771D02*
X187890476Y-90383390D01*
X187890476Y-90383390D02*
X187938095Y-90431009D01*
X187938095Y-90431009D02*
X187985714Y-90526247D01*
X187985714Y-90526247D02*
X187985714Y-90764342D01*
X187985714Y-90764342D02*
X187938095Y-90859580D01*
X187938095Y-90859580D02*
X187890476Y-90907200D01*
X187890476Y-90907200D02*
X187795238Y-90954819D01*
X187795238Y-90954819D02*
X187509524Y-90954819D01*
X187509524Y-90954819D02*
X187414286Y-90907200D01*
X187414286Y-90907200D02*
X187366667Y-90859580D01*
X166459580Y-93742857D02*
X166507200Y-93790476D01*
X166507200Y-93790476D02*
X166554819Y-93933333D01*
X166554819Y-93933333D02*
X166554819Y-94028571D01*
X166554819Y-94028571D02*
X166507200Y-94171428D01*
X166507200Y-94171428D02*
X166411961Y-94266666D01*
X166411961Y-94266666D02*
X166316723Y-94314285D01*
X166316723Y-94314285D02*
X166126247Y-94361904D01*
X166126247Y-94361904D02*
X165983390Y-94361904D01*
X165983390Y-94361904D02*
X165792914Y-94314285D01*
X165792914Y-94314285D02*
X165697676Y-94266666D01*
X165697676Y-94266666D02*
X165602438Y-94171428D01*
X165602438Y-94171428D02*
X165554819Y-94028571D01*
X165554819Y-94028571D02*
X165554819Y-93933333D01*
X165554819Y-93933333D02*
X165602438Y-93790476D01*
X165602438Y-93790476D02*
X165650057Y-93742857D01*
X166554819Y-92790476D02*
X166554819Y-93361904D01*
X166554819Y-93076190D02*
X165554819Y-93076190D01*
X165554819Y-93076190D02*
X165697676Y-93171428D01*
X165697676Y-93171428D02*
X165792914Y-93266666D01*
X165792914Y-93266666D02*
X165840533Y-93361904D01*
X165983390Y-92219047D02*
X165935771Y-92314285D01*
X165935771Y-92314285D02*
X165888152Y-92361904D01*
X165888152Y-92361904D02*
X165792914Y-92409523D01*
X165792914Y-92409523D02*
X165745295Y-92409523D01*
X165745295Y-92409523D02*
X165650057Y-92361904D01*
X165650057Y-92361904D02*
X165602438Y-92314285D01*
X165602438Y-92314285D02*
X165554819Y-92219047D01*
X165554819Y-92219047D02*
X165554819Y-92028571D01*
X165554819Y-92028571D02*
X165602438Y-91933333D01*
X165602438Y-91933333D02*
X165650057Y-91885714D01*
X165650057Y-91885714D02*
X165745295Y-91838095D01*
X165745295Y-91838095D02*
X165792914Y-91838095D01*
X165792914Y-91838095D02*
X165888152Y-91885714D01*
X165888152Y-91885714D02*
X165935771Y-91933333D01*
X165935771Y-91933333D02*
X165983390Y-92028571D01*
X165983390Y-92028571D02*
X165983390Y-92219047D01*
X165983390Y-92219047D02*
X166031009Y-92314285D01*
X166031009Y-92314285D02*
X166078628Y-92361904D01*
X166078628Y-92361904D02*
X166173866Y-92409523D01*
X166173866Y-92409523D02*
X166364342Y-92409523D01*
X166364342Y-92409523D02*
X166459580Y-92361904D01*
X166459580Y-92361904D02*
X166507200Y-92314285D01*
X166507200Y-92314285D02*
X166554819Y-92219047D01*
X166554819Y-92219047D02*
X166554819Y-92028571D01*
X166554819Y-92028571D02*
X166507200Y-91933333D01*
X166507200Y-91933333D02*
X166459580Y-91885714D01*
X166459580Y-91885714D02*
X166364342Y-91838095D01*
X166364342Y-91838095D02*
X166173866Y-91838095D01*
X166173866Y-91838095D02*
X166078628Y-91885714D01*
X166078628Y-91885714D02*
X166031009Y-91933333D01*
X166031009Y-91933333D02*
X165983390Y-92028571D01*
X175870243Y-75422681D02*
X175822624Y-75470301D01*
X175822624Y-75470301D02*
X175679767Y-75517920D01*
X175679767Y-75517920D02*
X175584529Y-75517920D01*
X175584529Y-75517920D02*
X175441672Y-75470301D01*
X175441672Y-75470301D02*
X175346434Y-75375062D01*
X175346434Y-75375062D02*
X175298815Y-75279824D01*
X175298815Y-75279824D02*
X175251196Y-75089348D01*
X175251196Y-75089348D02*
X175251196Y-74946491D01*
X175251196Y-74946491D02*
X175298815Y-74756015D01*
X175298815Y-74756015D02*
X175346434Y-74660777D01*
X175346434Y-74660777D02*
X175441672Y-74565539D01*
X175441672Y-74565539D02*
X175584529Y-74517920D01*
X175584529Y-74517920D02*
X175679767Y-74517920D01*
X175679767Y-74517920D02*
X175822624Y-74565539D01*
X175822624Y-74565539D02*
X175870243Y-74613158D01*
X176251196Y-74613158D02*
X176298815Y-74565539D01*
X176298815Y-74565539D02*
X176394053Y-74517920D01*
X176394053Y-74517920D02*
X176632148Y-74517920D01*
X176632148Y-74517920D02*
X176727386Y-74565539D01*
X176727386Y-74565539D02*
X176775005Y-74613158D01*
X176775005Y-74613158D02*
X176822624Y-74708396D01*
X176822624Y-74708396D02*
X176822624Y-74803634D01*
X176822624Y-74803634D02*
X176775005Y-74946491D01*
X176775005Y-74946491D02*
X176203577Y-75517920D01*
X176203577Y-75517920D02*
X176822624Y-75517920D01*
X177155958Y-74517920D02*
X177775005Y-74517920D01*
X177775005Y-74517920D02*
X177441672Y-74898872D01*
X177441672Y-74898872D02*
X177584529Y-74898872D01*
X177584529Y-74898872D02*
X177679767Y-74946491D01*
X177679767Y-74946491D02*
X177727386Y-74994110D01*
X177727386Y-74994110D02*
X177775005Y-75089348D01*
X177775005Y-75089348D02*
X177775005Y-75327443D01*
X177775005Y-75327443D02*
X177727386Y-75422681D01*
X177727386Y-75422681D02*
X177679767Y-75470301D01*
X177679767Y-75470301D02*
X177584529Y-75517920D01*
X177584529Y-75517920D02*
X177298815Y-75517920D01*
X177298815Y-75517920D02*
X177203577Y-75470301D01*
X177203577Y-75470301D02*
X177155958Y-75422681D01*
X166657142Y-90759580D02*
X166609523Y-90807200D01*
X166609523Y-90807200D02*
X166466666Y-90854819D01*
X166466666Y-90854819D02*
X166371428Y-90854819D01*
X166371428Y-90854819D02*
X166228571Y-90807200D01*
X166228571Y-90807200D02*
X166133333Y-90711961D01*
X166133333Y-90711961D02*
X166085714Y-90616723D01*
X166085714Y-90616723D02*
X166038095Y-90426247D01*
X166038095Y-90426247D02*
X166038095Y-90283390D01*
X166038095Y-90283390D02*
X166085714Y-90092914D01*
X166085714Y-90092914D02*
X166133333Y-89997676D01*
X166133333Y-89997676D02*
X166228571Y-89902438D01*
X166228571Y-89902438D02*
X166371428Y-89854819D01*
X166371428Y-89854819D02*
X166466666Y-89854819D01*
X166466666Y-89854819D02*
X166609523Y-89902438D01*
X166609523Y-89902438D02*
X166657142Y-89950057D01*
X167609523Y-90854819D02*
X167038095Y-90854819D01*
X167323809Y-90854819D02*
X167323809Y-89854819D01*
X167323809Y-89854819D02*
X167228571Y-89997676D01*
X167228571Y-89997676D02*
X167133333Y-90092914D01*
X167133333Y-90092914D02*
X167038095Y-90140533D01*
X168085714Y-90854819D02*
X168276190Y-90854819D01*
X168276190Y-90854819D02*
X168371428Y-90807200D01*
X168371428Y-90807200D02*
X168419047Y-90759580D01*
X168419047Y-90759580D02*
X168514285Y-90616723D01*
X168514285Y-90616723D02*
X168561904Y-90426247D01*
X168561904Y-90426247D02*
X168561904Y-90045295D01*
X168561904Y-90045295D02*
X168514285Y-89950057D01*
X168514285Y-89950057D02*
X168466666Y-89902438D01*
X168466666Y-89902438D02*
X168371428Y-89854819D01*
X168371428Y-89854819D02*
X168180952Y-89854819D01*
X168180952Y-89854819D02*
X168085714Y-89902438D01*
X168085714Y-89902438D02*
X168038095Y-89950057D01*
X168038095Y-89950057D02*
X167990476Y-90045295D01*
X167990476Y-90045295D02*
X167990476Y-90283390D01*
X167990476Y-90283390D02*
X168038095Y-90378628D01*
X168038095Y-90378628D02*
X168085714Y-90426247D01*
X168085714Y-90426247D02*
X168180952Y-90473866D01*
X168180952Y-90473866D02*
X168371428Y-90473866D01*
X168371428Y-90473866D02*
X168466666Y-90426247D01*
X168466666Y-90426247D02*
X168514285Y-90378628D01*
X168514285Y-90378628D02*
X168561904Y-90283390D01*
X178547920Y-68929767D02*
X178071729Y-69263100D01*
X178547920Y-69501195D02*
X177547920Y-69501195D01*
X177547920Y-69501195D02*
X177547920Y-69120243D01*
X177547920Y-69120243D02*
X177595539Y-69025005D01*
X177595539Y-69025005D02*
X177643158Y-68977386D01*
X177643158Y-68977386D02*
X177738396Y-68929767D01*
X177738396Y-68929767D02*
X177881253Y-68929767D01*
X177881253Y-68929767D02*
X177976491Y-68977386D01*
X177976491Y-68977386D02*
X178024110Y-69025005D01*
X178024110Y-69025005D02*
X178071729Y-69120243D01*
X178071729Y-69120243D02*
X178071729Y-69501195D01*
X177547920Y-68072624D02*
X177547920Y-68263100D01*
X177547920Y-68263100D02*
X177595539Y-68358338D01*
X177595539Y-68358338D02*
X177643158Y-68405957D01*
X177643158Y-68405957D02*
X177786015Y-68501195D01*
X177786015Y-68501195D02*
X177976491Y-68548814D01*
X177976491Y-68548814D02*
X178357443Y-68548814D01*
X178357443Y-68548814D02*
X178452681Y-68501195D01*
X178452681Y-68501195D02*
X178500301Y-68453576D01*
X178500301Y-68453576D02*
X178547920Y-68358338D01*
X178547920Y-68358338D02*
X178547920Y-68167862D01*
X178547920Y-68167862D02*
X178500301Y-68072624D01*
X178500301Y-68072624D02*
X178452681Y-68025005D01*
X178452681Y-68025005D02*
X178357443Y-67977386D01*
X178357443Y-67977386D02*
X178119348Y-67977386D01*
X178119348Y-67977386D02*
X178024110Y-68025005D01*
X178024110Y-68025005D02*
X177976491Y-68072624D01*
X177976491Y-68072624D02*
X177928872Y-68167862D01*
X177928872Y-68167862D02*
X177928872Y-68358338D01*
X177928872Y-68358338D02*
X177976491Y-68453576D01*
X177976491Y-68453576D02*
X178024110Y-68501195D01*
X178024110Y-68501195D02*
X178119348Y-68548814D01*
X187817095Y-94829818D02*
X187817095Y-95639341D01*
X187817095Y-95639341D02*
X187864714Y-95734579D01*
X187864714Y-95734579D02*
X187912333Y-95782199D01*
X187912333Y-95782199D02*
X188007571Y-95829818D01*
X188007571Y-95829818D02*
X188198047Y-95829818D01*
X188198047Y-95829818D02*
X188293285Y-95782199D01*
X188293285Y-95782199D02*
X188340904Y-95734579D01*
X188340904Y-95734579D02*
X188388523Y-95639341D01*
X188388523Y-95639341D02*
X188388523Y-94829818D01*
X189293285Y-95163151D02*
X189293285Y-95829818D01*
X189055190Y-94782199D02*
X188817095Y-95496484D01*
X188817095Y-95496484D02*
X189436142Y-95496484D01*
X185404000Y-89756218D02*
X185404000Y-89994313D01*
X185165905Y-89899075D02*
X185404000Y-89994313D01*
X185404000Y-89994313D02*
X185642095Y-89899075D01*
X185261143Y-90184789D02*
X185404000Y-89994313D01*
X185404000Y-89994313D02*
X185546857Y-90184789D01*
X185404000Y-89756218D02*
X185404000Y-89994313D01*
X185165905Y-89899075D02*
X185404000Y-89994313D01*
X185404000Y-89994313D02*
X185642095Y-89899075D01*
X185261143Y-90184789D02*
X185404000Y-89994313D01*
X185404000Y-89994313D02*
X185546857Y-90184789D01*
X176866666Y-91704819D02*
X176866666Y-92419104D01*
X176866666Y-92419104D02*
X176819047Y-92561961D01*
X176819047Y-92561961D02*
X176723809Y-92657200D01*
X176723809Y-92657200D02*
X176580952Y-92704819D01*
X176580952Y-92704819D02*
X176485714Y-92704819D01*
X177247619Y-91704819D02*
X177866666Y-91704819D01*
X177866666Y-91704819D02*
X177533333Y-92085771D01*
X177533333Y-92085771D02*
X177676190Y-92085771D01*
X177676190Y-92085771D02*
X177771428Y-92133390D01*
X177771428Y-92133390D02*
X177819047Y-92181009D01*
X177819047Y-92181009D02*
X177866666Y-92276247D01*
X177866666Y-92276247D02*
X177866666Y-92514342D01*
X177866666Y-92514342D02*
X177819047Y-92609580D01*
X177819047Y-92609580D02*
X177771428Y-92657200D01*
X177771428Y-92657200D02*
X177676190Y-92704819D01*
X177676190Y-92704819D02*
X177390476Y-92704819D01*
X177390476Y-92704819D02*
X177295238Y-92657200D01*
X177295238Y-92657200D02*
X177247619Y-92609580D01*
X172633333Y-95202438D02*
X172538095Y-95154819D01*
X172538095Y-95154819D02*
X172395238Y-95154819D01*
X172395238Y-95154819D02*
X172252381Y-95202438D01*
X172252381Y-95202438D02*
X172157143Y-95297676D01*
X172157143Y-95297676D02*
X172109524Y-95392914D01*
X172109524Y-95392914D02*
X172061905Y-95583390D01*
X172061905Y-95583390D02*
X172061905Y-95726247D01*
X172061905Y-95726247D02*
X172109524Y-95916723D01*
X172109524Y-95916723D02*
X172157143Y-96011961D01*
X172157143Y-96011961D02*
X172252381Y-96107200D01*
X172252381Y-96107200D02*
X172395238Y-96154819D01*
X172395238Y-96154819D02*
X172490476Y-96154819D01*
X172490476Y-96154819D02*
X172633333Y-96107200D01*
X172633333Y-96107200D02*
X172680952Y-96059580D01*
X172680952Y-96059580D02*
X172680952Y-95726247D01*
X172680952Y-95726247D02*
X172490476Y-95726247D01*
X173109524Y-96154819D02*
X173109524Y-95154819D01*
X173109524Y-95154819D02*
X173347619Y-95154819D01*
X173347619Y-95154819D02*
X173490476Y-95202438D01*
X173490476Y-95202438D02*
X173585714Y-95297676D01*
X173585714Y-95297676D02*
X173633333Y-95392914D01*
X173633333Y-95392914D02*
X173680952Y-95583390D01*
X173680952Y-95583390D02*
X173680952Y-95726247D01*
X173680952Y-95726247D02*
X173633333Y-95916723D01*
X173633333Y-95916723D02*
X173585714Y-96011961D01*
X173585714Y-96011961D02*
X173490476Y-96107200D01*
X173490476Y-96107200D02*
X173347619Y-96154819D01*
X173347619Y-96154819D02*
X173109524Y-96154819D01*
X174680952Y-96059580D02*
X174633333Y-96107200D01*
X174633333Y-96107200D02*
X174490476Y-96154819D01*
X174490476Y-96154819D02*
X174395238Y-96154819D01*
X174395238Y-96154819D02*
X174252381Y-96107200D01*
X174252381Y-96107200D02*
X174157143Y-96011961D01*
X174157143Y-96011961D02*
X174109524Y-95916723D01*
X174109524Y-95916723D02*
X174061905Y-95726247D01*
X174061905Y-95726247D02*
X174061905Y-95583390D01*
X174061905Y-95583390D02*
X174109524Y-95392914D01*
X174109524Y-95392914D02*
X174157143Y-95297676D01*
X174157143Y-95297676D02*
X174252381Y-95202438D01*
X174252381Y-95202438D02*
X174395238Y-95154819D01*
X174395238Y-95154819D02*
X174490476Y-95154819D01*
X174490476Y-95154819D02*
X174633333Y-95202438D01*
X174633333Y-95202438D02*
X174680952Y-95250057D01*
X174966667Y-95154819D02*
X175300000Y-96154819D01*
X175300000Y-96154819D02*
X175633333Y-95154819D01*
D12*
%TO.C,U6*%
X171843101Y-70813101D02*
X171843101Y-71063101D01*
X171843101Y-70813101D02*
X172093101Y-70813101D01*
X171843101Y-74013101D02*
X171843101Y-73763101D01*
X171843101Y-74013101D02*
X172093101Y-74013101D01*
X175043101Y-74013101D02*
X174793101Y-74013101D01*
X175043101Y-74013101D02*
X175043101Y-73763101D01*
X175373101Y-71053101D02*
X175043101Y-70813101D01*
X175373101Y-70573101D01*
X175373101Y-71053101D01*
G36*
X175373101Y-71053101D02*
G01*
X175043101Y-70813101D01*
X175373101Y-70573101D01*
X175373101Y-71053101D01*
G37*
%TO.C,C21*%
X163938748Y-85965000D02*
X164461252Y-85965000D01*
X163938748Y-87435000D02*
X164461252Y-87435000D01*
%TO.C,C5*%
X189140000Y-79207836D02*
X189140000Y-78992164D01*
X189860000Y-79207836D02*
X189860000Y-78992164D01*
%TO.C,C3*%
X190760000Y-89592164D02*
X190760000Y-89807836D01*
X190040000Y-89592164D02*
X190040000Y-89807836D01*
%TO.C,C13*%
X191892164Y-89840000D02*
X192107836Y-89840000D01*
X191892164Y-90560000D02*
X192107836Y-90560000D01*
%TO.C,U5*%
X158650000Y-78540000D02*
X162410000Y-78540000D01*
X158650000Y-85360000D02*
X162410000Y-85360000D01*
X162410000Y-78540000D02*
X162410000Y-79800000D01*
X162410000Y-85360000D02*
X162410000Y-84100000D01*
X157370000Y-78640000D02*
X157130000Y-78310000D01*
X157610000Y-78310000D01*
X157370000Y-78640000D01*
G36*
X157370000Y-78640000D02*
G01*
X157130000Y-78310000D01*
X157610000Y-78310000D01*
X157370000Y-78640000D01*
G37*
%TO.C,J1*%
X180610000Y-65410000D02*
X180610000Y-74040000D01*
X181580000Y-74040000D02*
X181580000Y-74450000D01*
X182300000Y-74040000D02*
X182300000Y-74450000D01*
X183210000Y-65410000D02*
X183210000Y-74040000D01*
X184120000Y-74040000D02*
X184120000Y-74450000D01*
X184840000Y-74040000D02*
X184840000Y-74450000D01*
X185750000Y-65410000D02*
X185750000Y-74040000D01*
X186660000Y-74040000D02*
X186660000Y-74450000D01*
X187380000Y-74040000D02*
X187380000Y-74450000D01*
X188290000Y-65410000D02*
X188290000Y-74040000D01*
X189200000Y-74040000D02*
X189200000Y-74450000D01*
X189920000Y-74040000D02*
X189920000Y-74450000D01*
X190830000Y-65410000D02*
X190830000Y-74040000D01*
X190948100Y-65410000D02*
X190948100Y-74040000D01*
X191066195Y-65410000D02*
X191066195Y-74040000D01*
X191184290Y-65410000D02*
X191184290Y-74040000D01*
X191302385Y-65410000D02*
X191302385Y-74040000D01*
X191420480Y-65410000D02*
X191420480Y-74040000D01*
X191538575Y-65410000D02*
X191538575Y-74040000D01*
X191656670Y-65410000D02*
X191656670Y-74040000D01*
X191740000Y-74040000D02*
X191740000Y-74390000D01*
X191774765Y-65410000D02*
X191774765Y-74040000D01*
X191892860Y-65410000D02*
X191892860Y-74040000D01*
X192010955Y-65410000D02*
X192010955Y-74040000D01*
X192129050Y-65410000D02*
X192129050Y-74040000D01*
X192247145Y-65410000D02*
X192247145Y-74040000D01*
X192365240Y-65410000D02*
X192365240Y-74040000D01*
X192460000Y-74040000D02*
X192460000Y-74390000D01*
X192483335Y-65410000D02*
X192483335Y-74040000D01*
X192601430Y-65410000D02*
X192601430Y-74040000D01*
X192719525Y-65410000D02*
X192719525Y-74040000D01*
X192837620Y-65410000D02*
X192837620Y-74040000D01*
X192955715Y-65410000D02*
X192955715Y-74040000D01*
X193073810Y-65410000D02*
X193073810Y-74040000D01*
X193191905Y-65410000D02*
X193191905Y-74040000D01*
X193310000Y-65410000D02*
X193310000Y-74040000D01*
X193430000Y-65410000D02*
X180610000Y-65410000D01*
X193430000Y-65410000D02*
X193430000Y-74040000D01*
X193430000Y-74040000D02*
X180610000Y-74040000D01*
X193430000Y-75500000D02*
X193430000Y-76610000D01*
X193430000Y-76610000D02*
X192100000Y-76610000D01*
%TO.C,R5*%
X175770601Y-70675359D02*
X175770601Y-70200843D01*
X176815601Y-70675359D02*
X176815601Y-70200843D01*
%TO.C,C12*%
X191892164Y-88770000D02*
X192107836Y-88770000D01*
X191892164Y-89490000D02*
X192107836Y-89490000D01*
D13*
%TO.C,J6*%
X164457000Y-71068013D02*
X163263200Y-70052013D01*
X164457000Y-69036013D02*
X164457000Y-71068013D01*
X164457000Y-69036013D02*
X163263200Y-70052013D01*
X162525000Y-76849993D02*
X162525000Y-74017507D01*
X162525000Y-69582507D02*
X162525000Y-66750013D01*
X159507500Y-66750013D02*
X157525000Y-66750013D01*
X157525000Y-76849993D02*
X159507500Y-76849993D01*
X157525000Y-66750013D02*
X157525000Y-76849993D01*
%TO.C,J4*%
X168750010Y-85492500D02*
X168750010Y-87475000D01*
X168750010Y-87475000D02*
X178849990Y-87475000D01*
X171036010Y-80543000D02*
X172052010Y-81736800D01*
X171036010Y-80543000D02*
X173068010Y-80543000D01*
X171582504Y-82475000D02*
X168750010Y-82475000D01*
X173068010Y-80543000D02*
X172052010Y-81736800D01*
X178849990Y-82475000D02*
X176017504Y-82475000D01*
X178849990Y-87475000D02*
X178849990Y-85492500D01*
D12*
%TO.C,J2*%
X156315000Y-87510000D02*
X156315000Y-89390000D01*
X158285000Y-86340000D02*
X160785000Y-86340000D01*
X158285000Y-90560000D02*
X160785000Y-90560000D01*
X160785000Y-86340000D02*
X160785000Y-87390000D01*
X160785000Y-87390000D02*
X161775000Y-87390000D01*
X160785000Y-90560000D02*
X160785000Y-89510000D01*
%TO.C,C9*%
X187040000Y-79207836D02*
X187040000Y-78992164D01*
X187760000Y-79207836D02*
X187760000Y-78992164D01*
%TO.C,C24*%
X170433101Y-70890937D02*
X170433101Y-70675265D01*
X171153101Y-70890937D02*
X171153101Y-70675265D01*
%TO.C,C6*%
X190140000Y-79187836D02*
X190140000Y-78972164D01*
X190860000Y-79187836D02*
X190860000Y-78972164D01*
%TO.C,C16*%
X199460000Y-83392164D02*
X199460000Y-83607836D01*
X198740000Y-83392164D02*
X198740000Y-83607836D01*
%TO.C,R2*%
X194437258Y-93077500D02*
X193962742Y-93077500D01*
X194437258Y-94122500D02*
X193962742Y-94122500D01*
%TO.C,C22*%
X170333101Y-72770937D02*
X170333101Y-72555265D01*
X171053101Y-72770937D02*
X171053101Y-72555265D01*
%TO.C,C10*%
X188140000Y-79207836D02*
X188140000Y-78992164D01*
X188860000Y-79207836D02*
X188860000Y-78992164D01*
%TO.C,C15*%
X194992164Y-81540000D02*
X195207836Y-81540000D01*
X194992164Y-82260000D02*
X195207836Y-82260000D01*
%TO.C,C11*%
X192359420Y-78790000D02*
X192640580Y-78790000D01*
X192359420Y-79810000D02*
X192640580Y-79810000D01*
%TO.C,SW2*%
X199050000Y-95550000D02*
X199050000Y-95450000D01*
X199050000Y-97050000D02*
X203450000Y-97050000D01*
X200100000Y-93950000D02*
X199050000Y-93950000D01*
X203450000Y-93950000D02*
X202400000Y-93950000D01*
X203450000Y-95550000D02*
X203450000Y-95450000D01*
%TO.C,C1*%
X193087836Y-78260000D02*
X192872164Y-78260000D01*
X193087836Y-77540000D02*
X192872164Y-77540000D01*
%TO.C,C2*%
X197660000Y-79107836D02*
X197660000Y-78892164D01*
X196940000Y-79107836D02*
X196940000Y-78892164D01*
%TO.C,C4*%
X184840000Y-87507836D02*
X184840000Y-87292164D01*
X185560000Y-87507836D02*
X185560000Y-87292164D01*
%TO.C,R1*%
X194437258Y-92422500D02*
X193962742Y-92422500D01*
X194437258Y-91377500D02*
X193962742Y-91377500D01*
%TO.C,R4*%
X187836359Y-88620000D02*
X188143641Y-88620000D01*
X187836359Y-89380000D02*
X188143641Y-89380000D01*
%TO.C,C14*%
X196392164Y-80540000D02*
X196607836Y-80540000D01*
X196392164Y-81260000D02*
X196607836Y-81260000D01*
%TO.C,C7*%
X186087836Y-89360000D02*
X185872164Y-89360000D01*
X186087836Y-88640000D02*
X185872164Y-88640000D01*
%TO.C,U1*%
X186290000Y-80690000D02*
X186765000Y-80690000D01*
X186290000Y-81165000D02*
X186290000Y-80690000D01*
X186290000Y-87435000D02*
X186290000Y-87610000D01*
X186765000Y-87910000D02*
X186530000Y-87910000D01*
X193510000Y-80690000D02*
X193035000Y-80690000D01*
X193510000Y-81165000D02*
X193510000Y-80690000D01*
X193510000Y-87435000D02*
X193510000Y-87910000D01*
X193510000Y-87910000D02*
X193035000Y-87910000D01*
X186290000Y-87910000D02*
X185960000Y-88150000D01*
X185960000Y-87670000D01*
X186290000Y-87910000D01*
G36*
X186290000Y-87910000D02*
G01*
X185960000Y-88150000D01*
X185960000Y-87670000D01*
X186290000Y-87910000D01*
G37*
%TO.C,C20*%
X165465000Y-79711252D02*
X165465000Y-79188748D01*
X166935000Y-79711252D02*
X166935000Y-79188748D01*
D13*
%TO.C,J5*%
X212026070Y-76949990D02*
X212026070Y-66850010D01*
X212026070Y-66850010D02*
X210043570Y-66850010D01*
X210043570Y-76949990D02*
X212026070Y-76949990D01*
X207026070Y-74117496D02*
X207026070Y-76949990D01*
X207026070Y-66850010D02*
X207026070Y-69682496D01*
X205094070Y-74663990D02*
X206287870Y-73647990D01*
X205094070Y-74663990D02*
X205094070Y-72631990D01*
X205094070Y-72631990D02*
X206287870Y-73647990D01*
D12*
%TO.C,C8*%
X194892164Y-84640000D02*
X195107836Y-84640000D01*
X194892164Y-85360000D02*
X195107836Y-85360000D01*
%TO.C,U3*%
X162350000Y-98610000D02*
X158590000Y-98610000D01*
X162350000Y-91790000D02*
X158590000Y-91790000D01*
X158590000Y-98610000D02*
X158590000Y-97350000D01*
X158590000Y-91790000D02*
X158590000Y-93050000D01*
X163870000Y-98840000D02*
X163390000Y-98840000D01*
X163630000Y-98510000D01*
X163870000Y-98840000D01*
G36*
X163870000Y-98840000D02*
G01*
X163390000Y-98840000D01*
X163630000Y-98510000D01*
X163870000Y-98840000D01*
G37*
%TO.C,Y1*%
X194250000Y-77450000D02*
X194250000Y-80150000D01*
X196550000Y-77450000D02*
X194250000Y-77450000D01*
%TO.C,C17*%
X196260000Y-83412164D02*
X196260000Y-83627836D01*
X195540000Y-83412164D02*
X195540000Y-83627836D01*
%TO.C,R3*%
X185353641Y-90880000D02*
X185046359Y-90880000D01*
X185353641Y-90120000D02*
X185046359Y-90120000D01*
%TO.C,C18*%
X165265000Y-96038748D02*
X165265000Y-96561252D01*
X166735000Y-96038748D02*
X166735000Y-96561252D01*
%TO.C,C23*%
X176585265Y-73823101D02*
X176800937Y-73823101D01*
X176585265Y-73103101D02*
X176800937Y-73103101D01*
%TO.C,C19*%
X163838748Y-89715000D02*
X164361252Y-89715000D01*
X163838748Y-91185000D02*
X164361252Y-91185000D01*
%TO.C,R6*%
X177370601Y-71600359D02*
X177370601Y-71125843D01*
X178415601Y-71600359D02*
X178415601Y-71125843D01*
D13*
%TO.C,U4*%
X186470785Y-99451699D02*
X190687215Y-99451699D01*
X190687215Y-91298299D02*
X186470785Y-91298299D01*
D14*
G36*
X184667400Y-97840498D02*
G01*
X184413400Y-97840498D01*
X184413400Y-97459498D01*
X184667400Y-97459498D01*
X184667400Y-97840498D01*
G37*
G36*
X192744600Y-94590500D02*
G01*
X192490600Y-94590500D01*
X192490600Y-94209500D01*
X192744600Y-94209500D01*
X192744600Y-94590500D01*
G37*
D13*
%TO.C,J3*%
X168750010Y-96217500D02*
X168750010Y-98200000D01*
X168750010Y-98200000D02*
X178849990Y-98200000D01*
X171036010Y-91268000D02*
X172052010Y-92461800D01*
X171036010Y-91268000D02*
X173068010Y-91268000D01*
X171582504Y-93200000D02*
X168750010Y-93200000D01*
X173068010Y-91268000D02*
X172052010Y-92461800D01*
X178849990Y-93200000D02*
X176017504Y-93200000D01*
X178849990Y-98200000D02*
X178849990Y-96217500D01*
%TD*%
%LPC*%
D14*
%TO.C,J6*%
G36*
X162025000Y-77200003D02*
G01*
X159825000Y-77200003D01*
X159825000Y-76100003D01*
X162025000Y-76100003D01*
X162025000Y-77200003D01*
G37*
G36*
X162025000Y-67500003D02*
G01*
X159825000Y-67500003D01*
X159825000Y-66400003D01*
X162025000Y-66400003D01*
X162025000Y-67500003D01*
G37*
%TO.C,J4*%
G36*
X169500000Y-85175000D02*
G01*
X168400000Y-85175000D01*
X168400000Y-82975000D01*
X169500000Y-82975000D01*
X169500000Y-85175000D01*
G37*
G36*
X179200000Y-85175000D02*
G01*
X178100000Y-85175000D01*
X178100000Y-82975000D01*
X179200000Y-82975000D01*
X179200000Y-85175000D01*
G37*
%TO.C,J5*%
G36*
X209726070Y-77300000D02*
G01*
X207526070Y-77300000D01*
X207526070Y-76200000D01*
X209726070Y-76200000D01*
X209726070Y-77300000D01*
G37*
G36*
X209726070Y-67600000D02*
G01*
X207526070Y-67600000D01*
X207526070Y-66500000D01*
X209726070Y-66500000D01*
X209726070Y-67600000D01*
G37*
%TO.C,J3*%
G36*
X169500000Y-95900000D02*
G01*
X168400000Y-95900000D01*
X168400000Y-93700000D01*
X169500000Y-93700000D01*
X169500000Y-95900000D01*
G37*
G36*
X179200000Y-95900000D02*
G01*
X178100000Y-95900000D01*
X178100000Y-93700000D01*
X179200000Y-93700000D01*
X179200000Y-95900000D01*
G37*
%TD*%
D15*
%TO.C,REF\u002A\u002A*%
X166000000Y-99250000D03*
%TD*%
%TO.C,REF\u002A\u002A*%
X202250000Y-67500000D03*
%TD*%
%TO.C,REF\u002A\u002A*%
X209500000Y-98250000D03*
%TD*%
D16*
%TO.C,U6*%
X174443101Y-70913101D03*
X174043101Y-70913101D03*
X173643101Y-70913101D03*
X173243101Y-70913101D03*
X172843101Y-70913101D03*
X172443101Y-70913101D03*
D17*
X171943101Y-71413101D03*
X171943101Y-71813101D03*
X171943101Y-72213101D03*
X171943101Y-72613101D03*
X171943101Y-73013101D03*
X171943101Y-73413101D03*
D16*
X172443101Y-73913101D03*
X172843101Y-73913101D03*
X173243101Y-73913101D03*
X173643101Y-73913101D03*
X174043101Y-73913101D03*
X174443101Y-73913101D03*
D17*
X174943101Y-73413101D03*
X174943101Y-73013101D03*
X174943101Y-72613101D03*
X174943101Y-72213101D03*
X174943101Y-71813101D03*
X174943101Y-71413101D03*
%TD*%
D18*
%TO.C,C21*%
X163250000Y-86700000D03*
X165150000Y-86700000D03*
%TD*%
D19*
%TO.C,C5*%
X189500000Y-79580000D03*
X189500000Y-78620000D03*
%TD*%
D20*
%TO.C,C3*%
X190400000Y-89220000D03*
X190400000Y-90180000D03*
%TD*%
D21*
%TO.C,C13*%
X191520000Y-90200000D03*
X192480000Y-90200000D03*
%TD*%
D22*
%TO.C,U5*%
X157350000Y-79650000D03*
X157350000Y-81950000D03*
D23*
X163650000Y-81950000D03*
D22*
X157350000Y-84250000D03*
%TD*%
D24*
%TO.C,J1*%
X192100000Y-75500000D03*
D25*
X189560000Y-75500000D03*
X187020000Y-75500000D03*
X184480000Y-75500000D03*
X181940000Y-75500000D03*
%TD*%
D26*
%TO.C,R5*%
X176293101Y-71263101D03*
X176293101Y-69613101D03*
%TD*%
D21*
%TO.C,C12*%
X191520000Y-89130000D03*
X192480000Y-89130000D03*
%TD*%
D27*
%TO.C,J6*%
X160500000Y-75450000D03*
X160500000Y-68150006D03*
D28*
X162425000Y-73550007D03*
X162425000Y-73050006D03*
X162425000Y-72550007D03*
X162425000Y-72050008D03*
X162425000Y-71550006D03*
X162425000Y-71050007D03*
X162425000Y-70550006D03*
X162425000Y-70050007D03*
%TD*%
D29*
%TO.C,J4*%
X172050004Y-82575000D03*
X172550003Y-82575000D03*
X173050004Y-82575000D03*
X173550003Y-82575000D03*
X174050005Y-82575000D03*
X174550004Y-82575000D03*
X175050003Y-82575000D03*
X175550004Y-82575000D03*
D30*
X170150003Y-84500000D03*
X177449997Y-84500000D03*
%TD*%
D31*
%TO.C,J2*%
X161000000Y-87950000D03*
X161000000Y-88950000D03*
D32*
X157125000Y-86650000D03*
X157125000Y-90250000D03*
%TD*%
D19*
%TO.C,C9*%
X187400000Y-79580000D03*
X187400000Y-78620000D03*
%TD*%
%TO.C,C24*%
X170793101Y-71263101D03*
X170793101Y-70303101D03*
%TD*%
%TO.C,C6*%
X190500000Y-79560000D03*
X190500000Y-78600000D03*
%TD*%
D20*
%TO.C,C16*%
X199100000Y-83980000D03*
X199100000Y-83020000D03*
%TD*%
D33*
%TO.C,R2*%
X193375000Y-93600000D03*
X195025000Y-93600000D03*
%TD*%
D19*
%TO.C,C22*%
X170693101Y-73143101D03*
X170693101Y-72183101D03*
%TD*%
%TO.C,C10*%
X188500000Y-79580000D03*
X188500000Y-78620000D03*
%TD*%
D21*
%TO.C,C15*%
X194620000Y-81900000D03*
X195580000Y-81900000D03*
%TD*%
D34*
%TO.C,C11*%
X191725000Y-79300000D03*
X193275000Y-79300000D03*
%TD*%
D35*
%TO.C,SW2*%
X199200000Y-94700000D03*
X203300000Y-94700000D03*
X199200000Y-96300000D03*
X203300000Y-96300000D03*
D36*
X201250000Y-94075000D03*
%TD*%
D37*
%TO.C,C1*%
X193460000Y-77900000D03*
X192500000Y-77900000D03*
%TD*%
D19*
%TO.C,C2*%
X197300000Y-78520000D03*
X197300000Y-79480000D03*
%TD*%
%TO.C,C4*%
X185200000Y-87880000D03*
X185200000Y-86920000D03*
%TD*%
D33*
%TO.C,R1*%
X195025000Y-91900000D03*
X193375000Y-91900000D03*
%TD*%
D38*
%TO.C,R4*%
X187480000Y-89000000D03*
X188500000Y-89000000D03*
%TD*%
D21*
%TO.C,C14*%
X196020000Y-80900000D03*
X196980000Y-80900000D03*
%TD*%
D37*
%TO.C,C7*%
X186460000Y-89000000D03*
X185500000Y-89000000D03*
%TD*%
D39*
%TO.C,U1*%
X187150000Y-87737500D03*
X187650000Y-87737500D03*
X188150000Y-87737500D03*
X188650000Y-87737500D03*
X189150000Y-87737500D03*
X189650000Y-87737500D03*
X190150000Y-87737500D03*
X190650000Y-87737500D03*
X191150000Y-87737500D03*
X191650000Y-87737500D03*
X192150000Y-87737500D03*
X192650000Y-87737500D03*
D40*
X193337500Y-87050000D03*
X193337500Y-86550000D03*
X193337500Y-86050000D03*
X193337500Y-85550000D03*
X193337500Y-85050000D03*
X193337500Y-84550000D03*
X193337500Y-84050000D03*
X193337500Y-83550000D03*
X193337500Y-83050000D03*
X193337500Y-82550000D03*
X193337500Y-82050000D03*
X193337500Y-81550000D03*
D39*
X192650000Y-80862500D03*
X192150000Y-80862500D03*
X191650000Y-80862500D03*
X191150000Y-80862500D03*
X190650000Y-80862500D03*
X190150000Y-80862500D03*
X189650000Y-80862500D03*
X189150000Y-80862500D03*
X188650000Y-80862500D03*
X188150000Y-80862500D03*
X187650000Y-80862500D03*
X187150000Y-80862500D03*
D40*
X186462500Y-81550000D03*
X186462500Y-82050000D03*
X186462500Y-82550000D03*
X186462500Y-83050000D03*
X186462500Y-83550000D03*
X186462500Y-84050000D03*
X186462500Y-84550000D03*
X186462500Y-85050000D03*
X186462500Y-85550000D03*
X186462500Y-86050000D03*
X186462500Y-86550000D03*
X186462500Y-87050000D03*
D41*
X189900000Y-84300000D03*
%TD*%
D42*
%TO.C,L1*%
X197985000Y-83000000D03*
X197015000Y-83000000D03*
%TD*%
D43*
%TO.C,C20*%
X166200000Y-80400000D03*
X166200000Y-78500000D03*
%TD*%
D27*
%TO.C,J5*%
X209051070Y-68250003D03*
X209051070Y-75549997D03*
D28*
X207126070Y-70149996D03*
X207126070Y-70649997D03*
X207126070Y-71149996D03*
X207126070Y-71649995D03*
X207126070Y-72149997D03*
X207126070Y-72649996D03*
X207126070Y-73149997D03*
X207126070Y-73649996D03*
%TD*%
D21*
%TO.C,C8*%
X194520000Y-85000000D03*
X195480000Y-85000000D03*
%TD*%
D44*
%TO.C,U3*%
X163650000Y-97500000D03*
X163650000Y-95200000D03*
D45*
X157350000Y-95200000D03*
D44*
X163650000Y-92900000D03*
%TD*%
D46*
%TO.C,Y1*%
X195950000Y-78100000D03*
X195950000Y-79500000D03*
X194850000Y-79500000D03*
X194850000Y-78100000D03*
%TD*%
D20*
%TO.C,C17*%
X195900000Y-84000000D03*
X195900000Y-83040000D03*
%TD*%
D47*
%TO.C,U2*%
X200790400Y-83328600D03*
D48*
X201400000Y-83100000D03*
D47*
X200790400Y-82871400D03*
D48*
X200180800Y-83100000D03*
%TD*%
D49*
%TO.C,R3*%
X185710000Y-90500000D03*
X184690000Y-90500000D03*
%TD*%
D50*
%TO.C,C18*%
X166000000Y-97250000D03*
X166000000Y-95350000D03*
%TD*%
D21*
%TO.C,C23*%
X177173101Y-73463101D03*
X176213101Y-73463101D03*
%TD*%
D18*
%TO.C,C19*%
X163150000Y-90450000D03*
X165050000Y-90450000D03*
%TD*%
D26*
%TO.C,R6*%
X177893101Y-72188101D03*
X177893101Y-70538101D03*
%TD*%
D51*
%TO.C,U4*%
X185658000Y-91800000D03*
X185658000Y-92449999D03*
X185658000Y-93099997D03*
X185658000Y-93749998D03*
X185658000Y-94399997D03*
X185658000Y-95049998D03*
X185658000Y-95699997D03*
X185658000Y-96349998D03*
X185658000Y-96999997D03*
X185658000Y-97649998D03*
X185658000Y-98299997D03*
X185658000Y-98949998D03*
X191500000Y-98949998D03*
X191500000Y-98299999D03*
X191500000Y-97649998D03*
X191500000Y-97000000D03*
X191500000Y-96349998D03*
X191500000Y-95700000D03*
X191500000Y-95050001D03*
X191500000Y-94400000D03*
X191500000Y-93750001D03*
X191500000Y-93100000D03*
X191500000Y-92450001D03*
X191500000Y-91800000D03*
%TD*%
D29*
%TO.C,J3*%
X172050004Y-93300000D03*
X172550003Y-93300000D03*
X173050004Y-93300000D03*
X173550003Y-93300000D03*
X174050005Y-93300000D03*
X174550004Y-93300000D03*
X175050003Y-93300000D03*
X175550004Y-93300000D03*
D30*
X170150003Y-95225000D03*
X177449997Y-95225000D03*
%TD*%
%LPD*%
M02*
