%TF.GenerationSoftware,KiCad,Pcbnew,8.0.6*%
%TF.CreationDate,2024-11-21T20:13:28-05:00*%
%TF.ProjectId,battery_charger,62617474-6572-4795-9f63-686172676572,rev?*%
%TF.SameCoordinates,Original*%
%TF.FileFunction,Copper,L1,Top*%
%TF.FilePolarity,Positive*%
%FSLAX46Y46*%
G04 Gerber Fmt 4.6, Leading zero omitted, Abs format (unit mm)*
G04 Created by KiCad (PCBNEW 8.0.6) date 2024-11-21 20:13:28*
%MOMM*%
%LPD*%
G01*
G04 APERTURE LIST*
G04 Aperture macros list*
%AMRoundRect*
0 Rectangle with rounded corners*
0 $1 Rounding radius*
0 $2 $3 $4 $5 $6 $7 $8 $9 X,Y pos of 4 corners*
0 Add a 4 corners polygon primitive as box body*
4,1,4,$2,$3,$4,$5,$6,$7,$8,$9,$2,$3,0*
0 Add four circle primitives for the rounded corners*
1,1,$1+$1,$2,$3*
1,1,$1+$1,$4,$5*
1,1,$1+$1,$6,$7*
1,1,$1+$1,$8,$9*
0 Add four rect primitives between the rounded corners*
20,1,$1+$1,$2,$3,$4,$5,0*
20,1,$1+$1,$4,$5,$6,$7,0*
20,1,$1+$1,$6,$7,$8,$9,0*
20,1,$1+$1,$8,$9,$2,$3,0*%
%AMFreePoly0*
4,1,45,-0.121464,1.703536,-0.120000,1.700000,-0.120000,1.205000,0.120000,1.205000,0.120000,1.700000,0.121464,1.703536,0.125000,1.705000,0.375000,1.705000,0.378536,1.703536,0.380000,1.700000,0.380000,1.205000,0.825000,1.205000,0.828536,1.203536,0.830000,1.200000,0.830000,-1.200000,0.828536,-1.203536,0.825000,-1.205000,0.380000,-1.205000,0.380000,-1.700000,0.378536,-1.703536,
0.375000,-1.705000,0.125000,-1.705000,0.121464,-1.703536,0.120000,-1.700000,0.120000,-1.205000,-0.120000,-1.205000,-0.120000,-1.700000,-0.121464,-1.703536,-0.125000,-1.705000,-0.375000,-1.705000,-0.378536,-1.703536,-0.380000,-1.700000,-0.380000,-1.205000,-0.825000,-1.205000,-0.828536,-1.203536,-0.830000,-1.200000,-0.830000,1.200000,-0.828536,1.203536,-0.825000,1.205000,-0.380000,1.205000,
-0.380000,1.700000,-0.378536,1.703536,-0.375000,1.705000,-0.125000,1.705000,-0.121464,1.703536,-0.121464,1.703536,$1*%
G04 Aperture macros list end*
%TA.AperFunction,SMDPad,CuDef*%
%ADD10R,1.700000X0.900000*%
%TD*%
%TA.AperFunction,SMDPad,CuDef*%
%ADD11RoundRect,0.250000X0.300000X0.300000X-0.300000X0.300000X-0.300000X-0.300000X0.300000X-0.300000X0*%
%TD*%
%TA.AperFunction,SMDPad,CuDef*%
%ADD12RoundRect,0.218750X-0.256250X0.218750X-0.256250X-0.218750X0.256250X-0.218750X0.256250X0.218750X0*%
%TD*%
%TA.AperFunction,SMDPad,CuDef*%
%ADD13RoundRect,0.030000X-0.270000X-0.090000X0.270000X-0.090000X0.270000X0.090000X-0.270000X0.090000X0*%
%TD*%
%TA.AperFunction,SMDPad,CuDef*%
%ADD14FreePoly0,0.000000*%
%TD*%
%TA.AperFunction,ComponentPad*%
%ADD15C,0.300000*%
%TD*%
%TA.AperFunction,SMDPad,CuDef*%
%ADD16RoundRect,0.200000X0.200000X0.275000X-0.200000X0.275000X-0.200000X-0.275000X0.200000X-0.275000X0*%
%TD*%
%TA.AperFunction,SMDPad,CuDef*%
%ADD17RoundRect,0.200000X-0.275000X0.200000X-0.275000X-0.200000X0.275000X-0.200000X0.275000X0.200000X0*%
%TD*%
%TA.AperFunction,SMDPad,CuDef*%
%ADD18RoundRect,0.200000X-0.200000X-0.275000X0.200000X-0.275000X0.200000X0.275000X-0.200000X0.275000X0*%
%TD*%
%TA.AperFunction,SMDPad,CuDef*%
%ADD19RoundRect,0.225000X-0.250000X0.225000X-0.250000X-0.225000X0.250000X-0.225000X0.250000X0.225000X0*%
%TD*%
%TA.AperFunction,SMDPad,CuDef*%
%ADD20RoundRect,0.225000X-0.225000X-0.250000X0.225000X-0.250000X0.225000X0.250000X-0.225000X0.250000X0*%
%TD*%
%TA.AperFunction,ComponentPad*%
%ADD21C,2.000000*%
%TD*%
%TA.AperFunction,SMDPad,CuDef*%
%ADD22RoundRect,0.225000X0.225000X0.250000X-0.225000X0.250000X-0.225000X-0.250000X0.225000X-0.250000X0*%
%TD*%
%TA.AperFunction,SMDPad,CuDef*%
%ADD23RoundRect,0.147500X0.147500X0.172500X-0.147500X0.172500X-0.147500X-0.172500X0.147500X-0.172500X0*%
%TD*%
%TA.AperFunction,WasherPad*%
%ADD24C,1.300000*%
%TD*%
%TA.AperFunction,SMDPad,CuDef*%
%ADD25RoundRect,0.150000X-0.512500X-0.150000X0.512500X-0.150000X0.512500X0.150000X-0.512500X0.150000X0*%
%TD*%
%TA.AperFunction,SMDPad,CuDef*%
%ADD26RoundRect,0.250000X0.250000X0.475000X-0.250000X0.475000X-0.250000X-0.475000X0.250000X-0.475000X0*%
%TD*%
%TA.AperFunction,SMDPad,CuDef*%
%ADD27RoundRect,0.200000X0.275000X-0.200000X0.275000X0.200000X-0.275000X0.200000X-0.275000X-0.200000X0*%
%TD*%
%TA.AperFunction,SMDPad,CuDef*%
%ADD28RoundRect,0.147500X-0.147500X-0.172500X0.147500X-0.172500X0.147500X0.172500X-0.147500X0.172500X0*%
%TD*%
%TA.AperFunction,SMDPad,CuDef*%
%ADD29RoundRect,0.100000X-0.575000X0.100000X-0.575000X-0.100000X0.575000X-0.100000X0.575000X0.100000X0*%
%TD*%
%TA.AperFunction,ComponentPad*%
%ADD30O,1.600000X0.900000*%
%TD*%
%TA.AperFunction,SMDPad,CuDef*%
%ADD31RoundRect,0.250000X-0.450000X0.550000X-0.450000X-0.550000X0.450000X-0.550000X0.450000X0.550000X0*%
%TD*%
%TA.AperFunction,SMDPad,CuDef*%
%ADD32RoundRect,0.250000X-0.700000X0.700000X-0.700000X-0.700000X0.700000X-0.700000X0.700000X0.700000X0*%
%TD*%
%TA.AperFunction,SMDPad,CuDef*%
%ADD33RoundRect,0.150000X0.512500X0.150000X-0.512500X0.150000X-0.512500X-0.150000X0.512500X-0.150000X0*%
%TD*%
%TA.AperFunction,SMDPad,CuDef*%
%ADD34RoundRect,0.140000X0.140000X0.170000X-0.140000X0.170000X-0.140000X-0.170000X0.140000X-0.170000X0*%
%TD*%
%TA.AperFunction,ViaPad*%
%ADD35C,0.700000*%
%TD*%
%TA.AperFunction,Conductor*%
%ADD36C,0.500000*%
%TD*%
%TA.AperFunction,Conductor*%
%ADD37C,0.300000*%
%TD*%
G04 APERTURE END LIST*
D10*
%TO.P,SW1,1,1*%
%TO.N,Net-(D1-A)*%
X126910828Y-82800000D03*
%TO.P,SW1,2,2*%
%TO.N,Net-(Q1-S)*%
X126910828Y-86200000D03*
%TD*%
D11*
%TO.P,D1,1,K*%
%TO.N,Net-(D1-K)*%
X133010828Y-81900000D03*
%TO.P,D1,2,A*%
%TO.N,Net-(D1-A)*%
X130210828Y-81900000D03*
%TD*%
D12*
%TO.P,L1,1,1*%
%TO.N,Net-(Q1-D)*%
X141810828Y-82412500D03*
%TO.P,L1,2,2*%
%TO.N,Net-(U3-L)*%
X141810828Y-83987500D03*
%TD*%
D13*
%TO.P,U3,1,VAUX*%
%TO.N,Net-(U3-VAUX)*%
X143410828Y-84550000D03*
%TO.P,U3,2,VOUT*%
%TO.N,3.3V_OUT*%
X143410828Y-85050000D03*
%TO.P,U3,3,L*%
%TO.N,Net-(U3-L)*%
X143410828Y-85550000D03*
%TO.P,U3,4,PGND*%
%TO.N,GND*%
X143410828Y-86050000D03*
%TO.P,U3,5,VIN*%
%TO.N,Net-(Q1-D)*%
X143410828Y-86550000D03*
%TO.P,U3,6,EN*%
X146210828Y-86550000D03*
%TO.P,U3,7,UVLO*%
%TO.N,Net-(U3-UVLO)*%
X146210828Y-86050000D03*
%TO.P,U3,8,PS*%
%TO.N,Net-(Q1-D)*%
X146210828Y-85550000D03*
%TO.P,U3,9,GND*%
%TO.N,GND*%
X146210828Y-85050000D03*
%TO.P,U3,10,FB*%
%TO.N,3.3V_OUT*%
X146210828Y-84550000D03*
D14*
%TO.P,U3,11,PAD*%
%TO.N,GND*%
X144810828Y-85550000D03*
D15*
%TO.P,U3,12*%
%TO.N,N/C*%
X144810828Y-86500000D03*
%TO.P,U3,13*%
X144235828Y-85550000D03*
%TO.P,U3,14*%
X145385828Y-85550000D03*
%TO.P,U3,15*%
X144810828Y-84600000D03*
%TD*%
D16*
%TO.P,R7,1*%
%TO.N,Net-(U2-PROG)*%
X116325000Y-88500000D03*
%TO.P,R7,2*%
%TO.N,GND*%
X114675000Y-88500000D03*
%TD*%
D17*
%TO.P,R1,1*%
%TO.N,Net-(Q1-D)*%
X140210828Y-86375000D03*
%TO.P,R1,2*%
%TO.N,Net-(U3-UVLO)*%
X140210828Y-88025000D03*
%TD*%
D18*
%TO.P,R11,1*%
%TO.N,Net-(D7-K)*%
X136610828Y-84750000D03*
%TO.P,R11,2*%
%TO.N,GND*%
X138260828Y-84750000D03*
%TD*%
D19*
%TO.P,C2,1*%
%TO.N,Net-(Q1-D)*%
X140210828Y-82425000D03*
%TO.P,C2,2*%
%TO.N,GND*%
X140210828Y-83975000D03*
%TD*%
D20*
%TO.P,C5,1*%
%TO.N,Net-(Q1-S)*%
X119025000Y-88500000D03*
%TO.P,C5,2*%
%TO.N,GND*%
X120575000Y-88500000D03*
%TD*%
D21*
%TO.P,3.3V,*%
%TO.N,3.3V_OUT*%
X138210828Y-88900000D03*
%TD*%
D18*
%TO.P,R12,1*%
%TO.N,Net-(D8-K)*%
X136610828Y-86900000D03*
%TO.P,R12,2*%
%TO.N,GND*%
X138260828Y-86900000D03*
%TD*%
D16*
%TO.P,R9,1*%
%TO.N,Net-(D5-K)*%
X127110828Y-88250000D03*
%TO.P,R9,2*%
%TO.N,GND*%
X125460828Y-88250000D03*
%TD*%
D21*
%TO.P,B+,*%
%TO.N,Net-(Q1-S)*%
X122700000Y-82000000D03*
%TD*%
D11*
%TO.P,D3,1,K*%
%TO.N,Net-(D3-K)*%
X133010828Y-86600000D03*
%TO.P,D3,2,A*%
%TO.N,Net-(D2-K)*%
X130210828Y-86600000D03*
%TD*%
D22*
%TO.P,C4,1*%
%TO.N,Net-(J1-VBUS)*%
X116275000Y-82500000D03*
%TO.P,C4,2*%
%TO.N,GND*%
X114725000Y-82500000D03*
%TD*%
D23*
%TO.P,D8,1,K*%
%TO.N,Net-(D8-K)*%
X135440828Y-87000000D03*
%TO.P,D8,2,A*%
%TO.N,Net-(D3-K)*%
X134470828Y-87000000D03*
%TD*%
D11*
%TO.P,D2,1,K*%
%TO.N,Net-(D2-K)*%
X133010828Y-84250000D03*
%TO.P,D2,2,A*%
%TO.N,Net-(D1-K)*%
X130210828Y-84250000D03*
%TD*%
D24*
%TO.P,REF\u002A\u002A,*%
%TO.N,*%
X147210828Y-91200000D03*
%TD*%
D25*
%TO.P,Q1,1,G*%
%TO.N,Net-(J1-VBUS)*%
X121125000Y-84250000D03*
%TO.P,Q1,2,S*%
%TO.N,Net-(Q1-S)*%
X121125000Y-86150000D03*
%TO.P,Q1,3,D*%
%TO.N,Net-(Q1-D)*%
X123400000Y-85200000D03*
%TD*%
D21*
%TO.P,GND,*%
%TO.N,GND*%
X134810828Y-88900000D03*
%TD*%
D26*
%TO.P,C3,1*%
%TO.N,3.3V_OUT*%
X146160828Y-82550000D03*
%TO.P,C3,2*%
%TO.N,GND*%
X144260828Y-82550000D03*
%TD*%
D21*
%TO.P,B-,*%
%TO.N,GND*%
X122700000Y-88600000D03*
%TD*%
D27*
%TO.P,R2,1*%
%TO.N,Net-(U3-UVLO)*%
X141810828Y-88025000D03*
%TO.P,R2,2*%
%TO.N,GND*%
X141810828Y-86375000D03*
%TD*%
D23*
%TO.P,D6,1,K*%
%TO.N,Net-(D6-K)*%
X135345828Y-82500000D03*
%TO.P,D6,2,A*%
%TO.N,Net-(D1-K)*%
X134375828Y-82500000D03*
%TD*%
D18*
%TO.P,R8,1*%
%TO.N,Net-(J1-VBUS)*%
X118175000Y-82500000D03*
%TO.P,R8,2*%
%TO.N,GND*%
X119825000Y-82500000D03*
%TD*%
D28*
%TO.P,D5,1,K*%
%TO.N,Net-(D5-K)*%
X128325828Y-88300000D03*
%TO.P,D5,2,A*%
%TO.N,Net-(D1-A)*%
X129295828Y-88300000D03*
%TD*%
D29*
%TO.P,J1,1,VBUS*%
%TO.N,Net-(J1-VBUS)*%
X112375000Y-84200000D03*
%TO.P,J1,2,D-*%
%TO.N,Net-(J1-D+)*%
X112375000Y-84850000D03*
%TO.P,J1,3,D+*%
X112375000Y-85500000D03*
%TO.P,J1,4,ID*%
%TO.N,GND*%
X112375000Y-86150000D03*
%TO.P,J1,5,GND*%
X112375000Y-86800000D03*
D30*
%TO.P,J1,6,Shield*%
X109700000Y-82200000D03*
D31*
X112150000Y-82300000D03*
D32*
X109700000Y-84300000D03*
X109700000Y-86700000D03*
D31*
X112150000Y-88700000D03*
D30*
X109700000Y-88800000D03*
%TD*%
D33*
%TO.P,U2,1,STAT*%
%TO.N,unconnected-(U2-STAT-Pad1)*%
X118637500Y-86450000D03*
%TO.P,U2,2,V_{SS}*%
%TO.N,GND*%
X118637500Y-85500000D03*
%TO.P,U2,3,V_{BAT}*%
%TO.N,Net-(Q1-S)*%
X118637500Y-84550000D03*
%TO.P,U2,4,V_{DD}*%
%TO.N,Net-(J1-VBUS)*%
X116362500Y-84550000D03*
%TO.P,U2,5,PROG*%
%TO.N,Net-(U2-PROG)*%
X116362500Y-86450000D03*
%TD*%
D18*
%TO.P,R10,1*%
%TO.N,Net-(D6-K)*%
X136535828Y-82500000D03*
%TO.P,R10,2*%
%TO.N,GND*%
X138185828Y-82500000D03*
%TD*%
D24*
%TO.P,REF\u002A\u002A,*%
%TO.N,*%
X147210828Y-79600000D03*
%TD*%
D34*
%TO.P,C1,1*%
%TO.N,Net-(U3-VAUX)*%
X145490828Y-88150000D03*
%TO.P,C1,2*%
%TO.N,GND*%
X144530828Y-88150000D03*
%TD*%
D23*
%TO.P,D7,1,K*%
%TO.N,Net-(D7-K)*%
X135420828Y-84750000D03*
%TO.P,D7,2,A*%
%TO.N,Net-(D2-K)*%
X134450828Y-84750000D03*
%TD*%
D24*
%TO.P,REF\u002A\u002A,*%
%TO.N,*%
X113200000Y-79600000D03*
%TD*%
D35*
%TO.N,Net-(U3-VAUX)*%
X143410828Y-83800000D03*
X146210828Y-88000000D03*
%TO.N,GND*%
X114400000Y-87200000D03*
X144778841Y-83900732D03*
X141410828Y-85372644D03*
X138210828Y-83600000D03*
X138855414Y-85755414D03*
X114000000Y-83400000D03*
X124410828Y-88200000D03*
X120000000Y-81300000D03*
X143910828Y-87700000D03*
X120597070Y-87302018D03*
X114600000Y-85600000D03*
%TO.N,Net-(Q1-D)*%
X140110831Y-85400000D03*
X134300000Y-81200000D03*
X146210828Y-87099997D03*
X143010828Y-87800000D03*
X128800000Y-81200000D03*
X147060828Y-85051348D03*
%TD*%
D36*
%TO.N,Net-(D1-A)*%
X129295828Y-88300000D02*
X129295828Y-87980001D01*
X129295828Y-87980001D02*
X128500000Y-87184173D01*
X128500000Y-87184173D02*
X128500000Y-84389172D01*
X128500000Y-84389172D02*
X126910828Y-82800000D01*
%TO.N,Net-(Q1-S)*%
X123965184Y-86150000D02*
X124015184Y-86200000D01*
X124015184Y-86200000D02*
X126910828Y-86200000D01*
X122200000Y-86150000D02*
X123965184Y-86150000D01*
X121125000Y-86150000D02*
X122200000Y-86150000D01*
X122000000Y-81925000D02*
X122237500Y-82162500D01*
X122237500Y-82162500D02*
X122237500Y-86112500D01*
X122237500Y-86112500D02*
X122200000Y-86150000D01*
D37*
%TO.N,Net-(U3-VAUX)*%
X146060828Y-88150000D02*
X146210828Y-88000000D01*
X145490828Y-88150000D02*
X146060828Y-88150000D01*
X143410828Y-83800000D02*
X143410828Y-84550000D01*
%TO.N,3.3V_OUT*%
X144766284Y-81475000D02*
X146210828Y-82919544D01*
D36*
X146210828Y-84450000D02*
X146460828Y-84200000D01*
X147860828Y-84719977D02*
X147860828Y-88188478D01*
D37*
X143410828Y-85050000D02*
X143012596Y-85050000D01*
X142710828Y-84748232D02*
X142710828Y-82519544D01*
X143012596Y-85050000D02*
X142710828Y-84748232D01*
X142710828Y-82519544D02*
X143755372Y-81475000D01*
D36*
X147340851Y-84200000D02*
X147860828Y-84719977D01*
D37*
X143755372Y-81475000D02*
X144766284Y-81475000D01*
D36*
X147860828Y-88188478D02*
X146639306Y-89410000D01*
X146460828Y-84200000D02*
X147340851Y-84200000D01*
X146160828Y-82550000D02*
X146160828Y-84400000D01*
X146639306Y-89410000D02*
X138720828Y-89410000D01*
X138720828Y-89410000D02*
X138210828Y-88900000D01*
X146160828Y-84400000D02*
X146210828Y-84450000D01*
%TO.N,Net-(J1-VBUS)*%
X112375000Y-84200000D02*
X115100000Y-84200000D01*
D37*
X115450000Y-84550000D02*
X115100000Y-84200000D01*
D36*
X112375000Y-84200000D02*
X116475000Y-84200000D01*
X116475000Y-84200000D02*
X118175000Y-82500000D01*
X112375000Y-84200000D02*
X114575000Y-84200000D01*
D37*
X116275000Y-84462500D02*
X116362500Y-84550000D01*
D36*
X118175000Y-82500000D02*
X118175000Y-82775000D01*
X121125000Y-84250000D02*
X119925000Y-84250000D01*
X114575000Y-84200000D02*
X116275000Y-82500000D01*
D37*
X116362500Y-84550000D02*
X115450000Y-84550000D01*
D36*
X119925000Y-84250000D02*
X118175000Y-82500000D01*
%TO.N,Net-(Q1-S)*%
X119750000Y-86200000D02*
X119750000Y-87775000D01*
X118637500Y-84550000D02*
X119202684Y-84550000D01*
X121125000Y-86150000D02*
X119800000Y-86150000D01*
X119202684Y-84550000D02*
X119750000Y-85097316D01*
X119750000Y-87775000D02*
X119025000Y-88500000D01*
X119750000Y-85097316D02*
X119750000Y-86200000D01*
X119800000Y-86150000D02*
X119750000Y-86200000D01*
%TO.N,Net-(D5-K)*%
X127110828Y-88250000D02*
X128250828Y-88250000D01*
%TO.N,Net-(D6-K)*%
X136535828Y-82500000D02*
X135220828Y-82500000D01*
%TO.N,Net-(D7-K)*%
X136610828Y-84750000D02*
X135295828Y-84750000D01*
%TO.N,Net-(D8-K)*%
X135340828Y-86975000D02*
X135315828Y-87000000D01*
X136610828Y-86975000D02*
X135340828Y-86975000D01*
D37*
%TO.N,Net-(J1-D+)*%
X112375000Y-84850000D02*
X112375000Y-85500000D01*
%TO.N,Net-(U3-L)*%
X141810828Y-84555339D02*
X142805489Y-85550000D01*
X142805489Y-85550000D02*
X143410828Y-85550000D01*
X141810828Y-83987500D02*
X141810828Y-84555339D01*
%TO.N,Net-(U3-UVLO)*%
X142595828Y-88810000D02*
X146390778Y-88810000D01*
D36*
X140210828Y-88025000D02*
X141810828Y-88025000D01*
D37*
X146610828Y-86050000D02*
X146210828Y-86050000D01*
X146938497Y-86377669D02*
X146610828Y-86050000D01*
X146390778Y-88810000D02*
X146938497Y-88262281D01*
X141810828Y-88025000D02*
X142595828Y-88810000D01*
X146938497Y-88262281D02*
X146938497Y-86377669D01*
D36*
%TO.N,GND*%
X144530828Y-88150000D02*
X144360828Y-88150000D01*
X110150000Y-84300000D02*
X112150000Y-82300000D01*
X114700000Y-85500000D02*
X114600000Y-85600000D01*
X112375000Y-86800000D02*
X112375000Y-86150000D01*
X138855414Y-85344586D02*
X138260828Y-84750000D01*
X114725000Y-82500000D02*
X112350000Y-82500000D01*
X138855414Y-85755414D02*
X138260828Y-86350000D01*
X112150000Y-88700000D02*
X111700000Y-88700000D01*
X120575000Y-88500000D02*
X120575000Y-87324088D01*
X144260828Y-83382719D02*
X144778841Y-83900732D01*
X114725000Y-82675000D02*
X114000000Y-83400000D01*
X112150000Y-88700000D02*
X112150000Y-87025000D01*
X114675000Y-88500000D02*
X114675000Y-87475000D01*
X114675000Y-88500000D02*
X112350000Y-88500000D01*
X125460828Y-88250000D02*
X124460828Y-88250000D01*
X138260828Y-86350000D02*
X138260828Y-86900000D01*
X112350000Y-88500000D02*
X112150000Y-88700000D01*
X118637500Y-85500000D02*
X114700000Y-85500000D01*
X144360828Y-88150000D02*
X143910828Y-87700000D01*
X119825000Y-82500000D02*
X119825000Y-81475000D01*
X119825000Y-81475000D02*
X120000000Y-81300000D01*
X138185828Y-83575000D02*
X138210828Y-83600000D01*
D37*
X143410828Y-86050000D02*
X142135828Y-86050000D01*
D36*
X111700000Y-88700000D02*
X109700000Y-86700000D01*
X120575000Y-87324088D02*
X120597070Y-87302018D01*
D37*
X144818667Y-83900732D02*
X144778841Y-83900732D01*
D36*
X140210828Y-83975000D02*
X140210828Y-84172644D01*
D37*
X143410828Y-86050000D02*
X144442935Y-86050000D01*
D36*
X140210828Y-84172644D02*
X141410828Y-85372644D01*
D37*
X144810828Y-85417893D02*
X145178721Y-85050000D01*
X144442935Y-86050000D02*
X144810828Y-85682107D01*
X141383472Y-85400000D02*
X141410828Y-85372644D01*
D36*
X112350000Y-82500000D02*
X112150000Y-82300000D01*
D37*
X145178721Y-85050000D02*
X146210828Y-85050000D01*
D36*
X124460828Y-88250000D02*
X124410828Y-88200000D01*
X114675000Y-87475000D02*
X114400000Y-87200000D01*
D37*
X146210828Y-85050000D02*
X145812596Y-85050000D01*
D36*
X144260828Y-82550000D02*
X144260828Y-83382719D01*
X112150000Y-87025000D02*
X112375000Y-86800000D01*
X138185828Y-82500000D02*
X138185828Y-83575000D01*
D37*
X141810828Y-85772644D02*
X141410828Y-85372644D01*
D36*
X114725000Y-82500000D02*
X114725000Y-82675000D01*
X109700000Y-84300000D02*
X109700000Y-86700000D01*
D37*
X141810828Y-86375000D02*
X141810828Y-85772644D01*
D36*
X109700000Y-84300000D02*
X110150000Y-84300000D01*
D37*
X145560828Y-84642893D02*
X144818667Y-83900732D01*
X144810828Y-85682107D02*
X144810828Y-85417893D01*
X145560828Y-84798232D02*
X145560828Y-84642893D01*
D36*
X138855414Y-85755414D02*
X138855414Y-85344586D01*
D37*
X145812596Y-85050000D02*
X145560828Y-84798232D01*
X142135828Y-86050000D02*
X141810828Y-86375000D01*
%TO.N,Net-(U2-PROG)*%
X116325000Y-86487500D02*
X116362500Y-86450000D01*
X116325000Y-88500000D02*
X116325000Y-86487500D01*
D36*
%TO.N,Net-(D1-K)*%
X133360828Y-82000000D02*
X133860828Y-82500000D01*
X133360828Y-82000000D02*
X132110828Y-82000000D01*
X132110828Y-82000000D02*
X129860828Y-84250000D01*
X133860828Y-82500000D02*
X134500828Y-82500000D01*
%TO.N,Net-(D2-K)*%
X133360828Y-84250000D02*
X133610828Y-84500000D01*
X129860828Y-86500000D02*
X131110828Y-86500000D01*
X134575828Y-84710000D02*
X134575828Y-84750000D01*
X131110828Y-86500000D02*
X133360828Y-84250000D01*
X133610828Y-84500000D02*
X134365828Y-84500000D01*
X134365828Y-84500000D02*
X134575828Y-84710000D01*
%TO.N,Net-(D3-K)*%
X134595828Y-86775000D02*
X134595828Y-87000000D01*
X133360828Y-86500000D02*
X134320828Y-86500000D01*
X134320828Y-86500000D02*
X134595828Y-86775000D01*
D37*
%TO.N,Net-(Q1-D)*%
X147060828Y-85098232D02*
X146609060Y-85550000D01*
D36*
X125700000Y-81200000D02*
X123400000Y-83500000D01*
X139100000Y-81200000D02*
X139800000Y-81200000D01*
X128800000Y-81200000D02*
X125700000Y-81200000D01*
X139285828Y-81385828D02*
X139100000Y-81200000D01*
X134300000Y-81200000D02*
X139100000Y-81200000D01*
X140210828Y-85499997D02*
X140110831Y-85400000D01*
X140210828Y-82425000D02*
X140210828Y-81610828D01*
X139800000Y-81200000D02*
X140598328Y-81200000D01*
D37*
X147060828Y-85051348D02*
X147060828Y-85098232D01*
X146609060Y-85550000D02*
X146210828Y-85550000D01*
D36*
X140210828Y-81610828D02*
X139800000Y-81200000D01*
X140210828Y-86375000D02*
X140210828Y-85499997D01*
D37*
X143010828Y-87800000D02*
X143010828Y-86950000D01*
X143010828Y-86950000D02*
X143410828Y-86550000D01*
D36*
X140110831Y-85400000D02*
X139285828Y-84574997D01*
X123400000Y-83500000D02*
X123400000Y-85200000D01*
D37*
X146210828Y-87099997D02*
X146210828Y-86550000D01*
D36*
X140598328Y-81200000D02*
X141810828Y-82412500D01*
X139285828Y-84574997D02*
X139285828Y-81385828D01*
%TO.N,Net-(D1-A)*%
X129310828Y-82800000D02*
X126910828Y-82800000D01*
X130210828Y-81900000D02*
X129310828Y-82800000D01*
%TD*%
M02*
