%TF.GenerationSoftware,KiCad,Pcbnew,8.0.6*%
%TF.CreationDate,2024-11-21T20:13:28-05:00*%
%TF.ProjectId,battery_charger,62617474-6572-4795-9f63-686172676572,rev?*%
%TF.SameCoordinates,Original*%
%TF.FileFunction,Paste,Top*%
%TF.FilePolarity,Positive*%
%FSLAX46Y46*%
G04 Gerber Fmt 4.6, Leading zero omitted, Abs format (unit mm)*
G04 Created by KiCad (PCBNEW 8.0.6) date 2024-11-21 20:13:28*
%MOMM*%
%LPD*%
G01*
G04 APERTURE LIST*
G04 Aperture macros list*
%AMRoundRect*
0 Rectangle with rounded corners*
0 $1 Rounding radius*
0 $2 $3 $4 $5 $6 $7 $8 $9 X,Y pos of 4 corners*
0 Add a 4 corners polygon primitive as box body*
4,1,4,$2,$3,$4,$5,$6,$7,$8,$9,$2,$3,0*
0 Add four circle primitives for the rounded corners*
1,1,$1+$1,$2,$3*
1,1,$1+$1,$4,$5*
1,1,$1+$1,$6,$7*
1,1,$1+$1,$8,$9*
0 Add four rect primitives between the rounded corners*
20,1,$1+$1,$2,$3,$4,$5,0*
20,1,$1+$1,$4,$5,$6,$7,0*
20,1,$1+$1,$6,$7,$8,$9,0*
20,1,$1+$1,$8,$9,$2,$3,0*%
G04 Aperture macros list end*
%ADD10C,0.010000*%
%ADD11R,1.700000X0.900000*%
%ADD12RoundRect,0.250000X0.300000X0.300000X-0.300000X0.300000X-0.300000X-0.300000X0.300000X-0.300000X0*%
%ADD13RoundRect,0.218750X-0.256250X0.218750X-0.256250X-0.218750X0.256250X-0.218750X0.256250X0.218750X0*%
%ADD14RoundRect,0.030000X-0.270000X-0.090000X0.270000X-0.090000X0.270000X0.090000X-0.270000X0.090000X0*%
%ADD15RoundRect,0.200000X0.200000X0.275000X-0.200000X0.275000X-0.200000X-0.275000X0.200000X-0.275000X0*%
%ADD16RoundRect,0.200000X-0.275000X0.200000X-0.275000X-0.200000X0.275000X-0.200000X0.275000X0.200000X0*%
%ADD17RoundRect,0.200000X-0.200000X-0.275000X0.200000X-0.275000X0.200000X0.275000X-0.200000X0.275000X0*%
%ADD18RoundRect,0.225000X-0.250000X0.225000X-0.250000X-0.225000X0.250000X-0.225000X0.250000X0.225000X0*%
%ADD19RoundRect,0.225000X-0.225000X-0.250000X0.225000X-0.250000X0.225000X0.250000X-0.225000X0.250000X0*%
%ADD20RoundRect,0.225000X0.225000X0.250000X-0.225000X0.250000X-0.225000X-0.250000X0.225000X-0.250000X0*%
%ADD21RoundRect,0.147500X0.147500X0.172500X-0.147500X0.172500X-0.147500X-0.172500X0.147500X-0.172500X0*%
%ADD22RoundRect,0.150000X-0.512500X-0.150000X0.512500X-0.150000X0.512500X0.150000X-0.512500X0.150000X0*%
%ADD23RoundRect,0.250000X0.250000X0.475000X-0.250000X0.475000X-0.250000X-0.475000X0.250000X-0.475000X0*%
%ADD24RoundRect,0.200000X0.275000X-0.200000X0.275000X0.200000X-0.275000X0.200000X-0.275000X-0.200000X0*%
%ADD25RoundRect,0.147500X-0.147500X-0.172500X0.147500X-0.172500X0.147500X0.172500X-0.147500X0.172500X0*%
%ADD26RoundRect,0.100000X-0.575000X0.100000X-0.575000X-0.100000X0.575000X-0.100000X0.575000X0.100000X0*%
%ADD27O,1.600000X0.900000*%
%ADD28RoundRect,0.250000X-0.450000X0.550000X-0.450000X-0.550000X0.450000X-0.550000X0.450000X0.550000X0*%
%ADD29RoundRect,0.250000X-0.700000X0.700000X-0.700000X-0.700000X0.700000X-0.700000X0.700000X0.700000X0*%
%ADD30RoundRect,0.150000X0.512500X0.150000X-0.512500X0.150000X-0.512500X-0.150000X0.512500X-0.150000X0*%
%ADD31RoundRect,0.140000X0.140000X0.170000X-0.140000X0.170000X-0.140000X-0.170000X0.140000X-0.170000X0*%
G04 APERTURE END LIST*
D10*
%TO.C,U3*%
X145560828Y-85450000D02*
X144060828Y-85450000D01*
X144060828Y-84390000D01*
X145560828Y-84390000D01*
X145560828Y-85450000D01*
G36*
X145560828Y-85450000D02*
G01*
X144060828Y-85450000D01*
X144060828Y-84390000D01*
X145560828Y-84390000D01*
X145560828Y-85450000D01*
G37*
X145560828Y-86710000D02*
X144060828Y-86710000D01*
X144060828Y-85650000D01*
X145560828Y-85650000D01*
X145560828Y-86710000D01*
G36*
X145560828Y-86710000D02*
G01*
X144060828Y-86710000D01*
X144060828Y-85650000D01*
X145560828Y-85650000D01*
X145560828Y-86710000D01*
G37*
X144685828Y-84190000D02*
X144435828Y-84190000D01*
X144435828Y-83850000D01*
X144685828Y-83850000D01*
X144685828Y-84190000D01*
G36*
X144685828Y-84190000D02*
G01*
X144435828Y-84190000D01*
X144435828Y-83850000D01*
X144685828Y-83850000D01*
X144685828Y-84190000D01*
G37*
X144685828Y-87250000D02*
X144435828Y-87250000D01*
X144435828Y-86910000D01*
X144685828Y-86910000D01*
X144685828Y-87250000D01*
G36*
X144685828Y-87250000D02*
G01*
X144435828Y-87250000D01*
X144435828Y-86910000D01*
X144685828Y-86910000D01*
X144685828Y-87250000D01*
G37*
X145185828Y-84190000D02*
X144935828Y-84190000D01*
X144935828Y-83850000D01*
X145185828Y-83850000D01*
X145185828Y-84190000D01*
G36*
X145185828Y-84190000D02*
G01*
X144935828Y-84190000D01*
X144935828Y-83850000D01*
X145185828Y-83850000D01*
X145185828Y-84190000D01*
G37*
X145185828Y-87250000D02*
X144935828Y-87250000D01*
X144935828Y-86910000D01*
X145185828Y-86910000D01*
X145185828Y-87250000D01*
G36*
X145185828Y-87250000D02*
G01*
X144935828Y-87250000D01*
X144935828Y-86910000D01*
X145185828Y-86910000D01*
X145185828Y-87250000D01*
G37*
%TD*%
D11*
%TO.C,SW1*%
X126910828Y-82800000D03*
X126910828Y-86200000D03*
%TD*%
D12*
%TO.C,D1*%
X133010828Y-81900000D03*
X130210828Y-81900000D03*
%TD*%
D13*
%TO.C,L1*%
X141810828Y-82412500D03*
X141810828Y-83987500D03*
%TD*%
D14*
%TO.C,U3*%
X143410828Y-84550000D03*
X143410828Y-85050000D03*
X143410828Y-85550000D03*
X143410828Y-86050000D03*
X143410828Y-86550000D03*
X146210828Y-86550000D03*
X146210828Y-86050000D03*
X146210828Y-85550000D03*
X146210828Y-85050000D03*
X146210828Y-84550000D03*
%TD*%
D15*
%TO.C,R7*%
X116325000Y-88500000D03*
X114675000Y-88500000D03*
%TD*%
D16*
%TO.C,R1*%
X140210828Y-86375000D03*
X140210828Y-88025000D03*
%TD*%
D17*
%TO.C,R11*%
X136610828Y-84750000D03*
X138260828Y-84750000D03*
%TD*%
D18*
%TO.C,C2*%
X140210828Y-82425000D03*
X140210828Y-83975000D03*
%TD*%
D19*
%TO.C,C5*%
X119025000Y-88500000D03*
X120575000Y-88500000D03*
%TD*%
D17*
%TO.C,R12*%
X136610828Y-86900000D03*
X138260828Y-86900000D03*
%TD*%
D15*
%TO.C,R9*%
X127110828Y-88250000D03*
X125460828Y-88250000D03*
%TD*%
D12*
%TO.C,D3*%
X133010828Y-86600000D03*
X130210828Y-86600000D03*
%TD*%
D20*
%TO.C,C4*%
X116275000Y-82500000D03*
X114725000Y-82500000D03*
%TD*%
D21*
%TO.C,D8*%
X135440828Y-87000000D03*
X134470828Y-87000000D03*
%TD*%
D12*
%TO.C,D2*%
X133010828Y-84250000D03*
X130210828Y-84250000D03*
%TD*%
D22*
%TO.C,Q1*%
X121125000Y-84250000D03*
X121125000Y-86150000D03*
X123400000Y-85200000D03*
%TD*%
D23*
%TO.C,C3*%
X146160828Y-82550000D03*
X144260828Y-82550000D03*
%TD*%
D24*
%TO.C,R2*%
X141810828Y-88025000D03*
X141810828Y-86375000D03*
%TD*%
D21*
%TO.C,D6*%
X135345828Y-82500000D03*
X134375828Y-82500000D03*
%TD*%
D17*
%TO.C,R8*%
X118175000Y-82500000D03*
X119825000Y-82500000D03*
%TD*%
D25*
%TO.C,D5*%
X128325828Y-88300000D03*
X129295828Y-88300000D03*
%TD*%
D26*
%TO.C,J1*%
X112375000Y-84200000D03*
X112375000Y-84850000D03*
X112375000Y-85500000D03*
X112375000Y-86150000D03*
X112375000Y-86800000D03*
D27*
X109700000Y-82200000D03*
D28*
X112150000Y-82300000D03*
D29*
X109700000Y-84300000D03*
X109700000Y-86700000D03*
D28*
X112150000Y-88700000D03*
D27*
X109700000Y-88800000D03*
%TD*%
D30*
%TO.C,U2*%
X118637500Y-86450000D03*
X118637500Y-85500000D03*
X118637500Y-84550000D03*
X116362500Y-84550000D03*
X116362500Y-86450000D03*
%TD*%
D17*
%TO.C,R10*%
X136535828Y-82500000D03*
X138185828Y-82500000D03*
%TD*%
D31*
%TO.C,C1*%
X145490828Y-88150000D03*
X144530828Y-88150000D03*
%TD*%
D21*
%TO.C,D7*%
X135420828Y-84750000D03*
X134450828Y-84750000D03*
%TD*%
M02*
