%TF.GenerationSoftware,KiCad,Pcbnew,8.0.6*%
%TF.CreationDate,2024-11-21T20:13:28-05:00*%
%TF.ProjectId,battery_charger,62617474-6572-4795-9f63-686172676572,rev?*%
%TF.SameCoordinates,Original*%
%TF.FileFunction,Copper,L2,Bot*%
%TF.FilePolarity,Positive*%
%FSLAX46Y46*%
G04 Gerber Fmt 4.6, Leading zero omitted, Abs format (unit mm)*
G04 Created by KiCad (PCBNEW 8.0.6) date 2024-11-21 20:13:28*
%MOMM*%
%LPD*%
G01*
G04 APERTURE LIST*
%TA.AperFunction,ComponentPad*%
%ADD10C,0.300000*%
%TD*%
%TA.AperFunction,ComponentPad*%
%ADD11C,2.000000*%
%TD*%
%TA.AperFunction,WasherPad*%
%ADD12C,1.300000*%
%TD*%
%TA.AperFunction,ComponentPad*%
%ADD13O,1.600000X0.900000*%
%TD*%
%TA.AperFunction,ViaPad*%
%ADD14C,0.700000*%
%TD*%
%TA.AperFunction,Conductor*%
%ADD15C,0.300000*%
%TD*%
%TA.AperFunction,Conductor*%
%ADD16C,0.500000*%
%TD*%
G04 APERTURE END LIST*
D10*
%TO.P,U3,12*%
%TO.N,N/C*%
X144810828Y-86500000D03*
%TO.P,U3,13*%
X144235828Y-85550000D03*
%TO.P,U3,14*%
X145385828Y-85550000D03*
%TO.P,U3,15*%
X144810828Y-84600000D03*
%TD*%
D11*
%TO.P,3.3V,*%
%TO.N,3.3V_OUT*%
X138210828Y-88900000D03*
%TD*%
%TO.P,B+,*%
%TO.N,Net-(Q1-S)*%
X122700000Y-82000000D03*
%TD*%
D12*
%TO.P,REF\u002A\u002A,*%
%TO.N,*%
X147210828Y-91200000D03*
%TD*%
D11*
%TO.P,GND,*%
%TO.N,GND*%
X134810828Y-88900000D03*
%TD*%
%TO.P,B-,*%
%TO.N,GND*%
X122700000Y-88600000D03*
%TD*%
D13*
%TO.P,J1,6,Shield*%
%TO.N,GND*%
X109700000Y-82200000D03*
X109700000Y-88800000D03*
%TD*%
D12*
%TO.P,REF\u002A\u002A,*%
%TO.N,*%
X147210828Y-79600000D03*
%TD*%
%TO.P,REF\u002A\u002A,*%
%TO.N,*%
X113200000Y-79600000D03*
%TD*%
D14*
%TO.N,Net-(U3-VAUX)*%
X143410828Y-83800000D03*
X146210828Y-88000000D03*
%TO.N,GND*%
X114400000Y-87200000D03*
X144778841Y-83900732D03*
X141410828Y-85372644D03*
X138210828Y-83600000D03*
X138855414Y-85755414D03*
X114000000Y-83400000D03*
X124410828Y-88200000D03*
X120000000Y-81300000D03*
X143910828Y-87700000D03*
X120597070Y-87302018D03*
X114600000Y-85600000D03*
%TO.N,Net-(Q1-D)*%
X140110831Y-85400000D03*
X134300000Y-81200000D03*
X146210828Y-87099997D03*
X143010828Y-87800000D03*
X128800000Y-81200000D03*
X147060828Y-85051348D03*
%TD*%
D15*
%TO.N,Net-(U3-VAUX)*%
X144885828Y-85475000D02*
X143410828Y-84000000D01*
X145510828Y-86382107D02*
X144885828Y-85757107D01*
X144885828Y-85757107D02*
X144885828Y-85475000D01*
X146210828Y-88000000D02*
X146120881Y-88000000D01*
X146120881Y-88000000D02*
X145510828Y-87389947D01*
X145510828Y-87389947D02*
X145510828Y-86382107D01*
X143410828Y-84000000D02*
X143410828Y-83800000D01*
D16*
%TO.N,Net-(Q1-D)*%
X145578841Y-83569361D02*
X145009480Y-83000000D01*
X128800000Y-81200000D02*
X134300000Y-81200000D01*
X146210828Y-85200000D02*
X146210828Y-87099997D01*
X140210834Y-84200000D02*
X142610828Y-84200000D01*
X146710154Y-84700674D02*
X146210828Y-85200000D01*
X143079457Y-83000000D02*
X142610828Y-83468629D01*
X145410828Y-84400116D02*
X145578841Y-84232103D01*
X145009480Y-83000000D02*
X143079457Y-83000000D01*
X146710154Y-84700674D02*
X145410828Y-84700674D01*
X142610828Y-83468629D02*
X142610828Y-86200000D01*
X140110831Y-85400000D02*
X140110831Y-84300003D01*
X142610828Y-86200000D02*
X143010828Y-86600000D01*
X145578841Y-84232103D02*
X145578841Y-83569361D01*
X140110831Y-84300003D02*
X140210834Y-84200000D01*
X146710154Y-84700674D02*
X147060828Y-85051348D01*
X145410828Y-84700674D02*
X145410828Y-84400116D01*
X143010828Y-86600000D02*
X143010828Y-87800000D01*
%TD*%
%TA.AperFunction,Conductor*%
%TO.N,GND*%
G36*
X146416031Y-80432314D02*
G01*
X146418327Y-80434355D01*
X146514526Y-80522052D01*
X146695809Y-80634298D01*
X146894630Y-80711321D01*
X147104218Y-80750500D01*
X147104220Y-80750500D01*
X147317436Y-80750500D01*
X147317438Y-80750500D01*
X147527026Y-80711321D01*
X147725847Y-80634298D01*
X147907130Y-80522052D01*
X148003291Y-80434388D01*
X148066093Y-80403773D01*
X148135480Y-80411970D01*
X148189421Y-80456380D01*
X148210789Y-80522902D01*
X148210828Y-80526027D01*
X148210828Y-90273972D01*
X148191143Y-90341011D01*
X148138339Y-90386766D01*
X148069181Y-90396710D01*
X148005625Y-90367685D01*
X148003290Y-90365609D01*
X147907131Y-90277949D01*
X147907130Y-90277948D01*
X147725847Y-90165702D01*
X147725845Y-90165701D01*
X147618454Y-90124098D01*
X147527026Y-90088679D01*
X147317438Y-90049500D01*
X147104218Y-90049500D01*
X146894630Y-90088679D01*
X146894627Y-90088679D01*
X146894627Y-90088680D01*
X146695810Y-90165701D01*
X146695808Y-90165702D01*
X146514524Y-90277949D01*
X146418366Y-90365609D01*
X146355562Y-90396226D01*
X146286175Y-90388028D01*
X146232235Y-90343619D01*
X146210867Y-90277096D01*
X146210828Y-90273972D01*
X146210828Y-90200000D01*
X139336274Y-90200000D01*
X139269235Y-90180315D01*
X139223480Y-90127511D01*
X139213536Y-90058353D01*
X139242561Y-89994797D01*
X139245044Y-89992017D01*
X139398992Y-89824785D01*
X139535001Y-89616607D01*
X139634891Y-89388881D01*
X139695936Y-89147821D01*
X139700479Y-89092993D01*
X139716471Y-88900005D01*
X139716471Y-88899994D01*
X139695937Y-88652187D01*
X139695935Y-88652175D01*
X139634891Y-88411118D01*
X139535001Y-88183393D01*
X139398994Y-87975217D01*
X139377385Y-87951744D01*
X139230572Y-87792262D01*
X139034337Y-87639526D01*
X139034335Y-87639525D01*
X139034334Y-87639524D01*
X138815639Y-87521172D01*
X138815630Y-87521169D01*
X138580444Y-87440429D01*
X138335163Y-87399500D01*
X138086493Y-87399500D01*
X137841211Y-87440429D01*
X137606025Y-87521169D01*
X137606016Y-87521172D01*
X137387321Y-87639524D01*
X137191085Y-87792261D01*
X137022661Y-87975217D01*
X136886654Y-88183393D01*
X136786764Y-88411118D01*
X136725720Y-88652175D01*
X136725718Y-88652187D01*
X136705185Y-88899994D01*
X136705185Y-88900005D01*
X136725718Y-89147812D01*
X136725720Y-89147824D01*
X136786764Y-89388881D01*
X136886654Y-89616606D01*
X137022661Y-89824782D01*
X137022664Y-89824785D01*
X137153531Y-89966945D01*
X137176612Y-89992017D01*
X137207534Y-90054672D01*
X137199674Y-90124098D01*
X137155527Y-90178253D01*
X137089109Y-90199944D01*
X137085382Y-90200000D01*
X135808079Y-90200000D01*
X135741040Y-90180315D01*
X135723506Y-90160080D01*
X135720431Y-90163156D01*
X134940237Y-89382962D01*
X135003821Y-89365925D01*
X135117835Y-89300099D01*
X135210927Y-89207007D01*
X135276753Y-89092993D01*
X135293790Y-89029410D01*
X136034262Y-89769882D01*
X136134559Y-89616369D01*
X136234415Y-89388717D01*
X136295440Y-89147738D01*
X136295442Y-89147729D01*
X136315969Y-88900005D01*
X136315969Y-88899994D01*
X136295442Y-88652270D01*
X136295440Y-88652261D01*
X136234415Y-88411282D01*
X136134559Y-88183630D01*
X136034262Y-88030116D01*
X135293790Y-88770589D01*
X135276753Y-88707007D01*
X135210927Y-88592993D01*
X135117835Y-88499901D01*
X135003821Y-88434075D01*
X134940238Y-88417037D01*
X135680885Y-87676390D01*
X135680884Y-87676389D01*
X135634057Y-87639943D01*
X135415442Y-87521635D01*
X135415431Y-87521630D01*
X135180321Y-87440916D01*
X134935121Y-87400000D01*
X134686535Y-87400000D01*
X134441334Y-87440916D01*
X134206224Y-87521630D01*
X134206218Y-87521632D01*
X133987589Y-87639949D01*
X133940770Y-87676388D01*
X133940770Y-87676390D01*
X134681418Y-88417037D01*
X134617835Y-88434075D01*
X134503821Y-88499901D01*
X134410729Y-88592993D01*
X134344903Y-88707007D01*
X134327865Y-88770589D01*
X133587392Y-88030116D01*
X133487095Y-88183632D01*
X133387240Y-88411282D01*
X133326215Y-88652261D01*
X133326213Y-88652270D01*
X133305687Y-88899994D01*
X133305687Y-88900005D01*
X133326213Y-89147729D01*
X133326215Y-89147738D01*
X133387240Y-89388717D01*
X133487094Y-89616364D01*
X133587392Y-89769882D01*
X134327865Y-89029409D01*
X134344903Y-89092993D01*
X134410729Y-89207007D01*
X134503821Y-89300099D01*
X134617835Y-89365925D01*
X134681418Y-89382962D01*
X133901224Y-90163156D01*
X133897956Y-90159888D01*
X133872062Y-90185341D01*
X133813576Y-90200000D01*
X123384734Y-90200000D01*
X123317695Y-90180315D01*
X123271940Y-90127511D01*
X123261996Y-90058353D01*
X123291021Y-89994797D01*
X123325717Y-89966945D01*
X123523228Y-89860057D01*
X123523231Y-89860055D01*
X123570056Y-89823609D01*
X122829409Y-89082962D01*
X122892993Y-89065925D01*
X123007007Y-89000099D01*
X123100099Y-88907007D01*
X123165925Y-88792993D01*
X123182962Y-88729410D01*
X123923434Y-89469882D01*
X124023731Y-89316369D01*
X124123587Y-89088717D01*
X124184612Y-88847738D01*
X124184614Y-88847729D01*
X124205141Y-88600005D01*
X124205141Y-88599994D01*
X124184614Y-88352270D01*
X124184612Y-88352261D01*
X124123587Y-88111282D01*
X124023731Y-87883630D01*
X123923434Y-87730116D01*
X123182962Y-88470589D01*
X123165925Y-88407007D01*
X123100099Y-88292993D01*
X123007007Y-88199901D01*
X122892993Y-88134075D01*
X122829410Y-88117037D01*
X123570057Y-87376390D01*
X123570056Y-87376389D01*
X123523229Y-87339943D01*
X123304614Y-87221635D01*
X123304603Y-87221630D01*
X123069493Y-87140916D01*
X122824293Y-87100000D01*
X122575707Y-87100000D01*
X122330506Y-87140916D01*
X122095396Y-87221630D01*
X122095390Y-87221632D01*
X121876761Y-87339949D01*
X121829942Y-87376388D01*
X121829942Y-87376390D01*
X122570590Y-88117037D01*
X122507007Y-88134075D01*
X122392993Y-88199901D01*
X122299901Y-88292993D01*
X122234075Y-88407007D01*
X122217037Y-88470589D01*
X121476564Y-87730116D01*
X121376267Y-87883632D01*
X121276412Y-88111282D01*
X121215387Y-88352261D01*
X121215385Y-88352270D01*
X121194859Y-88599994D01*
X121194859Y-88600005D01*
X121215385Y-88847729D01*
X121215387Y-88847738D01*
X121276412Y-89088717D01*
X121376266Y-89316364D01*
X121476564Y-89469882D01*
X122217037Y-88729409D01*
X122234075Y-88792993D01*
X122299901Y-88907007D01*
X122392993Y-89000099D01*
X122507007Y-89065925D01*
X122570590Y-89082962D01*
X121829942Y-89823609D01*
X121876768Y-89860055D01*
X121876770Y-89860056D01*
X122074283Y-89966945D01*
X122123874Y-90016165D01*
X122138982Y-90084381D01*
X122114812Y-90149937D01*
X122059036Y-90192018D01*
X122015266Y-90200000D01*
X108324000Y-90200000D01*
X108256961Y-90180315D01*
X108211206Y-90127511D01*
X108200000Y-90076000D01*
X108200000Y-89129513D01*
X108219685Y-89062474D01*
X108272489Y-89016719D01*
X108341647Y-89006775D01*
X108405203Y-89035800D01*
X108438561Y-89082061D01*
X108508117Y-89249987D01*
X108508124Y-89250000D01*
X108612086Y-89405589D01*
X108612089Y-89405593D01*
X108744406Y-89537910D01*
X108744410Y-89537913D01*
X108899999Y-89641875D01*
X108900008Y-89641880D01*
X109072894Y-89713491D01*
X109072902Y-89713493D01*
X109256428Y-89749999D01*
X109256431Y-89750000D01*
X109450000Y-89750000D01*
X109450000Y-89050000D01*
X109950000Y-89050000D01*
X109950000Y-89750000D01*
X110143569Y-89750000D01*
X110143571Y-89749999D01*
X110327097Y-89713493D01*
X110327105Y-89713491D01*
X110499991Y-89641880D01*
X110500000Y-89641875D01*
X110655589Y-89537913D01*
X110655593Y-89537910D01*
X110787910Y-89405593D01*
X110787913Y-89405589D01*
X110891875Y-89250000D01*
X110891880Y-89249991D01*
X110963492Y-89077103D01*
X110963493Y-89077100D01*
X110968884Y-89050000D01*
X110099728Y-89050000D01*
X110191614Y-89011940D01*
X110261940Y-88941614D01*
X110300000Y-88849728D01*
X110300000Y-88750272D01*
X110261940Y-88658386D01*
X110191614Y-88588060D01*
X110099728Y-88550000D01*
X110968884Y-88550000D01*
X110968884Y-88549999D01*
X110963493Y-88522899D01*
X110963492Y-88522896D01*
X110891880Y-88350008D01*
X110891875Y-88349999D01*
X110787913Y-88194410D01*
X110787910Y-88194406D01*
X110655593Y-88062089D01*
X110655589Y-88062086D01*
X110500000Y-87958124D01*
X110499991Y-87958119D01*
X110327105Y-87886508D01*
X110327097Y-87886506D01*
X110143570Y-87850000D01*
X109950000Y-87850000D01*
X109950000Y-88550000D01*
X109450000Y-88550000D01*
X109450000Y-87850000D01*
X109256430Y-87850000D01*
X109072902Y-87886506D01*
X109072894Y-87886508D01*
X108900008Y-87958119D01*
X108899999Y-87958124D01*
X108744410Y-88062086D01*
X108744406Y-88062089D01*
X108612089Y-88194406D01*
X108612086Y-88194410D01*
X108508124Y-88349999D01*
X108508119Y-88350008D01*
X108438561Y-88517939D01*
X108394720Y-88572342D01*
X108328426Y-88594407D01*
X108260727Y-88577128D01*
X108213116Y-88525991D01*
X108200000Y-88470486D01*
X108200000Y-85400000D01*
X139255646Y-85400000D01*
X139274334Y-85577805D01*
X139274335Y-85577807D01*
X139329578Y-85747829D01*
X139329581Y-85747835D01*
X139418972Y-85902665D01*
X139460643Y-85948946D01*
X139538595Y-86035521D01*
X139538598Y-86035523D01*
X139538601Y-86035526D01*
X139683238Y-86140612D01*
X139846564Y-86213329D01*
X140021440Y-86250500D01*
X140021441Y-86250500D01*
X140200220Y-86250500D01*
X140200222Y-86250500D01*
X140375098Y-86213329D01*
X140538424Y-86140612D01*
X140683061Y-86035526D01*
X140802690Y-85902665D01*
X140892081Y-85747835D01*
X140947328Y-85577803D01*
X140966016Y-85400000D01*
X140947328Y-85222197D01*
X140932987Y-85178061D01*
X140911789Y-85112818D01*
X140909794Y-85042977D01*
X140945875Y-84983144D01*
X141008576Y-84952316D01*
X141029720Y-84950500D01*
X141736328Y-84950500D01*
X141803367Y-84970185D01*
X141849122Y-85022989D01*
X141860328Y-85074500D01*
X141860328Y-86273918D01*
X141860328Y-86273920D01*
X141860327Y-86273920D01*
X141889168Y-86418907D01*
X141889171Y-86418917D01*
X141945741Y-86555489D01*
X141945742Y-86555491D01*
X141945744Y-86555495D01*
X141956671Y-86571849D01*
X141956672Y-86571852D01*
X142027874Y-86678414D01*
X142027875Y-86678415D01*
X142027876Y-86678416D01*
X142224010Y-86874549D01*
X142257494Y-86935870D01*
X142260328Y-86962229D01*
X142260328Y-87365678D01*
X142243715Y-87427678D01*
X142229578Y-87452163D01*
X142174332Y-87622192D01*
X142174331Y-87622194D01*
X142155643Y-87800000D01*
X142174331Y-87977805D01*
X142174332Y-87977807D01*
X142229575Y-88147829D01*
X142229578Y-88147835D01*
X142318969Y-88302665D01*
X142359634Y-88347828D01*
X142438592Y-88435521D01*
X142438595Y-88435523D01*
X142438598Y-88435526D01*
X142583235Y-88540612D01*
X142746561Y-88613329D01*
X142921437Y-88650500D01*
X142921438Y-88650500D01*
X143100217Y-88650500D01*
X143100219Y-88650500D01*
X143275095Y-88613329D01*
X143438421Y-88540612D01*
X143583058Y-88435526D01*
X143584365Y-88434075D01*
X143615046Y-88400000D01*
X143702687Y-88302665D01*
X143792078Y-88147835D01*
X143847325Y-87977803D01*
X143866013Y-87800000D01*
X143847325Y-87622197D01*
X143792078Y-87452165D01*
X143789578Y-87447834D01*
X143777941Y-87427678D01*
X143761328Y-87365678D01*
X143761328Y-86526079D01*
X143732487Y-86381092D01*
X143732486Y-86381091D01*
X143732486Y-86381087D01*
X143716785Y-86343182D01*
X143675912Y-86244504D01*
X143675415Y-86243574D01*
X143675301Y-86243030D01*
X143673581Y-86238876D01*
X143674368Y-86238549D01*
X143661173Y-86175171D01*
X143686173Y-86109927D01*
X143742478Y-86068557D01*
X143812212Y-86064195D01*
X143856209Y-86086770D01*
X143857416Y-86085023D01*
X143863589Y-86089284D01*
X144003462Y-86162696D01*
X144040601Y-86171849D01*
X144086658Y-86183201D01*
X144147039Y-86218356D01*
X144178828Y-86280575D01*
X144174013Y-86335313D01*
X144176386Y-86335898D01*
X144174591Y-86343180D01*
X144155550Y-86499999D01*
X144155550Y-86500000D01*
X144174590Y-86656818D01*
X144201463Y-86727675D01*
X144230608Y-86804523D01*
X144320345Y-86934530D01*
X144438588Y-87039283D01*
X144438590Y-87039284D01*
X144578462Y-87112696D01*
X144731842Y-87150500D01*
X144731843Y-87150500D01*
X144736328Y-87150500D01*
X144803367Y-87170185D01*
X144849122Y-87222989D01*
X144860328Y-87274500D01*
X144860328Y-87454017D01*
X144873687Y-87521172D01*
X144873687Y-87521174D01*
X144885325Y-87579683D01*
X144885327Y-87579691D01*
X144910111Y-87639526D01*
X144934363Y-87698074D01*
X145002467Y-87800000D01*
X145005554Y-87804620D01*
X145005555Y-87804621D01*
X145351158Y-88150222D01*
X145381408Y-88199585D01*
X145429575Y-88347828D01*
X145429578Y-88347835D01*
X145518969Y-88502665D01*
X145537188Y-88522899D01*
X145638592Y-88635521D01*
X145638595Y-88635523D01*
X145638598Y-88635526D01*
X145783235Y-88740612D01*
X145946561Y-88813329D01*
X146121437Y-88850500D01*
X146121438Y-88850500D01*
X146300217Y-88850500D01*
X146300219Y-88850500D01*
X146475095Y-88813329D01*
X146638421Y-88740612D01*
X146783058Y-88635526D01*
X146902687Y-88502665D01*
X146992078Y-88347835D01*
X147047325Y-88177803D01*
X147066013Y-88000000D01*
X147047325Y-87822197D01*
X146992078Y-87652165D01*
X146968886Y-87611996D01*
X146952414Y-87544098D01*
X146968887Y-87487998D01*
X146992078Y-87447832D01*
X147047325Y-87277800D01*
X147066013Y-87099997D01*
X147047325Y-86922194D01*
X146992078Y-86752162D01*
X146977941Y-86727675D01*
X146961328Y-86665675D01*
X146961328Y-86025848D01*
X146981013Y-85958809D01*
X147033817Y-85913054D01*
X147085328Y-85901848D01*
X147150217Y-85901848D01*
X147150219Y-85901848D01*
X147325095Y-85864677D01*
X147488421Y-85791960D01*
X147633058Y-85686874D01*
X147752687Y-85554013D01*
X147842078Y-85399183D01*
X147897325Y-85229151D01*
X147916013Y-85051348D01*
X147897325Y-84873545D01*
X147842078Y-84703513D01*
X147752687Y-84548683D01*
X147705831Y-84496644D01*
X147633063Y-84415826D01*
X147633060Y-84415824D01*
X147633059Y-84415823D01*
X147633058Y-84415822D01*
X147488421Y-84310736D01*
X147325095Y-84238019D01*
X147325093Y-84238018D01*
X147319158Y-84235376D01*
X147319936Y-84233627D01*
X147280006Y-84209158D01*
X147188570Y-84117722D01*
X147133747Y-84081091D01*
X147065649Y-84035590D01*
X146929067Y-83979015D01*
X146929059Y-83979013D01*
X146784076Y-83950174D01*
X146784072Y-83950174D01*
X146453341Y-83950174D01*
X146386302Y-83930489D01*
X146340547Y-83877685D01*
X146329341Y-83826174D01*
X146329341Y-83495440D01*
X146300500Y-83350453D01*
X146300499Y-83350452D01*
X146300499Y-83350448D01*
X146300497Y-83350443D01*
X146243928Y-83213872D01*
X146243926Y-83213868D01*
X146243925Y-83213866D01*
X146200917Y-83149500D01*
X146161793Y-83090945D01*
X145876437Y-82805589D01*
X145487901Y-82417052D01*
X145487894Y-82417046D01*
X145414209Y-82367812D01*
X145414209Y-82367813D01*
X145364971Y-82334913D01*
X145228397Y-82278343D01*
X145228387Y-82278340D01*
X145083400Y-82249500D01*
X145083398Y-82249500D01*
X143005539Y-82249500D01*
X143005537Y-82249500D01*
X142860549Y-82278340D01*
X142860539Y-82278343D01*
X142723968Y-82334912D01*
X142723955Y-82334919D01*
X142601041Y-82417048D01*
X142601037Y-82417051D01*
X142027877Y-82990210D01*
X142021002Y-83000501D01*
X142021001Y-83000503D01*
X141945741Y-83113137D01*
X141889171Y-83249711D01*
X141889168Y-83249723D01*
X141869283Y-83349691D01*
X141836898Y-83411602D01*
X141776182Y-83446177D01*
X141747666Y-83449500D01*
X140136910Y-83449500D01*
X140108076Y-83455234D01*
X140108077Y-83455235D01*
X139991927Y-83478339D01*
X139991923Y-83478340D01*
X139914417Y-83510445D01*
X139855340Y-83534915D01*
X139773206Y-83589795D01*
X139732419Y-83617047D01*
X139732415Y-83617050D01*
X139527881Y-83821583D01*
X139527875Y-83821591D01*
X139478643Y-83895271D01*
X139478644Y-83895272D01*
X139445752Y-83944499D01*
X139445745Y-83944511D01*
X139389173Y-84081089D01*
X139389171Y-84081095D01*
X139360331Y-84226082D01*
X139360331Y-84965678D01*
X139343718Y-85027678D01*
X139329581Y-85052163D01*
X139274335Y-85222192D01*
X139274334Y-85222194D01*
X139255646Y-85400000D01*
X108200000Y-85400000D01*
X108200000Y-82529513D01*
X108219685Y-82462474D01*
X108272489Y-82416719D01*
X108341647Y-82406775D01*
X108405203Y-82435800D01*
X108438561Y-82482061D01*
X108508117Y-82649987D01*
X108508124Y-82650000D01*
X108612086Y-82805589D01*
X108612089Y-82805593D01*
X108744406Y-82937910D01*
X108744410Y-82937913D01*
X108899999Y-83041875D01*
X108900008Y-83041880D01*
X109072894Y-83113491D01*
X109072902Y-83113493D01*
X109256428Y-83149999D01*
X109256431Y-83150000D01*
X109450000Y-83150000D01*
X109450000Y-82450000D01*
X109950000Y-82450000D01*
X109950000Y-83150000D01*
X110143569Y-83150000D01*
X110143571Y-83149999D01*
X110327097Y-83113493D01*
X110327105Y-83113491D01*
X110499991Y-83041880D01*
X110500000Y-83041875D01*
X110655589Y-82937913D01*
X110655593Y-82937910D01*
X110787910Y-82805593D01*
X110787913Y-82805589D01*
X110891875Y-82650000D01*
X110891880Y-82649991D01*
X110963492Y-82477103D01*
X110963493Y-82477100D01*
X110968884Y-82450000D01*
X110099728Y-82450000D01*
X110191614Y-82411940D01*
X110261940Y-82341614D01*
X110300000Y-82249728D01*
X110300000Y-82150272D01*
X110261940Y-82058386D01*
X110191614Y-81988060D01*
X110099728Y-81950000D01*
X110968884Y-81950000D01*
X110968884Y-81949999D01*
X110963493Y-81922899D01*
X110963492Y-81922896D01*
X110891880Y-81750008D01*
X110891875Y-81749999D01*
X110787913Y-81594410D01*
X110787910Y-81594406D01*
X110655593Y-81462089D01*
X110655589Y-81462086D01*
X110500000Y-81358124D01*
X110499991Y-81358119D01*
X110327105Y-81286508D01*
X110327097Y-81286506D01*
X110143570Y-81250000D01*
X109950000Y-81250000D01*
X109950000Y-81950000D01*
X109450000Y-81950000D01*
X109450000Y-81250000D01*
X109256430Y-81250000D01*
X109072902Y-81286506D01*
X109072894Y-81286508D01*
X108900008Y-81358119D01*
X108899999Y-81358124D01*
X108744410Y-81462086D01*
X108744406Y-81462089D01*
X108612089Y-81594406D01*
X108612086Y-81594410D01*
X108508124Y-81749999D01*
X108508119Y-81750008D01*
X108438561Y-81917939D01*
X108394720Y-81972342D01*
X108328426Y-81994407D01*
X108260727Y-81977128D01*
X108213116Y-81925991D01*
X108200000Y-81870486D01*
X108200000Y-80724000D01*
X108219685Y-80656961D01*
X108272489Y-80611206D01*
X108324000Y-80600000D01*
X112200000Y-80600000D01*
X112200000Y-80526027D01*
X112219685Y-80458988D01*
X112272489Y-80413233D01*
X112341647Y-80403289D01*
X112405203Y-80432314D01*
X112407499Y-80434355D01*
X112503698Y-80522052D01*
X112684981Y-80634298D01*
X112883802Y-80711321D01*
X113093390Y-80750500D01*
X113093392Y-80750500D01*
X113306608Y-80750500D01*
X113306610Y-80750500D01*
X113516198Y-80711321D01*
X113715019Y-80634298D01*
X113896302Y-80522052D01*
X113992463Y-80434388D01*
X114055265Y-80403773D01*
X114124652Y-80411970D01*
X114178593Y-80456380D01*
X114199961Y-80522902D01*
X114200000Y-80526027D01*
X114200000Y-80600000D01*
X121694555Y-80600000D01*
X121761594Y-80619685D01*
X121807349Y-80672489D01*
X121817293Y-80741647D01*
X121788268Y-80805203D01*
X121770721Y-80821850D01*
X121702007Y-80875332D01*
X121680257Y-80892261D01*
X121511833Y-81075217D01*
X121375826Y-81283393D01*
X121275936Y-81511118D01*
X121214892Y-81752175D01*
X121214890Y-81752187D01*
X121194357Y-81999994D01*
X121194357Y-82000005D01*
X121214890Y-82247812D01*
X121214892Y-82247824D01*
X121275936Y-82488881D01*
X121375826Y-82716606D01*
X121511833Y-82924782D01*
X121511836Y-82924785D01*
X121680256Y-83107738D01*
X121876491Y-83260474D01*
X121876493Y-83260475D01*
X122041349Y-83349691D01*
X122095190Y-83378828D01*
X122330386Y-83459571D01*
X122575665Y-83500500D01*
X122824335Y-83500500D01*
X123069614Y-83459571D01*
X123304810Y-83378828D01*
X123523509Y-83260474D01*
X123719744Y-83107738D01*
X123888164Y-82924785D01*
X124024173Y-82716607D01*
X124124063Y-82488881D01*
X124185108Y-82247821D01*
X124200805Y-82058386D01*
X124205643Y-82000005D01*
X124205643Y-81999994D01*
X124185109Y-81752187D01*
X124185107Y-81752175D01*
X124124063Y-81511118D01*
X124024173Y-81283393D01*
X123888166Y-81075217D01*
X123866557Y-81051744D01*
X123719744Y-80892262D01*
X123629281Y-80821852D01*
X123588470Y-80765143D01*
X123584795Y-80695370D01*
X123619426Y-80634687D01*
X123681368Y-80602360D01*
X123705445Y-80600000D01*
X127949563Y-80600000D01*
X128016602Y-80619685D01*
X128062357Y-80672489D01*
X128072301Y-80741647D01*
X128056951Y-80785998D01*
X128045864Y-80805203D01*
X128018749Y-80852167D01*
X128018747Y-80852170D01*
X127963504Y-81022192D01*
X127963503Y-81022194D01*
X127944815Y-81200000D01*
X127963503Y-81377805D01*
X127963504Y-81377807D01*
X128018747Y-81547829D01*
X128018750Y-81547835D01*
X128108141Y-81702665D01*
X128149812Y-81748946D01*
X128227764Y-81835521D01*
X128227767Y-81835523D01*
X128227770Y-81835526D01*
X128372407Y-81940612D01*
X128535733Y-82013329D01*
X128710609Y-82050500D01*
X128710610Y-82050500D01*
X128889389Y-82050500D01*
X128889391Y-82050500D01*
X129064267Y-82013329D01*
X129181306Y-81961219D01*
X129231741Y-81950500D01*
X133868259Y-81950500D01*
X133918693Y-81961219D01*
X134035733Y-82013329D01*
X134210609Y-82050500D01*
X134210610Y-82050500D01*
X134389389Y-82050500D01*
X134389391Y-82050500D01*
X134564267Y-82013329D01*
X134727593Y-81940612D01*
X134872230Y-81835526D01*
X134991859Y-81702665D01*
X135081250Y-81547835D01*
X135136497Y-81377803D01*
X135155185Y-81200000D01*
X135136497Y-81022197D01*
X135108873Y-80937181D01*
X135081252Y-80852170D01*
X135081251Y-80852168D01*
X135081250Y-80852165D01*
X135043048Y-80785998D01*
X135026577Y-80718099D01*
X135049430Y-80652072D01*
X135104352Y-80608882D01*
X135150437Y-80600000D01*
X146210828Y-80600000D01*
X146210828Y-80526027D01*
X146230513Y-80458988D01*
X146283317Y-80413233D01*
X146352475Y-80403289D01*
X146416031Y-80432314D01*
G37*
%TD.AperFunction*%
%TD*%
M02*
