%TF.GenerationSoftware,KiCad,Pcbnew,8.0.6*%
%TF.CreationDate,2024-11-21T20:13:28-05:00*%
%TF.ProjectId,battery_charger,62617474-6572-4795-9f63-686172676572,rev?*%
%TF.SameCoordinates,Original*%
%TF.FileFunction,Legend,Top*%
%TF.FilePolarity,Positive*%
%FSLAX46Y46*%
G04 Gerber Fmt 4.6, Leading zero omitted, Abs format (unit mm)*
G04 Created by KiCad (PCBNEW 8.0.6) date 2024-11-21 20:13:28*
%MOMM*%
%LPD*%
G01*
G04 APERTURE LIST*
G04 Aperture macros list*
%AMRoundRect*
0 Rectangle with rounded corners*
0 $1 Rounding radius*
0 $2 $3 $4 $5 $6 $7 $8 $9 X,Y pos of 4 corners*
0 Add a 4 corners polygon primitive as box body*
4,1,4,$2,$3,$4,$5,$6,$7,$8,$9,$2,$3,0*
0 Add four circle primitives for the rounded corners*
1,1,$1+$1,$2,$3*
1,1,$1+$1,$4,$5*
1,1,$1+$1,$6,$7*
1,1,$1+$1,$8,$9*
0 Add four rect primitives between the rounded corners*
20,1,$1+$1,$2,$3,$4,$5,0*
20,1,$1+$1,$4,$5,$6,$7,0*
20,1,$1+$1,$6,$7,$8,$9,0*
20,1,$1+$1,$8,$9,$2,$3,0*%
G04 Aperture macros list end*
%ADD10C,0.150000*%
%ADD11C,0.153000*%
%ADD12C,0.100000*%
%ADD13C,0.120000*%
%ADD14C,0.127000*%
%ADD15C,0.010000*%
%ADD16R,1.700000X0.900000*%
%ADD17RoundRect,0.250000X0.300000X0.300000X-0.300000X0.300000X-0.300000X-0.300000X0.300000X-0.300000X0*%
%ADD18RoundRect,0.218750X-0.256250X0.218750X-0.256250X-0.218750X0.256250X-0.218750X0.256250X0.218750X0*%
%ADD19RoundRect,0.200000X0.200000X0.275000X-0.200000X0.275000X-0.200000X-0.275000X0.200000X-0.275000X0*%
%ADD20RoundRect,0.200000X-0.275000X0.200000X-0.275000X-0.200000X0.275000X-0.200000X0.275000X0.200000X0*%
%ADD21RoundRect,0.200000X-0.200000X-0.275000X0.200000X-0.275000X0.200000X0.275000X-0.200000X0.275000X0*%
%ADD22RoundRect,0.225000X-0.250000X0.225000X-0.250000X-0.225000X0.250000X-0.225000X0.250000X0.225000X0*%
%ADD23RoundRect,0.225000X-0.225000X-0.250000X0.225000X-0.250000X0.225000X0.250000X-0.225000X0.250000X0*%
%ADD24C,2.000000*%
%ADD25RoundRect,0.225000X0.225000X0.250000X-0.225000X0.250000X-0.225000X-0.250000X0.225000X-0.250000X0*%
%ADD26RoundRect,0.147500X0.147500X0.172500X-0.147500X0.172500X-0.147500X-0.172500X0.147500X-0.172500X0*%
%ADD27C,1.300000*%
%ADD28RoundRect,0.150000X-0.512500X-0.150000X0.512500X-0.150000X0.512500X0.150000X-0.512500X0.150000X0*%
%ADD29RoundRect,0.250000X0.250000X0.475000X-0.250000X0.475000X-0.250000X-0.475000X0.250000X-0.475000X0*%
%ADD30RoundRect,0.200000X0.275000X-0.200000X0.275000X0.200000X-0.275000X0.200000X-0.275000X-0.200000X0*%
%ADD31RoundRect,0.147500X-0.147500X-0.172500X0.147500X-0.172500X0.147500X0.172500X-0.147500X0.172500X0*%
%ADD32RoundRect,0.100000X-0.575000X0.100000X-0.575000X-0.100000X0.575000X-0.100000X0.575000X0.100000X0*%
%ADD33O,1.600000X0.900000*%
%ADD34RoundRect,0.250000X-0.450000X0.550000X-0.450000X-0.550000X0.450000X-0.550000X0.450000X0.550000X0*%
%ADD35RoundRect,0.250000X-0.700000X0.700000X-0.700000X-0.700000X0.700000X-0.700000X0.700000X0.700000X0*%
%ADD36RoundRect,0.150000X0.512500X0.150000X-0.512500X0.150000X-0.512500X-0.150000X0.512500X-0.150000X0*%
%ADD37RoundRect,0.140000X0.140000X0.170000X-0.140000X0.170000X-0.140000X-0.170000X0.140000X-0.170000X0*%
G04 APERTURE END LIST*
D10*
X139734638Y-88854819D02*
X140353685Y-88854819D01*
X140353685Y-88854819D02*
X140020352Y-89235771D01*
X140020352Y-89235771D02*
X140163209Y-89235771D01*
X140163209Y-89235771D02*
X140258447Y-89283390D01*
X140258447Y-89283390D02*
X140306066Y-89331009D01*
X140306066Y-89331009D02*
X140353685Y-89426247D01*
X140353685Y-89426247D02*
X140353685Y-89664342D01*
X140353685Y-89664342D02*
X140306066Y-89759580D01*
X140306066Y-89759580D02*
X140258447Y-89807200D01*
X140258447Y-89807200D02*
X140163209Y-89854819D01*
X140163209Y-89854819D02*
X139877495Y-89854819D01*
X139877495Y-89854819D02*
X139782257Y-89807200D01*
X139782257Y-89807200D02*
X139734638Y-89759580D01*
X140782257Y-89759580D02*
X140829876Y-89807200D01*
X140829876Y-89807200D02*
X140782257Y-89854819D01*
X140782257Y-89854819D02*
X140734638Y-89807200D01*
X140734638Y-89807200D02*
X140782257Y-89759580D01*
X140782257Y-89759580D02*
X140782257Y-89854819D01*
X141163209Y-88854819D02*
X141782256Y-88854819D01*
X141782256Y-88854819D02*
X141448923Y-89235771D01*
X141448923Y-89235771D02*
X141591780Y-89235771D01*
X141591780Y-89235771D02*
X141687018Y-89283390D01*
X141687018Y-89283390D02*
X141734637Y-89331009D01*
X141734637Y-89331009D02*
X141782256Y-89426247D01*
X141782256Y-89426247D02*
X141782256Y-89664342D01*
X141782256Y-89664342D02*
X141734637Y-89759580D01*
X141734637Y-89759580D02*
X141687018Y-89807200D01*
X141687018Y-89807200D02*
X141591780Y-89854819D01*
X141591780Y-89854819D02*
X141306066Y-89854819D01*
X141306066Y-89854819D02*
X141210828Y-89807200D01*
X141210828Y-89807200D02*
X141163209Y-89759580D01*
X142067971Y-88854819D02*
X142401304Y-89854819D01*
X142401304Y-89854819D02*
X142734637Y-88854819D01*
D11*
X124552381Y-81405853D02*
X124695238Y-81453472D01*
X124695238Y-81453472D02*
X124742857Y-81501091D01*
X124742857Y-81501091D02*
X124790476Y-81596329D01*
X124790476Y-81596329D02*
X124790476Y-81739186D01*
X124790476Y-81739186D02*
X124742857Y-81834424D01*
X124742857Y-81834424D02*
X124695238Y-81882044D01*
X124695238Y-81882044D02*
X124600000Y-81929663D01*
X124600000Y-81929663D02*
X124219048Y-81929663D01*
X124219048Y-81929663D02*
X124219048Y-80929663D01*
X124219048Y-80929663D02*
X124552381Y-80929663D01*
X124552381Y-80929663D02*
X124647619Y-80977282D01*
X124647619Y-80977282D02*
X124695238Y-81024901D01*
X124695238Y-81024901D02*
X124742857Y-81120139D01*
X124742857Y-81120139D02*
X124742857Y-81215377D01*
X124742857Y-81215377D02*
X124695238Y-81310615D01*
X124695238Y-81310615D02*
X124647619Y-81358234D01*
X124647619Y-81358234D02*
X124552381Y-81405853D01*
X124552381Y-81405853D02*
X124219048Y-81405853D01*
X125219048Y-81548710D02*
X125980953Y-81548710D01*
X125600000Y-81929663D02*
X125600000Y-81167758D01*
X131298923Y-89002282D02*
X131203685Y-88954663D01*
X131203685Y-88954663D02*
X131060828Y-88954663D01*
X131060828Y-88954663D02*
X130917971Y-89002282D01*
X130917971Y-89002282D02*
X130822733Y-89097520D01*
X130822733Y-89097520D02*
X130775114Y-89192758D01*
X130775114Y-89192758D02*
X130727495Y-89383234D01*
X130727495Y-89383234D02*
X130727495Y-89526091D01*
X130727495Y-89526091D02*
X130775114Y-89716567D01*
X130775114Y-89716567D02*
X130822733Y-89811805D01*
X130822733Y-89811805D02*
X130917971Y-89907044D01*
X130917971Y-89907044D02*
X131060828Y-89954663D01*
X131060828Y-89954663D02*
X131156066Y-89954663D01*
X131156066Y-89954663D02*
X131298923Y-89907044D01*
X131298923Y-89907044D02*
X131346542Y-89859424D01*
X131346542Y-89859424D02*
X131346542Y-89526091D01*
X131346542Y-89526091D02*
X131156066Y-89526091D01*
X131775114Y-89954663D02*
X131775114Y-88954663D01*
X131775114Y-88954663D02*
X132346542Y-89954663D01*
X132346542Y-89954663D02*
X132346542Y-88954663D01*
X132822733Y-89954663D02*
X132822733Y-88954663D01*
X132822733Y-88954663D02*
X133060828Y-88954663D01*
X133060828Y-88954663D02*
X133203685Y-89002282D01*
X133203685Y-89002282D02*
X133298923Y-89097520D01*
X133298923Y-89097520D02*
X133346542Y-89192758D01*
X133346542Y-89192758D02*
X133394161Y-89383234D01*
X133394161Y-89383234D02*
X133394161Y-89526091D01*
X133394161Y-89526091D02*
X133346542Y-89716567D01*
X133346542Y-89716567D02*
X133298923Y-89811805D01*
X133298923Y-89811805D02*
X133203685Y-89907044D01*
X133203685Y-89907044D02*
X133060828Y-89954663D01*
X133060828Y-89954663D02*
X132822733Y-89954663D01*
X124452381Y-89330853D02*
X124595238Y-89378472D01*
X124595238Y-89378472D02*
X124642857Y-89426091D01*
X124642857Y-89426091D02*
X124690476Y-89521329D01*
X124690476Y-89521329D02*
X124690476Y-89664186D01*
X124690476Y-89664186D02*
X124642857Y-89759424D01*
X124642857Y-89759424D02*
X124595238Y-89807044D01*
X124595238Y-89807044D02*
X124500000Y-89854663D01*
X124500000Y-89854663D02*
X124119048Y-89854663D01*
X124119048Y-89854663D02*
X124119048Y-88854663D01*
X124119048Y-88854663D02*
X124452381Y-88854663D01*
X124452381Y-88854663D02*
X124547619Y-88902282D01*
X124547619Y-88902282D02*
X124595238Y-88949901D01*
X124595238Y-88949901D02*
X124642857Y-89045139D01*
X124642857Y-89045139D02*
X124642857Y-89140377D01*
X124642857Y-89140377D02*
X124595238Y-89235615D01*
X124595238Y-89235615D02*
X124547619Y-89283234D01*
X124547619Y-89283234D02*
X124452381Y-89330853D01*
X124452381Y-89330853D02*
X124119048Y-89330853D01*
X125119048Y-89473710D02*
X125880953Y-89473710D01*
D12*
X114178571Y-83591764D02*
X114178571Y-84198907D01*
X114178571Y-84198907D02*
X114214285Y-84270335D01*
X114214285Y-84270335D02*
X114250000Y-84306050D01*
X114250000Y-84306050D02*
X114321428Y-84341764D01*
X114321428Y-84341764D02*
X114464285Y-84341764D01*
X114464285Y-84341764D02*
X114535714Y-84306050D01*
X114535714Y-84306050D02*
X114571428Y-84270335D01*
X114571428Y-84270335D02*
X114607142Y-84198907D01*
X114607142Y-84198907D02*
X114607142Y-83591764D01*
X114928571Y-83663192D02*
X114964285Y-83627478D01*
X114964285Y-83627478D02*
X115035714Y-83591764D01*
X115035714Y-83591764D02*
X115214285Y-83591764D01*
X115214285Y-83591764D02*
X115285714Y-83627478D01*
X115285714Y-83627478D02*
X115321428Y-83663192D01*
X115321428Y-83663192D02*
X115357142Y-83734621D01*
X115357142Y-83734621D02*
X115357142Y-83806050D01*
X115357142Y-83806050D02*
X115321428Y-83913192D01*
X115321428Y-83913192D02*
X114892856Y-84341764D01*
X114892856Y-84341764D02*
X115357142Y-84341764D01*
D13*
%TO.C,SW1*%
X128310828Y-82850000D02*
X128310828Y-86150000D01*
X128010828Y-82850000D02*
X128310828Y-82850000D01*
X125810828Y-82850000D02*
X125510828Y-82850000D01*
X125510828Y-82850000D02*
X125510828Y-86150000D01*
X128310828Y-86150000D02*
X128010828Y-86150000D01*
X125510828Y-86150000D02*
X125810828Y-86150000D01*
%TO.C,D1*%
X133820828Y-80900000D02*
X129960828Y-80900000D01*
X133820828Y-82900000D02*
X129960828Y-82900000D01*
X133820828Y-82900000D02*
X133820828Y-80900000D01*
%TO.C,L1*%
X141300828Y-83037221D02*
X141300828Y-83362779D01*
X142320828Y-83037221D02*
X142320828Y-83362779D01*
D14*
%TO.C,U3*%
X143310828Y-84050000D02*
X144115828Y-84050000D01*
X143310828Y-87050000D02*
X144115828Y-87050000D01*
X145505828Y-84050000D02*
X146310828Y-84050000D01*
X145505828Y-87050000D02*
X146310828Y-87050000D01*
D13*
%TO.C,R7*%
X115737258Y-87977500D02*
X115262742Y-87977500D01*
X115737258Y-89022500D02*
X115262742Y-89022500D01*
%TO.C,R1*%
X139688328Y-86962742D02*
X139688328Y-87437258D01*
X140733328Y-86962742D02*
X140733328Y-87437258D01*
%TO.C,R11*%
X137198570Y-84227500D02*
X137673086Y-84227500D01*
X137198570Y-85272500D02*
X137673086Y-85272500D01*
%TO.C,C2*%
X139700828Y-83059420D02*
X139700828Y-83340580D01*
X140720828Y-83059420D02*
X140720828Y-83340580D01*
%TO.C,C5*%
X119659420Y-87990000D02*
X119940580Y-87990000D01*
X119659420Y-89010000D02*
X119940580Y-89010000D01*
%TO.C,R12*%
X137198570Y-86377500D02*
X137673086Y-86377500D01*
X137198570Y-87422500D02*
X137673086Y-87422500D01*
%TO.C,R9*%
X126523086Y-87727500D02*
X126048570Y-87727500D01*
X126523086Y-88772500D02*
X126048570Y-88772500D01*
%TO.C,D3*%
X133820828Y-85600000D02*
X129960828Y-85600000D01*
X133820828Y-87600000D02*
X129960828Y-87600000D01*
X133820828Y-87600000D02*
X133820828Y-85600000D01*
%TO.C,C4*%
X115640580Y-81990000D02*
X115359420Y-81990000D01*
X115640580Y-83010000D02*
X115359420Y-83010000D01*
D12*
%TO.C,D8*%
X136095828Y-87000000D02*
G75*
G02*
X135995828Y-87000000I-50000J0D01*
G01*
X135995828Y-87000000D02*
G75*
G02*
X136095828Y-87000000I50000J0D01*
G01*
D13*
%TO.C,D2*%
X133820828Y-83250000D02*
X129960828Y-83250000D01*
X133820828Y-85250000D02*
X129960828Y-85250000D01*
X133820828Y-85250000D02*
X133820828Y-83250000D01*
%TO.C,Q1*%
X122262500Y-83640000D02*
X121462500Y-83640000D01*
X122262500Y-83640000D02*
X123062500Y-83640000D01*
X122262500Y-86760000D02*
X121462500Y-86760000D01*
X122262500Y-86760000D02*
X123062500Y-86760000D01*
X120962500Y-83690000D02*
X120722500Y-83360000D01*
X121202500Y-83360000D01*
X120962500Y-83690000D01*
G36*
X120962500Y-83690000D02*
G01*
X120722500Y-83360000D01*
X121202500Y-83360000D01*
X120962500Y-83690000D01*
G37*
%TO.C,C3*%
X145472080Y-81815000D02*
X144949576Y-81815000D01*
X145472080Y-83285000D02*
X144949576Y-83285000D01*
%TO.C,R2*%
X141288328Y-87437258D02*
X141288328Y-86962742D01*
X142333328Y-87437258D02*
X142333328Y-86962742D01*
D12*
%TO.C,D6*%
X136000828Y-82500000D02*
G75*
G02*
X135900828Y-82500000I-50000J0D01*
G01*
X135900828Y-82500000D02*
G75*
G02*
X136000828Y-82500000I50000J0D01*
G01*
D13*
%TO.C,R8*%
X118762742Y-81977500D02*
X119237258Y-81977500D01*
X118762742Y-83022500D02*
X119237258Y-83022500D01*
D12*
%TO.C,D5*%
X127770828Y-88300000D02*
G75*
G02*
X127670828Y-88300000I-50000J0D01*
G01*
X127670828Y-88300000D02*
G75*
G02*
X127770828Y-88300000I50000J0D01*
G01*
D13*
%TO.C,J1*%
X113110000Y-81240000D02*
X108750000Y-81240000D01*
X113110000Y-81240000D02*
X113110000Y-83740000D01*
X113110000Y-83740000D02*
X113310000Y-83740000D01*
X113110000Y-87260000D02*
X113110000Y-89760000D01*
X113110000Y-89760000D02*
X108750000Y-89760000D01*
X113310000Y-84400000D02*
X113310000Y-83740000D01*
%TO.C,U2*%
X117500000Y-83940000D02*
X116700000Y-83940000D01*
X117500000Y-83940000D02*
X118300000Y-83940000D01*
X117500000Y-87060000D02*
X116700000Y-87060000D01*
X117500000Y-87060000D02*
X118300000Y-87060000D01*
X119040000Y-87340000D02*
X118560000Y-87340000D01*
X118800000Y-87010000D01*
X119040000Y-87340000D01*
G36*
X119040000Y-87340000D02*
G01*
X118560000Y-87340000D01*
X118800000Y-87010000D01*
X119040000Y-87340000D01*
G37*
%TO.C,R10*%
X137123570Y-81977500D02*
X137598086Y-81977500D01*
X137123570Y-83022500D02*
X137598086Y-83022500D01*
%TO.C,C1*%
X145118664Y-87790000D02*
X144902992Y-87790000D01*
X145118664Y-88510000D02*
X144902992Y-88510000D01*
D12*
%TO.C,D7*%
X136075828Y-84750000D02*
G75*
G02*
X135975828Y-84750000I-50000J0D01*
G01*
X135975828Y-84750000D02*
G75*
G02*
X136075828Y-84750000I50000J0D01*
G01*
%TD*%
%LPC*%
D15*
%TO.C,U3*%
X143780828Y-84740000D02*
X143040828Y-84740000D01*
X143040828Y-84360000D01*
X143780828Y-84360000D01*
X143780828Y-84740000D01*
G36*
X143780828Y-84740000D02*
G01*
X143040828Y-84740000D01*
X143040828Y-84360000D01*
X143780828Y-84360000D01*
X143780828Y-84740000D01*
G37*
X143780828Y-85240000D02*
X143040828Y-85240000D01*
X143040828Y-84860000D01*
X143780828Y-84860000D01*
X143780828Y-85240000D01*
G36*
X143780828Y-85240000D02*
G01*
X143040828Y-85240000D01*
X143040828Y-84860000D01*
X143780828Y-84860000D01*
X143780828Y-85240000D01*
G37*
X143780828Y-85740000D02*
X143040828Y-85740000D01*
X143040828Y-85360000D01*
X143780828Y-85360000D01*
X143780828Y-85740000D01*
G36*
X143780828Y-85740000D02*
G01*
X143040828Y-85740000D01*
X143040828Y-85360000D01*
X143780828Y-85360000D01*
X143780828Y-85740000D01*
G37*
X143780828Y-86240000D02*
X143040828Y-86240000D01*
X143040828Y-85860000D01*
X143780828Y-85860000D01*
X143780828Y-86240000D01*
G36*
X143780828Y-86240000D02*
G01*
X143040828Y-86240000D01*
X143040828Y-85860000D01*
X143780828Y-85860000D01*
X143780828Y-86240000D01*
G37*
X143780828Y-86740000D02*
X143040828Y-86740000D01*
X143040828Y-86360000D01*
X143780828Y-86360000D01*
X143780828Y-86740000D01*
G36*
X143780828Y-86740000D02*
G01*
X143040828Y-86740000D01*
X143040828Y-86360000D01*
X143780828Y-86360000D01*
X143780828Y-86740000D01*
G37*
X146580828Y-84740000D02*
X145840828Y-84740000D01*
X145840828Y-84360000D01*
X146580828Y-84360000D01*
X146580828Y-84740000D01*
G36*
X146580828Y-84740000D02*
G01*
X145840828Y-84740000D01*
X145840828Y-84360000D01*
X146580828Y-84360000D01*
X146580828Y-84740000D01*
G37*
X146580828Y-85240000D02*
X145840828Y-85240000D01*
X145840828Y-84860000D01*
X146580828Y-84860000D01*
X146580828Y-85240000D01*
G36*
X146580828Y-85240000D02*
G01*
X145840828Y-85240000D01*
X145840828Y-84860000D01*
X146580828Y-84860000D01*
X146580828Y-85240000D01*
G37*
X146580828Y-85740000D02*
X145840828Y-85740000D01*
X145840828Y-85360000D01*
X146580828Y-85360000D01*
X146580828Y-85740000D01*
G36*
X146580828Y-85740000D02*
G01*
X145840828Y-85740000D01*
X145840828Y-85360000D01*
X146580828Y-85360000D01*
X146580828Y-85740000D01*
G37*
X146580828Y-86240000D02*
X145840828Y-86240000D01*
X145840828Y-85860000D01*
X146580828Y-85860000D01*
X146580828Y-86240000D01*
G36*
X146580828Y-86240000D02*
G01*
X145840828Y-86240000D01*
X145840828Y-85860000D01*
X146580828Y-85860000D01*
X146580828Y-86240000D01*
G37*
X146580828Y-86740000D02*
X145840828Y-86740000D01*
X145840828Y-86360000D01*
X146580828Y-86360000D01*
X146580828Y-86740000D01*
G36*
X146580828Y-86740000D02*
G01*
X145840828Y-86740000D01*
X145840828Y-86360000D01*
X146580828Y-86360000D01*
X146580828Y-86740000D01*
G37*
X144755828Y-84280000D02*
X144865828Y-84280000D01*
X144865828Y-83780000D01*
X145255828Y-83780000D01*
X145255828Y-84280000D01*
X145705828Y-84280000D01*
X145705828Y-86820000D01*
X145255828Y-86820000D01*
X145255828Y-87320000D01*
X144865828Y-87320000D01*
X144865828Y-86820000D01*
X144755828Y-86820000D01*
X144755828Y-87320000D01*
X144365828Y-87320000D01*
X144365828Y-86820000D01*
X143915828Y-86820000D01*
X143915828Y-84280000D01*
X144365828Y-84280000D01*
X144365828Y-83780000D01*
X144755828Y-83780000D01*
X144755828Y-84280000D01*
G36*
X144755828Y-84280000D02*
G01*
X144865828Y-84280000D01*
X144865828Y-83780000D01*
X145255828Y-83780000D01*
X145255828Y-84280000D01*
X145705828Y-84280000D01*
X145705828Y-86820000D01*
X145255828Y-86820000D01*
X145255828Y-87320000D01*
X144865828Y-87320000D01*
X144865828Y-86820000D01*
X144755828Y-86820000D01*
X144755828Y-87320000D01*
X144365828Y-87320000D01*
X144365828Y-86820000D01*
X143915828Y-86820000D01*
X143915828Y-84280000D01*
X144365828Y-84280000D01*
X144365828Y-83780000D01*
X144755828Y-83780000D01*
X144755828Y-84280000D01*
G37*
%TD*%
D16*
%TO.C,SW1*%
X126910828Y-82800000D03*
X126910828Y-86200000D03*
%TD*%
D17*
%TO.C,D1*%
X133010828Y-81900000D03*
X130210828Y-81900000D03*
%TD*%
D18*
%TO.C,L1*%
X141810828Y-82412500D03*
X141810828Y-83987500D03*
%TD*%
D19*
%TO.C,R7*%
X116325000Y-88500000D03*
X114675000Y-88500000D03*
%TD*%
D20*
%TO.C,R1*%
X140210828Y-86375000D03*
X140210828Y-88025000D03*
%TD*%
D21*
%TO.C,R11*%
X136610828Y-84750000D03*
X138260828Y-84750000D03*
%TD*%
D22*
%TO.C,C2*%
X140210828Y-82425000D03*
X140210828Y-83975000D03*
%TD*%
D23*
%TO.C,C5*%
X119025000Y-88500000D03*
X120575000Y-88500000D03*
%TD*%
D24*
%TO.C,3.3V*%
X138210828Y-88900000D03*
%TD*%
D21*
%TO.C,R12*%
X136610828Y-86900000D03*
X138260828Y-86900000D03*
%TD*%
D19*
%TO.C,R9*%
X127110828Y-88250000D03*
X125460828Y-88250000D03*
%TD*%
D24*
%TO.C,B+*%
X122700000Y-82000000D03*
%TD*%
D17*
%TO.C,D3*%
X133010828Y-86600000D03*
X130210828Y-86600000D03*
%TD*%
D25*
%TO.C,C4*%
X116275000Y-82500000D03*
X114725000Y-82500000D03*
%TD*%
D26*
%TO.C,D8*%
X135440828Y-87000000D03*
X134470828Y-87000000D03*
%TD*%
D17*
%TO.C,D2*%
X133010828Y-84250000D03*
X130210828Y-84250000D03*
%TD*%
D27*
%TO.C,REF\u002A\u002A*%
X147210828Y-91200000D03*
%TD*%
D28*
%TO.C,Q1*%
X121125000Y-84250000D03*
X121125000Y-86150000D03*
X123400000Y-85200000D03*
%TD*%
D24*
%TO.C,GND*%
X134810828Y-88900000D03*
%TD*%
D29*
%TO.C,C3*%
X146160828Y-82550000D03*
X144260828Y-82550000D03*
%TD*%
D24*
%TO.C,B-*%
X122700000Y-88600000D03*
%TD*%
D30*
%TO.C,R2*%
X141810828Y-88025000D03*
X141810828Y-86375000D03*
%TD*%
D26*
%TO.C,D6*%
X135345828Y-82500000D03*
X134375828Y-82500000D03*
%TD*%
D21*
%TO.C,R8*%
X118175000Y-82500000D03*
X119825000Y-82500000D03*
%TD*%
D31*
%TO.C,D5*%
X128325828Y-88300000D03*
X129295828Y-88300000D03*
%TD*%
D32*
%TO.C,J1*%
X112375000Y-84200000D03*
X112375000Y-84850000D03*
X112375000Y-85500000D03*
X112375000Y-86150000D03*
X112375000Y-86800000D03*
D33*
X109700000Y-82200000D03*
D34*
X112150000Y-82300000D03*
D35*
X109700000Y-84300000D03*
X109700000Y-86700000D03*
D34*
X112150000Y-88700000D03*
D33*
X109700000Y-88800000D03*
%TD*%
D36*
%TO.C,U2*%
X118637500Y-86450000D03*
X118637500Y-85500000D03*
X118637500Y-84550000D03*
X116362500Y-84550000D03*
X116362500Y-86450000D03*
%TD*%
D21*
%TO.C,R10*%
X136535828Y-82500000D03*
X138185828Y-82500000D03*
%TD*%
D27*
%TO.C,REF\u002A\u002A*%
X147210828Y-79600000D03*
%TD*%
D37*
%TO.C,C1*%
X145490828Y-88150000D03*
X144530828Y-88150000D03*
%TD*%
D26*
%TO.C,D7*%
X135420828Y-84750000D03*
X134450828Y-84750000D03*
%TD*%
D27*
%TO.C,REF\u002A\u002A*%
X113200000Y-79600000D03*
%TD*%
%LPD*%
M02*
