M48
; DRILL file {KiCad 8.0.6} date 2024-11-21T20:13:28-0500
; FORMAT={-:-/ absolute / inch / decimal}
; #@! TF.CreationDate,2024-11-21T20:13:28-05:00
; #@! TF.GenerationSoftware,Kicad,Pcbnew,8.0.6
; #@! TF.FileFunction,Plated,1,2,PTH
FMAT,2
INCH
; #@! TA.AperFunction,Plated,PTH,ComponentDrill
T1C0.0079
; #@! TA.AperFunction,Plated,PTH,ViaDrill
T2C0.0118
; #@! TA.AperFunction,Plated,PTH,ComponentDrill
T3C0.0197
; #@! TA.AperFunction,Plated,PTH,ComponentDrill
T4C0.0394
%
G90
G05
T1
X5.6786Y-3.3681
X5.7012Y-3.3307
X5.7012Y-3.4055
X5.7239Y-3.3681
T2
X4.4882Y-3.2835
X4.5039Y-3.4331
X4.5118Y-3.3701
X4.7244Y-3.2008
X4.7479Y-3.4371
X4.8981Y-3.4724
X5.0709Y-3.1969
X5.2874Y-3.1969
X5.4414Y-3.2913
X5.4667Y-3.3762
X5.5162Y-3.3622
X5.5674Y-3.3611
X5.6303Y-3.4567
X5.6461Y-3.2992
X5.6658Y-3.4528
X5.7Y-3.3032
X5.7563Y-3.4291
X5.7563Y-3.4646
X5.7898Y-3.3485
T4
X4.8307Y-3.2283
X4.8307Y-3.4882
X5.3075Y-3.5
X5.4414Y-3.5
T3
G00X4.3051Y-3.2362
M15
G01X4.3327Y-3.2362
M16
G05
G00X4.3051Y-3.4961
M15
G01X4.3327Y-3.4961
M16
G05
M30
