%TF.GenerationSoftware,KiCad,Pcbnew,8.0.5*%
%TF.CreationDate,2024-10-09T18:33:24-04:00*%
%TF.ProjectId,PostureBestICM20948,506f7374-7572-4654-9265-737449434d32,rev?*%
%TF.SameCoordinates,Original*%
%TF.FileFunction,Legend,Top*%
%TF.FilePolarity,Positive*%
%FSLAX46Y46*%
G04 Gerber Fmt 4.6, Leading zero omitted, Abs format (unit mm)*
G04 Created by KiCad (PCBNEW 8.0.5) date 2024-10-09 18:33:24*
%MOMM*%
%LPD*%
G01*
G04 APERTURE LIST*
G04 Aperture macros list*
%AMRoundRect*
0 Rectangle with rounded corners*
0 $1 Rounding radius*
0 $2 $3 $4 $5 $6 $7 $8 $9 X,Y pos of 4 corners*
0 Add a 4 corners polygon primitive as box body*
4,1,4,$2,$3,$4,$5,$6,$7,$8,$9,$2,$3,0*
0 Add four circle primitives for the rounded corners*
1,1,$1+$1,$2,$3*
1,1,$1+$1,$4,$5*
1,1,$1+$1,$6,$7*
1,1,$1+$1,$8,$9*
0 Add four rect primitives between the rounded corners*
20,1,$1+$1,$2,$3,$4,$5,0*
20,1,$1+$1,$4,$5,$6,$7,0*
20,1,$1+$1,$6,$7,$8,$9,0*
20,1,$1+$1,$8,$9,$2,$3,0*%
G04 Aperture macros list end*
%ADD10C,0.150000*%
%ADD11C,0.120000*%
%ADD12C,0.127000*%
%ADD13C,0.200000*%
%ADD14RoundRect,0.250000X0.250000X0.475000X-0.250000X0.475000X-0.250000X-0.475000X0.250000X-0.475000X0*%
%ADD15C,2.200000*%
%ADD16RoundRect,0.140000X-0.170000X0.140000X-0.170000X-0.140000X0.170000X-0.140000X0.170000X0.140000X0*%
%ADD17RoundRect,0.200000X0.275000X-0.200000X0.275000X0.200000X-0.275000X0.200000X-0.275000X-0.200000X0*%
%ADD18RoundRect,0.140000X0.140000X0.170000X-0.140000X0.170000X-0.140000X-0.170000X0.140000X-0.170000X0*%
%ADD19C,0.900000*%
%ADD20RoundRect,0.102000X0.750000X-0.350000X0.750000X0.350000X-0.750000X0.350000X-0.750000X-0.350000X0*%
%ADD21RoundRect,0.102000X0.400000X-0.500000X0.400000X0.500000X-0.400000X0.500000X-0.400000X-0.500000X0*%
%ADD22RoundRect,0.140000X-0.140000X-0.170000X0.140000X-0.170000X0.140000X0.170000X-0.140000X0.170000X0*%
%ADD23RoundRect,0.375000X-0.375000X0.625000X-0.375000X-0.625000X0.375000X-0.625000X0.375000X0.625000X0*%
%ADD24RoundRect,0.500000X-1.400000X0.500000X-1.400000X-0.500000X1.400000X-0.500000X1.400000X0.500000X0*%
%ADD25RoundRect,0.050000X-0.225000X-0.050000X0.225000X-0.050000X0.225000X0.050000X-0.225000X0.050000X0*%
%ADD26RoundRect,0.050000X0.050000X-0.225000X0.050000X0.225000X-0.050000X0.225000X-0.050000X-0.225000X0*%
%ADD27R,1.700000X1.700000*%
%ADD28O,1.700000X1.700000*%
G04 APERTURE END LIST*
D10*
X111733333Y-102209580D02*
X111685714Y-102257200D01*
X111685714Y-102257200D02*
X111542857Y-102304819D01*
X111542857Y-102304819D02*
X111447619Y-102304819D01*
X111447619Y-102304819D02*
X111304762Y-102257200D01*
X111304762Y-102257200D02*
X111209524Y-102161961D01*
X111209524Y-102161961D02*
X111161905Y-102066723D01*
X111161905Y-102066723D02*
X111114286Y-101876247D01*
X111114286Y-101876247D02*
X111114286Y-101733390D01*
X111114286Y-101733390D02*
X111161905Y-101542914D01*
X111161905Y-101542914D02*
X111209524Y-101447676D01*
X111209524Y-101447676D02*
X111304762Y-101352438D01*
X111304762Y-101352438D02*
X111447619Y-101304819D01*
X111447619Y-101304819D02*
X111542857Y-101304819D01*
X111542857Y-101304819D02*
X111685714Y-101352438D01*
X111685714Y-101352438D02*
X111733333Y-101400057D01*
X112685714Y-102304819D02*
X112114286Y-102304819D01*
X112400000Y-102304819D02*
X112400000Y-101304819D01*
X112400000Y-101304819D02*
X112304762Y-101447676D01*
X112304762Y-101447676D02*
X112209524Y-101542914D01*
X112209524Y-101542914D02*
X112114286Y-101590533D01*
X125338095Y-99754819D02*
X125338095Y-98754819D01*
X125338095Y-99231009D02*
X125909523Y-99231009D01*
X125909523Y-99754819D02*
X125909523Y-98754819D01*
X126338095Y-98850057D02*
X126385714Y-98802438D01*
X126385714Y-98802438D02*
X126480952Y-98754819D01*
X126480952Y-98754819D02*
X126719047Y-98754819D01*
X126719047Y-98754819D02*
X126814285Y-98802438D01*
X126814285Y-98802438D02*
X126861904Y-98850057D01*
X126861904Y-98850057D02*
X126909523Y-98945295D01*
X126909523Y-98945295D02*
X126909523Y-99040533D01*
X126909523Y-99040533D02*
X126861904Y-99183390D01*
X126861904Y-99183390D02*
X126290476Y-99754819D01*
X126290476Y-99754819D02*
X126909523Y-99754819D01*
X121233333Y-90159580D02*
X121185714Y-90207200D01*
X121185714Y-90207200D02*
X121042857Y-90254819D01*
X121042857Y-90254819D02*
X120947619Y-90254819D01*
X120947619Y-90254819D02*
X120804762Y-90207200D01*
X120804762Y-90207200D02*
X120709524Y-90111961D01*
X120709524Y-90111961D02*
X120661905Y-90016723D01*
X120661905Y-90016723D02*
X120614286Y-89826247D01*
X120614286Y-89826247D02*
X120614286Y-89683390D01*
X120614286Y-89683390D02*
X120661905Y-89492914D01*
X120661905Y-89492914D02*
X120709524Y-89397676D01*
X120709524Y-89397676D02*
X120804762Y-89302438D01*
X120804762Y-89302438D02*
X120947619Y-89254819D01*
X120947619Y-89254819D02*
X121042857Y-89254819D01*
X121042857Y-89254819D02*
X121185714Y-89302438D01*
X121185714Y-89302438D02*
X121233333Y-89350057D01*
X121614286Y-89350057D02*
X121661905Y-89302438D01*
X121661905Y-89302438D02*
X121757143Y-89254819D01*
X121757143Y-89254819D02*
X121995238Y-89254819D01*
X121995238Y-89254819D02*
X122090476Y-89302438D01*
X122090476Y-89302438D02*
X122138095Y-89350057D01*
X122138095Y-89350057D02*
X122185714Y-89445295D01*
X122185714Y-89445295D02*
X122185714Y-89540533D01*
X122185714Y-89540533D02*
X122138095Y-89683390D01*
X122138095Y-89683390D02*
X121566667Y-90254819D01*
X121566667Y-90254819D02*
X122185714Y-90254819D01*
X103838095Y-99754819D02*
X103838095Y-98754819D01*
X103838095Y-99231009D02*
X104409523Y-99231009D01*
X104409523Y-99754819D02*
X104409523Y-98754819D01*
X104790476Y-98754819D02*
X105409523Y-98754819D01*
X105409523Y-98754819D02*
X105076190Y-99135771D01*
X105076190Y-99135771D02*
X105219047Y-99135771D01*
X105219047Y-99135771D02*
X105314285Y-99183390D01*
X105314285Y-99183390D02*
X105361904Y-99231009D01*
X105361904Y-99231009D02*
X105409523Y-99326247D01*
X105409523Y-99326247D02*
X105409523Y-99564342D01*
X105409523Y-99564342D02*
X105361904Y-99659580D01*
X105361904Y-99659580D02*
X105314285Y-99707200D01*
X105314285Y-99707200D02*
X105219047Y-99754819D01*
X105219047Y-99754819D02*
X104933333Y-99754819D01*
X104933333Y-99754819D02*
X104838095Y-99707200D01*
X104838095Y-99707200D02*
X104790476Y-99659580D01*
X107588095Y-82454819D02*
X107588095Y-81454819D01*
X107588095Y-81931009D02*
X108159523Y-81931009D01*
X108159523Y-82454819D02*
X108159523Y-81454819D01*
X109064285Y-81788152D02*
X109064285Y-82454819D01*
X108826190Y-81407200D02*
X108588095Y-82121485D01*
X108588095Y-82121485D02*
X109207142Y-82121485D01*
X115633333Y-85154819D02*
X115300000Y-84678628D01*
X115061905Y-85154819D02*
X115061905Y-84154819D01*
X115061905Y-84154819D02*
X115442857Y-84154819D01*
X115442857Y-84154819D02*
X115538095Y-84202438D01*
X115538095Y-84202438D02*
X115585714Y-84250057D01*
X115585714Y-84250057D02*
X115633333Y-84345295D01*
X115633333Y-84345295D02*
X115633333Y-84488152D01*
X115633333Y-84488152D02*
X115585714Y-84583390D01*
X115585714Y-84583390D02*
X115538095Y-84631009D01*
X115538095Y-84631009D02*
X115442857Y-84678628D01*
X115442857Y-84678628D02*
X115061905Y-84678628D01*
X116014286Y-84250057D02*
X116061905Y-84202438D01*
X116061905Y-84202438D02*
X116157143Y-84154819D01*
X116157143Y-84154819D02*
X116395238Y-84154819D01*
X116395238Y-84154819D02*
X116490476Y-84202438D01*
X116490476Y-84202438D02*
X116538095Y-84250057D01*
X116538095Y-84250057D02*
X116585714Y-84345295D01*
X116585714Y-84345295D02*
X116585714Y-84440533D01*
X116585714Y-84440533D02*
X116538095Y-84583390D01*
X116538095Y-84583390D02*
X115966667Y-85154819D01*
X115966667Y-85154819D02*
X116585714Y-85154819D01*
X112583333Y-98909580D02*
X112535714Y-98957200D01*
X112535714Y-98957200D02*
X112392857Y-99004819D01*
X112392857Y-99004819D02*
X112297619Y-99004819D01*
X112297619Y-99004819D02*
X112154762Y-98957200D01*
X112154762Y-98957200D02*
X112059524Y-98861961D01*
X112059524Y-98861961D02*
X112011905Y-98766723D01*
X112011905Y-98766723D02*
X111964286Y-98576247D01*
X111964286Y-98576247D02*
X111964286Y-98433390D01*
X111964286Y-98433390D02*
X112011905Y-98242914D01*
X112011905Y-98242914D02*
X112059524Y-98147676D01*
X112059524Y-98147676D02*
X112154762Y-98052438D01*
X112154762Y-98052438D02*
X112297619Y-98004819D01*
X112297619Y-98004819D02*
X112392857Y-98004819D01*
X112392857Y-98004819D02*
X112535714Y-98052438D01*
X112535714Y-98052438D02*
X112583333Y-98100057D01*
X113440476Y-98338152D02*
X113440476Y-99004819D01*
X113202381Y-97957200D02*
X112964286Y-98671485D01*
X112964286Y-98671485D02*
X113583333Y-98671485D01*
X124166667Y-88607200D02*
X124309524Y-88654819D01*
X124309524Y-88654819D02*
X124547619Y-88654819D01*
X124547619Y-88654819D02*
X124642857Y-88607200D01*
X124642857Y-88607200D02*
X124690476Y-88559580D01*
X124690476Y-88559580D02*
X124738095Y-88464342D01*
X124738095Y-88464342D02*
X124738095Y-88369104D01*
X124738095Y-88369104D02*
X124690476Y-88273866D01*
X124690476Y-88273866D02*
X124642857Y-88226247D01*
X124642857Y-88226247D02*
X124547619Y-88178628D01*
X124547619Y-88178628D02*
X124357143Y-88131009D01*
X124357143Y-88131009D02*
X124261905Y-88083390D01*
X124261905Y-88083390D02*
X124214286Y-88035771D01*
X124214286Y-88035771D02*
X124166667Y-87940533D01*
X124166667Y-87940533D02*
X124166667Y-87845295D01*
X124166667Y-87845295D02*
X124214286Y-87750057D01*
X124214286Y-87750057D02*
X124261905Y-87702438D01*
X124261905Y-87702438D02*
X124357143Y-87654819D01*
X124357143Y-87654819D02*
X124595238Y-87654819D01*
X124595238Y-87654819D02*
X124738095Y-87702438D01*
X125071429Y-87654819D02*
X125309524Y-88654819D01*
X125309524Y-88654819D02*
X125500000Y-87940533D01*
X125500000Y-87940533D02*
X125690476Y-88654819D01*
X125690476Y-88654819D02*
X125928572Y-87654819D01*
X126833333Y-88654819D02*
X126261905Y-88654819D01*
X126547619Y-88654819D02*
X126547619Y-87654819D01*
X126547619Y-87654819D02*
X126452381Y-87797676D01*
X126452381Y-87797676D02*
X126357143Y-87892914D01*
X126357143Y-87892914D02*
X126261905Y-87940533D01*
X117773333Y-95959580D02*
X117725714Y-96007200D01*
X117725714Y-96007200D02*
X117582857Y-96054819D01*
X117582857Y-96054819D02*
X117487619Y-96054819D01*
X117487619Y-96054819D02*
X117344762Y-96007200D01*
X117344762Y-96007200D02*
X117249524Y-95911961D01*
X117249524Y-95911961D02*
X117201905Y-95816723D01*
X117201905Y-95816723D02*
X117154286Y-95626247D01*
X117154286Y-95626247D02*
X117154286Y-95483390D01*
X117154286Y-95483390D02*
X117201905Y-95292914D01*
X117201905Y-95292914D02*
X117249524Y-95197676D01*
X117249524Y-95197676D02*
X117344762Y-95102438D01*
X117344762Y-95102438D02*
X117487619Y-95054819D01*
X117487619Y-95054819D02*
X117582857Y-95054819D01*
X117582857Y-95054819D02*
X117725714Y-95102438D01*
X117725714Y-95102438D02*
X117773333Y-95150057D01*
X118106667Y-95054819D02*
X118725714Y-95054819D01*
X118725714Y-95054819D02*
X118392381Y-95435771D01*
X118392381Y-95435771D02*
X118535238Y-95435771D01*
X118535238Y-95435771D02*
X118630476Y-95483390D01*
X118630476Y-95483390D02*
X118678095Y-95531009D01*
X118678095Y-95531009D02*
X118725714Y-95626247D01*
X118725714Y-95626247D02*
X118725714Y-95864342D01*
X118725714Y-95864342D02*
X118678095Y-95959580D01*
X118678095Y-95959580D02*
X118630476Y-96007200D01*
X118630476Y-96007200D02*
X118535238Y-96054819D01*
X118535238Y-96054819D02*
X118249524Y-96054819D01*
X118249524Y-96054819D02*
X118154286Y-96007200D01*
X118154286Y-96007200D02*
X118106667Y-95959580D01*
X115873333Y-95959580D02*
X115825714Y-96007200D01*
X115825714Y-96007200D02*
X115682857Y-96054819D01*
X115682857Y-96054819D02*
X115587619Y-96054819D01*
X115587619Y-96054819D02*
X115444762Y-96007200D01*
X115444762Y-96007200D02*
X115349524Y-95911961D01*
X115349524Y-95911961D02*
X115301905Y-95816723D01*
X115301905Y-95816723D02*
X115254286Y-95626247D01*
X115254286Y-95626247D02*
X115254286Y-95483390D01*
X115254286Y-95483390D02*
X115301905Y-95292914D01*
X115301905Y-95292914D02*
X115349524Y-95197676D01*
X115349524Y-95197676D02*
X115444762Y-95102438D01*
X115444762Y-95102438D02*
X115587619Y-95054819D01*
X115587619Y-95054819D02*
X115682857Y-95054819D01*
X115682857Y-95054819D02*
X115825714Y-95102438D01*
X115825714Y-95102438D02*
X115873333Y-95150057D01*
X116778095Y-95054819D02*
X116301905Y-95054819D01*
X116301905Y-95054819D02*
X116254286Y-95531009D01*
X116254286Y-95531009D02*
X116301905Y-95483390D01*
X116301905Y-95483390D02*
X116397143Y-95435771D01*
X116397143Y-95435771D02*
X116635238Y-95435771D01*
X116635238Y-95435771D02*
X116730476Y-95483390D01*
X116730476Y-95483390D02*
X116778095Y-95531009D01*
X116778095Y-95531009D02*
X116825714Y-95626247D01*
X116825714Y-95626247D02*
X116825714Y-95864342D01*
X116825714Y-95864342D02*
X116778095Y-95959580D01*
X116778095Y-95959580D02*
X116730476Y-96007200D01*
X116730476Y-96007200D02*
X116635238Y-96054819D01*
X116635238Y-96054819D02*
X116397143Y-96054819D01*
X116397143Y-96054819D02*
X116301905Y-96007200D01*
X116301905Y-96007200D02*
X116254286Y-95959580D01*
X117433333Y-85154819D02*
X117100000Y-84678628D01*
X116861905Y-85154819D02*
X116861905Y-84154819D01*
X116861905Y-84154819D02*
X117242857Y-84154819D01*
X117242857Y-84154819D02*
X117338095Y-84202438D01*
X117338095Y-84202438D02*
X117385714Y-84250057D01*
X117385714Y-84250057D02*
X117433333Y-84345295D01*
X117433333Y-84345295D02*
X117433333Y-84488152D01*
X117433333Y-84488152D02*
X117385714Y-84583390D01*
X117385714Y-84583390D02*
X117338095Y-84631009D01*
X117338095Y-84631009D02*
X117242857Y-84678628D01*
X117242857Y-84678628D02*
X116861905Y-84678628D01*
X118385714Y-85154819D02*
X117814286Y-85154819D01*
X118100000Y-85154819D02*
X118100000Y-84154819D01*
X118100000Y-84154819D02*
X118004762Y-84297676D01*
X118004762Y-84297676D02*
X117909524Y-84392914D01*
X117909524Y-84392914D02*
X117814286Y-84440533D01*
X121288095Y-99554819D02*
X121288095Y-100364342D01*
X121288095Y-100364342D02*
X121335714Y-100459580D01*
X121335714Y-100459580D02*
X121383333Y-100507200D01*
X121383333Y-100507200D02*
X121478571Y-100554819D01*
X121478571Y-100554819D02*
X121669047Y-100554819D01*
X121669047Y-100554819D02*
X121764285Y-100507200D01*
X121764285Y-100507200D02*
X121811904Y-100459580D01*
X121811904Y-100459580D02*
X121859523Y-100364342D01*
X121859523Y-100364342D02*
X121859523Y-99554819D01*
X122288095Y-99650057D02*
X122335714Y-99602438D01*
X122335714Y-99602438D02*
X122430952Y-99554819D01*
X122430952Y-99554819D02*
X122669047Y-99554819D01*
X122669047Y-99554819D02*
X122764285Y-99602438D01*
X122764285Y-99602438D02*
X122811904Y-99650057D01*
X122811904Y-99650057D02*
X122859523Y-99745295D01*
X122859523Y-99745295D02*
X122859523Y-99840533D01*
X122859523Y-99840533D02*
X122811904Y-99983390D01*
X122811904Y-99983390D02*
X122240476Y-100554819D01*
X122240476Y-100554819D02*
X122859523Y-100554819D01*
X121588095Y-82454819D02*
X121588095Y-81454819D01*
X121588095Y-81931009D02*
X122159523Y-81931009D01*
X122159523Y-82454819D02*
X122159523Y-81454819D01*
X123159523Y-82454819D02*
X122588095Y-82454819D01*
X122873809Y-82454819D02*
X122873809Y-81454819D01*
X122873809Y-81454819D02*
X122778571Y-81597676D01*
X122778571Y-81597676D02*
X122683333Y-81692914D01*
X122683333Y-81692914D02*
X122588095Y-81740533D01*
X118538095Y-87654819D02*
X118538095Y-88464342D01*
X118538095Y-88464342D02*
X118585714Y-88559580D01*
X118585714Y-88559580D02*
X118633333Y-88607200D01*
X118633333Y-88607200D02*
X118728571Y-88654819D01*
X118728571Y-88654819D02*
X118919047Y-88654819D01*
X118919047Y-88654819D02*
X119014285Y-88607200D01*
X119014285Y-88607200D02*
X119061904Y-88559580D01*
X119061904Y-88559580D02*
X119109523Y-88464342D01*
X119109523Y-88464342D02*
X119109523Y-87654819D01*
X120109523Y-88654819D02*
X119538095Y-88654819D01*
X119823809Y-88654819D02*
X119823809Y-87654819D01*
X119823809Y-87654819D02*
X119728571Y-87797676D01*
X119728571Y-87797676D02*
X119633333Y-87892914D01*
X119633333Y-87892914D02*
X119538095Y-87940533D01*
X113466666Y-83454819D02*
X113466666Y-84169104D01*
X113466666Y-84169104D02*
X113419047Y-84311961D01*
X113419047Y-84311961D02*
X113323809Y-84407200D01*
X113323809Y-84407200D02*
X113180952Y-84454819D01*
X113180952Y-84454819D02*
X113085714Y-84454819D01*
X114466666Y-84454819D02*
X113895238Y-84454819D01*
X114180952Y-84454819D02*
X114180952Y-83454819D01*
X114180952Y-83454819D02*
X114085714Y-83597676D01*
X114085714Y-83597676D02*
X113990476Y-83692914D01*
X113990476Y-83692914D02*
X113895238Y-83740533D01*
D11*
%TO.C,C1*%
X112261252Y-104435000D02*
X111738748Y-104435000D01*
X112261252Y-102965000D02*
X111738748Y-102965000D01*
%TO.C,C2*%
X119640000Y-90392164D02*
X119640000Y-90607836D01*
X120360000Y-90392164D02*
X120360000Y-90607836D01*
%TO.C,R2*%
X115377500Y-87037258D02*
X115377500Y-86562742D01*
X116422500Y-87037258D02*
X116422500Y-86562742D01*
%TO.C,C4*%
X112857836Y-96940000D02*
X112642164Y-96940000D01*
X112857836Y-97660000D02*
X112642164Y-97660000D01*
D12*
%TO.C,SW1*%
X124200000Y-91830000D02*
X124200000Y-91670000D01*
X124200000Y-94830000D02*
X124200000Y-93170000D01*
X125880000Y-89900000D02*
X125120000Y-89900000D01*
X125880000Y-96600000D02*
X125120000Y-96600000D01*
X126800000Y-90420000D02*
X126800000Y-96080000D01*
D13*
X122500000Y-95500000D02*
G75*
G02*
X122300000Y-95500000I-100000J0D01*
G01*
X122300000Y-95500000D02*
G75*
G02*
X122500000Y-95500000I100000J0D01*
G01*
D11*
%TO.C,C3*%
X117912164Y-94040000D02*
X118127836Y-94040000D01*
X117912164Y-94760000D02*
X118127836Y-94760000D01*
%TO.C,C5*%
X116147836Y-94040000D02*
X115932164Y-94040000D01*
X116147836Y-94760000D02*
X115932164Y-94760000D01*
%TO.C,R1*%
X116977500Y-87037258D02*
X116977500Y-86562742D01*
X118022500Y-87037258D02*
X118022500Y-86562742D01*
%TO.C,U2*%
X114090000Y-98650000D02*
X114090000Y-102410000D01*
X114090000Y-102410000D02*
X115350000Y-102410000D01*
X120910000Y-98650000D02*
X120910000Y-102410000D01*
X120910000Y-102410000D02*
X119650000Y-102410000D01*
X121140000Y-97610000D02*
X120810000Y-97370000D01*
X121140000Y-97130000D01*
X121140000Y-97610000D01*
G36*
X121140000Y-97610000D02*
G01*
X120810000Y-97370000D01*
X121140000Y-97130000D01*
X121140000Y-97610000D01*
G37*
%TO.C,U1*%
X115650000Y-92600000D02*
X115650000Y-92350000D01*
X115650000Y-92600000D02*
X115900000Y-92600000D01*
X118850000Y-89400000D02*
X118600000Y-89400000D01*
X118850000Y-89400000D02*
X118850000Y-89650000D01*
X118850000Y-92600000D02*
X118600000Y-92600000D01*
X118850000Y-92600000D02*
X118850000Y-92350000D01*
X115650000Y-89400000D02*
X115410000Y-89070000D01*
X115890000Y-89070000D01*
X115650000Y-89400000D01*
G36*
X115650000Y-89400000D02*
G01*
X115410000Y-89070000D01*
X115890000Y-89070000D01*
X115650000Y-89400000D01*
G37*
%TO.C,J1*%
X102710000Y-85020000D02*
X102710000Y-95300000D01*
X102710000Y-85020000D02*
X111340000Y-85020000D01*
X102710000Y-85140000D02*
X111340000Y-85140000D01*
X102710000Y-85258095D02*
X111340000Y-85258095D01*
X102710000Y-85376190D02*
X111340000Y-85376190D01*
X102710000Y-85494285D02*
X111340000Y-85494285D01*
X102710000Y-85612380D02*
X111340000Y-85612380D01*
X102710000Y-85730475D02*
X111340000Y-85730475D01*
X102710000Y-85848570D02*
X111340000Y-85848570D01*
X102710000Y-85966665D02*
X111340000Y-85966665D01*
X102710000Y-86084760D02*
X111340000Y-86084760D01*
X102710000Y-86202855D02*
X111340000Y-86202855D01*
X102710000Y-86320950D02*
X111340000Y-86320950D01*
X102710000Y-86439045D02*
X111340000Y-86439045D01*
X102710000Y-86557140D02*
X111340000Y-86557140D01*
X102710000Y-86675235D02*
X111340000Y-86675235D01*
X102710000Y-86793330D02*
X111340000Y-86793330D01*
X102710000Y-86911425D02*
X111340000Y-86911425D01*
X102710000Y-87029520D02*
X111340000Y-87029520D01*
X102710000Y-87147615D02*
X111340000Y-87147615D01*
X102710000Y-87265710D02*
X111340000Y-87265710D01*
X102710000Y-87383805D02*
X111340000Y-87383805D01*
X102710000Y-87501900D02*
X111340000Y-87501900D01*
X102710000Y-87620000D02*
X111340000Y-87620000D01*
X102710000Y-90160000D02*
X111340000Y-90160000D01*
X102710000Y-92700000D02*
X111340000Y-92700000D01*
X102710000Y-95300000D02*
X111340000Y-95300000D01*
X111340000Y-85020000D02*
X111340000Y-95300000D01*
X111340000Y-85990000D02*
X111690000Y-85990000D01*
X111340000Y-86710000D02*
X111690000Y-86710000D01*
X111340000Y-88530000D02*
X111750000Y-88530000D01*
X111340000Y-89250000D02*
X111750000Y-89250000D01*
X111340000Y-91070000D02*
X111750000Y-91070000D01*
X111340000Y-91790000D02*
X111750000Y-91790000D01*
X111340000Y-93610000D02*
X111750000Y-93610000D01*
X111340000Y-94330000D02*
X111750000Y-94330000D01*
X112800000Y-85020000D02*
X113910000Y-85020000D01*
X113910000Y-85020000D02*
X113910000Y-86350000D01*
%TD*%
%LPC*%
D14*
%TO.C,C1*%
X112950000Y-103700000D03*
X111050000Y-103700000D03*
%TD*%
D15*
%TO.C,H2*%
X126100000Y-102500000D03*
%TD*%
D16*
%TO.C,C2*%
X120000000Y-90020000D03*
X120000000Y-90980000D03*
%TD*%
D15*
%TO.C,H3*%
X104600000Y-102500000D03*
%TD*%
%TO.C,H4*%
X104600000Y-82000000D03*
%TD*%
D17*
%TO.C,R2*%
X115900000Y-87625000D03*
X115900000Y-85975000D03*
%TD*%
D18*
%TO.C,C4*%
X113230000Y-97300000D03*
X112270000Y-97300000D03*
%TD*%
D19*
%TO.C,SW1*%
X125500000Y-94750000D03*
X125500000Y-91750000D03*
D20*
X123750000Y-95500000D03*
X123750000Y-92500000D03*
X123750000Y-91000000D03*
D21*
X124400000Y-96900000D03*
X124400000Y-89600000D03*
X126600000Y-96900000D03*
X126600000Y-89600000D03*
%TD*%
D22*
%TO.C,C3*%
X117540000Y-94400000D03*
X118500000Y-94400000D03*
%TD*%
D18*
%TO.C,C5*%
X116520000Y-94400000D03*
X115560000Y-94400000D03*
%TD*%
D17*
%TO.C,R1*%
X117500000Y-87625000D03*
X117500000Y-85975000D03*
%TD*%
D23*
%TO.C,U2*%
X119800000Y-97350000D03*
X117500000Y-97350000D03*
D24*
X117500000Y-103650000D03*
D23*
X115200000Y-97350000D03*
%TD*%
D15*
%TO.C,H1*%
X126100000Y-82000000D03*
%TD*%
D25*
%TO.C,U1*%
X115750000Y-90000000D03*
X115750000Y-90400000D03*
X115750000Y-90800000D03*
X115750000Y-91200000D03*
X115750000Y-91600000D03*
X115750000Y-92000000D03*
D26*
X116250000Y-92500000D03*
X116650000Y-92500000D03*
X117050000Y-92500000D03*
X117450000Y-92500000D03*
X117850000Y-92500000D03*
X118250000Y-92500000D03*
D25*
X118750000Y-92000000D03*
X118750000Y-91600000D03*
X118750000Y-91200000D03*
X118750000Y-90800000D03*
X118750000Y-90400000D03*
X118750000Y-90000000D03*
D26*
X118250000Y-89500000D03*
X117850000Y-89500000D03*
X117450000Y-89500000D03*
X117050000Y-89500000D03*
X116650000Y-89500000D03*
X116250000Y-89500000D03*
%TD*%
D27*
%TO.C,J1*%
X112800000Y-86350000D03*
D28*
X112800000Y-88890000D03*
X112800000Y-91430000D03*
X112800000Y-93970000D03*
%TD*%
%LPD*%
M02*
