%TF.GenerationSoftware,KiCad,Pcbnew,8.0.5*%
%TF.CreationDate,2024-10-09T18:33:24-04:00*%
%TF.ProjectId,PostureBestICM20948,506f7374-7572-4654-9265-737449434d32,rev?*%
%TF.SameCoordinates,Original*%
%TF.FileFunction,Copper,L1,Top*%
%TF.FilePolarity,Positive*%
%FSLAX46Y46*%
G04 Gerber Fmt 4.6, Leading zero omitted, Abs format (unit mm)*
G04 Created by KiCad (PCBNEW 8.0.5) date 2024-10-09 18:33:24*
%MOMM*%
%LPD*%
G01*
G04 APERTURE LIST*
G04 Aperture macros list*
%AMRoundRect*
0 Rectangle with rounded corners*
0 $1 Rounding radius*
0 $2 $3 $4 $5 $6 $7 $8 $9 X,Y pos of 4 corners*
0 Add a 4 corners polygon primitive as box body*
4,1,4,$2,$3,$4,$5,$6,$7,$8,$9,$2,$3,0*
0 Add four circle primitives for the rounded corners*
1,1,$1+$1,$2,$3*
1,1,$1+$1,$4,$5*
1,1,$1+$1,$6,$7*
1,1,$1+$1,$8,$9*
0 Add four rect primitives between the rounded corners*
20,1,$1+$1,$2,$3,$4,$5,0*
20,1,$1+$1,$4,$5,$6,$7,0*
20,1,$1+$1,$6,$7,$8,$9,0*
20,1,$1+$1,$8,$9,$2,$3,0*%
G04 Aperture macros list end*
%TA.AperFunction,SMDPad,CuDef*%
%ADD10RoundRect,0.250000X0.250000X0.475000X-0.250000X0.475000X-0.250000X-0.475000X0.250000X-0.475000X0*%
%TD*%
%TA.AperFunction,SMDPad,CuDef*%
%ADD11RoundRect,0.140000X-0.170000X0.140000X-0.170000X-0.140000X0.170000X-0.140000X0.170000X0.140000X0*%
%TD*%
%TA.AperFunction,SMDPad,CuDef*%
%ADD12RoundRect,0.200000X0.275000X-0.200000X0.275000X0.200000X-0.275000X0.200000X-0.275000X-0.200000X0*%
%TD*%
%TA.AperFunction,SMDPad,CuDef*%
%ADD13RoundRect,0.140000X0.140000X0.170000X-0.140000X0.170000X-0.140000X-0.170000X0.140000X-0.170000X0*%
%TD*%
%TA.AperFunction,SMDPad,CuDef*%
%ADD14R,1.500000X0.700000*%
%TD*%
%TA.AperFunction,SMDPad,CuDef*%
%ADD15R,0.800000X1.000000*%
%TD*%
%TA.AperFunction,SMDPad,CuDef*%
%ADD16RoundRect,0.140000X-0.140000X-0.170000X0.140000X-0.170000X0.140000X0.170000X-0.140000X0.170000X0*%
%TD*%
%TA.AperFunction,SMDPad,CuDef*%
%ADD17RoundRect,0.375000X-0.375000X0.625000X-0.375000X-0.625000X0.375000X-0.625000X0.375000X0.625000X0*%
%TD*%
%TA.AperFunction,SMDPad,CuDef*%
%ADD18RoundRect,0.500000X-1.400000X0.500000X-1.400000X-0.500000X1.400000X-0.500000X1.400000X0.500000X0*%
%TD*%
%TA.AperFunction,SMDPad,CuDef*%
%ADD19RoundRect,0.050000X-0.225000X-0.050000X0.225000X-0.050000X0.225000X0.050000X-0.225000X0.050000X0*%
%TD*%
%TA.AperFunction,SMDPad,CuDef*%
%ADD20RoundRect,0.050000X0.050000X-0.225000X0.050000X0.225000X-0.050000X0.225000X-0.050000X-0.225000X0*%
%TD*%
%TA.AperFunction,ComponentPad*%
%ADD21R,1.700000X1.700000*%
%TD*%
%TA.AperFunction,ComponentPad*%
%ADD22O,1.700000X1.700000*%
%TD*%
%TA.AperFunction,ViaPad*%
%ADD23C,0.700000*%
%TD*%
%TA.AperFunction,Conductor*%
%ADD24C,0.500000*%
%TD*%
%TA.AperFunction,Conductor*%
%ADD25C,0.200000*%
%TD*%
G04 APERTURE END LIST*
D10*
%TO.P,C1,1*%
%TO.N,+1V8*%
X112950000Y-103700000D03*
%TO.P,C1,2*%
%TO.N,GND*%
X111050000Y-103700000D03*
%TD*%
D11*
%TO.P,C2,1*%
%TO.N,GND*%
X120000000Y-90020000D03*
%TO.P,C2,2*%
%TO.N,+3.3V*%
X120000000Y-90980000D03*
%TD*%
D12*
%TO.P,R2,1*%
%TO.N,Net-(J1-Pin_2)*%
X115900000Y-87625000D03*
%TO.P,R2,2*%
%TO.N,+3.3V*%
X115900000Y-85975000D03*
%TD*%
D13*
%TO.P,C4,1*%
%TO.N,+3.3V*%
X113230000Y-97300000D03*
%TO.P,C4,2*%
%TO.N,GND*%
X112270000Y-97300000D03*
%TD*%
D14*
%TO.P,SW1,1,A*%
%TO.N,+3.3V*%
X123750000Y-95500000D03*
%TO.P,SW1,2,B*%
%TO.N,INT1_OUT*%
X123750000Y-92500000D03*
%TO.P,SW1,3,C*%
%TO.N,GND*%
X123750000Y-91000000D03*
D15*
%TO.P,SW1,SH1*%
%TO.N,N/C*%
X124400000Y-96900000D03*
%TO.P,SW1,SH2*%
X124400000Y-89600000D03*
%TO.P,SW1,SH3*%
X126600000Y-96900000D03*
%TO.P,SW1,SH4*%
X126600000Y-89600000D03*
%TD*%
D16*
%TO.P,C3,1*%
%TO.N,GND*%
X117540000Y-94400000D03*
%TO.P,C3,2*%
%TO.N,Net-(U1-REGOUT)*%
X118500000Y-94400000D03*
%TD*%
D13*
%TO.P,C5,1*%
%TO.N,GND*%
X116520000Y-94400000D03*
%TO.P,C5,2*%
%TO.N,+1V8*%
X115560000Y-94400000D03*
%TD*%
D12*
%TO.P,R1,1*%
%TO.N,Net-(J1-Pin_3)*%
X117500000Y-87625000D03*
%TO.P,R1,2*%
%TO.N,+3.3V*%
X117500000Y-85975000D03*
%TD*%
D17*
%TO.P,U2,1,GND*%
%TO.N,GND*%
X119800000Y-97350000D03*
%TO.P,U2,2,VO*%
%TO.N,+1V8*%
X117500000Y-97350000D03*
D18*
X117500000Y-103650000D03*
D17*
%TO.P,U2,3,VI*%
%TO.N,+3.3V*%
X115200000Y-97350000D03*
%TD*%
D19*
%TO.P,U1,1,NC*%
%TO.N,unconnected-(U1-NC-Pad1)*%
X115750000Y-90000000D03*
%TO.P,U1,2,NC*%
%TO.N,unconnected-(U1-NC-Pad2)*%
X115750000Y-90400000D03*
%TO.P,U1,3,NC*%
%TO.N,unconnected-(U1-NC-Pad3)*%
X115750000Y-90800000D03*
%TO.P,U1,4,NC*%
%TO.N,unconnected-(U1-NC-Pad4)*%
X115750000Y-91200000D03*
%TO.P,U1,5,NC*%
%TO.N,unconnected-(U1-NC-Pad5)*%
X115750000Y-91600000D03*
%TO.P,U1,6,NC*%
%TO.N,unconnected-(U1-NC-Pad6)*%
X115750000Y-92000000D03*
D20*
%TO.P,U1,7,AUX_CL*%
%TO.N,unconnected-(U1-AUX_CL-Pad7)*%
X116250000Y-92500000D03*
%TO.P,U1,8,VDDIO*%
%TO.N,+1V8*%
X116650000Y-92500000D03*
%TO.P,U1,9,SDO/AD0*%
%TO.N,GND*%
X117050000Y-92500000D03*
%TO.P,U1,10,REGOUT*%
%TO.N,Net-(U1-REGOUT)*%
X117450000Y-92500000D03*
%TO.P,U1,11,FSYNC*%
%TO.N,unconnected-(U1-FSYNC-Pad11)*%
X117850000Y-92500000D03*
%TO.P,U1,12,INT1*%
%TO.N,INT1_OUT*%
X118250000Y-92500000D03*
D19*
%TO.P,U1,13,VDD*%
%TO.N,+3.3V*%
X118750000Y-92000000D03*
%TO.P,U1,14,NC*%
%TO.N,unconnected-(U1-NC-Pad14)*%
X118750000Y-91600000D03*
%TO.P,U1,15,NC*%
%TO.N,unconnected-(U1-NC-Pad15)*%
X118750000Y-91200000D03*
%TO.P,U1,16,NC*%
%TO.N,unconnected-(U1-NC-Pad16)*%
X118750000Y-90800000D03*
%TO.P,U1,17,NC*%
%TO.N,unconnected-(U1-NC-Pad17)*%
X118750000Y-90400000D03*
%TO.P,U1,18,GND*%
%TO.N,GND*%
X118750000Y-90000000D03*
D20*
%TO.P,U1,19,RESV*%
%TO.N,unconnected-(U1-RESV-Pad19)*%
X118250000Y-89500000D03*
%TO.P,U1,20,GND*%
%TO.N,GND*%
X117850000Y-89500000D03*
%TO.P,U1,21,AUX_DA*%
%TO.N,unconnected-(U1-AUX_DA-Pad21)*%
X117450000Y-89500000D03*
%TO.P,U1,22,~{CS}*%
%TO.N,+3.3V*%
X117050000Y-89500000D03*
%TO.P,U1,23,SCL/SCLK*%
%TO.N,Net-(J1-Pin_3)*%
X116650000Y-89500000D03*
%TO.P,U1,24,SDA/SDI*%
%TO.N,Net-(J1-Pin_2)*%
X116250000Y-89500000D03*
%TD*%
D21*
%TO.P,J1,1,Pin_1*%
%TO.N,+3.3V*%
X112800000Y-86350000D03*
D22*
%TO.P,J1,2,Pin_2*%
%TO.N,Net-(J1-Pin_2)*%
X112800000Y-88890000D03*
%TO.P,J1,3,Pin_3*%
%TO.N,Net-(J1-Pin_3)*%
X112800000Y-91430000D03*
%TO.P,J1,4,Pin_4*%
%TO.N,GND*%
X112800000Y-93970000D03*
%TD*%
D23*
%TO.N,GND*%
X120000000Y-89200000D03*
X117030000Y-93849240D03*
X121700000Y-97300000D03*
X112800000Y-96200000D03*
X109450000Y-103700000D03*
X122300000Y-91000000D03*
X111200000Y-97300000D03*
%TD*%
D24*
%TO.N,+1V8*%
X112950000Y-103700000D02*
X117450000Y-103700000D01*
X117450000Y-103700000D02*
X117500000Y-103650000D01*
%TO.N,GND*%
X109450000Y-103700000D02*
X111050000Y-103700000D01*
D25*
%TO.N,+1V8*%
X115560000Y-94400000D02*
X116650000Y-93310000D01*
X115560000Y-95410000D02*
X117500000Y-97350000D01*
X115560000Y-94400000D02*
X115560000Y-95410000D01*
X116650000Y-93310000D02*
X116650000Y-92500000D01*
D24*
X117500000Y-103650000D02*
X117500000Y-97350000D01*
D25*
%TO.N,GND*%
X118750000Y-90000000D02*
X119980000Y-90000000D01*
D24*
X116520000Y-94400000D02*
X116520000Y-94359240D01*
X112270000Y-97300000D02*
X111200000Y-97300000D01*
X121650000Y-97350000D02*
X121700000Y-97300000D01*
X123750000Y-91000000D02*
X122300000Y-91000000D01*
X112800000Y-93970000D02*
X112800000Y-96200000D01*
D25*
X117850000Y-89128640D02*
X118078640Y-88900000D01*
D24*
X117540000Y-94400000D02*
X117540000Y-94359240D01*
X119800000Y-97350000D02*
X121650000Y-97350000D01*
D25*
X118078640Y-88900000D02*
X119700000Y-88900000D01*
X119700000Y-88900000D02*
X120000000Y-89200000D01*
X117050000Y-93829240D02*
X117030000Y-93849240D01*
X117850000Y-89500000D02*
X117850000Y-89128640D01*
D24*
X116520000Y-94359240D02*
X117030000Y-93849240D01*
D25*
X117050000Y-92500000D02*
X117050000Y-93829240D01*
X120000000Y-90020000D02*
X120000000Y-89200000D01*
D24*
X117540000Y-94359240D02*
X117030000Y-93849240D01*
D25*
X119980000Y-90000000D02*
X120000000Y-90020000D01*
D24*
%TO.N,+3.3V*%
X121100000Y-91000000D02*
X121100000Y-92850000D01*
X121100000Y-89100000D02*
X121100000Y-91000000D01*
X111168629Y-98400000D02*
X114150000Y-98400000D01*
D25*
X118750000Y-92000000D02*
X119259999Y-92000000D01*
D24*
X120750000Y-91000000D02*
X120730000Y-90980000D01*
D25*
X117725000Y-88325000D02*
X118475000Y-88325000D01*
X120000000Y-91259999D02*
X120000000Y-90980000D01*
D24*
X110400000Y-97631371D02*
X111168629Y-98400000D01*
D25*
X117050000Y-89500000D02*
X117050000Y-89000000D01*
D24*
X120730000Y-90980000D02*
X120000000Y-90980000D01*
X112800000Y-86350000D02*
X110400000Y-88750000D01*
X117975000Y-85975000D02*
X119400000Y-87400000D01*
D25*
X118475000Y-88325000D02*
X119400000Y-87400000D01*
D24*
X119400000Y-87400000D02*
X121100000Y-89100000D01*
X115150000Y-97300000D02*
X115200000Y-97350000D01*
X121100000Y-92850000D02*
X123750000Y-95500000D01*
X115525000Y-86350000D02*
X115900000Y-85975000D01*
D25*
X119259999Y-92000000D02*
X120000000Y-91259999D01*
D24*
X110400000Y-88750000D02*
X110400000Y-97631371D01*
X117500000Y-85975000D02*
X117975000Y-85975000D01*
X121100000Y-91000000D02*
X120750000Y-91000000D01*
X114150000Y-98400000D02*
X115200000Y-97350000D01*
D25*
X117050000Y-89000000D02*
X117725000Y-88325000D01*
D24*
X115900000Y-85975000D02*
X117500000Y-85975000D01*
X112800000Y-86350000D02*
X115525000Y-86350000D01*
X113230000Y-97300000D02*
X115150000Y-97300000D01*
D25*
%TO.N,Net-(U1-REGOUT)*%
X117450000Y-93350000D02*
X117450000Y-92500000D01*
X118500000Y-94400000D02*
X117450000Y-93350000D01*
%TO.N,Net-(J1-Pin_2)*%
X115900000Y-87625000D02*
X115825000Y-87625000D01*
X116250000Y-87975000D02*
X115900000Y-87625000D01*
X115825000Y-87625000D02*
X114560000Y-88890000D01*
X114560000Y-88890000D02*
X112800000Y-88890000D01*
X116250000Y-89500000D02*
X116250000Y-87975000D01*
%TO.N,Net-(J1-Pin_3)*%
X111650000Y-88413654D02*
X111650000Y-90280000D01*
X112538654Y-87525000D02*
X114812352Y-87525000D01*
X115437352Y-86900000D02*
X116775000Y-86900000D01*
X114812352Y-87525000D02*
X115437352Y-86900000D01*
X116650000Y-88750000D02*
X116650000Y-89500000D01*
X117500000Y-87900000D02*
X116650000Y-88750000D01*
X116775000Y-86900000D02*
X117500000Y-87625000D01*
X111650000Y-90280000D02*
X112800000Y-91430000D01*
X112538654Y-87525000D02*
X111650000Y-88413654D01*
X117500000Y-87625000D02*
X117500000Y-87900000D01*
%TO.N,INT1_OUT*%
X123620000Y-92630000D02*
X123750000Y-92500000D01*
X125168629Y-97631371D02*
X125168629Y-96212742D01*
X123450000Y-97700000D02*
X125100000Y-97700000D01*
X126300000Y-94418629D02*
X124381371Y-92500000D01*
X124381371Y-92500000D02*
X123750000Y-92500000D01*
X126300000Y-95081371D02*
X126300000Y-94418629D01*
X118250000Y-92500000D02*
X123450000Y-97700000D01*
X125100000Y-97700000D02*
X125168629Y-97631371D01*
X125168629Y-96212742D02*
X126300000Y-95081371D01*
%TD*%
M02*
