%TF.GenerationSoftware,KiCad,Pcbnew,8.0.5*%
%TF.CreationDate,2024-10-09T15:11:33-04:00*%
%TF.ProjectId,PostureBestICM20948,506f7374-7572-4654-9265-737449434d32,rev?*%
%TF.SameCoordinates,Original*%
%TF.FileFunction,Copper,L2,Bot*%
%TF.FilePolarity,Positive*%
%FSLAX46Y46*%
G04 Gerber Fmt 4.6, Leading zero omitted, Abs format (unit mm)*
G04 Created by KiCad (PCBNEW 8.0.5) date 2024-10-09 15:11:33*
%MOMM*%
%LPD*%
G01*
G04 APERTURE LIST*
%TA.AperFunction,ComponentPad*%
%ADD10R,1.700000X1.700000*%
%TD*%
%TA.AperFunction,ComponentPad*%
%ADD11O,1.700000X1.700000*%
%TD*%
%TA.AperFunction,ViaPad*%
%ADD12C,0.700000*%
%TD*%
G04 APERTURE END LIST*
D10*
%TO.P,J1,1,Pin_1*%
%TO.N,+3.3V*%
X112800000Y-86350000D03*
D11*
%TO.P,J1,2,Pin_2*%
%TO.N,Net-(J1-Pin_2)*%
X112800000Y-88890000D03*
%TO.P,J1,3,Pin_3*%
%TO.N,Net-(J1-Pin_3)*%
X112800000Y-91430000D03*
%TO.P,J1,4,Pin_4*%
%TO.N,GND*%
X112800000Y-93970000D03*
%TD*%
D12*
%TO.N,GND*%
X120000000Y-89200000D03*
X117030000Y-93849240D03*
X121700000Y-97300000D03*
X112800000Y-96200000D03*
X111200000Y-103700000D03*
X122300000Y-91000000D03*
X111200000Y-97300000D03*
%TD*%
%TA.AperFunction,Conductor*%
%TO.N,GND*%
G36*
X126103539Y-79500702D02*
G01*
X126378670Y-79516482D01*
X126392777Y-79518106D01*
X126660779Y-79564627D01*
X126674591Y-79567848D01*
X126935552Y-79644713D01*
X126948891Y-79649488D01*
X127199342Y-79755682D01*
X127212072Y-79761963D01*
X127448714Y-79896079D01*
X127460644Y-79903774D01*
X127520697Y-79947577D01*
X127680419Y-80064078D01*
X127691393Y-80073090D01*
X127891381Y-80257453D01*
X127901254Y-80267660D01*
X128078862Y-80473690D01*
X128087502Y-80484958D01*
X128152170Y-80580122D01*
X128240387Y-80709938D01*
X128247680Y-80722116D01*
X128305209Y-80832004D01*
X128373844Y-80963107D01*
X128379699Y-80976044D01*
X128477482Y-81229877D01*
X128481819Y-81243398D01*
X128549939Y-81506732D01*
X128552703Y-81520661D01*
X128590270Y-81790078D01*
X128591422Y-81804231D01*
X128598027Y-82079712D01*
X128597994Y-82086815D01*
X128595916Y-82149123D01*
X128595917Y-82149128D01*
X128596277Y-82150675D01*
X128599500Y-82178761D01*
X128599500Y-102580592D01*
X128598970Y-102592040D01*
X128573162Y-102870384D01*
X128570949Y-102884873D01*
X128512183Y-103159611D01*
X128508276Y-103173737D01*
X128417502Y-103439625D01*
X128411955Y-103453191D01*
X128290445Y-103706508D01*
X128283336Y-103719326D01*
X128132789Y-103956530D01*
X128124218Y-103968418D01*
X127946729Y-104186210D01*
X127936814Y-104197005D01*
X127734871Y-104392328D01*
X127723753Y-104401877D01*
X127500171Y-104572012D01*
X127488003Y-104580183D01*
X127245909Y-104722747D01*
X127232862Y-104729424D01*
X126975631Y-104842431D01*
X126961887Y-104847523D01*
X126693136Y-104929383D01*
X126678887Y-104932818D01*
X126402339Y-104982399D01*
X126387785Y-104984128D01*
X126131805Y-104999283D01*
X126124477Y-104999500D01*
X104603751Y-104999500D01*
X104596264Y-104999274D01*
X104306205Y-104981728D01*
X104291340Y-104979923D01*
X104009201Y-104928219D01*
X103994663Y-104924635D01*
X103720832Y-104839306D01*
X103706831Y-104833997D01*
X103445263Y-104716275D01*
X103432004Y-104709316D01*
X103218392Y-104580183D01*
X103186537Y-104560926D01*
X103174217Y-104552422D01*
X102948426Y-104375526D01*
X102937218Y-104365596D01*
X102734403Y-104162781D01*
X102724473Y-104151573D01*
X102547573Y-103925776D01*
X102539075Y-103913465D01*
X102390680Y-103667989D01*
X102383727Y-103654743D01*
X102266000Y-103393163D01*
X102260693Y-103379167D01*
X102194514Y-103166792D01*
X102175363Y-103105335D01*
X102171780Y-103090798D01*
X102120076Y-102808659D01*
X102118271Y-102793794D01*
X102110534Y-102665892D01*
X102100726Y-102503736D01*
X102100500Y-102496249D01*
X102100500Y-102393713D01*
X103249500Y-102393713D01*
X103249500Y-102606286D01*
X103281552Y-102808659D01*
X103282754Y-102816243D01*
X103305053Y-102884873D01*
X103348444Y-103018414D01*
X103444951Y-103207820D01*
X103569890Y-103379786D01*
X103720213Y-103530109D01*
X103892179Y-103655048D01*
X103892181Y-103655049D01*
X103892184Y-103655051D01*
X104081588Y-103751557D01*
X104283757Y-103817246D01*
X104493713Y-103850500D01*
X104493714Y-103850500D01*
X104706286Y-103850500D01*
X104706287Y-103850500D01*
X104916243Y-103817246D01*
X105118412Y-103751557D01*
X105307816Y-103655051D01*
X105329789Y-103639086D01*
X105479786Y-103530109D01*
X105479788Y-103530106D01*
X105479792Y-103530104D01*
X105630104Y-103379792D01*
X105630106Y-103379788D01*
X105630109Y-103379786D01*
X105755048Y-103207820D01*
X105755047Y-103207820D01*
X105755051Y-103207816D01*
X105851557Y-103018412D01*
X105917246Y-102816243D01*
X105950500Y-102606287D01*
X105950500Y-102393713D01*
X124749500Y-102393713D01*
X124749500Y-102606286D01*
X124781552Y-102808659D01*
X124782754Y-102816243D01*
X124805053Y-102884873D01*
X124848444Y-103018414D01*
X124944951Y-103207820D01*
X125069890Y-103379786D01*
X125220213Y-103530109D01*
X125392179Y-103655048D01*
X125392181Y-103655049D01*
X125392184Y-103655051D01*
X125581588Y-103751557D01*
X125783757Y-103817246D01*
X125993713Y-103850500D01*
X125993714Y-103850500D01*
X126206286Y-103850500D01*
X126206287Y-103850500D01*
X126416243Y-103817246D01*
X126618412Y-103751557D01*
X126807816Y-103655051D01*
X126829789Y-103639086D01*
X126979786Y-103530109D01*
X126979788Y-103530106D01*
X126979792Y-103530104D01*
X127130104Y-103379792D01*
X127130106Y-103379788D01*
X127130109Y-103379786D01*
X127255048Y-103207820D01*
X127255047Y-103207820D01*
X127255051Y-103207816D01*
X127351557Y-103018412D01*
X127417246Y-102816243D01*
X127450500Y-102606287D01*
X127450500Y-102393713D01*
X127417246Y-102183757D01*
X127351557Y-101981588D01*
X127255051Y-101792184D01*
X127255049Y-101792181D01*
X127255048Y-101792179D01*
X127130109Y-101620213D01*
X126979786Y-101469890D01*
X126807820Y-101344951D01*
X126618414Y-101248444D01*
X126618413Y-101248443D01*
X126618412Y-101248443D01*
X126416243Y-101182754D01*
X126416241Y-101182753D01*
X126416240Y-101182753D01*
X126254957Y-101157208D01*
X126206287Y-101149500D01*
X125993713Y-101149500D01*
X125945042Y-101157208D01*
X125783760Y-101182753D01*
X125581585Y-101248444D01*
X125392179Y-101344951D01*
X125220213Y-101469890D01*
X125069890Y-101620213D01*
X124944951Y-101792179D01*
X124848444Y-101981585D01*
X124782753Y-102183760D01*
X124749500Y-102393713D01*
X105950500Y-102393713D01*
X105917246Y-102183757D01*
X105851557Y-101981588D01*
X105755051Y-101792184D01*
X105755049Y-101792181D01*
X105755048Y-101792179D01*
X105630109Y-101620213D01*
X105479786Y-101469890D01*
X105307820Y-101344951D01*
X105118414Y-101248444D01*
X105118413Y-101248443D01*
X105118412Y-101248443D01*
X104916243Y-101182754D01*
X104916241Y-101182753D01*
X104916240Y-101182753D01*
X104754957Y-101157208D01*
X104706287Y-101149500D01*
X104493713Y-101149500D01*
X104445042Y-101157208D01*
X104283760Y-101182753D01*
X104081585Y-101248444D01*
X103892179Y-101344951D01*
X103720213Y-101469890D01*
X103569890Y-101620213D01*
X103444951Y-101792179D01*
X103348444Y-101981585D01*
X103282753Y-102183760D01*
X103249500Y-102393713D01*
X102100500Y-102393713D01*
X102100500Y-93719999D01*
X111469364Y-93719999D01*
X111469364Y-93720000D01*
X112366988Y-93720000D01*
X112334075Y-93777007D01*
X112300000Y-93904174D01*
X112300000Y-94035826D01*
X112334075Y-94162993D01*
X112366988Y-94220000D01*
X111469364Y-94220000D01*
X111526567Y-94433486D01*
X111526570Y-94433492D01*
X111626399Y-94647578D01*
X111761894Y-94841082D01*
X111928917Y-95008105D01*
X112122421Y-95143600D01*
X112336507Y-95243429D01*
X112336516Y-95243433D01*
X112550000Y-95300634D01*
X112550000Y-94403012D01*
X112607007Y-94435925D01*
X112734174Y-94470000D01*
X112865826Y-94470000D01*
X112992993Y-94435925D01*
X113050000Y-94403012D01*
X113050000Y-95300633D01*
X113263483Y-95243433D01*
X113263492Y-95243429D01*
X113477578Y-95143600D01*
X113671082Y-95008105D01*
X113838105Y-94841082D01*
X113853571Y-94818995D01*
X124799499Y-94818995D01*
X124826418Y-94954322D01*
X124826421Y-94954332D01*
X124879221Y-95081804D01*
X124879228Y-95081817D01*
X124955885Y-95196541D01*
X124955888Y-95196545D01*
X125053454Y-95294111D01*
X125053458Y-95294114D01*
X125168182Y-95370771D01*
X125168195Y-95370778D01*
X125295667Y-95423578D01*
X125295672Y-95423580D01*
X125295676Y-95423580D01*
X125295677Y-95423581D01*
X125431004Y-95450500D01*
X125431007Y-95450500D01*
X125568995Y-95450500D01*
X125660041Y-95432389D01*
X125704328Y-95423580D01*
X125831811Y-95370775D01*
X125946542Y-95294114D01*
X126044114Y-95196542D01*
X126120775Y-95081811D01*
X126173580Y-94954328D01*
X126200500Y-94818993D01*
X126200500Y-94681007D01*
X126200500Y-94681004D01*
X126173581Y-94545677D01*
X126173580Y-94545676D01*
X126173580Y-94545672D01*
X126142236Y-94470000D01*
X126120778Y-94418195D01*
X126120771Y-94418182D01*
X126044114Y-94303458D01*
X126044111Y-94303454D01*
X125946545Y-94205888D01*
X125946541Y-94205885D01*
X125831817Y-94129228D01*
X125831804Y-94129221D01*
X125704332Y-94076421D01*
X125704322Y-94076418D01*
X125568995Y-94049500D01*
X125568993Y-94049500D01*
X125431007Y-94049500D01*
X125431005Y-94049500D01*
X125295677Y-94076418D01*
X125295667Y-94076421D01*
X125168195Y-94129221D01*
X125168182Y-94129228D01*
X125053458Y-94205885D01*
X125053454Y-94205888D01*
X124955888Y-94303454D01*
X124955885Y-94303458D01*
X124879228Y-94418182D01*
X124879221Y-94418195D01*
X124826421Y-94545667D01*
X124826418Y-94545677D01*
X124799500Y-94681004D01*
X124799500Y-94681007D01*
X124799500Y-94818993D01*
X124799500Y-94818995D01*
X124799499Y-94818995D01*
X113853571Y-94818995D01*
X113973600Y-94647578D01*
X114073429Y-94433492D01*
X114073432Y-94433486D01*
X114130636Y-94220000D01*
X113233012Y-94220000D01*
X113265925Y-94162993D01*
X113300000Y-94035826D01*
X113300000Y-93904174D01*
X113265925Y-93777007D01*
X113233012Y-93720000D01*
X114130636Y-93720000D01*
X114130635Y-93719999D01*
X114073432Y-93506513D01*
X114073429Y-93506507D01*
X113973600Y-93292422D01*
X113973599Y-93292420D01*
X113838113Y-93098926D01*
X113838108Y-93098920D01*
X113671082Y-92931894D01*
X113477578Y-92796399D01*
X113278426Y-92703533D01*
X113225987Y-92657360D01*
X113206835Y-92590167D01*
X113227051Y-92523286D01*
X113280216Y-92477951D01*
X113286005Y-92475537D01*
X113315019Y-92464298D01*
X113496302Y-92352052D01*
X113653872Y-92208407D01*
X113782366Y-92038255D01*
X113877405Y-91847389D01*
X113885484Y-91818995D01*
X124799499Y-91818995D01*
X124826418Y-91954322D01*
X124826421Y-91954332D01*
X124879221Y-92081804D01*
X124879228Y-92081817D01*
X124955885Y-92196541D01*
X124955888Y-92196545D01*
X125053454Y-92294111D01*
X125053458Y-92294114D01*
X125168182Y-92370771D01*
X125168195Y-92370778D01*
X125295667Y-92423578D01*
X125295672Y-92423580D01*
X125295676Y-92423580D01*
X125295677Y-92423581D01*
X125431004Y-92450500D01*
X125431007Y-92450500D01*
X125568995Y-92450500D01*
X125660041Y-92432389D01*
X125704328Y-92423580D01*
X125831811Y-92370775D01*
X125946542Y-92294114D01*
X126044114Y-92196542D01*
X126120775Y-92081811D01*
X126173580Y-91954328D01*
X126200500Y-91818993D01*
X126200500Y-91681007D01*
X126200500Y-91681004D01*
X126173581Y-91545677D01*
X126173580Y-91545676D01*
X126173580Y-91545672D01*
X126173578Y-91545667D01*
X126120778Y-91418195D01*
X126120771Y-91418182D01*
X126044114Y-91303458D01*
X126044111Y-91303454D01*
X125946545Y-91205888D01*
X125946541Y-91205885D01*
X125831817Y-91129228D01*
X125831804Y-91129221D01*
X125704332Y-91076421D01*
X125704322Y-91076418D01*
X125568995Y-91049500D01*
X125568993Y-91049500D01*
X125431007Y-91049500D01*
X125431005Y-91049500D01*
X125295677Y-91076418D01*
X125295667Y-91076421D01*
X125168195Y-91129221D01*
X125168182Y-91129228D01*
X125053458Y-91205885D01*
X125053454Y-91205888D01*
X124955888Y-91303454D01*
X124955885Y-91303458D01*
X124879228Y-91418182D01*
X124879221Y-91418195D01*
X124826421Y-91545667D01*
X124826418Y-91545677D01*
X124799500Y-91681004D01*
X124799500Y-91681007D01*
X124799500Y-91818993D01*
X124799500Y-91818995D01*
X124799499Y-91818995D01*
X113885484Y-91818995D01*
X113935756Y-91642310D01*
X113955429Y-91430000D01*
X113935756Y-91217690D01*
X113877405Y-91012611D01*
X113877403Y-91012606D01*
X113877403Y-91012605D01*
X113782367Y-90821746D01*
X113653872Y-90651593D01*
X113496302Y-90507948D01*
X113315019Y-90395702D01*
X113315017Y-90395701D01*
X113215608Y-90357190D01*
X113116198Y-90318679D01*
X112919385Y-90281888D01*
X112857106Y-90250221D01*
X112821833Y-90189908D01*
X112824767Y-90120100D01*
X112864976Y-90062960D01*
X112919384Y-90038111D01*
X113116198Y-90001321D01*
X113315019Y-89924298D01*
X113496302Y-89812052D01*
X113653872Y-89668407D01*
X113782366Y-89498255D01*
X113877405Y-89307389D01*
X113935756Y-89102310D01*
X113955429Y-88890000D01*
X113935756Y-88677690D01*
X113877405Y-88472611D01*
X113877403Y-88472606D01*
X113877403Y-88472605D01*
X113782367Y-88281746D01*
X113653872Y-88111593D01*
X113496302Y-87967948D01*
X113315019Y-87855702D01*
X113315017Y-87855701D01*
X113215608Y-87817190D01*
X113116198Y-87778679D01*
X112943456Y-87746387D01*
X112881176Y-87714719D01*
X112845903Y-87654407D01*
X112848837Y-87584599D01*
X112889046Y-87527459D01*
X112953764Y-87501128D01*
X112966233Y-87500499D01*
X113694864Y-87500499D01*
X113694879Y-87500497D01*
X113694882Y-87500497D01*
X113719987Y-87497586D01*
X113719988Y-87497585D01*
X113719991Y-87497585D01*
X113822765Y-87452206D01*
X113902206Y-87372765D01*
X113947585Y-87269991D01*
X113950500Y-87244865D01*
X113950499Y-85455136D01*
X113950497Y-85455117D01*
X113947586Y-85430012D01*
X113947585Y-85430010D01*
X113947585Y-85430009D01*
X113902206Y-85327235D01*
X113822765Y-85247794D01*
X113822763Y-85247793D01*
X113719992Y-85202415D01*
X113694865Y-85199500D01*
X111905143Y-85199500D01*
X111905117Y-85199502D01*
X111880012Y-85202413D01*
X111880008Y-85202415D01*
X111777235Y-85247793D01*
X111697794Y-85327234D01*
X111652415Y-85430006D01*
X111652415Y-85430008D01*
X111649500Y-85455131D01*
X111649500Y-87244856D01*
X111649502Y-87244882D01*
X111652413Y-87269987D01*
X111652415Y-87269991D01*
X111697793Y-87372764D01*
X111697794Y-87372765D01*
X111777235Y-87452206D01*
X111880009Y-87497585D01*
X111905135Y-87500500D01*
X112633758Y-87500499D01*
X112700795Y-87520183D01*
X112746550Y-87572987D01*
X112756494Y-87642146D01*
X112727469Y-87705702D01*
X112668691Y-87743476D01*
X112656542Y-87746388D01*
X112600116Y-87756935D01*
X112483802Y-87778679D01*
X112483800Y-87778679D01*
X112483798Y-87778680D01*
X112284982Y-87855701D01*
X112284980Y-87855702D01*
X112103699Y-87967947D01*
X111946127Y-88111593D01*
X111817632Y-88281746D01*
X111722596Y-88472605D01*
X111722596Y-88472607D01*
X111664244Y-88677689D01*
X111644571Y-88889999D01*
X111644571Y-88890000D01*
X111664244Y-89102310D01*
X111722596Y-89307392D01*
X111722596Y-89307394D01*
X111817632Y-89498253D01*
X111817634Y-89498255D01*
X111946128Y-89668407D01*
X112103698Y-89812052D01*
X112284981Y-89924298D01*
X112483802Y-90001321D01*
X112680613Y-90038111D01*
X112742893Y-90069779D01*
X112778166Y-90130092D01*
X112775232Y-90199900D01*
X112735023Y-90257040D01*
X112680613Y-90281888D01*
X112483802Y-90318679D01*
X112483799Y-90318679D01*
X112483799Y-90318680D01*
X112284982Y-90395701D01*
X112284980Y-90395702D01*
X112103699Y-90507947D01*
X111946127Y-90651593D01*
X111817632Y-90821746D01*
X111722596Y-91012605D01*
X111722596Y-91012607D01*
X111664244Y-91217689D01*
X111644571Y-91429999D01*
X111644571Y-91430000D01*
X111664244Y-91642310D01*
X111722596Y-91847392D01*
X111722596Y-91847394D01*
X111817632Y-92038253D01*
X111937167Y-92196541D01*
X111946128Y-92208407D01*
X112103698Y-92352052D01*
X112284981Y-92464298D01*
X112313961Y-92475525D01*
X112369362Y-92518095D01*
X112392954Y-92583861D01*
X112377244Y-92651942D01*
X112327222Y-92700722D01*
X112321573Y-92703533D01*
X112122422Y-92796399D01*
X112122420Y-92796400D01*
X111928926Y-92931886D01*
X111928920Y-92931891D01*
X111761891Y-93098920D01*
X111761886Y-93098926D01*
X111626400Y-93292420D01*
X111626399Y-93292422D01*
X111526570Y-93506507D01*
X111526567Y-93506513D01*
X111469364Y-93719999D01*
X102100500Y-93719999D01*
X102100500Y-82003750D01*
X102100726Y-81996263D01*
X102106929Y-81893713D01*
X103249500Y-81893713D01*
X103249500Y-82106286D01*
X103282753Y-82316239D01*
X103348444Y-82518414D01*
X103444951Y-82707820D01*
X103569890Y-82879786D01*
X103720213Y-83030109D01*
X103892179Y-83155048D01*
X103892181Y-83155049D01*
X103892184Y-83155051D01*
X104081588Y-83251557D01*
X104283757Y-83317246D01*
X104493713Y-83350500D01*
X104493714Y-83350500D01*
X104706286Y-83350500D01*
X104706287Y-83350500D01*
X104916243Y-83317246D01*
X105118412Y-83251557D01*
X105307816Y-83155051D01*
X105329789Y-83139086D01*
X105479786Y-83030109D01*
X105479788Y-83030106D01*
X105479792Y-83030104D01*
X105630104Y-82879792D01*
X105630106Y-82879788D01*
X105630109Y-82879786D01*
X105755048Y-82707820D01*
X105755047Y-82707820D01*
X105755051Y-82707816D01*
X105851557Y-82518412D01*
X105917246Y-82316243D01*
X105950500Y-82106287D01*
X105950500Y-81893713D01*
X124749500Y-81893713D01*
X124749500Y-82106286D01*
X124782753Y-82316239D01*
X124848444Y-82518414D01*
X124944951Y-82707820D01*
X125069890Y-82879786D01*
X125220213Y-83030109D01*
X125392179Y-83155048D01*
X125392181Y-83155049D01*
X125392184Y-83155051D01*
X125581588Y-83251557D01*
X125783757Y-83317246D01*
X125993713Y-83350500D01*
X125993714Y-83350500D01*
X126206286Y-83350500D01*
X126206287Y-83350500D01*
X126416243Y-83317246D01*
X126618412Y-83251557D01*
X126807816Y-83155051D01*
X126829789Y-83139086D01*
X126979786Y-83030109D01*
X126979788Y-83030106D01*
X126979792Y-83030104D01*
X127130104Y-82879792D01*
X127130106Y-82879788D01*
X127130109Y-82879786D01*
X127255048Y-82707820D01*
X127255047Y-82707820D01*
X127255051Y-82707816D01*
X127351557Y-82518412D01*
X127417246Y-82316243D01*
X127450500Y-82106287D01*
X127450500Y-81893713D01*
X127417246Y-81683757D01*
X127351557Y-81481588D01*
X127255051Y-81292184D01*
X127255049Y-81292181D01*
X127255048Y-81292179D01*
X127130109Y-81120213D01*
X126979786Y-80969890D01*
X126807820Y-80844951D01*
X126618414Y-80748444D01*
X126618413Y-80748443D01*
X126618412Y-80748443D01*
X126416243Y-80682754D01*
X126416241Y-80682753D01*
X126416240Y-80682753D01*
X126254957Y-80657208D01*
X126206287Y-80649500D01*
X125993713Y-80649500D01*
X125945042Y-80657208D01*
X125783760Y-80682753D01*
X125581585Y-80748444D01*
X125392179Y-80844951D01*
X125220213Y-80969890D01*
X125069890Y-81120213D01*
X124944951Y-81292179D01*
X124848444Y-81481585D01*
X124782753Y-81683760D01*
X124749500Y-81893713D01*
X105950500Y-81893713D01*
X105917246Y-81683757D01*
X105851557Y-81481588D01*
X105755051Y-81292184D01*
X105755049Y-81292181D01*
X105755048Y-81292179D01*
X105630109Y-81120213D01*
X105479786Y-80969890D01*
X105307820Y-80844951D01*
X105118414Y-80748444D01*
X105118413Y-80748443D01*
X105118412Y-80748443D01*
X104916243Y-80682754D01*
X104916241Y-80682753D01*
X104916240Y-80682753D01*
X104754957Y-80657208D01*
X104706287Y-80649500D01*
X104493713Y-80649500D01*
X104445042Y-80657208D01*
X104283760Y-80682753D01*
X104081585Y-80748444D01*
X103892179Y-80844951D01*
X103720213Y-80969890D01*
X103569890Y-81120213D01*
X103444951Y-81292179D01*
X103348444Y-81481585D01*
X103282753Y-81683760D01*
X103249500Y-81893713D01*
X102106929Y-81893713D01*
X102118271Y-81706205D01*
X102120076Y-81691340D01*
X102171780Y-81409201D01*
X102175364Y-81394663D01*
X102207298Y-81292184D01*
X102260696Y-81120822D01*
X102265998Y-81106841D01*
X102383731Y-80845249D01*
X102390676Y-80832016D01*
X102539080Y-80586526D01*
X102547567Y-80574230D01*
X102724480Y-80348417D01*
X102734395Y-80337226D01*
X102937226Y-80134395D01*
X102948417Y-80124480D01*
X103174230Y-79947567D01*
X103186526Y-79939080D01*
X103432016Y-79790676D01*
X103445249Y-79783731D01*
X103706841Y-79665998D01*
X103720822Y-79660696D01*
X103994668Y-79575362D01*
X104009197Y-79571780D01*
X104291344Y-79520075D01*
X104306201Y-79518271D01*
X104596264Y-79500726D01*
X104603751Y-79500500D01*
X104665892Y-79500500D01*
X126034108Y-79500500D01*
X126096440Y-79500500D01*
X126103539Y-79500702D01*
G37*
%TD.AperFunction*%
%TD*%
M02*
