%TF.GenerationSoftware,KiCad,Pcbnew,8.0.5*%
%TF.CreationDate,2024-09-24T02:20:12-04:00*%
%TF.ProjectId,ble_mcu_test_board,626c655f-6d63-4755-9f74-6573745f626f,rev?*%
%TF.SameCoordinates,Original*%
%TF.FileFunction,Copper,L2,Bot*%
%TF.FilePolarity,Positive*%
%FSLAX46Y46*%
G04 Gerber Fmt 4.6, Leading zero omitted, Abs format (unit mm)*
G04 Created by KiCad (PCBNEW 8.0.5) date 2024-09-24 02:20:12*
%MOMM*%
%LPD*%
G01*
G04 APERTURE LIST*
%TA.AperFunction,ComponentPad*%
%ADD10R,1.700000X1.700000*%
%TD*%
%TA.AperFunction,ComponentPad*%
%ADD11O,1.700000X1.700000*%
%TD*%
%TA.AperFunction,ComponentPad*%
%ADD12O,1.700000X1.000000*%
%TD*%
%TA.AperFunction,ViaPad*%
%ADD13C,0.600000*%
%TD*%
%TA.AperFunction,ViaPad*%
%ADD14C,0.500000*%
%TD*%
%TA.AperFunction,Conductor*%
%ADD15C,0.500000*%
%TD*%
%TA.AperFunction,Conductor*%
%ADD16C,0.300000*%
%TD*%
G04 APERTURE END LIST*
D10*
%TO.P,J2,1,Pin_1*%
%TO.N,+3.3V*%
X142350000Y-89900000D03*
D11*
%TO.P,J2,2,Pin_2*%
%TO.N,Net-(J2-Pin_2)*%
X139810000Y-89900000D03*
%TO.P,J2,3,Pin_3*%
%TO.N,Net-(J2-Pin_3)*%
X137270000Y-89900000D03*
%TO.P,J2,4,Pin_4*%
%TO.N,GND*%
X134730000Y-89900000D03*
%TD*%
D10*
%TO.P,J1,1,Pin_1*%
%TO.N,+3.3V*%
X124960000Y-99210000D03*
D11*
%TO.P,J1,2,Pin_2*%
X124960000Y-101750000D03*
%TO.P,J1,3,Pin_3*%
%TO.N,Net-(J1-Pin_3)*%
X127500000Y-99210000D03*
%TO.P,J1,4,Pin_4*%
%TO.N,Net-(J1-Pin_4)*%
X127500000Y-101750000D03*
%TO.P,J1,5,Pin_5*%
%TO.N,Net-(J1-Pin_5)*%
X130040000Y-99210000D03*
%TO.P,J1,6,Pin_6*%
%TO.N,Net-(J1-Pin_6)*%
X130040000Y-101750000D03*
%TO.P,J1,7,Pin_7*%
%TO.N,GND*%
X132580000Y-99210000D03*
%TO.P,J1,8,Pin_8*%
X132580000Y-101750000D03*
%TO.P,J1,9,Pin_9*%
%TO.N,+3.3V*%
X135120000Y-99210000D03*
%TO.P,J1,10,Pin_10*%
X135120000Y-101750000D03*
%TO.P,J1,11,Pin_11*%
%TO.N,Net-(J1-Pin_11)*%
X137660000Y-99210000D03*
%TO.P,J1,12,Pin_12*%
%TO.N,Net-(J1-Pin_12)*%
X137660000Y-101750000D03*
%TO.P,J1,13,Pin_13*%
%TO.N,Net-(J1-Pin_13)*%
X140200000Y-99210000D03*
%TO.P,J1,14,Pin_14*%
%TO.N,Net-(J1-Pin_14)*%
X140200000Y-101750000D03*
%TO.P,J1,15,Pin_15*%
%TO.N,GND*%
X142740000Y-99210000D03*
%TO.P,J1,16,Pin_16*%
X142740000Y-101750000D03*
%TO.P,J1,17,Pin_17*%
%TO.N,+3.3V*%
X145280000Y-99210000D03*
%TO.P,J1,18,Pin_18*%
X145280000Y-101750000D03*
%TO.P,J1,19,Pin_19*%
%TO.N,Net-(J1-Pin_19)*%
X147820000Y-99210000D03*
%TO.P,J1,20,Pin_20*%
%TO.N,Net-(J1-Pin_20)*%
X147820000Y-101750000D03*
%TO.P,J1,21,Pin_21*%
%TO.N,Net-(J1-Pin_21)*%
X150360000Y-99210000D03*
%TO.P,J1,22,Pin_22*%
%TO.N,Net-(J1-Pin_22)*%
X150360000Y-101750000D03*
%TO.P,J1,23,Pin_23*%
%TO.N,GND*%
X152900000Y-99210000D03*
%TO.P,J1,24,Pin_24*%
X152900000Y-101750000D03*
%TO.P,J1,25,Pin_25*%
%TO.N,+3.3V*%
X155440000Y-99210000D03*
%TO.P,J1,26,Pin_26*%
X155440000Y-101750000D03*
%TO.P,J1,27,Pin_27*%
%TO.N,Net-(J1-Pin_27)*%
X157980000Y-99210000D03*
%TO.P,J1,28,Pin_28*%
%TO.N,Net-(J1-Pin_28)*%
X157980000Y-101750000D03*
%TO.P,J1,29,Pin_29*%
%TO.N,Net-(J1-Pin_29)*%
X160520000Y-99210000D03*
%TO.P,J1,30,Pin_30*%
%TO.N,Net-(J1-Pin_30)*%
X160520000Y-101750000D03*
%TO.P,J1,31,Pin_31*%
%TO.N,GND*%
X163060000Y-99210000D03*
%TO.P,J1,32,Pin_32*%
X163060000Y-101750000D03*
%TD*%
D12*
%TO.P,J3,S1,SHIELD*%
%TO.N,unconnected-(J3-SHIELD-PadS1)_1*%
X119500000Y-81180000D03*
%TO.N,unconnected-(J3-SHIELD-PadS1)_3*%
X115700000Y-81180000D03*
%TO.N,unconnected-(J3-SHIELD-PadS1)*%
X119500000Y-89820000D03*
%TO.N,unconnected-(J3-SHIELD-PadS1)_2*%
X115700000Y-89820000D03*
%TD*%
D13*
%TO.N,GND*%
X153500000Y-93500000D03*
X161200000Y-84700000D03*
X114100000Y-107500000D03*
X118250000Y-82750000D03*
X157600000Y-87500000D03*
X122100000Y-109000000D03*
X149000000Y-80500000D03*
X122000000Y-82250000D03*
D14*
X143352083Y-93952083D03*
X125500000Y-90750000D03*
D13*
X159200000Y-87500000D03*
X156800000Y-88400000D03*
X146000000Y-81500000D03*
X126000000Y-86750000D03*
D14*
X144750000Y-89000000D03*
D13*
X156200000Y-81300000D03*
D14*
X142500000Y-92400000D03*
D13*
X158000000Y-83000000D03*
X116500000Y-92000000D03*
X115700000Y-104600000D03*
X126000000Y-85000000D03*
X114800000Y-107500000D03*
X148000000Y-80500000D03*
X132700000Y-82400000D03*
X152400000Y-93500000D03*
X150500000Y-87000000D03*
D14*
X132900000Y-92300000D03*
D13*
X151250000Y-80500000D03*
X161200000Y-86800000D03*
X118250000Y-88250000D03*
D14*
X132800000Y-94400000D03*
D13*
X158700000Y-93700000D03*
X144800000Y-86600000D03*
X160400000Y-93700000D03*
X152600000Y-82625000D03*
X154000000Y-83400000D03*
X150000000Y-80500000D03*
X150109620Y-93209620D03*
%TO.N,+3.3V*%
X156464753Y-87673630D03*
D14*
X136700000Y-91500000D03*
D13*
X155750000Y-91250000D03*
X157900000Y-84200000D03*
X145542629Y-83750000D03*
D14*
X136700000Y-94700000D03*
D13*
X145592435Y-85050000D03*
%TO.N,Net-(U1-PB9)*%
X127500000Y-93800000D03*
X130700000Y-94500000D03*
%TD*%
D15*
%TO.N,+3.3V*%
X157900000Y-84200000D02*
X157400000Y-84200000D01*
X151550000Y-81750000D02*
X151200000Y-82100000D01*
X145542629Y-83750000D02*
X145542629Y-85000194D01*
D16*
X156464753Y-87673630D02*
X155750000Y-88388383D01*
D15*
X151200000Y-82100000D02*
X147192629Y-82100000D01*
X154950000Y-81750000D02*
X151550000Y-81750000D01*
X136700000Y-94700000D02*
X136700000Y-91500000D01*
D16*
X155750000Y-88388383D02*
X155750000Y-91250000D01*
D15*
X157400000Y-84200000D02*
X154950000Y-81750000D01*
X145542629Y-85000194D02*
X145592435Y-85050000D01*
X147192629Y-82100000D02*
X145542629Y-83750000D01*
D16*
%TO.N,Net-(U1-PB9)*%
X127500000Y-93800000D02*
X130000000Y-93800000D01*
X130000000Y-93800000D02*
X130700000Y-94500000D01*
%TD*%
%TA.AperFunction,Conductor*%
%TO.N,GND*%
G36*
X132830000Y-101316988D02*
G01*
X132772993Y-101284075D01*
X132645826Y-101250000D01*
X132514174Y-101250000D01*
X132387007Y-101284075D01*
X132330000Y-101316988D01*
X132330000Y-99643012D01*
X132387007Y-99675925D01*
X132514174Y-99710000D01*
X132645826Y-99710000D01*
X132772993Y-99675925D01*
X132830000Y-99643012D01*
X132830000Y-101316988D01*
G37*
%TD.AperFunction*%
%TA.AperFunction,Conductor*%
G36*
X142990000Y-101316988D02*
G01*
X142932993Y-101284075D01*
X142805826Y-101250000D01*
X142674174Y-101250000D01*
X142547007Y-101284075D01*
X142490000Y-101316988D01*
X142490000Y-99643012D01*
X142547007Y-99675925D01*
X142674174Y-99710000D01*
X142805826Y-99710000D01*
X142932993Y-99675925D01*
X142990000Y-99643012D01*
X142990000Y-101316988D01*
G37*
%TD.AperFunction*%
%TA.AperFunction,Conductor*%
G36*
X153150000Y-101316988D02*
G01*
X153092993Y-101284075D01*
X152965826Y-101250000D01*
X152834174Y-101250000D01*
X152707007Y-101284075D01*
X152650000Y-101316988D01*
X152650000Y-99643012D01*
X152707007Y-99675925D01*
X152834174Y-99710000D01*
X152965826Y-99710000D01*
X153092993Y-99675925D01*
X153150000Y-99643012D01*
X153150000Y-101316988D01*
G37*
%TD.AperFunction*%
%TA.AperFunction,Conductor*%
G36*
X163310000Y-101316988D02*
G01*
X163252993Y-101284075D01*
X163125826Y-101250000D01*
X162994174Y-101250000D01*
X162867007Y-101284075D01*
X162810000Y-101316988D01*
X162810000Y-99643012D01*
X162867007Y-99675925D01*
X162994174Y-99710000D01*
X163125826Y-99710000D01*
X163252993Y-99675925D01*
X163310000Y-99643012D01*
X163310000Y-101316988D01*
G37*
%TD.AperFunction*%
%TA.AperFunction,Conductor*%
G36*
X165293039Y-79370185D02*
G01*
X165338794Y-79422989D01*
X165350000Y-79474500D01*
X165350000Y-82326000D01*
X165330315Y-82393039D01*
X165277511Y-82438794D01*
X165226000Y-82450000D01*
X163000000Y-82450000D01*
X163000000Y-93350000D01*
X165226000Y-93350000D01*
X165293039Y-93369685D01*
X165338794Y-93422489D01*
X165350000Y-93474000D01*
X165350000Y-111675534D01*
X165330315Y-111742573D01*
X165277511Y-111788328D01*
X165226000Y-111799534D01*
X113815532Y-111799500D01*
X113805800Y-111799117D01*
X113617113Y-111784262D01*
X113597895Y-111781218D01*
X113418595Y-111738167D01*
X113400090Y-111732154D01*
X113229734Y-111661586D01*
X113212398Y-111652752D01*
X113055176Y-111556403D01*
X113039434Y-111544966D01*
X112899220Y-111425208D01*
X112885462Y-111411450D01*
X112765710Y-111271235D01*
X112754277Y-111255498D01*
X112657929Y-111098269D01*
X112649096Y-111080932D01*
X112578535Y-110910579D01*
X112572522Y-110892074D01*
X112565394Y-110862385D01*
X112529475Y-110712768D01*
X112526432Y-110693554D01*
X112511542Y-110504348D01*
X112511160Y-110494620D01*
X112511160Y-110447664D01*
X112511140Y-110447471D01*
X112508034Y-101749999D01*
X123604341Y-101749999D01*
X123604341Y-101750000D01*
X123624936Y-101985403D01*
X123624938Y-101985413D01*
X123686094Y-102213655D01*
X123686096Y-102213659D01*
X123686097Y-102213663D01*
X123765801Y-102384588D01*
X123785965Y-102427830D01*
X123785967Y-102427834D01*
X123894281Y-102582521D01*
X123921505Y-102621401D01*
X124088599Y-102788495D01*
X124185384Y-102856265D01*
X124282165Y-102924032D01*
X124282167Y-102924033D01*
X124282170Y-102924035D01*
X124496337Y-103023903D01*
X124724592Y-103085063D01*
X124912918Y-103101539D01*
X124959999Y-103105659D01*
X124960000Y-103105659D01*
X124960001Y-103105659D01*
X124999234Y-103102226D01*
X125195408Y-103085063D01*
X125423663Y-103023903D01*
X125637830Y-102924035D01*
X125831401Y-102788495D01*
X125998495Y-102621401D01*
X126128425Y-102435842D01*
X126183002Y-102392217D01*
X126252500Y-102385023D01*
X126314855Y-102416546D01*
X126331575Y-102435842D01*
X126461500Y-102621395D01*
X126461505Y-102621401D01*
X126628599Y-102788495D01*
X126725384Y-102856265D01*
X126822165Y-102924032D01*
X126822167Y-102924033D01*
X126822170Y-102924035D01*
X127036337Y-103023903D01*
X127264592Y-103085063D01*
X127452918Y-103101539D01*
X127499999Y-103105659D01*
X127500000Y-103105659D01*
X127500001Y-103105659D01*
X127539234Y-103102226D01*
X127735408Y-103085063D01*
X127963663Y-103023903D01*
X128177830Y-102924035D01*
X128371401Y-102788495D01*
X128538495Y-102621401D01*
X128668425Y-102435842D01*
X128723002Y-102392217D01*
X128792500Y-102385023D01*
X128854855Y-102416546D01*
X128871575Y-102435842D01*
X129001500Y-102621395D01*
X129001505Y-102621401D01*
X129168599Y-102788495D01*
X129265384Y-102856265D01*
X129362165Y-102924032D01*
X129362167Y-102924033D01*
X129362170Y-102924035D01*
X129576337Y-103023903D01*
X129804592Y-103085063D01*
X129992918Y-103101539D01*
X130039999Y-103105659D01*
X130040000Y-103105659D01*
X130040001Y-103105659D01*
X130079234Y-103102226D01*
X130275408Y-103085063D01*
X130503663Y-103023903D01*
X130717830Y-102924035D01*
X130911401Y-102788495D01*
X131078495Y-102621401D01*
X131208730Y-102435405D01*
X131263307Y-102391781D01*
X131332805Y-102384587D01*
X131395160Y-102416110D01*
X131411879Y-102435405D01*
X131541890Y-102621078D01*
X131708917Y-102788105D01*
X131902421Y-102923600D01*
X132116507Y-103023429D01*
X132116516Y-103023433D01*
X132330000Y-103080634D01*
X132330000Y-102183012D01*
X132387007Y-102215925D01*
X132514174Y-102250000D01*
X132645826Y-102250000D01*
X132772993Y-102215925D01*
X132830000Y-102183012D01*
X132830000Y-103080633D01*
X133043483Y-103023433D01*
X133043492Y-103023429D01*
X133257578Y-102923600D01*
X133451082Y-102788105D01*
X133618105Y-102621082D01*
X133748119Y-102435405D01*
X133802696Y-102391781D01*
X133872195Y-102384588D01*
X133934549Y-102416110D01*
X133951269Y-102435405D01*
X134081505Y-102621401D01*
X134248599Y-102788495D01*
X134345384Y-102856265D01*
X134442165Y-102924032D01*
X134442167Y-102924033D01*
X134442170Y-102924035D01*
X134656337Y-103023903D01*
X134884592Y-103085063D01*
X135072918Y-103101539D01*
X135119999Y-103105659D01*
X135120000Y-103105659D01*
X135120001Y-103105659D01*
X135159234Y-103102226D01*
X135355408Y-103085063D01*
X135583663Y-103023903D01*
X135797830Y-102924035D01*
X135991401Y-102788495D01*
X136158495Y-102621401D01*
X136288425Y-102435842D01*
X136343002Y-102392217D01*
X136412500Y-102385023D01*
X136474855Y-102416546D01*
X136491575Y-102435842D01*
X136621500Y-102621395D01*
X136621505Y-102621401D01*
X136788599Y-102788495D01*
X136885384Y-102856265D01*
X136982165Y-102924032D01*
X136982167Y-102924033D01*
X136982170Y-102924035D01*
X137196337Y-103023903D01*
X137424592Y-103085063D01*
X137612918Y-103101539D01*
X137659999Y-103105659D01*
X137660000Y-103105659D01*
X137660001Y-103105659D01*
X137699234Y-103102226D01*
X137895408Y-103085063D01*
X138123663Y-103023903D01*
X138337830Y-102924035D01*
X138531401Y-102788495D01*
X138698495Y-102621401D01*
X138828425Y-102435842D01*
X138883002Y-102392217D01*
X138952500Y-102385023D01*
X139014855Y-102416546D01*
X139031575Y-102435842D01*
X139161500Y-102621395D01*
X139161505Y-102621401D01*
X139328599Y-102788495D01*
X139425384Y-102856265D01*
X139522165Y-102924032D01*
X139522167Y-102924033D01*
X139522170Y-102924035D01*
X139736337Y-103023903D01*
X139964592Y-103085063D01*
X140152918Y-103101539D01*
X140199999Y-103105659D01*
X140200000Y-103105659D01*
X140200001Y-103105659D01*
X140239234Y-103102226D01*
X140435408Y-103085063D01*
X140663663Y-103023903D01*
X140877830Y-102924035D01*
X141071401Y-102788495D01*
X141238495Y-102621401D01*
X141368730Y-102435405D01*
X141423307Y-102391781D01*
X141492805Y-102384587D01*
X141555160Y-102416110D01*
X141571879Y-102435405D01*
X141701890Y-102621078D01*
X141868917Y-102788105D01*
X142062421Y-102923600D01*
X142276507Y-103023429D01*
X142276516Y-103023433D01*
X142490000Y-103080634D01*
X142490000Y-102183012D01*
X142547007Y-102215925D01*
X142674174Y-102250000D01*
X142805826Y-102250000D01*
X142932993Y-102215925D01*
X142990000Y-102183012D01*
X142990000Y-103080634D01*
X143203483Y-103023433D01*
X143203492Y-103023429D01*
X143417578Y-102923600D01*
X143611082Y-102788105D01*
X143778105Y-102621082D01*
X143908119Y-102435405D01*
X143962696Y-102391781D01*
X144032195Y-102384588D01*
X144094549Y-102416110D01*
X144111269Y-102435405D01*
X144241505Y-102621401D01*
X144408599Y-102788495D01*
X144505384Y-102856265D01*
X144602165Y-102924032D01*
X144602167Y-102924033D01*
X144602170Y-102924035D01*
X144816337Y-103023903D01*
X145044592Y-103085063D01*
X145232918Y-103101539D01*
X145279999Y-103105659D01*
X145280000Y-103105659D01*
X145280001Y-103105659D01*
X145319234Y-103102226D01*
X145515408Y-103085063D01*
X145743663Y-103023903D01*
X145957830Y-102924035D01*
X146151401Y-102788495D01*
X146318495Y-102621401D01*
X146448425Y-102435842D01*
X146503002Y-102392217D01*
X146572500Y-102385023D01*
X146634855Y-102416546D01*
X146651575Y-102435842D01*
X146781500Y-102621395D01*
X146781505Y-102621401D01*
X146948599Y-102788495D01*
X147045384Y-102856265D01*
X147142165Y-102924032D01*
X147142167Y-102924033D01*
X147142170Y-102924035D01*
X147356337Y-103023903D01*
X147584592Y-103085063D01*
X147772918Y-103101539D01*
X147819999Y-103105659D01*
X147820000Y-103105659D01*
X147820001Y-103105659D01*
X147859234Y-103102226D01*
X148055408Y-103085063D01*
X148283663Y-103023903D01*
X148497830Y-102924035D01*
X148691401Y-102788495D01*
X148858495Y-102621401D01*
X148988425Y-102435842D01*
X149043002Y-102392217D01*
X149112500Y-102385023D01*
X149174855Y-102416546D01*
X149191575Y-102435842D01*
X149321500Y-102621395D01*
X149321505Y-102621401D01*
X149488599Y-102788495D01*
X149585384Y-102856265D01*
X149682165Y-102924032D01*
X149682167Y-102924033D01*
X149682170Y-102924035D01*
X149896337Y-103023903D01*
X150124592Y-103085063D01*
X150312918Y-103101539D01*
X150359999Y-103105659D01*
X150360000Y-103105659D01*
X150360001Y-103105659D01*
X150399234Y-103102226D01*
X150595408Y-103085063D01*
X150823663Y-103023903D01*
X151037830Y-102924035D01*
X151231401Y-102788495D01*
X151398495Y-102621401D01*
X151528730Y-102435405D01*
X151583307Y-102391781D01*
X151652805Y-102384587D01*
X151715160Y-102416110D01*
X151731879Y-102435405D01*
X151861890Y-102621078D01*
X152028917Y-102788105D01*
X152222421Y-102923600D01*
X152436507Y-103023429D01*
X152436516Y-103023433D01*
X152650000Y-103080634D01*
X152650000Y-102183012D01*
X152707007Y-102215925D01*
X152834174Y-102250000D01*
X152965826Y-102250000D01*
X153092993Y-102215925D01*
X153150000Y-102183012D01*
X153150000Y-103080634D01*
X153363483Y-103023433D01*
X153363492Y-103023429D01*
X153577578Y-102923600D01*
X153771082Y-102788105D01*
X153938105Y-102621082D01*
X154068119Y-102435405D01*
X154122696Y-102391781D01*
X154192195Y-102384588D01*
X154254549Y-102416110D01*
X154271269Y-102435405D01*
X154401505Y-102621401D01*
X154568599Y-102788495D01*
X154665384Y-102856265D01*
X154762165Y-102924032D01*
X154762167Y-102924033D01*
X154762170Y-102924035D01*
X154976337Y-103023903D01*
X155204592Y-103085063D01*
X155392918Y-103101539D01*
X155439999Y-103105659D01*
X155440000Y-103105659D01*
X155440001Y-103105659D01*
X155479234Y-103102226D01*
X155675408Y-103085063D01*
X155903663Y-103023903D01*
X156117830Y-102924035D01*
X156311401Y-102788495D01*
X156478495Y-102621401D01*
X156608425Y-102435842D01*
X156663002Y-102392217D01*
X156732500Y-102385023D01*
X156794855Y-102416546D01*
X156811575Y-102435842D01*
X156941500Y-102621395D01*
X156941505Y-102621401D01*
X157108599Y-102788495D01*
X157205384Y-102856265D01*
X157302165Y-102924032D01*
X157302167Y-102924033D01*
X157302170Y-102924035D01*
X157516337Y-103023903D01*
X157744592Y-103085063D01*
X157932918Y-103101539D01*
X157979999Y-103105659D01*
X157980000Y-103105659D01*
X157980001Y-103105659D01*
X158019234Y-103102226D01*
X158215408Y-103085063D01*
X158443663Y-103023903D01*
X158657830Y-102924035D01*
X158851401Y-102788495D01*
X159018495Y-102621401D01*
X159148425Y-102435842D01*
X159203002Y-102392217D01*
X159272500Y-102385023D01*
X159334855Y-102416546D01*
X159351575Y-102435842D01*
X159481500Y-102621395D01*
X159481505Y-102621401D01*
X159648599Y-102788495D01*
X159745384Y-102856265D01*
X159842165Y-102924032D01*
X159842167Y-102924033D01*
X159842170Y-102924035D01*
X160056337Y-103023903D01*
X160284592Y-103085063D01*
X160472918Y-103101539D01*
X160519999Y-103105659D01*
X160520000Y-103105659D01*
X160520001Y-103105659D01*
X160559234Y-103102226D01*
X160755408Y-103085063D01*
X160983663Y-103023903D01*
X161197830Y-102924035D01*
X161391401Y-102788495D01*
X161558495Y-102621401D01*
X161688730Y-102435405D01*
X161743307Y-102391781D01*
X161812805Y-102384587D01*
X161875160Y-102416110D01*
X161891879Y-102435405D01*
X162021890Y-102621078D01*
X162188917Y-102788105D01*
X162382421Y-102923600D01*
X162596507Y-103023429D01*
X162596516Y-103023433D01*
X162810000Y-103080634D01*
X162810000Y-102183012D01*
X162867007Y-102215925D01*
X162994174Y-102250000D01*
X163125826Y-102250000D01*
X163252993Y-102215925D01*
X163310000Y-102183012D01*
X163310000Y-103080634D01*
X163523483Y-103023433D01*
X163523492Y-103023429D01*
X163737578Y-102923600D01*
X163931082Y-102788105D01*
X164098105Y-102621082D01*
X164233600Y-102427578D01*
X164333429Y-102213492D01*
X164333432Y-102213486D01*
X164390636Y-102000000D01*
X163493012Y-102000000D01*
X163525925Y-101942993D01*
X163560000Y-101815826D01*
X163560000Y-101684174D01*
X163525925Y-101557007D01*
X163493012Y-101500000D01*
X164390636Y-101500000D01*
X164390635Y-101499999D01*
X164333432Y-101286513D01*
X164333429Y-101286507D01*
X164233600Y-101072422D01*
X164233599Y-101072420D01*
X164098113Y-100878926D01*
X164098108Y-100878920D01*
X163931082Y-100711894D01*
X163744968Y-100581575D01*
X163701344Y-100526998D01*
X163694151Y-100457499D01*
X163725673Y-100395145D01*
X163744968Y-100378425D01*
X163931082Y-100248105D01*
X164098105Y-100081082D01*
X164233600Y-99887578D01*
X164333429Y-99673492D01*
X164333432Y-99673486D01*
X164390636Y-99460000D01*
X163493012Y-99460000D01*
X163525925Y-99402993D01*
X163560000Y-99275826D01*
X163560000Y-99144174D01*
X163525925Y-99017007D01*
X163493012Y-98960000D01*
X164390636Y-98960000D01*
X164390635Y-98959999D01*
X164333432Y-98746513D01*
X164333429Y-98746507D01*
X164233600Y-98532422D01*
X164233599Y-98532420D01*
X164098113Y-98338926D01*
X164098108Y-98338920D01*
X163931082Y-98171894D01*
X163737578Y-98036399D01*
X163523492Y-97936570D01*
X163523486Y-97936567D01*
X163310000Y-97879364D01*
X163310000Y-98776988D01*
X163252993Y-98744075D01*
X163125826Y-98710000D01*
X162994174Y-98710000D01*
X162867007Y-98744075D01*
X162810000Y-98776988D01*
X162810000Y-97879364D01*
X162809999Y-97879364D01*
X162596513Y-97936567D01*
X162596507Y-97936570D01*
X162382422Y-98036399D01*
X162382420Y-98036400D01*
X162188926Y-98171886D01*
X162188920Y-98171891D01*
X162021891Y-98338920D01*
X162021890Y-98338922D01*
X161891880Y-98524595D01*
X161837303Y-98568219D01*
X161767804Y-98575412D01*
X161705450Y-98543890D01*
X161688730Y-98524594D01*
X161558494Y-98338597D01*
X161391402Y-98171506D01*
X161391395Y-98171501D01*
X161197834Y-98035967D01*
X161197830Y-98035965D01*
X161186108Y-98030499D01*
X160983663Y-97936097D01*
X160983659Y-97936096D01*
X160983655Y-97936094D01*
X160755413Y-97874938D01*
X160755403Y-97874936D01*
X160520001Y-97854341D01*
X160519999Y-97854341D01*
X160284596Y-97874936D01*
X160284586Y-97874938D01*
X160056344Y-97936094D01*
X160056335Y-97936098D01*
X159842171Y-98035964D01*
X159842169Y-98035965D01*
X159648597Y-98171505D01*
X159481505Y-98338597D01*
X159351575Y-98524158D01*
X159296998Y-98567783D01*
X159227500Y-98574977D01*
X159165145Y-98543454D01*
X159148425Y-98524158D01*
X159018494Y-98338597D01*
X158851402Y-98171506D01*
X158851395Y-98171501D01*
X158657834Y-98035967D01*
X158657830Y-98035965D01*
X158646108Y-98030499D01*
X158443663Y-97936097D01*
X158443659Y-97936096D01*
X158443655Y-97936094D01*
X158215413Y-97874938D01*
X158215403Y-97874936D01*
X157980001Y-97854341D01*
X157979999Y-97854341D01*
X157744596Y-97874936D01*
X157744586Y-97874938D01*
X157516344Y-97936094D01*
X157516335Y-97936098D01*
X157302171Y-98035964D01*
X157302169Y-98035965D01*
X157108597Y-98171505D01*
X156941505Y-98338597D01*
X156811575Y-98524158D01*
X156756998Y-98567783D01*
X156687500Y-98574977D01*
X156625145Y-98543454D01*
X156608425Y-98524158D01*
X156478494Y-98338597D01*
X156311402Y-98171506D01*
X156311395Y-98171501D01*
X156117834Y-98035967D01*
X156117830Y-98035965D01*
X156106108Y-98030499D01*
X155903663Y-97936097D01*
X155903659Y-97936096D01*
X155903655Y-97936094D01*
X155675413Y-97874938D01*
X155675403Y-97874936D01*
X155440001Y-97854341D01*
X155439999Y-97854341D01*
X155204596Y-97874936D01*
X155204586Y-97874938D01*
X154976344Y-97936094D01*
X154976335Y-97936098D01*
X154762171Y-98035964D01*
X154762169Y-98035965D01*
X154568597Y-98171505D01*
X154401508Y-98338594D01*
X154271269Y-98524595D01*
X154216692Y-98568219D01*
X154147193Y-98575412D01*
X154084839Y-98543890D01*
X154068119Y-98524594D01*
X153938113Y-98338926D01*
X153938108Y-98338920D01*
X153771082Y-98171894D01*
X153577578Y-98036399D01*
X153363492Y-97936570D01*
X153363486Y-97936567D01*
X153150000Y-97879364D01*
X153150000Y-98776988D01*
X153092993Y-98744075D01*
X152965826Y-98710000D01*
X152834174Y-98710000D01*
X152707007Y-98744075D01*
X152650000Y-98776988D01*
X152650000Y-97879364D01*
X152649999Y-97879364D01*
X152436513Y-97936567D01*
X152436507Y-97936570D01*
X152222422Y-98036399D01*
X152222420Y-98036400D01*
X152028926Y-98171886D01*
X152028920Y-98171891D01*
X151861891Y-98338920D01*
X151861890Y-98338922D01*
X151731880Y-98524595D01*
X151677303Y-98568219D01*
X151607804Y-98575412D01*
X151545450Y-98543890D01*
X151528730Y-98524594D01*
X151398494Y-98338597D01*
X151231402Y-98171506D01*
X151231395Y-98171501D01*
X151037834Y-98035967D01*
X151037830Y-98035965D01*
X151026108Y-98030499D01*
X150823663Y-97936097D01*
X150823659Y-97936096D01*
X150823655Y-97936094D01*
X150595413Y-97874938D01*
X150595403Y-97874936D01*
X150360001Y-97854341D01*
X150359999Y-97854341D01*
X150124596Y-97874936D01*
X150124586Y-97874938D01*
X149896344Y-97936094D01*
X149896335Y-97936098D01*
X149682171Y-98035964D01*
X149682169Y-98035965D01*
X149488597Y-98171505D01*
X149321505Y-98338597D01*
X149191575Y-98524158D01*
X149136998Y-98567783D01*
X149067500Y-98574977D01*
X149005145Y-98543454D01*
X148988425Y-98524158D01*
X148858494Y-98338597D01*
X148691402Y-98171506D01*
X148691395Y-98171501D01*
X148497834Y-98035967D01*
X148497830Y-98035965D01*
X148486108Y-98030499D01*
X148283663Y-97936097D01*
X148283659Y-97936096D01*
X148283655Y-97936094D01*
X148055413Y-97874938D01*
X148055403Y-97874936D01*
X147820001Y-97854341D01*
X147819999Y-97854341D01*
X147584596Y-97874936D01*
X147584586Y-97874938D01*
X147356344Y-97936094D01*
X147356335Y-97936098D01*
X147142171Y-98035964D01*
X147142169Y-98035965D01*
X146948597Y-98171505D01*
X146781505Y-98338597D01*
X146651575Y-98524158D01*
X146596998Y-98567783D01*
X146527500Y-98574977D01*
X146465145Y-98543454D01*
X146448425Y-98524158D01*
X146318494Y-98338597D01*
X146151402Y-98171506D01*
X146151395Y-98171501D01*
X145957834Y-98035967D01*
X145957830Y-98035965D01*
X145946108Y-98030499D01*
X145743663Y-97936097D01*
X145743659Y-97936096D01*
X145743655Y-97936094D01*
X145515413Y-97874938D01*
X145515403Y-97874936D01*
X145280001Y-97854341D01*
X145279999Y-97854341D01*
X145044596Y-97874936D01*
X145044586Y-97874938D01*
X144816344Y-97936094D01*
X144816335Y-97936098D01*
X144602171Y-98035964D01*
X144602169Y-98035965D01*
X144408597Y-98171505D01*
X144241508Y-98338594D01*
X144111269Y-98524595D01*
X144056692Y-98568219D01*
X143987193Y-98575412D01*
X143924839Y-98543890D01*
X143908119Y-98524594D01*
X143778113Y-98338926D01*
X143778108Y-98338920D01*
X143611082Y-98171894D01*
X143417578Y-98036399D01*
X143203492Y-97936570D01*
X143203486Y-97936567D01*
X142990000Y-97879364D01*
X142990000Y-98776988D01*
X142932993Y-98744075D01*
X142805826Y-98710000D01*
X142674174Y-98710000D01*
X142547007Y-98744075D01*
X142490000Y-98776988D01*
X142490000Y-97879364D01*
X142489999Y-97879364D01*
X142276513Y-97936567D01*
X142276507Y-97936570D01*
X142062422Y-98036399D01*
X142062420Y-98036400D01*
X141868926Y-98171886D01*
X141868920Y-98171891D01*
X141701891Y-98338920D01*
X141701890Y-98338922D01*
X141571880Y-98524595D01*
X141517303Y-98568219D01*
X141447804Y-98575412D01*
X141385450Y-98543890D01*
X141368730Y-98524594D01*
X141238494Y-98338597D01*
X141071402Y-98171506D01*
X141071395Y-98171501D01*
X140877834Y-98035967D01*
X140877830Y-98035965D01*
X140866108Y-98030499D01*
X140663663Y-97936097D01*
X140663659Y-97936096D01*
X140663655Y-97936094D01*
X140435413Y-97874938D01*
X140435403Y-97874936D01*
X140200001Y-97854341D01*
X140199999Y-97854341D01*
X139964596Y-97874936D01*
X139964586Y-97874938D01*
X139736344Y-97936094D01*
X139736335Y-97936098D01*
X139522171Y-98035964D01*
X139522169Y-98035965D01*
X139328597Y-98171505D01*
X139161505Y-98338597D01*
X139031575Y-98524158D01*
X138976998Y-98567783D01*
X138907500Y-98574977D01*
X138845145Y-98543454D01*
X138828425Y-98524158D01*
X138698494Y-98338597D01*
X138531402Y-98171506D01*
X138531395Y-98171501D01*
X138337834Y-98035967D01*
X138337830Y-98035965D01*
X138326108Y-98030499D01*
X138123663Y-97936097D01*
X138123659Y-97936096D01*
X138123655Y-97936094D01*
X137895413Y-97874938D01*
X137895403Y-97874936D01*
X137660001Y-97854341D01*
X137659999Y-97854341D01*
X137424596Y-97874936D01*
X137424586Y-97874938D01*
X137196344Y-97936094D01*
X137196335Y-97936098D01*
X136982171Y-98035964D01*
X136982169Y-98035965D01*
X136788597Y-98171505D01*
X136621505Y-98338597D01*
X136491575Y-98524158D01*
X136436998Y-98567783D01*
X136367500Y-98574977D01*
X136305145Y-98543454D01*
X136288425Y-98524158D01*
X136158494Y-98338597D01*
X135991402Y-98171506D01*
X135991395Y-98171501D01*
X135797834Y-98035967D01*
X135797830Y-98035965D01*
X135786108Y-98030499D01*
X135583663Y-97936097D01*
X135583659Y-97936096D01*
X135583655Y-97936094D01*
X135355413Y-97874938D01*
X135355403Y-97874936D01*
X135120001Y-97854341D01*
X135119999Y-97854341D01*
X134884596Y-97874936D01*
X134884586Y-97874938D01*
X134656344Y-97936094D01*
X134656335Y-97936098D01*
X134442171Y-98035964D01*
X134442169Y-98035965D01*
X134248597Y-98171505D01*
X134081508Y-98338594D01*
X133951269Y-98524595D01*
X133896692Y-98568219D01*
X133827193Y-98575412D01*
X133764839Y-98543890D01*
X133748119Y-98524594D01*
X133618113Y-98338926D01*
X133618108Y-98338920D01*
X133451082Y-98171894D01*
X133257578Y-98036399D01*
X133043492Y-97936570D01*
X133043486Y-97936567D01*
X132830000Y-97879364D01*
X132830000Y-98776988D01*
X132772993Y-98744075D01*
X132645826Y-98710000D01*
X132514174Y-98710000D01*
X132387007Y-98744075D01*
X132330000Y-98776988D01*
X132330000Y-97879364D01*
X132329999Y-97879364D01*
X132116513Y-97936567D01*
X132116507Y-97936570D01*
X131902422Y-98036399D01*
X131902420Y-98036400D01*
X131708926Y-98171886D01*
X131708920Y-98171891D01*
X131541891Y-98338920D01*
X131541890Y-98338922D01*
X131411880Y-98524595D01*
X131357303Y-98568219D01*
X131287804Y-98575412D01*
X131225450Y-98543890D01*
X131208730Y-98524594D01*
X131078494Y-98338597D01*
X130911402Y-98171506D01*
X130911395Y-98171501D01*
X130717834Y-98035967D01*
X130717830Y-98035965D01*
X130706108Y-98030499D01*
X130503663Y-97936097D01*
X130503659Y-97936096D01*
X130503655Y-97936094D01*
X130275413Y-97874938D01*
X130275403Y-97874936D01*
X130040001Y-97854341D01*
X130039999Y-97854341D01*
X129804596Y-97874936D01*
X129804586Y-97874938D01*
X129576344Y-97936094D01*
X129576335Y-97936098D01*
X129362171Y-98035964D01*
X129362169Y-98035965D01*
X129168597Y-98171505D01*
X129001505Y-98338597D01*
X128871575Y-98524158D01*
X128816998Y-98567783D01*
X128747500Y-98574977D01*
X128685145Y-98543454D01*
X128668425Y-98524158D01*
X128538494Y-98338597D01*
X128371402Y-98171506D01*
X128371395Y-98171501D01*
X128177834Y-98035967D01*
X128177830Y-98035965D01*
X128166108Y-98030499D01*
X127963663Y-97936097D01*
X127963659Y-97936096D01*
X127963655Y-97936094D01*
X127735413Y-97874938D01*
X127735403Y-97874936D01*
X127500001Y-97854341D01*
X127499999Y-97854341D01*
X127264596Y-97874936D01*
X127264586Y-97874938D01*
X127036344Y-97936094D01*
X127036335Y-97936098D01*
X126822171Y-98035964D01*
X126822169Y-98035965D01*
X126628600Y-98171503D01*
X126506673Y-98293430D01*
X126445350Y-98326914D01*
X126375658Y-98321930D01*
X126319725Y-98280058D01*
X126302810Y-98249081D01*
X126253797Y-98117671D01*
X126253793Y-98117664D01*
X126167547Y-98002455D01*
X126167544Y-98002452D01*
X126052335Y-97916206D01*
X126052328Y-97916202D01*
X125917482Y-97865908D01*
X125917483Y-97865908D01*
X125857883Y-97859501D01*
X125857881Y-97859500D01*
X125857873Y-97859500D01*
X125857864Y-97859500D01*
X124062129Y-97859500D01*
X124062123Y-97859501D01*
X124002516Y-97865908D01*
X123867671Y-97916202D01*
X123867664Y-97916206D01*
X123752455Y-98002452D01*
X123752452Y-98002455D01*
X123666206Y-98117664D01*
X123666202Y-98117671D01*
X123615908Y-98252517D01*
X123609501Y-98312116D01*
X123609500Y-98312135D01*
X123609500Y-100107870D01*
X123609501Y-100107876D01*
X123615908Y-100167483D01*
X123666202Y-100302328D01*
X123666206Y-100302335D01*
X123752452Y-100417544D01*
X123752455Y-100417547D01*
X123867664Y-100503793D01*
X123867671Y-100503797D01*
X123999081Y-100552810D01*
X124055015Y-100594681D01*
X124079432Y-100660145D01*
X124064580Y-100728418D01*
X124043430Y-100756673D01*
X123921503Y-100878600D01*
X123785965Y-101072169D01*
X123785964Y-101072171D01*
X123686098Y-101286335D01*
X123686094Y-101286344D01*
X123624938Y-101514586D01*
X123624936Y-101514596D01*
X123604341Y-101749999D01*
X112508034Y-101749999D01*
X112506419Y-97228047D01*
X113319500Y-97228047D01*
X113319500Y-97371952D01*
X113347570Y-97513071D01*
X113347573Y-97513081D01*
X113402637Y-97646019D01*
X113402642Y-97646028D01*
X113482582Y-97765666D01*
X113482585Y-97765670D01*
X113584329Y-97867414D01*
X113584333Y-97867417D01*
X113703971Y-97947357D01*
X113703977Y-97947360D01*
X113703978Y-97947361D01*
X113836921Y-98002428D01*
X113978047Y-98030499D01*
X113978051Y-98030500D01*
X113978052Y-98030500D01*
X114121949Y-98030500D01*
X114121950Y-98030499D01*
X114263079Y-98002428D01*
X114396022Y-97947361D01*
X114515667Y-97867417D01*
X114617417Y-97765667D01*
X114697361Y-97646022D01*
X114752428Y-97513079D01*
X114780500Y-97371948D01*
X114780500Y-97228052D01*
X114752428Y-97086921D01*
X114697361Y-96953978D01*
X114697360Y-96953977D01*
X114697357Y-96953971D01*
X114617417Y-96834333D01*
X114617414Y-96834329D01*
X114515670Y-96732585D01*
X114515666Y-96732582D01*
X114396028Y-96652642D01*
X114396019Y-96652637D01*
X114263081Y-96597573D01*
X114263082Y-96597573D01*
X114263079Y-96597572D01*
X114263075Y-96597571D01*
X114263071Y-96597570D01*
X114121952Y-96569500D01*
X114121948Y-96569500D01*
X113978052Y-96569500D01*
X113978047Y-96569500D01*
X113836928Y-96597570D01*
X113836918Y-96597573D01*
X113703980Y-96652637D01*
X113703971Y-96652642D01*
X113584333Y-96732582D01*
X113584329Y-96732585D01*
X113482585Y-96834329D01*
X113482582Y-96834333D01*
X113402642Y-96953971D01*
X113402637Y-96953980D01*
X113347573Y-97086918D01*
X113347570Y-97086928D01*
X113319500Y-97228047D01*
X112506419Y-97228047D01*
X112505348Y-94228047D01*
X113319500Y-94228047D01*
X113319500Y-94371952D01*
X113347570Y-94513071D01*
X113347573Y-94513081D01*
X113402637Y-94646019D01*
X113402642Y-94646028D01*
X113482582Y-94765666D01*
X113482585Y-94765670D01*
X113584329Y-94867414D01*
X113584333Y-94867417D01*
X113703971Y-94947357D01*
X113703977Y-94947360D01*
X113703978Y-94947361D01*
X113836921Y-95002428D01*
X113963910Y-95027687D01*
X113978047Y-95030499D01*
X113978051Y-95030500D01*
X113978052Y-95030500D01*
X114121949Y-95030500D01*
X114121950Y-95030499D01*
X114263079Y-95002428D01*
X114396022Y-94947361D01*
X114515667Y-94867417D01*
X114617417Y-94765667D01*
X114697361Y-94646022D01*
X114752428Y-94513079D01*
X114780500Y-94371948D01*
X114780500Y-94228052D01*
X114752428Y-94086921D01*
X114697361Y-93953978D01*
X114697360Y-93953977D01*
X114697357Y-93953971D01*
X114617417Y-93834333D01*
X114617414Y-93834329D01*
X114583081Y-93799996D01*
X126694435Y-93799996D01*
X126694435Y-93800003D01*
X126714630Y-93979249D01*
X126714631Y-93979254D01*
X126774211Y-94149523D01*
X126870184Y-94302262D01*
X126997738Y-94429816D01*
X127150478Y-94525789D01*
X127320739Y-94585366D01*
X127320745Y-94585368D01*
X127320750Y-94585369D01*
X127499996Y-94605565D01*
X127500000Y-94605565D01*
X127500004Y-94605565D01*
X127679249Y-94585369D01*
X127679251Y-94585368D01*
X127679255Y-94585368D01*
X127679258Y-94585366D01*
X127679262Y-94585366D01*
X127769377Y-94553832D01*
X127849522Y-94525789D01*
X127939096Y-94469505D01*
X128005068Y-94450500D01*
X129679192Y-94450500D01*
X129746231Y-94470185D01*
X129766873Y-94486819D01*
X129878277Y-94598223D01*
X129911762Y-94659546D01*
X129913815Y-94672012D01*
X129914630Y-94679246D01*
X129914632Y-94679255D01*
X129974210Y-94849521D01*
X130035685Y-94947357D01*
X130070184Y-95002262D01*
X130197738Y-95129816D01*
X130350478Y-95225789D01*
X130520745Y-95285368D01*
X130520750Y-95285369D01*
X130699996Y-95305565D01*
X130700000Y-95305565D01*
X130700004Y-95305565D01*
X130879249Y-95285369D01*
X130879252Y-95285368D01*
X130879255Y-95285368D01*
X131049522Y-95225789D01*
X131202262Y-95129816D01*
X131329816Y-95002262D01*
X131425789Y-94849522D01*
X131485368Y-94679255D01*
X131489112Y-94646028D01*
X131505565Y-94500003D01*
X131505565Y-94499996D01*
X131485369Y-94320750D01*
X131485368Y-94320745D01*
X131425789Y-94150478D01*
X131425188Y-94149522D01*
X131329815Y-93997737D01*
X131202262Y-93870184D01*
X131049521Y-93774210D01*
X130879255Y-93714632D01*
X130879246Y-93714630D01*
X130872012Y-93713815D01*
X130807600Y-93686744D01*
X130798223Y-93678277D01*
X130414674Y-93294727D01*
X130414673Y-93294726D01*
X130414669Y-93294723D01*
X130308127Y-93223535D01*
X130189744Y-93174499D01*
X130189738Y-93174497D01*
X130064071Y-93149500D01*
X130064069Y-93149500D01*
X128005068Y-93149500D01*
X127939096Y-93130494D01*
X127849522Y-93074210D01*
X127849518Y-93074209D01*
X127679262Y-93014633D01*
X127679249Y-93014630D01*
X127500004Y-92994435D01*
X127499996Y-92994435D01*
X127320750Y-93014630D01*
X127320745Y-93014631D01*
X127150476Y-93074211D01*
X126997737Y-93170184D01*
X126870184Y-93297737D01*
X126774211Y-93450476D01*
X126714631Y-93620745D01*
X126714630Y-93620750D01*
X126694435Y-93799996D01*
X114583081Y-93799996D01*
X114515670Y-93732585D01*
X114515666Y-93732582D01*
X114396028Y-93652642D01*
X114396019Y-93652637D01*
X114263081Y-93597573D01*
X114263082Y-93597573D01*
X114263079Y-93597572D01*
X114263075Y-93597571D01*
X114263071Y-93597570D01*
X114121952Y-93569500D01*
X114121948Y-93569500D01*
X113978052Y-93569500D01*
X113978047Y-93569500D01*
X113836928Y-93597570D01*
X113836918Y-93597573D01*
X113703980Y-93652637D01*
X113703971Y-93652642D01*
X113584333Y-93732582D01*
X113584329Y-93732585D01*
X113482585Y-93834329D01*
X113482582Y-93834333D01*
X113402642Y-93953971D01*
X113402637Y-93953980D01*
X113347573Y-94086918D01*
X113347570Y-94086928D01*
X113319500Y-94228047D01*
X112505348Y-94228047D01*
X112503809Y-89918543D01*
X114349499Y-89918543D01*
X114387947Y-90111829D01*
X114387950Y-90111839D01*
X114463364Y-90293907D01*
X114463371Y-90293920D01*
X114572860Y-90457781D01*
X114572863Y-90457785D01*
X114712214Y-90597136D01*
X114712218Y-90597139D01*
X114876079Y-90706628D01*
X114876092Y-90706635D01*
X115019414Y-90766000D01*
X115058165Y-90782051D01*
X115058169Y-90782051D01*
X115058170Y-90782052D01*
X115251456Y-90820500D01*
X115251459Y-90820500D01*
X116148543Y-90820500D01*
X116278582Y-90794632D01*
X116341835Y-90782051D01*
X116523914Y-90706632D01*
X116687782Y-90597139D01*
X116827139Y-90457782D01*
X116936632Y-90293914D01*
X117012051Y-90111835D01*
X117024632Y-90048582D01*
X117050500Y-89918543D01*
X118149499Y-89918543D01*
X118187947Y-90111829D01*
X118187950Y-90111839D01*
X118263364Y-90293907D01*
X118263371Y-90293920D01*
X118372860Y-90457781D01*
X118372863Y-90457785D01*
X118512214Y-90597136D01*
X118512218Y-90597139D01*
X118676079Y-90706628D01*
X118676092Y-90706635D01*
X118819414Y-90766000D01*
X118858165Y-90782051D01*
X118858169Y-90782051D01*
X118858170Y-90782052D01*
X119051456Y-90820500D01*
X119051459Y-90820500D01*
X119948543Y-90820500D01*
X120078582Y-90794632D01*
X120141835Y-90782051D01*
X120323914Y-90706632D01*
X120487782Y-90597139D01*
X120627139Y-90457782D01*
X120736632Y-90293914D01*
X120812051Y-90111835D01*
X120824632Y-90048582D01*
X120850500Y-89918543D01*
X120850500Y-89721456D01*
X120836286Y-89649999D01*
X133399364Y-89649999D01*
X133399364Y-89650000D01*
X134296988Y-89650000D01*
X134264075Y-89707007D01*
X134230000Y-89834174D01*
X134230000Y-89965826D01*
X134264075Y-90092993D01*
X134296988Y-90150000D01*
X133399364Y-90150000D01*
X133456567Y-90363486D01*
X133456570Y-90363492D01*
X133556399Y-90577578D01*
X133691894Y-90771082D01*
X133858917Y-90938105D01*
X134052421Y-91073600D01*
X134266507Y-91173429D01*
X134266516Y-91173433D01*
X134480000Y-91230634D01*
X134480000Y-90333012D01*
X134537007Y-90365925D01*
X134664174Y-90400000D01*
X134795826Y-90400000D01*
X134922993Y-90365925D01*
X134980000Y-90333012D01*
X134980000Y-91230633D01*
X135193483Y-91173433D01*
X135193492Y-91173429D01*
X135407578Y-91073600D01*
X135601082Y-90938105D01*
X135768105Y-90771082D01*
X135898119Y-90585405D01*
X135952696Y-90541781D01*
X136022195Y-90534588D01*
X136084549Y-90566110D01*
X136101269Y-90585406D01*
X136227722Y-90766000D01*
X136250049Y-90832206D01*
X136233039Y-90899973D01*
X136213829Y-90924804D01*
X136109519Y-91029114D01*
X136071048Y-91090339D01*
X136069159Y-91093254D01*
X136034918Y-91144499D01*
X136034911Y-91144513D01*
X136034852Y-91144657D01*
X136025300Y-91163147D01*
X136019544Y-91172309D01*
X136019542Y-91172314D01*
X135999715Y-91228974D01*
X135997237Y-91235466D01*
X135978341Y-91281088D01*
X135978339Y-91281097D01*
X135975903Y-91293341D01*
X135971330Y-91310097D01*
X135963687Y-91331939D01*
X135963687Y-91331940D01*
X135958341Y-91379382D01*
X135956739Y-91389685D01*
X135949500Y-91426081D01*
X135949500Y-91450890D01*
X135948720Y-91464774D01*
X135944751Y-91499997D01*
X135944751Y-91500000D01*
X135948720Y-91535223D01*
X135949500Y-91549108D01*
X135949500Y-94650890D01*
X135948720Y-94664774D01*
X135944751Y-94699997D01*
X135944751Y-94700000D01*
X135948720Y-94735223D01*
X135949500Y-94749108D01*
X135949500Y-94773916D01*
X135956739Y-94810312D01*
X135958341Y-94820616D01*
X135963687Y-94868059D01*
X135971330Y-94889902D01*
X135975904Y-94906659D01*
X135978342Y-94918913D01*
X135990125Y-94947361D01*
X135997235Y-94964525D01*
X135999708Y-94971003D01*
X136010705Y-95002429D01*
X136019543Y-95027687D01*
X136019546Y-95027694D01*
X136025295Y-95036844D01*
X136034851Y-95055340D01*
X136034912Y-95055488D01*
X136034916Y-95055495D01*
X136069169Y-95106760D01*
X136071054Y-95109669D01*
X136109523Y-95170890D01*
X136229110Y-95290477D01*
X136290303Y-95328927D01*
X136290338Y-95328949D01*
X136293247Y-95330834D01*
X136344505Y-95365084D01*
X136344648Y-95365143D01*
X136363162Y-95374708D01*
X136372310Y-95380456D01*
X136426332Y-95399358D01*
X136428979Y-95400285D01*
X136435477Y-95402766D01*
X136481087Y-95421658D01*
X136481095Y-95421660D01*
X136493332Y-95424094D01*
X136510101Y-95428671D01*
X136531938Y-95436312D01*
X136531941Y-95436313D01*
X136579398Y-95441659D01*
X136589689Y-95443260D01*
X136601926Y-95445694D01*
X136626081Y-95450500D01*
X136626082Y-95450500D01*
X136650890Y-95450500D01*
X136664774Y-95451280D01*
X136699998Y-95455249D01*
X136700000Y-95455249D01*
X136700002Y-95455249D01*
X136735226Y-95451280D01*
X136749110Y-95450500D01*
X136773918Y-95450500D01*
X136810317Y-95443259D01*
X136820599Y-95441659D01*
X136868059Y-95436313D01*
X136889911Y-95428665D01*
X136906660Y-95424094D01*
X136918913Y-95421658D01*
X136964531Y-95402762D01*
X136970988Y-95400295D01*
X137027690Y-95380456D01*
X137036836Y-95374708D01*
X137055365Y-95365138D01*
X137055415Y-95365116D01*
X137055495Y-95365084D01*
X137106780Y-95330815D01*
X137109618Y-95328975D01*
X137170890Y-95290477D01*
X137290477Y-95170890D01*
X137328975Y-95109618D01*
X137330821Y-95106772D01*
X137330829Y-95106760D01*
X137365084Y-95055495D01*
X137365138Y-95055365D01*
X137374708Y-95036836D01*
X137380456Y-95027690D01*
X137400295Y-94970988D01*
X137402762Y-94964531D01*
X137421655Y-94918920D01*
X137421654Y-94918920D01*
X137421658Y-94918913D01*
X137424094Y-94906660D01*
X137428665Y-94889911D01*
X137436313Y-94868059D01*
X137441659Y-94820599D01*
X137443260Y-94810312D01*
X137450500Y-94773918D01*
X137450500Y-94749108D01*
X137451280Y-94735223D01*
X137455249Y-94700000D01*
X137455249Y-94699997D01*
X137451280Y-94664774D01*
X137450500Y-94650890D01*
X137450500Y-91549108D01*
X137451280Y-91535223D01*
X137455249Y-91500000D01*
X137455249Y-91499997D01*
X137451280Y-91464774D01*
X137450500Y-91450890D01*
X137450500Y-91426081D01*
X137443261Y-91389692D01*
X137441659Y-91379398D01*
X137439689Y-91361908D01*
X137451745Y-91293089D01*
X137499095Y-91241710D01*
X137530812Y-91228256D01*
X137733663Y-91173903D01*
X137947830Y-91074035D01*
X138141401Y-90938495D01*
X138308495Y-90771401D01*
X138438425Y-90585842D01*
X138493002Y-90542217D01*
X138562500Y-90535023D01*
X138624855Y-90566546D01*
X138641575Y-90585842D01*
X138771281Y-90771082D01*
X138771505Y-90771401D01*
X138938599Y-90938495D01*
X139035384Y-91006265D01*
X139132165Y-91074032D01*
X139132167Y-91074033D01*
X139132170Y-91074035D01*
X139346337Y-91173903D01*
X139574592Y-91235063D01*
X139751034Y-91250500D01*
X139809999Y-91255659D01*
X139810000Y-91255659D01*
X139810001Y-91255659D01*
X139868966Y-91250500D01*
X140045408Y-91235063D01*
X140273663Y-91173903D01*
X140487830Y-91074035D01*
X140681401Y-90938495D01*
X140803329Y-90816566D01*
X140864648Y-90783084D01*
X140934340Y-90788068D01*
X140990274Y-90829939D01*
X141007189Y-90860917D01*
X141056202Y-90992328D01*
X141056206Y-90992335D01*
X141142452Y-91107544D01*
X141142455Y-91107547D01*
X141257664Y-91193793D01*
X141257671Y-91193797D01*
X141392517Y-91244091D01*
X141392516Y-91244091D01*
X141399444Y-91244835D01*
X141452127Y-91250500D01*
X143247872Y-91250499D01*
X143252551Y-91249996D01*
X154944435Y-91249996D01*
X154944435Y-91250003D01*
X154964630Y-91429249D01*
X154964631Y-91429254D01*
X155024211Y-91599523D01*
X155120184Y-91752262D01*
X155247738Y-91879816D01*
X155400478Y-91975789D01*
X155570745Y-92035368D01*
X155570750Y-92035369D01*
X155749996Y-92055565D01*
X155750000Y-92055565D01*
X155750004Y-92055565D01*
X155929249Y-92035369D01*
X155929252Y-92035368D01*
X155929255Y-92035368D01*
X156099522Y-91975789D01*
X156252262Y-91879816D01*
X156379816Y-91752262D01*
X156475789Y-91599522D01*
X156535368Y-91429255D01*
X156539826Y-91389692D01*
X156555565Y-91250003D01*
X156555565Y-91249996D01*
X156535369Y-91070750D01*
X156535366Y-91070737D01*
X156475790Y-90900481D01*
X156475789Y-90900478D01*
X156448773Y-90857482D01*
X156419506Y-90810903D01*
X156400500Y-90744931D01*
X156400500Y-88709190D01*
X156420185Y-88642151D01*
X156436810Y-88621518D01*
X156562978Y-88495349D01*
X156624297Y-88461867D01*
X156636772Y-88459813D01*
X156644008Y-88458998D01*
X156814275Y-88399419D01*
X156967015Y-88303446D01*
X157094569Y-88175892D01*
X157190542Y-88023152D01*
X157250121Y-87852885D01*
X157270318Y-87673630D01*
X157250937Y-87501618D01*
X157250122Y-87494380D01*
X157250121Y-87494375D01*
X157190541Y-87324106D01*
X157094568Y-87171367D01*
X156967015Y-87043814D01*
X156814276Y-86947841D01*
X156644007Y-86888261D01*
X156644002Y-86888260D01*
X156464757Y-86868065D01*
X156464749Y-86868065D01*
X156285503Y-86888260D01*
X156285498Y-86888261D01*
X156115229Y-86947841D01*
X155962490Y-87043814D01*
X155834937Y-87171367D01*
X155738963Y-87324108D01*
X155679385Y-87494374D01*
X155679383Y-87494382D01*
X155678568Y-87501618D01*
X155651496Y-87566030D01*
X155643030Y-87575405D01*
X155244726Y-87973709D01*
X155173534Y-88080257D01*
X155124499Y-88198638D01*
X155124497Y-88198644D01*
X155099500Y-88324311D01*
X155099500Y-90744931D01*
X155080494Y-90810903D01*
X155024211Y-90900477D01*
X155024209Y-90900481D01*
X154964633Y-91070737D01*
X154964630Y-91070750D01*
X154944435Y-91249996D01*
X143252551Y-91249996D01*
X143307483Y-91244091D01*
X143442331Y-91193796D01*
X143557546Y-91107546D01*
X143643796Y-90992331D01*
X143694091Y-90857483D01*
X143700500Y-90797873D01*
X143700499Y-89002128D01*
X143694091Y-88942517D01*
X143692810Y-88939083D01*
X143643797Y-88807671D01*
X143643793Y-88807664D01*
X143557547Y-88692455D01*
X143557544Y-88692452D01*
X143442335Y-88606206D01*
X143442328Y-88606202D01*
X143307482Y-88555908D01*
X143307483Y-88555908D01*
X143247883Y-88549501D01*
X143247881Y-88549500D01*
X143247873Y-88549500D01*
X143247864Y-88549500D01*
X141452129Y-88549500D01*
X141452123Y-88549501D01*
X141392516Y-88555908D01*
X141257671Y-88606202D01*
X141257664Y-88606206D01*
X141142455Y-88692452D01*
X141142452Y-88692455D01*
X141056206Y-88807664D01*
X141056203Y-88807669D01*
X141007189Y-88939083D01*
X140965317Y-88995016D01*
X140899853Y-89019433D01*
X140831580Y-89004581D01*
X140803326Y-88983430D01*
X140681402Y-88861506D01*
X140681395Y-88861501D01*
X140676322Y-88857949D01*
X140604518Y-88807671D01*
X140487834Y-88725967D01*
X140487830Y-88725965D01*
X140451856Y-88709190D01*
X140273663Y-88626097D01*
X140273659Y-88626096D01*
X140273655Y-88626094D01*
X140045413Y-88564938D01*
X140045403Y-88564936D01*
X139810001Y-88544341D01*
X139809999Y-88544341D01*
X139574596Y-88564936D01*
X139574586Y-88564938D01*
X139346344Y-88626094D01*
X139346335Y-88626098D01*
X139132171Y-88725964D01*
X139132169Y-88725965D01*
X138938597Y-88861505D01*
X138771505Y-89028597D01*
X138641575Y-89214158D01*
X138586998Y-89257783D01*
X138517500Y-89264977D01*
X138455145Y-89233454D01*
X138438425Y-89214158D01*
X138308494Y-89028597D01*
X138141402Y-88861506D01*
X138141395Y-88861501D01*
X138136322Y-88857949D01*
X138064518Y-88807671D01*
X137947834Y-88725967D01*
X137947830Y-88725965D01*
X137911856Y-88709190D01*
X137733663Y-88626097D01*
X137733659Y-88626096D01*
X137733655Y-88626094D01*
X137505413Y-88564938D01*
X137505403Y-88564936D01*
X137270001Y-88544341D01*
X137269999Y-88544341D01*
X137034596Y-88564936D01*
X137034586Y-88564938D01*
X136806344Y-88626094D01*
X136806335Y-88626098D01*
X136592171Y-88725964D01*
X136592169Y-88725965D01*
X136398597Y-88861505D01*
X136231508Y-89028594D01*
X136101269Y-89214595D01*
X136046692Y-89258219D01*
X135977193Y-89265412D01*
X135914839Y-89233890D01*
X135898119Y-89214594D01*
X135768113Y-89028926D01*
X135768108Y-89028920D01*
X135601082Y-88861894D01*
X135407578Y-88726399D01*
X135193492Y-88626570D01*
X135193486Y-88626567D01*
X134980000Y-88569364D01*
X134980000Y-89466988D01*
X134922993Y-89434075D01*
X134795826Y-89400000D01*
X134664174Y-89400000D01*
X134537007Y-89434075D01*
X134480000Y-89466988D01*
X134480000Y-88569364D01*
X134479999Y-88569364D01*
X134266513Y-88626567D01*
X134266507Y-88626570D01*
X134052422Y-88726399D01*
X134052420Y-88726400D01*
X133858926Y-88861886D01*
X133858920Y-88861891D01*
X133691891Y-89028920D01*
X133691886Y-89028926D01*
X133556400Y-89222420D01*
X133556399Y-89222422D01*
X133456570Y-89436507D01*
X133456567Y-89436513D01*
X133399364Y-89649999D01*
X120836286Y-89649999D01*
X120812052Y-89528170D01*
X120812051Y-89528169D01*
X120812051Y-89528165D01*
X120774088Y-89436513D01*
X120736635Y-89346092D01*
X120736628Y-89346079D01*
X120627139Y-89182218D01*
X120627136Y-89182214D01*
X120487785Y-89042863D01*
X120487781Y-89042860D01*
X120323920Y-88933371D01*
X120323907Y-88933364D01*
X120141839Y-88857950D01*
X120141829Y-88857947D01*
X119948543Y-88819500D01*
X119948541Y-88819500D01*
X119051459Y-88819500D01*
X119051457Y-88819500D01*
X118858170Y-88857947D01*
X118858160Y-88857950D01*
X118676092Y-88933364D01*
X118676079Y-88933371D01*
X118512218Y-89042860D01*
X118512214Y-89042863D01*
X118372863Y-89182214D01*
X118372860Y-89182218D01*
X118263371Y-89346079D01*
X118263364Y-89346092D01*
X118187950Y-89528160D01*
X118187947Y-89528170D01*
X118149500Y-89721456D01*
X118149500Y-89721459D01*
X118149500Y-89918541D01*
X118149500Y-89918543D01*
X118149499Y-89918543D01*
X117050500Y-89918543D01*
X117050500Y-89721456D01*
X117012052Y-89528170D01*
X117012051Y-89528169D01*
X117012051Y-89528165D01*
X116974088Y-89436513D01*
X116936635Y-89346092D01*
X116936628Y-89346079D01*
X116827139Y-89182218D01*
X116827136Y-89182214D01*
X116687785Y-89042863D01*
X116687781Y-89042860D01*
X116523920Y-88933371D01*
X116523907Y-88933364D01*
X116341839Y-88857950D01*
X116341829Y-88857947D01*
X116148543Y-88819500D01*
X116148541Y-88819500D01*
X115251459Y-88819500D01*
X115251457Y-88819500D01*
X115058170Y-88857947D01*
X115058160Y-88857950D01*
X114876092Y-88933364D01*
X114876079Y-88933371D01*
X114712218Y-89042860D01*
X114712214Y-89042863D01*
X114572863Y-89182214D01*
X114572860Y-89182218D01*
X114463371Y-89346079D01*
X114463364Y-89346092D01*
X114387950Y-89528160D01*
X114387947Y-89528170D01*
X114349500Y-89721456D01*
X114349500Y-89721459D01*
X114349500Y-89918541D01*
X114349500Y-89918543D01*
X114349499Y-89918543D01*
X112503809Y-89918543D01*
X112501606Y-83749996D01*
X144737064Y-83749996D01*
X144737064Y-83750003D01*
X144757259Y-83929249D01*
X144757260Y-83929254D01*
X144785171Y-84009017D01*
X144792129Y-84049972D01*
X144792129Y-84996363D01*
X144791349Y-85010247D01*
X144786870Y-85049998D01*
X144786870Y-85050003D01*
X144807065Y-85229249D01*
X144807066Y-85229254D01*
X144866646Y-85399523D01*
X144962619Y-85552262D01*
X145090173Y-85679816D01*
X145242913Y-85775789D01*
X145413180Y-85835368D01*
X145413185Y-85835369D01*
X145592431Y-85855565D01*
X145592435Y-85855565D01*
X145592439Y-85855565D01*
X145771684Y-85835369D01*
X145771687Y-85835368D01*
X145771690Y-85835368D01*
X145941957Y-85775789D01*
X146094697Y-85679816D01*
X146222251Y-85552262D01*
X146318224Y-85399522D01*
X146377803Y-85229255D01*
X146398000Y-85050000D01*
X146392993Y-85005565D01*
X146377804Y-84870750D01*
X146377801Y-84870737D01*
X146318225Y-84700481D01*
X146318224Y-84700478D01*
X146312133Y-84690784D01*
X146293129Y-84624815D01*
X146293129Y-84112229D01*
X146312814Y-84045190D01*
X146329448Y-84024548D01*
X147467177Y-82886819D01*
X147528500Y-82853334D01*
X147554858Y-82850500D01*
X151273920Y-82850500D01*
X151371462Y-82831096D01*
X151418913Y-82821658D01*
X151555495Y-82765084D01*
X151604729Y-82732186D01*
X151678416Y-82682952D01*
X151824549Y-82536819D01*
X151885872Y-82503334D01*
X151912230Y-82500500D01*
X154587770Y-82500500D01*
X154654809Y-82520185D01*
X154675451Y-82536819D01*
X156921580Y-84782948D01*
X156921584Y-84782951D01*
X157044498Y-84865080D01*
X157044511Y-84865087D01*
X157181082Y-84921656D01*
X157181087Y-84921658D01*
X157181091Y-84921658D01*
X157181092Y-84921659D01*
X157326079Y-84950500D01*
X157326082Y-84950500D01*
X157473917Y-84950500D01*
X157600028Y-84950500D01*
X157640983Y-84957458D01*
X157720745Y-84985368D01*
X157720750Y-84985369D01*
X157899996Y-85005565D01*
X157900000Y-85005565D01*
X157900004Y-85005565D01*
X158079249Y-84985369D01*
X158079252Y-84985368D01*
X158079255Y-84985368D01*
X158249522Y-84925789D01*
X158402262Y-84829816D01*
X158529816Y-84702262D01*
X158625789Y-84549522D01*
X158685368Y-84379255D01*
X158705565Y-84200000D01*
X158688661Y-84049972D01*
X158685369Y-84020750D01*
X158685368Y-84020745D01*
X158625788Y-83850476D01*
X158529815Y-83697737D01*
X158402262Y-83570184D01*
X158249523Y-83474211D01*
X158079254Y-83414631D01*
X158079249Y-83414630D01*
X157900004Y-83394435D01*
X157899996Y-83394435D01*
X157739868Y-83412476D01*
X157671046Y-83400421D01*
X157638304Y-83376937D01*
X155428421Y-81167052D01*
X155428420Y-81167051D01*
X155337172Y-81106082D01*
X155305495Y-81084916D01*
X155305493Y-81084915D01*
X155305488Y-81084912D01*
X155168917Y-81028343D01*
X155168907Y-81028340D01*
X155023920Y-80999500D01*
X155023918Y-80999500D01*
X151476082Y-80999500D01*
X151476076Y-80999500D01*
X151447242Y-81005234D01*
X151447243Y-81005235D01*
X151331093Y-81028339D01*
X151331083Y-81028342D01*
X151251081Y-81061479D01*
X151251082Y-81061480D01*
X151194506Y-81084915D01*
X151162828Y-81106082D01*
X151071581Y-81167050D01*
X150998516Y-81240115D01*
X150925449Y-81313182D01*
X150864128Y-81346666D01*
X150837770Y-81349500D01*
X147118709Y-81349500D01*
X146973721Y-81378340D01*
X146973711Y-81378343D01*
X146837140Y-81434912D01*
X146837127Y-81434919D01*
X146714213Y-81517048D01*
X146714209Y-81517051D01*
X145234566Y-82996693D01*
X145198502Y-83019370D01*
X145199379Y-83021191D01*
X145193104Y-83024212D01*
X145040366Y-83120184D01*
X144912813Y-83247737D01*
X144816840Y-83400476D01*
X144757260Y-83570745D01*
X144757259Y-83570750D01*
X144737064Y-83749996D01*
X112501606Y-83749996D01*
X112500724Y-81278543D01*
X114349499Y-81278543D01*
X114387947Y-81471829D01*
X114387950Y-81471839D01*
X114463364Y-81653907D01*
X114463371Y-81653920D01*
X114572860Y-81817781D01*
X114572863Y-81817785D01*
X114712214Y-81957136D01*
X114712218Y-81957139D01*
X114876079Y-82066628D01*
X114876092Y-82066635D01*
X115058160Y-82142049D01*
X115058165Y-82142051D01*
X115058169Y-82142051D01*
X115058170Y-82142052D01*
X115251456Y-82180500D01*
X115251459Y-82180500D01*
X116148543Y-82180500D01*
X116278582Y-82154632D01*
X116341835Y-82142051D01*
X116523914Y-82066632D01*
X116687782Y-81957139D01*
X116827139Y-81817782D01*
X116936632Y-81653914D01*
X117012051Y-81471835D01*
X117050500Y-81278543D01*
X118149499Y-81278543D01*
X118187947Y-81471829D01*
X118187950Y-81471839D01*
X118263364Y-81653907D01*
X118263371Y-81653920D01*
X118372860Y-81817781D01*
X118372863Y-81817785D01*
X118512214Y-81957136D01*
X118512218Y-81957139D01*
X118676079Y-82066628D01*
X118676092Y-82066635D01*
X118858160Y-82142049D01*
X118858165Y-82142051D01*
X118858169Y-82142051D01*
X118858170Y-82142052D01*
X119051456Y-82180500D01*
X119051459Y-82180500D01*
X119948543Y-82180500D01*
X120078582Y-82154632D01*
X120141835Y-82142051D01*
X120323914Y-82066632D01*
X120487782Y-81957139D01*
X120627139Y-81817782D01*
X120736632Y-81653914D01*
X120812051Y-81471835D01*
X120850500Y-81278541D01*
X120850500Y-81081459D01*
X120850500Y-81081456D01*
X120812052Y-80888170D01*
X120812051Y-80888169D01*
X120812051Y-80888165D01*
X120812049Y-80888160D01*
X120736635Y-80706092D01*
X120736628Y-80706079D01*
X120627139Y-80542218D01*
X120627136Y-80542214D01*
X120487785Y-80402863D01*
X120487781Y-80402860D01*
X120323920Y-80293371D01*
X120323907Y-80293364D01*
X120141839Y-80217950D01*
X120141829Y-80217947D01*
X119948543Y-80179500D01*
X119948541Y-80179500D01*
X119051459Y-80179500D01*
X119051457Y-80179500D01*
X118858170Y-80217947D01*
X118858160Y-80217950D01*
X118676092Y-80293364D01*
X118676079Y-80293371D01*
X118512218Y-80402860D01*
X118512214Y-80402863D01*
X118372863Y-80542214D01*
X118372860Y-80542218D01*
X118263371Y-80706079D01*
X118263364Y-80706092D01*
X118187950Y-80888160D01*
X118187947Y-80888170D01*
X118149500Y-81081456D01*
X118149500Y-81081459D01*
X118149500Y-81278541D01*
X118149500Y-81278543D01*
X118149499Y-81278543D01*
X117050500Y-81278543D01*
X117050500Y-81278541D01*
X117050500Y-81081459D01*
X117050500Y-81081456D01*
X117012052Y-80888170D01*
X117012051Y-80888169D01*
X117012051Y-80888165D01*
X117012049Y-80888160D01*
X116936635Y-80706092D01*
X116936628Y-80706079D01*
X116827139Y-80542218D01*
X116827136Y-80542214D01*
X116687785Y-80402863D01*
X116687781Y-80402860D01*
X116523920Y-80293371D01*
X116523907Y-80293364D01*
X116341839Y-80217950D01*
X116341829Y-80217947D01*
X116148543Y-80179500D01*
X116148541Y-80179500D01*
X115251459Y-80179500D01*
X115251457Y-80179500D01*
X115058170Y-80217947D01*
X115058160Y-80217950D01*
X114876092Y-80293364D01*
X114876079Y-80293371D01*
X114712218Y-80402860D01*
X114712214Y-80402863D01*
X114572863Y-80542214D01*
X114572860Y-80542218D01*
X114463371Y-80706079D01*
X114463364Y-80706092D01*
X114387950Y-80888160D01*
X114387947Y-80888170D01*
X114349500Y-81081456D01*
X114349500Y-81081459D01*
X114349500Y-81278541D01*
X114349500Y-81278543D01*
X114349499Y-81278543D01*
X112500724Y-81278543D01*
X112500501Y-80654885D01*
X112500883Y-80645144D01*
X112515745Y-80456453D01*
X112518786Y-80437251D01*
X112561848Y-80257924D01*
X112567855Y-80239442D01*
X112638429Y-80069078D01*
X112647262Y-80051744D01*
X112743613Y-79894520D01*
X112755049Y-79878780D01*
X112794174Y-79832971D01*
X112874810Y-79738559D01*
X112888559Y-79724810D01*
X113028782Y-79605046D01*
X113044520Y-79593613D01*
X113201744Y-79497262D01*
X113219079Y-79488429D01*
X113252703Y-79474500D01*
X113389442Y-79417855D01*
X113407924Y-79411848D01*
X113587251Y-79368786D01*
X113606454Y-79365744D01*
X113795150Y-79350882D01*
X113804886Y-79350500D01*
X165226000Y-79350500D01*
X165293039Y-79370185D01*
G37*
%TD.AperFunction*%
%TD*%
M02*
