%TF.GenerationSoftware,KiCad,Pcbnew,8.0.5*%
%TF.CreationDate,2024-09-24T02:20:12-04:00*%
%TF.ProjectId,ble_mcu_test_board,626c655f-6d63-4755-9f74-6573745f626f,rev?*%
%TF.SameCoordinates,Original*%
%TF.FileFunction,Legend,Top*%
%TF.FilePolarity,Positive*%
%FSLAX46Y46*%
G04 Gerber Fmt 4.6, Leading zero omitted, Abs format (unit mm)*
G04 Created by KiCad (PCBNEW 8.0.5) date 2024-09-24 02:20:12*
%MOMM*%
%LPD*%
G01*
G04 APERTURE LIST*
G04 Aperture macros list*
%AMRoundRect*
0 Rectangle with rounded corners*
0 $1 Rounding radius*
0 $2 $3 $4 $5 $6 $7 $8 $9 X,Y pos of 4 corners*
0 Add a 4 corners polygon primitive as box body*
4,1,4,$2,$3,$4,$5,$6,$7,$8,$9,$2,$3,0*
0 Add four circle primitives for the rounded corners*
1,1,$1+$1,$2,$3*
1,1,$1+$1,$4,$5*
1,1,$1+$1,$6,$7*
1,1,$1+$1,$8,$9*
0 Add four rect primitives between the rounded corners*
20,1,$1+$1,$2,$3,$4,$5,0*
20,1,$1+$1,$4,$5,$6,$7,0*
20,1,$1+$1,$6,$7,$8,$9,0*
20,1,$1+$1,$8,$9,$2,$3,0*%
G04 Aperture macros list end*
%ADD10C,0.153000*%
%ADD11C,0.150000*%
%ADD12C,0.127000*%
%ADD13C,0.200000*%
%ADD14C,0.120000*%
%ADD15C,0.152400*%
%ADD16C,0.000000*%
%ADD17C,0.900000*%
%ADD18RoundRect,0.102000X-0.400000X0.500000X-0.400000X-0.500000X0.400000X-0.500000X0.400000X0.500000X0*%
%ADD19RoundRect,0.102000X-0.750000X0.350000X-0.750000X-0.350000X0.750000X-0.350000X0.750000X0.350000X0*%
%ADD20RoundRect,0.135000X-0.185000X0.135000X-0.185000X-0.135000X0.185000X-0.135000X0.185000X0.135000X0*%
%ADD21RoundRect,0.140000X-0.170000X0.140000X-0.170000X-0.140000X0.170000X-0.140000X0.170000X0.140000X0*%
%ADD22RoundRect,0.200000X0.200000X0.275000X-0.200000X0.275000X-0.200000X-0.275000X0.200000X-0.275000X0*%
%ADD23R,1.700000X1.700000*%
%ADD24O,1.700000X1.700000*%
%ADD25RoundRect,0.200000X-0.275000X0.200000X-0.275000X-0.200000X0.275000X-0.200000X0.275000X0.200000X0*%
%ADD26RoundRect,0.250000X0.475000X-0.250000X0.475000X0.250000X-0.475000X0.250000X-0.475000X-0.250000X0*%
%ADD27RoundRect,0.140000X0.170000X-0.140000X0.170000X0.140000X-0.170000X0.140000X-0.170000X-0.140000X0*%
%ADD28RoundRect,0.140000X0.140000X0.170000X-0.140000X0.170000X-0.140000X-0.170000X0.140000X-0.170000X0*%
%ADD29R,0.900000X1.000000*%
%ADD30R,1.700000X0.550000*%
%ADD31RoundRect,0.200000X-0.200000X-0.275000X0.200000X-0.275000X0.200000X0.275000X-0.200000X0.275000X0*%
%ADD32RoundRect,0.250000X-0.475000X0.250000X-0.475000X-0.250000X0.475000X-0.250000X0.475000X0.250000X0*%
%ADD33RoundRect,0.225000X-0.250000X0.225000X-0.250000X-0.225000X0.250000X-0.225000X0.250000X0.225000X0*%
%ADD34R,0.355600X1.473200*%
%ADD35R,0.800000X0.900000*%
%ADD36R,0.279400X0.711200*%
%ADD37R,0.457200X0.254000*%
%ADD38RoundRect,0.375000X-0.375000X0.625000X-0.375000X-0.625000X0.375000X-0.625000X0.375000X0.625000X0*%
%ADD39RoundRect,0.500000X-1.400000X0.500000X-1.400000X-0.500000X1.400000X-0.500000X1.400000X0.500000X0*%
%ADD40RoundRect,0.147500X-0.147500X-0.172500X0.147500X-0.172500X0.147500X0.172500X-0.147500X0.172500X0*%
%ADD41RoundRect,0.175000X-0.625000X0.175000X-0.625000X-0.175000X0.625000X-0.175000X0.625000X0.175000X0*%
%ADD42RoundRect,0.200000X-0.600000X0.200000X-0.600000X-0.200000X0.600000X-0.200000X0.600000X0.200000X0*%
%ADD43RoundRect,0.225000X-0.575000X0.225000X-0.575000X-0.225000X0.575000X-0.225000X0.575000X0.225000X0*%
%ADD44O,1.700000X1.000000*%
%ADD45RoundRect,0.062500X0.062500X-0.375000X0.062500X0.375000X-0.062500X0.375000X-0.062500X-0.375000X0*%
%ADD46RoundRect,0.062500X0.375000X-0.062500X0.375000X0.062500X-0.375000X0.062500X-0.375000X-0.062500X0*%
%ADD47R,5.600000X5.600000*%
G04 APERTURE END LIST*
D10*
X169790280Y-96588752D02*
X170790280Y-96588752D01*
X170790280Y-96588752D02*
X170790280Y-96969704D01*
X170790280Y-96969704D02*
X170742661Y-97064942D01*
X170742661Y-97064942D02*
X170695042Y-97112561D01*
X170695042Y-97112561D02*
X170599804Y-97160180D01*
X170599804Y-97160180D02*
X170456947Y-97160180D01*
X170456947Y-97160180D02*
X170361709Y-97112561D01*
X170361709Y-97112561D02*
X170314090Y-97064942D01*
X170314090Y-97064942D02*
X170266471Y-96969704D01*
X170266471Y-96969704D02*
X170266471Y-96588752D01*
X170790280Y-97779228D02*
X170790280Y-97969704D01*
X170790280Y-97969704D02*
X170742661Y-98064942D01*
X170742661Y-98064942D02*
X170647423Y-98160180D01*
X170647423Y-98160180D02*
X170456947Y-98207799D01*
X170456947Y-98207799D02*
X170123614Y-98207799D01*
X170123614Y-98207799D02*
X169933138Y-98160180D01*
X169933138Y-98160180D02*
X169837900Y-98064942D01*
X169837900Y-98064942D02*
X169790280Y-97969704D01*
X169790280Y-97969704D02*
X169790280Y-97779228D01*
X169790280Y-97779228D02*
X169837900Y-97683990D01*
X169837900Y-97683990D02*
X169933138Y-97588752D01*
X169933138Y-97588752D02*
X170123614Y-97541133D01*
X170123614Y-97541133D02*
X170456947Y-97541133D01*
X170456947Y-97541133D02*
X170647423Y-97588752D01*
X170647423Y-97588752D02*
X170742661Y-97683990D01*
X170742661Y-97683990D02*
X170790280Y-97779228D01*
X169837900Y-98588752D02*
X169790280Y-98731609D01*
X169790280Y-98731609D02*
X169790280Y-98969704D01*
X169790280Y-98969704D02*
X169837900Y-99064942D01*
X169837900Y-99064942D02*
X169885519Y-99112561D01*
X169885519Y-99112561D02*
X169980757Y-99160180D01*
X169980757Y-99160180D02*
X170075995Y-99160180D01*
X170075995Y-99160180D02*
X170171233Y-99112561D01*
X170171233Y-99112561D02*
X170218852Y-99064942D01*
X170218852Y-99064942D02*
X170266471Y-98969704D01*
X170266471Y-98969704D02*
X170314090Y-98779228D01*
X170314090Y-98779228D02*
X170361709Y-98683990D01*
X170361709Y-98683990D02*
X170409328Y-98636371D01*
X170409328Y-98636371D02*
X170504566Y-98588752D01*
X170504566Y-98588752D02*
X170599804Y-98588752D01*
X170599804Y-98588752D02*
X170695042Y-98636371D01*
X170695042Y-98636371D02*
X170742661Y-98683990D01*
X170742661Y-98683990D02*
X170790280Y-98779228D01*
X170790280Y-98779228D02*
X170790280Y-99017323D01*
X170790280Y-99017323D02*
X170742661Y-99160180D01*
X170790280Y-99445895D02*
X170790280Y-100017323D01*
X169790280Y-99731609D02*
X170790280Y-99731609D01*
X170790280Y-100350657D02*
X169980757Y-100350657D01*
X169980757Y-100350657D02*
X169885519Y-100398276D01*
X169885519Y-100398276D02*
X169837900Y-100445895D01*
X169837900Y-100445895D02*
X169790280Y-100541133D01*
X169790280Y-100541133D02*
X169790280Y-100731609D01*
X169790280Y-100731609D02*
X169837900Y-100826847D01*
X169837900Y-100826847D02*
X169885519Y-100874466D01*
X169885519Y-100874466D02*
X169980757Y-100922085D01*
X169980757Y-100922085D02*
X170790280Y-100922085D01*
X169790280Y-101969704D02*
X170266471Y-101636371D01*
X169790280Y-101398276D02*
X170790280Y-101398276D01*
X170790280Y-101398276D02*
X170790280Y-101779228D01*
X170790280Y-101779228D02*
X170742661Y-101874466D01*
X170742661Y-101874466D02*
X170695042Y-101922085D01*
X170695042Y-101922085D02*
X170599804Y-101969704D01*
X170599804Y-101969704D02*
X170456947Y-101969704D01*
X170456947Y-101969704D02*
X170361709Y-101922085D01*
X170361709Y-101922085D02*
X170314090Y-101874466D01*
X170314090Y-101874466D02*
X170266471Y-101779228D01*
X170266471Y-101779228D02*
X170266471Y-101398276D01*
X170314090Y-102398276D02*
X170314090Y-102731609D01*
X169790280Y-102874466D02*
X169790280Y-102398276D01*
X169790280Y-102398276D02*
X170790280Y-102398276D01*
X170790280Y-102398276D02*
X170790280Y-102874466D01*
X170314090Y-104398276D02*
X170266471Y-104541133D01*
X170266471Y-104541133D02*
X170218852Y-104588752D01*
X170218852Y-104588752D02*
X170123614Y-104636371D01*
X170123614Y-104636371D02*
X169980757Y-104636371D01*
X169980757Y-104636371D02*
X169885519Y-104588752D01*
X169885519Y-104588752D02*
X169837900Y-104541133D01*
X169837900Y-104541133D02*
X169790280Y-104445895D01*
X169790280Y-104445895D02*
X169790280Y-104064943D01*
X169790280Y-104064943D02*
X170790280Y-104064943D01*
X170790280Y-104064943D02*
X170790280Y-104398276D01*
X170790280Y-104398276D02*
X170742661Y-104493514D01*
X170742661Y-104493514D02*
X170695042Y-104541133D01*
X170695042Y-104541133D02*
X170599804Y-104588752D01*
X170599804Y-104588752D02*
X170504566Y-104588752D01*
X170504566Y-104588752D02*
X170409328Y-104541133D01*
X170409328Y-104541133D02*
X170361709Y-104493514D01*
X170361709Y-104493514D02*
X170314090Y-104398276D01*
X170314090Y-104398276D02*
X170314090Y-104064943D01*
X170314090Y-105064943D02*
X170314090Y-105398276D01*
X169790280Y-105541133D02*
X169790280Y-105064943D01*
X169790280Y-105064943D02*
X170790280Y-105064943D01*
X170790280Y-105064943D02*
X170790280Y-105541133D01*
X169837900Y-105922086D02*
X169790280Y-106064943D01*
X169790280Y-106064943D02*
X169790280Y-106303038D01*
X169790280Y-106303038D02*
X169837900Y-106398276D01*
X169837900Y-106398276D02*
X169885519Y-106445895D01*
X169885519Y-106445895D02*
X169980757Y-106493514D01*
X169980757Y-106493514D02*
X170075995Y-106493514D01*
X170075995Y-106493514D02*
X170171233Y-106445895D01*
X170171233Y-106445895D02*
X170218852Y-106398276D01*
X170218852Y-106398276D02*
X170266471Y-106303038D01*
X170266471Y-106303038D02*
X170314090Y-106112562D01*
X170314090Y-106112562D02*
X170361709Y-106017324D01*
X170361709Y-106017324D02*
X170409328Y-105969705D01*
X170409328Y-105969705D02*
X170504566Y-105922086D01*
X170504566Y-105922086D02*
X170599804Y-105922086D01*
X170599804Y-105922086D02*
X170695042Y-105969705D01*
X170695042Y-105969705D02*
X170742661Y-106017324D01*
X170742661Y-106017324D02*
X170790280Y-106112562D01*
X170790280Y-106112562D02*
X170790280Y-106350657D01*
X170790280Y-106350657D02*
X170742661Y-106493514D01*
X170790280Y-106779229D02*
X170790280Y-107350657D01*
X169790280Y-107064943D02*
X170790280Y-107064943D01*
X168275575Y-97160180D02*
X168227956Y-97112561D01*
X168227956Y-97112561D02*
X168180336Y-96969704D01*
X168180336Y-96969704D02*
X168180336Y-96874466D01*
X168180336Y-96874466D02*
X168227956Y-96731609D01*
X168227956Y-96731609D02*
X168323194Y-96636371D01*
X168323194Y-96636371D02*
X168418432Y-96588752D01*
X168418432Y-96588752D02*
X168608908Y-96541133D01*
X168608908Y-96541133D02*
X168751765Y-96541133D01*
X168751765Y-96541133D02*
X168942241Y-96588752D01*
X168942241Y-96588752D02*
X169037479Y-96636371D01*
X169037479Y-96636371D02*
X169132717Y-96731609D01*
X169132717Y-96731609D02*
X169180336Y-96874466D01*
X169180336Y-96874466D02*
X169180336Y-96969704D01*
X169180336Y-96969704D02*
X169132717Y-97112561D01*
X169132717Y-97112561D02*
X169085098Y-97160180D01*
X169180336Y-98017323D02*
X169180336Y-97826847D01*
X169180336Y-97826847D02*
X169132717Y-97731609D01*
X169132717Y-97731609D02*
X169085098Y-97683990D01*
X169085098Y-97683990D02*
X168942241Y-97588752D01*
X168942241Y-97588752D02*
X168751765Y-97541133D01*
X168751765Y-97541133D02*
X168370813Y-97541133D01*
X168370813Y-97541133D02*
X168275575Y-97588752D01*
X168275575Y-97588752D02*
X168227956Y-97636371D01*
X168227956Y-97636371D02*
X168180336Y-97731609D01*
X168180336Y-97731609D02*
X168180336Y-97922085D01*
X168180336Y-97922085D02*
X168227956Y-98017323D01*
X168227956Y-98017323D02*
X168275575Y-98064942D01*
X168275575Y-98064942D02*
X168370813Y-98112561D01*
X168370813Y-98112561D02*
X168608908Y-98112561D01*
X168608908Y-98112561D02*
X168704146Y-98064942D01*
X168704146Y-98064942D02*
X168751765Y-98017323D01*
X168751765Y-98017323D02*
X168799384Y-97922085D01*
X168799384Y-97922085D02*
X168799384Y-97731609D01*
X168799384Y-97731609D02*
X168751765Y-97636371D01*
X168751765Y-97636371D02*
X168704146Y-97588752D01*
X168704146Y-97588752D02*
X168608908Y-97541133D01*
X168085098Y-98303038D02*
X168085098Y-99064942D01*
X168704146Y-99636371D02*
X168704146Y-99303038D01*
X168180336Y-99303038D02*
X169180336Y-99303038D01*
X169180336Y-99303038D02*
X169180336Y-99779228D01*
X168180336Y-100636371D02*
X168180336Y-100160181D01*
X168180336Y-100160181D02*
X169180336Y-100160181D01*
X169085098Y-100922086D02*
X169132717Y-100969705D01*
X169132717Y-100969705D02*
X169180336Y-101064943D01*
X169180336Y-101064943D02*
X169180336Y-101303038D01*
X169180336Y-101303038D02*
X169132717Y-101398276D01*
X169132717Y-101398276D02*
X169085098Y-101445895D01*
X169085098Y-101445895D02*
X168989860Y-101493514D01*
X168989860Y-101493514D02*
X168894622Y-101493514D01*
X168894622Y-101493514D02*
X168751765Y-101445895D01*
X168751765Y-101445895D02*
X168180336Y-100874467D01*
X168180336Y-100874467D02*
X168180336Y-101493514D01*
X168847003Y-102350657D02*
X168180336Y-102350657D01*
X169227956Y-102112562D02*
X168513670Y-101874467D01*
X168513670Y-101874467D02*
X168513670Y-102493514D01*
X168085098Y-102636372D02*
X168085098Y-103398276D01*
X168180336Y-103636372D02*
X169180336Y-103636372D01*
X169180336Y-103636372D02*
X169180336Y-104017324D01*
X169180336Y-104017324D02*
X169132717Y-104112562D01*
X169132717Y-104112562D02*
X169085098Y-104160181D01*
X169085098Y-104160181D02*
X168989860Y-104207800D01*
X168989860Y-104207800D02*
X168847003Y-104207800D01*
X168847003Y-104207800D02*
X168751765Y-104160181D01*
X168751765Y-104160181D02*
X168704146Y-104112562D01*
X168704146Y-104112562D02*
X168656527Y-104017324D01*
X168656527Y-104017324D02*
X168656527Y-103636372D01*
X168704146Y-104969705D02*
X168656527Y-105112562D01*
X168656527Y-105112562D02*
X168608908Y-105160181D01*
X168608908Y-105160181D02*
X168513670Y-105207800D01*
X168513670Y-105207800D02*
X168370813Y-105207800D01*
X168370813Y-105207800D02*
X168275575Y-105160181D01*
X168275575Y-105160181D02*
X168227956Y-105112562D01*
X168227956Y-105112562D02*
X168180336Y-105017324D01*
X168180336Y-105017324D02*
X168180336Y-104636372D01*
X168180336Y-104636372D02*
X169180336Y-104636372D01*
X169180336Y-104636372D02*
X169180336Y-104969705D01*
X169180336Y-104969705D02*
X169132717Y-105064943D01*
X169132717Y-105064943D02*
X169085098Y-105112562D01*
X169085098Y-105112562D02*
X168989860Y-105160181D01*
X168989860Y-105160181D02*
X168894622Y-105160181D01*
X168894622Y-105160181D02*
X168799384Y-105112562D01*
X168799384Y-105112562D02*
X168751765Y-105064943D01*
X168751765Y-105064943D02*
X168704146Y-104969705D01*
X168704146Y-104969705D02*
X168704146Y-104636372D01*
X168085098Y-105398277D02*
X168085098Y-106160181D01*
X168847003Y-106303039D02*
X168180336Y-106541134D01*
X168180336Y-106541134D02*
X168847003Y-106779229D01*
X168180336Y-107683991D02*
X168180336Y-107112563D01*
X168180336Y-107398277D02*
X169180336Y-107398277D01*
X169180336Y-107398277D02*
X169037479Y-107303039D01*
X169037479Y-107303039D02*
X168942241Y-107207801D01*
X168942241Y-107207801D02*
X168894622Y-107112563D01*
X168275575Y-108112563D02*
X168227956Y-108160182D01*
X168227956Y-108160182D02*
X168180336Y-108112563D01*
X168180336Y-108112563D02*
X168227956Y-108064944D01*
X168227956Y-108064944D02*
X168275575Y-108112563D01*
X168275575Y-108112563D02*
X168180336Y-108112563D01*
X169180336Y-108779229D02*
X169180336Y-108874467D01*
X169180336Y-108874467D02*
X169132717Y-108969705D01*
X169132717Y-108969705D02*
X169085098Y-109017324D01*
X169085098Y-109017324D02*
X168989860Y-109064943D01*
X168989860Y-109064943D02*
X168799384Y-109112562D01*
X168799384Y-109112562D02*
X168561289Y-109112562D01*
X168561289Y-109112562D02*
X168370813Y-109064943D01*
X168370813Y-109064943D02*
X168275575Y-109017324D01*
X168275575Y-109017324D02*
X168227956Y-108969705D01*
X168227956Y-108969705D02*
X168180336Y-108874467D01*
X168180336Y-108874467D02*
X168180336Y-108779229D01*
X168180336Y-108779229D02*
X168227956Y-108683991D01*
X168227956Y-108683991D02*
X168275575Y-108636372D01*
X168275575Y-108636372D02*
X168370813Y-108588753D01*
X168370813Y-108588753D02*
X168561289Y-108541134D01*
X168561289Y-108541134D02*
X168799384Y-108541134D01*
X168799384Y-108541134D02*
X168989860Y-108588753D01*
X168989860Y-108588753D02*
X169085098Y-108636372D01*
X169085098Y-108636372D02*
X169132717Y-108683991D01*
X169132717Y-108683991D02*
X169180336Y-108779229D01*
X144610180Y-80474424D02*
X144562561Y-80522044D01*
X144562561Y-80522044D02*
X144419704Y-80569663D01*
X144419704Y-80569663D02*
X144324466Y-80569663D01*
X144324466Y-80569663D02*
X144181609Y-80522044D01*
X144181609Y-80522044D02*
X144086371Y-80426805D01*
X144086371Y-80426805D02*
X144038752Y-80331567D01*
X144038752Y-80331567D02*
X143991133Y-80141091D01*
X143991133Y-80141091D02*
X143991133Y-79998234D01*
X143991133Y-79998234D02*
X144038752Y-79807758D01*
X144038752Y-79807758D02*
X144086371Y-79712520D01*
X144086371Y-79712520D02*
X144181609Y-79617282D01*
X144181609Y-79617282D02*
X144324466Y-79569663D01*
X144324466Y-79569663D02*
X144419704Y-79569663D01*
X144419704Y-79569663D02*
X144562561Y-79617282D01*
X144562561Y-79617282D02*
X144610180Y-79664901D01*
X145467323Y-79902996D02*
X145467323Y-80569663D01*
X145229228Y-79522044D02*
X144991133Y-80236329D01*
X144991133Y-80236329D02*
X145610180Y-80236329D01*
X146038752Y-80522044D02*
X146038752Y-80569663D01*
X146038752Y-80569663D02*
X145991133Y-80664901D01*
X145991133Y-80664901D02*
X145943514Y-80712520D01*
X146610180Y-79998234D02*
X146514942Y-79950615D01*
X146514942Y-79950615D02*
X146467323Y-79902996D01*
X146467323Y-79902996D02*
X146419704Y-79807758D01*
X146419704Y-79807758D02*
X146419704Y-79760139D01*
X146419704Y-79760139D02*
X146467323Y-79664901D01*
X146467323Y-79664901D02*
X146514942Y-79617282D01*
X146514942Y-79617282D02*
X146610180Y-79569663D01*
X146610180Y-79569663D02*
X146800656Y-79569663D01*
X146800656Y-79569663D02*
X146895894Y-79617282D01*
X146895894Y-79617282D02*
X146943513Y-79664901D01*
X146943513Y-79664901D02*
X146991132Y-79760139D01*
X146991132Y-79760139D02*
X146991132Y-79807758D01*
X146991132Y-79807758D02*
X146943513Y-79902996D01*
X146943513Y-79902996D02*
X146895894Y-79950615D01*
X146895894Y-79950615D02*
X146800656Y-79998234D01*
X146800656Y-79998234D02*
X146610180Y-79998234D01*
X146610180Y-79998234D02*
X146514942Y-80045853D01*
X146514942Y-80045853D02*
X146467323Y-80093472D01*
X146467323Y-80093472D02*
X146419704Y-80188710D01*
X146419704Y-80188710D02*
X146419704Y-80379186D01*
X146419704Y-80379186D02*
X146467323Y-80474424D01*
X146467323Y-80474424D02*
X146514942Y-80522044D01*
X146514942Y-80522044D02*
X146610180Y-80569663D01*
X146610180Y-80569663D02*
X146800656Y-80569663D01*
X146800656Y-80569663D02*
X146895894Y-80522044D01*
X146895894Y-80522044D02*
X146943513Y-80474424D01*
X146943513Y-80474424D02*
X146991132Y-80379186D01*
X146991132Y-80379186D02*
X146991132Y-80188710D01*
X146991132Y-80188710D02*
X146943513Y-80093472D01*
X146943513Y-80093472D02*
X146895894Y-80045853D01*
X146895894Y-80045853D02*
X146800656Y-79998234D01*
X147467323Y-80522044D02*
X147467323Y-80569663D01*
X147467323Y-80569663D02*
X147419704Y-80664901D01*
X147419704Y-80664901D02*
X147372085Y-80712520D01*
X147943513Y-80569663D02*
X148133989Y-80569663D01*
X148133989Y-80569663D02*
X148229227Y-80522044D01*
X148229227Y-80522044D02*
X148276846Y-80474424D01*
X148276846Y-80474424D02*
X148372084Y-80331567D01*
X148372084Y-80331567D02*
X148419703Y-80141091D01*
X148419703Y-80141091D02*
X148419703Y-79760139D01*
X148419703Y-79760139D02*
X148372084Y-79664901D01*
X148372084Y-79664901D02*
X148324465Y-79617282D01*
X148324465Y-79617282D02*
X148229227Y-79569663D01*
X148229227Y-79569663D02*
X148038751Y-79569663D01*
X148038751Y-79569663D02*
X147943513Y-79617282D01*
X147943513Y-79617282D02*
X147895894Y-79664901D01*
X147895894Y-79664901D02*
X147848275Y-79760139D01*
X147848275Y-79760139D02*
X147848275Y-79998234D01*
X147848275Y-79998234D02*
X147895894Y-80093472D01*
X147895894Y-80093472D02*
X147943513Y-80141091D01*
X147943513Y-80141091D02*
X148038751Y-80188710D01*
X148038751Y-80188710D02*
X148229227Y-80188710D01*
X148229227Y-80188710D02*
X148324465Y-80141091D01*
X148324465Y-80141091D02*
X148372084Y-80093472D01*
X148372084Y-80093472D02*
X148419703Y-79998234D01*
X148895894Y-80522044D02*
X148895894Y-80569663D01*
X148895894Y-80569663D02*
X148848275Y-80664901D01*
X148848275Y-80664901D02*
X148800656Y-80712520D01*
X149848274Y-80569663D02*
X149276846Y-80569663D01*
X149562560Y-80569663D02*
X149562560Y-79569663D01*
X149562560Y-79569663D02*
X149467322Y-79712520D01*
X149467322Y-79712520D02*
X149372084Y-79807758D01*
X149372084Y-79807758D02*
X149276846Y-79855377D01*
X150467322Y-79569663D02*
X150562560Y-79569663D01*
X150562560Y-79569663D02*
X150657798Y-79617282D01*
X150657798Y-79617282D02*
X150705417Y-79664901D01*
X150705417Y-79664901D02*
X150753036Y-79760139D01*
X150753036Y-79760139D02*
X150800655Y-79950615D01*
X150800655Y-79950615D02*
X150800655Y-80188710D01*
X150800655Y-80188710D02*
X150753036Y-80379186D01*
X150753036Y-80379186D02*
X150705417Y-80474424D01*
X150705417Y-80474424D02*
X150657798Y-80522044D01*
X150657798Y-80522044D02*
X150562560Y-80569663D01*
X150562560Y-80569663D02*
X150467322Y-80569663D01*
X150467322Y-80569663D02*
X150372084Y-80522044D01*
X150372084Y-80522044D02*
X150324465Y-80474424D01*
X150324465Y-80474424D02*
X150276846Y-80379186D01*
X150276846Y-80379186D02*
X150229227Y-80188710D01*
X150229227Y-80188710D02*
X150229227Y-79950615D01*
X150229227Y-79950615D02*
X150276846Y-79760139D01*
X150276846Y-79760139D02*
X150324465Y-79664901D01*
X150324465Y-79664901D02*
X150372084Y-79617282D01*
X150372084Y-79617282D02*
X150467322Y-79569663D01*
X151276846Y-80522044D02*
X151276846Y-80569663D01*
X151276846Y-80569663D02*
X151229227Y-80664901D01*
X151229227Y-80664901D02*
X151181608Y-80712520D01*
X151610179Y-79569663D02*
X152276845Y-79569663D01*
X152276845Y-79569663D02*
X151848274Y-80569663D01*
X152705417Y-80522044D02*
X152705417Y-80569663D01*
X152705417Y-80569663D02*
X152657798Y-80664901D01*
X152657798Y-80664901D02*
X152610179Y-80712520D01*
X153657797Y-80569663D02*
X153086369Y-80569663D01*
X153372083Y-80569663D02*
X153372083Y-79569663D01*
X153372083Y-79569663D02*
X153276845Y-79712520D01*
X153276845Y-79712520D02*
X153181607Y-79807758D01*
X153181607Y-79807758D02*
X153086369Y-79855377D01*
X133391133Y-92922044D02*
X133533990Y-92969663D01*
X133533990Y-92969663D02*
X133772085Y-92969663D01*
X133772085Y-92969663D02*
X133867323Y-92922044D01*
X133867323Y-92922044D02*
X133914942Y-92874424D01*
X133914942Y-92874424D02*
X133962561Y-92779186D01*
X133962561Y-92779186D02*
X133962561Y-92683948D01*
X133962561Y-92683948D02*
X133914942Y-92588710D01*
X133914942Y-92588710D02*
X133867323Y-92541091D01*
X133867323Y-92541091D02*
X133772085Y-92493472D01*
X133772085Y-92493472D02*
X133581609Y-92445853D01*
X133581609Y-92445853D02*
X133486371Y-92398234D01*
X133486371Y-92398234D02*
X133438752Y-92350615D01*
X133438752Y-92350615D02*
X133391133Y-92255377D01*
X133391133Y-92255377D02*
X133391133Y-92160139D01*
X133391133Y-92160139D02*
X133438752Y-92064901D01*
X133438752Y-92064901D02*
X133486371Y-92017282D01*
X133486371Y-92017282D02*
X133581609Y-91969663D01*
X133581609Y-91969663D02*
X133819704Y-91969663D01*
X133819704Y-91969663D02*
X133962561Y-92017282D01*
X134295895Y-91969663D02*
X134533990Y-92969663D01*
X134533990Y-92969663D02*
X134724466Y-92255377D01*
X134724466Y-92255377D02*
X134914942Y-92969663D01*
X134914942Y-92969663D02*
X135153038Y-91969663D01*
X135533990Y-92969663D02*
X135533990Y-91969663D01*
X135533990Y-91969663D02*
X135772085Y-91969663D01*
X135772085Y-91969663D02*
X135914942Y-92017282D01*
X135914942Y-92017282D02*
X136010180Y-92112520D01*
X136010180Y-92112520D02*
X136057799Y-92207758D01*
X136057799Y-92207758D02*
X136105418Y-92398234D01*
X136105418Y-92398234D02*
X136105418Y-92541091D01*
X136105418Y-92541091D02*
X136057799Y-92731567D01*
X136057799Y-92731567D02*
X136010180Y-92826805D01*
X136010180Y-92826805D02*
X135914942Y-92922044D01*
X135914942Y-92922044D02*
X135772085Y-92969663D01*
X135772085Y-92969663D02*
X135533990Y-92969663D01*
X137248275Y-91922044D02*
X136391133Y-93207758D01*
X138105418Y-92017282D02*
X138010180Y-91969663D01*
X138010180Y-91969663D02*
X137867323Y-91969663D01*
X137867323Y-91969663D02*
X137724466Y-92017282D01*
X137724466Y-92017282D02*
X137629228Y-92112520D01*
X137629228Y-92112520D02*
X137581609Y-92207758D01*
X137581609Y-92207758D02*
X137533990Y-92398234D01*
X137533990Y-92398234D02*
X137533990Y-92541091D01*
X137533990Y-92541091D02*
X137581609Y-92731567D01*
X137581609Y-92731567D02*
X137629228Y-92826805D01*
X137629228Y-92826805D02*
X137724466Y-92922044D01*
X137724466Y-92922044D02*
X137867323Y-92969663D01*
X137867323Y-92969663D02*
X137962561Y-92969663D01*
X137962561Y-92969663D02*
X138105418Y-92922044D01*
X138105418Y-92922044D02*
X138153037Y-92874424D01*
X138153037Y-92874424D02*
X138153037Y-92541091D01*
X138153037Y-92541091D02*
X137962561Y-92541091D01*
X139153037Y-92874424D02*
X139105418Y-92922044D01*
X139105418Y-92922044D02*
X138962561Y-92969663D01*
X138962561Y-92969663D02*
X138867323Y-92969663D01*
X138867323Y-92969663D02*
X138724466Y-92922044D01*
X138724466Y-92922044D02*
X138629228Y-92826805D01*
X138629228Y-92826805D02*
X138581609Y-92731567D01*
X138581609Y-92731567D02*
X138533990Y-92541091D01*
X138533990Y-92541091D02*
X138533990Y-92398234D01*
X138533990Y-92398234D02*
X138581609Y-92207758D01*
X138581609Y-92207758D02*
X138629228Y-92112520D01*
X138629228Y-92112520D02*
X138724466Y-92017282D01*
X138724466Y-92017282D02*
X138867323Y-91969663D01*
X138867323Y-91969663D02*
X138962561Y-91969663D01*
X138962561Y-91969663D02*
X139105418Y-92017282D01*
X139105418Y-92017282D02*
X139153037Y-92064901D01*
X139581609Y-92969663D02*
X139581609Y-91969663D01*
X139581609Y-91969663D02*
X139819704Y-91969663D01*
X139819704Y-91969663D02*
X139962561Y-92017282D01*
X139962561Y-92017282D02*
X140057799Y-92112520D01*
X140057799Y-92112520D02*
X140105418Y-92207758D01*
X140105418Y-92207758D02*
X140153037Y-92398234D01*
X140153037Y-92398234D02*
X140153037Y-92541091D01*
X140153037Y-92541091D02*
X140105418Y-92731567D01*
X140105418Y-92731567D02*
X140057799Y-92826805D01*
X140057799Y-92826805D02*
X139962561Y-92922044D01*
X139962561Y-92922044D02*
X139819704Y-92969663D01*
X139819704Y-92969663D02*
X139581609Y-92969663D01*
X140438752Y-91969663D02*
X140772085Y-92969663D01*
X140772085Y-92969663D02*
X141105418Y-91969663D01*
X123638752Y-96969663D02*
X123638752Y-95969663D01*
X124067323Y-96064901D02*
X124114942Y-96017282D01*
X124114942Y-96017282D02*
X124210180Y-95969663D01*
X124210180Y-95969663D02*
X124448275Y-95969663D01*
X124448275Y-95969663D02*
X124543513Y-96017282D01*
X124543513Y-96017282D02*
X124591132Y-96064901D01*
X124591132Y-96064901D02*
X124638751Y-96160139D01*
X124638751Y-96160139D02*
X124638751Y-96255377D01*
X124638751Y-96255377D02*
X124591132Y-96398234D01*
X124591132Y-96398234D02*
X124019704Y-96969663D01*
X124019704Y-96969663D02*
X124638751Y-96969663D01*
X125638751Y-96874424D02*
X125591132Y-96922044D01*
X125591132Y-96922044D02*
X125448275Y-96969663D01*
X125448275Y-96969663D02*
X125353037Y-96969663D01*
X125353037Y-96969663D02*
X125210180Y-96922044D01*
X125210180Y-96922044D02*
X125114942Y-96826805D01*
X125114942Y-96826805D02*
X125067323Y-96731567D01*
X125067323Y-96731567D02*
X125019704Y-96541091D01*
X125019704Y-96541091D02*
X125019704Y-96398234D01*
X125019704Y-96398234D02*
X125067323Y-96207758D01*
X125067323Y-96207758D02*
X125114942Y-96112520D01*
X125114942Y-96112520D02*
X125210180Y-96017282D01*
X125210180Y-96017282D02*
X125353037Y-95969663D01*
X125353037Y-95969663D02*
X125448275Y-95969663D01*
X125448275Y-95969663D02*
X125591132Y-96017282D01*
X125591132Y-96017282D02*
X125638751Y-96064901D01*
X126781608Y-95922044D02*
X125924466Y-97207758D01*
X126972085Y-95969663D02*
X127305418Y-96969663D01*
X127305418Y-96969663D02*
X127638751Y-95969663D01*
X127972085Y-96969663D02*
X127972085Y-95969663D01*
X127972085Y-95969663D02*
X128210180Y-95969663D01*
X128210180Y-95969663D02*
X128353037Y-96017282D01*
X128353037Y-96017282D02*
X128448275Y-96112520D01*
X128448275Y-96112520D02*
X128495894Y-96207758D01*
X128495894Y-96207758D02*
X128543513Y-96398234D01*
X128543513Y-96398234D02*
X128543513Y-96541091D01*
X128543513Y-96541091D02*
X128495894Y-96731567D01*
X128495894Y-96731567D02*
X128448275Y-96826805D01*
X128448275Y-96826805D02*
X128353037Y-96922044D01*
X128353037Y-96922044D02*
X128210180Y-96969663D01*
X128210180Y-96969663D02*
X127972085Y-96969663D01*
X129543513Y-96874424D02*
X129495894Y-96922044D01*
X129495894Y-96922044D02*
X129353037Y-96969663D01*
X129353037Y-96969663D02*
X129257799Y-96969663D01*
X129257799Y-96969663D02*
X129114942Y-96922044D01*
X129114942Y-96922044D02*
X129019704Y-96826805D01*
X129019704Y-96826805D02*
X128972085Y-96731567D01*
X128972085Y-96731567D02*
X128924466Y-96541091D01*
X128924466Y-96541091D02*
X128924466Y-96398234D01*
X128924466Y-96398234D02*
X128972085Y-96207758D01*
X128972085Y-96207758D02*
X129019704Y-96112520D01*
X129019704Y-96112520D02*
X129114942Y-96017282D01*
X129114942Y-96017282D02*
X129257799Y-95969663D01*
X129257799Y-95969663D02*
X129353037Y-95969663D01*
X129353037Y-95969663D02*
X129495894Y-96017282D01*
X129495894Y-96017282D02*
X129543513Y-96064901D01*
X130495894Y-96017282D02*
X130400656Y-95969663D01*
X130400656Y-95969663D02*
X130257799Y-95969663D01*
X130257799Y-95969663D02*
X130114942Y-96017282D01*
X130114942Y-96017282D02*
X130019704Y-96112520D01*
X130019704Y-96112520D02*
X129972085Y-96207758D01*
X129972085Y-96207758D02*
X129924466Y-96398234D01*
X129924466Y-96398234D02*
X129924466Y-96541091D01*
X129924466Y-96541091D02*
X129972085Y-96731567D01*
X129972085Y-96731567D02*
X130019704Y-96826805D01*
X130019704Y-96826805D02*
X130114942Y-96922044D01*
X130114942Y-96922044D02*
X130257799Y-96969663D01*
X130257799Y-96969663D02*
X130353037Y-96969663D01*
X130353037Y-96969663D02*
X130495894Y-96922044D01*
X130495894Y-96922044D02*
X130543513Y-96874424D01*
X130543513Y-96874424D02*
X130543513Y-96541091D01*
X130543513Y-96541091D02*
X130353037Y-96541091D01*
X118007044Y-99133332D02*
X118054663Y-98990475D01*
X118054663Y-98990475D02*
X118054663Y-98752380D01*
X118054663Y-98752380D02*
X118007044Y-98657142D01*
X118007044Y-98657142D02*
X117959424Y-98609523D01*
X117959424Y-98609523D02*
X117864186Y-98561904D01*
X117864186Y-98561904D02*
X117768948Y-98561904D01*
X117768948Y-98561904D02*
X117673710Y-98609523D01*
X117673710Y-98609523D02*
X117626091Y-98657142D01*
X117626091Y-98657142D02*
X117578472Y-98752380D01*
X117578472Y-98752380D02*
X117530853Y-98942856D01*
X117530853Y-98942856D02*
X117483234Y-99038094D01*
X117483234Y-99038094D02*
X117435615Y-99085713D01*
X117435615Y-99085713D02*
X117340377Y-99133332D01*
X117340377Y-99133332D02*
X117245139Y-99133332D01*
X117245139Y-99133332D02*
X117149901Y-99085713D01*
X117149901Y-99085713D02*
X117102282Y-99038094D01*
X117102282Y-99038094D02*
X117054663Y-98942856D01*
X117054663Y-98942856D02*
X117054663Y-98704761D01*
X117054663Y-98704761D02*
X117102282Y-98561904D01*
X117054663Y-98228570D02*
X118054663Y-97990475D01*
X118054663Y-97990475D02*
X117340377Y-97799999D01*
X117340377Y-97799999D02*
X118054663Y-97609523D01*
X118054663Y-97609523D02*
X117054663Y-97371428D01*
X118054663Y-96466666D02*
X118054663Y-97038094D01*
X118054663Y-96752380D02*
X117054663Y-96752380D01*
X117054663Y-96752380D02*
X117197520Y-96847618D01*
X117197520Y-96847618D02*
X117292758Y-96942856D01*
X117292758Y-96942856D02*
X117340377Y-97038094D01*
D11*
X120324819Y-95066666D02*
X119848628Y-95399999D01*
X120324819Y-95638094D02*
X119324819Y-95638094D01*
X119324819Y-95638094D02*
X119324819Y-95257142D01*
X119324819Y-95257142D02*
X119372438Y-95161904D01*
X119372438Y-95161904D02*
X119420057Y-95114285D01*
X119420057Y-95114285D02*
X119515295Y-95066666D01*
X119515295Y-95066666D02*
X119658152Y-95066666D01*
X119658152Y-95066666D02*
X119753390Y-95114285D01*
X119753390Y-95114285D02*
X119801009Y-95161904D01*
X119801009Y-95161904D02*
X119848628Y-95257142D01*
X119848628Y-95257142D02*
X119848628Y-95638094D01*
X119658152Y-94209523D02*
X120324819Y-94209523D01*
X119277200Y-94447618D02*
X119991485Y-94685713D01*
X119991485Y-94685713D02*
X119991485Y-94066666D01*
D10*
X152859424Y-95242857D02*
X152907044Y-95290476D01*
X152907044Y-95290476D02*
X152954663Y-95433333D01*
X152954663Y-95433333D02*
X152954663Y-95528571D01*
X152954663Y-95528571D02*
X152907044Y-95671428D01*
X152907044Y-95671428D02*
X152811805Y-95766666D01*
X152811805Y-95766666D02*
X152716567Y-95814285D01*
X152716567Y-95814285D02*
X152526091Y-95861904D01*
X152526091Y-95861904D02*
X152383234Y-95861904D01*
X152383234Y-95861904D02*
X152192758Y-95814285D01*
X152192758Y-95814285D02*
X152097520Y-95766666D01*
X152097520Y-95766666D02*
X152002282Y-95671428D01*
X152002282Y-95671428D02*
X151954663Y-95528571D01*
X151954663Y-95528571D02*
X151954663Y-95433333D01*
X151954663Y-95433333D02*
X152002282Y-95290476D01*
X152002282Y-95290476D02*
X152049901Y-95242857D01*
X152954663Y-94290476D02*
X152954663Y-94861904D01*
X152954663Y-94576190D02*
X151954663Y-94576190D01*
X151954663Y-94576190D02*
X152097520Y-94671428D01*
X152097520Y-94671428D02*
X152192758Y-94766666D01*
X152192758Y-94766666D02*
X152240377Y-94861904D01*
X152049901Y-93909523D02*
X152002282Y-93861904D01*
X152002282Y-93861904D02*
X151954663Y-93766666D01*
X151954663Y-93766666D02*
X151954663Y-93528571D01*
X151954663Y-93528571D02*
X152002282Y-93433333D01*
X152002282Y-93433333D02*
X152049901Y-93385714D01*
X152049901Y-93385714D02*
X152145139Y-93338095D01*
X152145139Y-93338095D02*
X152240377Y-93338095D01*
X152240377Y-93338095D02*
X152383234Y-93385714D01*
X152383234Y-93385714D02*
X152954663Y-93957142D01*
X152954663Y-93957142D02*
X152954663Y-93338095D01*
X121833333Y-88654663D02*
X121500000Y-88178472D01*
X121261905Y-88654663D02*
X121261905Y-87654663D01*
X121261905Y-87654663D02*
X121642857Y-87654663D01*
X121642857Y-87654663D02*
X121738095Y-87702282D01*
X121738095Y-87702282D02*
X121785714Y-87749901D01*
X121785714Y-87749901D02*
X121833333Y-87845139D01*
X121833333Y-87845139D02*
X121833333Y-87987996D01*
X121833333Y-87987996D02*
X121785714Y-88083234D01*
X121785714Y-88083234D02*
X121738095Y-88130853D01*
X121738095Y-88130853D02*
X121642857Y-88178472D01*
X121642857Y-88178472D02*
X121261905Y-88178472D01*
X122690476Y-87654663D02*
X122500000Y-87654663D01*
X122500000Y-87654663D02*
X122404762Y-87702282D01*
X122404762Y-87702282D02*
X122357143Y-87749901D01*
X122357143Y-87749901D02*
X122261905Y-87892758D01*
X122261905Y-87892758D02*
X122214286Y-88083234D01*
X122214286Y-88083234D02*
X122214286Y-88464186D01*
X122214286Y-88464186D02*
X122261905Y-88559424D01*
X122261905Y-88559424D02*
X122309524Y-88607044D01*
X122309524Y-88607044D02*
X122404762Y-88654663D01*
X122404762Y-88654663D02*
X122595238Y-88654663D01*
X122595238Y-88654663D02*
X122690476Y-88607044D01*
X122690476Y-88607044D02*
X122738095Y-88559424D01*
X122738095Y-88559424D02*
X122785714Y-88464186D01*
X122785714Y-88464186D02*
X122785714Y-88226091D01*
X122785714Y-88226091D02*
X122738095Y-88130853D01*
X122738095Y-88130853D02*
X122690476Y-88083234D01*
X122690476Y-88083234D02*
X122595238Y-88035615D01*
X122595238Y-88035615D02*
X122404762Y-88035615D01*
X122404762Y-88035615D02*
X122309524Y-88083234D01*
X122309524Y-88083234D02*
X122261905Y-88130853D01*
X122261905Y-88130853D02*
X122214286Y-88226091D01*
X142666666Y-91904663D02*
X142666666Y-92618948D01*
X142666666Y-92618948D02*
X142619047Y-92761805D01*
X142619047Y-92761805D02*
X142523809Y-92857044D01*
X142523809Y-92857044D02*
X142380952Y-92904663D01*
X142380952Y-92904663D02*
X142285714Y-92904663D01*
X143095238Y-91999901D02*
X143142857Y-91952282D01*
X143142857Y-91952282D02*
X143238095Y-91904663D01*
X143238095Y-91904663D02*
X143476190Y-91904663D01*
X143476190Y-91904663D02*
X143571428Y-91952282D01*
X143571428Y-91952282D02*
X143619047Y-91999901D01*
X143619047Y-91999901D02*
X143666666Y-92095139D01*
X143666666Y-92095139D02*
X143666666Y-92190377D01*
X143666666Y-92190377D02*
X143619047Y-92333234D01*
X143619047Y-92333234D02*
X143047619Y-92904663D01*
X143047619Y-92904663D02*
X143666666Y-92904663D01*
X123084663Y-93866666D02*
X122608472Y-94199999D01*
X123084663Y-94438094D02*
X122084663Y-94438094D01*
X122084663Y-94438094D02*
X122084663Y-94057142D01*
X122084663Y-94057142D02*
X122132282Y-93961904D01*
X122132282Y-93961904D02*
X122179901Y-93914285D01*
X122179901Y-93914285D02*
X122275139Y-93866666D01*
X122275139Y-93866666D02*
X122417996Y-93866666D01*
X122417996Y-93866666D02*
X122513234Y-93914285D01*
X122513234Y-93914285D02*
X122560853Y-93961904D01*
X122560853Y-93961904D02*
X122608472Y-94057142D01*
X122608472Y-94057142D02*
X122608472Y-94438094D01*
X122179901Y-93485713D02*
X122132282Y-93438094D01*
X122132282Y-93438094D02*
X122084663Y-93342856D01*
X122084663Y-93342856D02*
X122084663Y-93104761D01*
X122084663Y-93104761D02*
X122132282Y-93009523D01*
X122132282Y-93009523D02*
X122179901Y-92961904D01*
X122179901Y-92961904D02*
X122275139Y-92914285D01*
X122275139Y-92914285D02*
X122370377Y-92914285D01*
X122370377Y-92914285D02*
X122513234Y-92961904D01*
X122513234Y-92961904D02*
X123084663Y-93533332D01*
X123084663Y-93533332D02*
X123084663Y-92914285D01*
X160609424Y-89142857D02*
X160657044Y-89190476D01*
X160657044Y-89190476D02*
X160704663Y-89333333D01*
X160704663Y-89333333D02*
X160704663Y-89428571D01*
X160704663Y-89428571D02*
X160657044Y-89571428D01*
X160657044Y-89571428D02*
X160561805Y-89666666D01*
X160561805Y-89666666D02*
X160466567Y-89714285D01*
X160466567Y-89714285D02*
X160276091Y-89761904D01*
X160276091Y-89761904D02*
X160133234Y-89761904D01*
X160133234Y-89761904D02*
X159942758Y-89714285D01*
X159942758Y-89714285D02*
X159847520Y-89666666D01*
X159847520Y-89666666D02*
X159752282Y-89571428D01*
X159752282Y-89571428D02*
X159704663Y-89428571D01*
X159704663Y-89428571D02*
X159704663Y-89333333D01*
X159704663Y-89333333D02*
X159752282Y-89190476D01*
X159752282Y-89190476D02*
X159799901Y-89142857D01*
X160704663Y-88190476D02*
X160704663Y-88761904D01*
X160704663Y-88476190D02*
X159704663Y-88476190D01*
X159704663Y-88476190D02*
X159847520Y-88571428D01*
X159847520Y-88571428D02*
X159942758Y-88666666D01*
X159942758Y-88666666D02*
X159990377Y-88761904D01*
X159704663Y-87333333D02*
X159704663Y-87523809D01*
X159704663Y-87523809D02*
X159752282Y-87619047D01*
X159752282Y-87619047D02*
X159799901Y-87666666D01*
X159799901Y-87666666D02*
X159942758Y-87761904D01*
X159942758Y-87761904D02*
X160133234Y-87809523D01*
X160133234Y-87809523D02*
X160514186Y-87809523D01*
X160514186Y-87809523D02*
X160609424Y-87761904D01*
X160609424Y-87761904D02*
X160657044Y-87714285D01*
X160657044Y-87714285D02*
X160704663Y-87619047D01*
X160704663Y-87619047D02*
X160704663Y-87428571D01*
X160704663Y-87428571D02*
X160657044Y-87333333D01*
X160657044Y-87333333D02*
X160609424Y-87285714D01*
X160609424Y-87285714D02*
X160514186Y-87238095D01*
X160514186Y-87238095D02*
X160276091Y-87238095D01*
X160276091Y-87238095D02*
X160180853Y-87285714D01*
X160180853Y-87285714D02*
X160133234Y-87333333D01*
X160133234Y-87333333D02*
X160085615Y-87428571D01*
X160085615Y-87428571D02*
X160085615Y-87619047D01*
X160085615Y-87619047D02*
X160133234Y-87714285D01*
X160133234Y-87714285D02*
X160180853Y-87761904D01*
X160180853Y-87761904D02*
X160276091Y-87809523D01*
X122359424Y-82142857D02*
X122407044Y-82190476D01*
X122407044Y-82190476D02*
X122454663Y-82333333D01*
X122454663Y-82333333D02*
X122454663Y-82428571D01*
X122454663Y-82428571D02*
X122407044Y-82571428D01*
X122407044Y-82571428D02*
X122311805Y-82666666D01*
X122311805Y-82666666D02*
X122216567Y-82714285D01*
X122216567Y-82714285D02*
X122026091Y-82761904D01*
X122026091Y-82761904D02*
X121883234Y-82761904D01*
X121883234Y-82761904D02*
X121692758Y-82714285D01*
X121692758Y-82714285D02*
X121597520Y-82666666D01*
X121597520Y-82666666D02*
X121502282Y-82571428D01*
X121502282Y-82571428D02*
X121454663Y-82428571D01*
X121454663Y-82428571D02*
X121454663Y-82333333D01*
X121454663Y-82333333D02*
X121502282Y-82190476D01*
X121502282Y-82190476D02*
X121549901Y-82142857D01*
X122454663Y-81190476D02*
X122454663Y-81761904D01*
X122454663Y-81476190D02*
X121454663Y-81476190D01*
X121454663Y-81476190D02*
X121597520Y-81571428D01*
X121597520Y-81571428D02*
X121692758Y-81666666D01*
X121692758Y-81666666D02*
X121740377Y-81761904D01*
X122454663Y-80714285D02*
X122454663Y-80523809D01*
X122454663Y-80523809D02*
X122407044Y-80428571D01*
X122407044Y-80428571D02*
X122359424Y-80380952D01*
X122359424Y-80380952D02*
X122216567Y-80285714D01*
X122216567Y-80285714D02*
X122026091Y-80238095D01*
X122026091Y-80238095D02*
X121645139Y-80238095D01*
X121645139Y-80238095D02*
X121549901Y-80285714D01*
X121549901Y-80285714D02*
X121502282Y-80333333D01*
X121502282Y-80333333D02*
X121454663Y-80428571D01*
X121454663Y-80428571D02*
X121454663Y-80619047D01*
X121454663Y-80619047D02*
X121502282Y-80714285D01*
X121502282Y-80714285D02*
X121549901Y-80761904D01*
X121549901Y-80761904D02*
X121645139Y-80809523D01*
X121645139Y-80809523D02*
X121883234Y-80809523D01*
X121883234Y-80809523D02*
X121978472Y-80761904D01*
X121978472Y-80761904D02*
X122026091Y-80714285D01*
X122026091Y-80714285D02*
X122073710Y-80619047D01*
X122073710Y-80619047D02*
X122073710Y-80428571D01*
X122073710Y-80428571D02*
X122026091Y-80333333D01*
X122026091Y-80333333D02*
X121978472Y-80285714D01*
X121978472Y-80285714D02*
X121883234Y-80238095D01*
X146059424Y-91366666D02*
X146107044Y-91414285D01*
X146107044Y-91414285D02*
X146154663Y-91557142D01*
X146154663Y-91557142D02*
X146154663Y-91652380D01*
X146154663Y-91652380D02*
X146107044Y-91795237D01*
X146107044Y-91795237D02*
X146011805Y-91890475D01*
X146011805Y-91890475D02*
X145916567Y-91938094D01*
X145916567Y-91938094D02*
X145726091Y-91985713D01*
X145726091Y-91985713D02*
X145583234Y-91985713D01*
X145583234Y-91985713D02*
X145392758Y-91938094D01*
X145392758Y-91938094D02*
X145297520Y-91890475D01*
X145297520Y-91890475D02*
X145202282Y-91795237D01*
X145202282Y-91795237D02*
X145154663Y-91652380D01*
X145154663Y-91652380D02*
X145154663Y-91557142D01*
X145154663Y-91557142D02*
X145202282Y-91414285D01*
X145202282Y-91414285D02*
X145249901Y-91366666D01*
X145154663Y-90461904D02*
X145154663Y-90938094D01*
X145154663Y-90938094D02*
X145630853Y-90985713D01*
X145630853Y-90985713D02*
X145583234Y-90938094D01*
X145583234Y-90938094D02*
X145535615Y-90842856D01*
X145535615Y-90842856D02*
X145535615Y-90604761D01*
X145535615Y-90604761D02*
X145583234Y-90509523D01*
X145583234Y-90509523D02*
X145630853Y-90461904D01*
X145630853Y-90461904D02*
X145726091Y-90414285D01*
X145726091Y-90414285D02*
X145964186Y-90414285D01*
X145964186Y-90414285D02*
X146059424Y-90461904D01*
X146059424Y-90461904D02*
X146107044Y-90509523D01*
X146107044Y-90509523D02*
X146154663Y-90604761D01*
X146154663Y-90604761D02*
X146154663Y-90842856D01*
X146154663Y-90842856D02*
X146107044Y-90938094D01*
X146107044Y-90938094D02*
X146059424Y-90985713D01*
X145133333Y-84959424D02*
X145085714Y-85007044D01*
X145085714Y-85007044D02*
X144942857Y-85054663D01*
X144942857Y-85054663D02*
X144847619Y-85054663D01*
X144847619Y-85054663D02*
X144704762Y-85007044D01*
X144704762Y-85007044D02*
X144609524Y-84911805D01*
X144609524Y-84911805D02*
X144561905Y-84816567D01*
X144561905Y-84816567D02*
X144514286Y-84626091D01*
X144514286Y-84626091D02*
X144514286Y-84483234D01*
X144514286Y-84483234D02*
X144561905Y-84292758D01*
X144561905Y-84292758D02*
X144609524Y-84197520D01*
X144609524Y-84197520D02*
X144704762Y-84102282D01*
X144704762Y-84102282D02*
X144847619Y-84054663D01*
X144847619Y-84054663D02*
X144942857Y-84054663D01*
X144942857Y-84054663D02*
X145085714Y-84102282D01*
X145085714Y-84102282D02*
X145133333Y-84149901D01*
X145990476Y-84054663D02*
X145800000Y-84054663D01*
X145800000Y-84054663D02*
X145704762Y-84102282D01*
X145704762Y-84102282D02*
X145657143Y-84149901D01*
X145657143Y-84149901D02*
X145561905Y-84292758D01*
X145561905Y-84292758D02*
X145514286Y-84483234D01*
X145514286Y-84483234D02*
X145514286Y-84864186D01*
X145514286Y-84864186D02*
X145561905Y-84959424D01*
X145561905Y-84959424D02*
X145609524Y-85007044D01*
X145609524Y-85007044D02*
X145704762Y-85054663D01*
X145704762Y-85054663D02*
X145895238Y-85054663D01*
X145895238Y-85054663D02*
X145990476Y-85007044D01*
X145990476Y-85007044D02*
X146038095Y-84959424D01*
X146038095Y-84959424D02*
X146085714Y-84864186D01*
X146085714Y-84864186D02*
X146085714Y-84626091D01*
X146085714Y-84626091D02*
X146038095Y-84530853D01*
X146038095Y-84530853D02*
X145990476Y-84483234D01*
X145990476Y-84483234D02*
X145895238Y-84435615D01*
X145895238Y-84435615D02*
X145704762Y-84435615D01*
X145704762Y-84435615D02*
X145609524Y-84483234D01*
X145609524Y-84483234D02*
X145561905Y-84530853D01*
X145561905Y-84530853D02*
X145514286Y-84626091D01*
X158566667Y-95907044D02*
X158709524Y-95954663D01*
X158709524Y-95954663D02*
X158947619Y-95954663D01*
X158947619Y-95954663D02*
X159042857Y-95907044D01*
X159042857Y-95907044D02*
X159090476Y-95859424D01*
X159090476Y-95859424D02*
X159138095Y-95764186D01*
X159138095Y-95764186D02*
X159138095Y-95668948D01*
X159138095Y-95668948D02*
X159090476Y-95573710D01*
X159090476Y-95573710D02*
X159042857Y-95526091D01*
X159042857Y-95526091D02*
X158947619Y-95478472D01*
X158947619Y-95478472D02*
X158757143Y-95430853D01*
X158757143Y-95430853D02*
X158661905Y-95383234D01*
X158661905Y-95383234D02*
X158614286Y-95335615D01*
X158614286Y-95335615D02*
X158566667Y-95240377D01*
X158566667Y-95240377D02*
X158566667Y-95145139D01*
X158566667Y-95145139D02*
X158614286Y-95049901D01*
X158614286Y-95049901D02*
X158661905Y-95002282D01*
X158661905Y-95002282D02*
X158757143Y-94954663D01*
X158757143Y-94954663D02*
X158995238Y-94954663D01*
X158995238Y-94954663D02*
X159138095Y-95002282D01*
X159471429Y-94954663D02*
X159709524Y-95954663D01*
X159709524Y-95954663D02*
X159900000Y-95240377D01*
X159900000Y-95240377D02*
X160090476Y-95954663D01*
X160090476Y-95954663D02*
X160328572Y-94954663D01*
X160661905Y-95049901D02*
X160709524Y-95002282D01*
X160709524Y-95002282D02*
X160804762Y-94954663D01*
X160804762Y-94954663D02*
X161042857Y-94954663D01*
X161042857Y-94954663D02*
X161138095Y-95002282D01*
X161138095Y-95002282D02*
X161185714Y-95049901D01*
X161185714Y-95049901D02*
X161233333Y-95145139D01*
X161233333Y-95145139D02*
X161233333Y-95240377D01*
X161233333Y-95240377D02*
X161185714Y-95383234D01*
X161185714Y-95383234D02*
X160614286Y-95954663D01*
X160614286Y-95954663D02*
X161233333Y-95954663D01*
X160609424Y-84142857D02*
X160657044Y-84190476D01*
X160657044Y-84190476D02*
X160704663Y-84333333D01*
X160704663Y-84333333D02*
X160704663Y-84428571D01*
X160704663Y-84428571D02*
X160657044Y-84571428D01*
X160657044Y-84571428D02*
X160561805Y-84666666D01*
X160561805Y-84666666D02*
X160466567Y-84714285D01*
X160466567Y-84714285D02*
X160276091Y-84761904D01*
X160276091Y-84761904D02*
X160133234Y-84761904D01*
X160133234Y-84761904D02*
X159942758Y-84714285D01*
X159942758Y-84714285D02*
X159847520Y-84666666D01*
X159847520Y-84666666D02*
X159752282Y-84571428D01*
X159752282Y-84571428D02*
X159704663Y-84428571D01*
X159704663Y-84428571D02*
X159704663Y-84333333D01*
X159704663Y-84333333D02*
X159752282Y-84190476D01*
X159752282Y-84190476D02*
X159799901Y-84142857D01*
X160704663Y-83190476D02*
X160704663Y-83761904D01*
X160704663Y-83476190D02*
X159704663Y-83476190D01*
X159704663Y-83476190D02*
X159847520Y-83571428D01*
X159847520Y-83571428D02*
X159942758Y-83666666D01*
X159942758Y-83666666D02*
X159990377Y-83761904D01*
X159704663Y-82285714D02*
X159704663Y-82761904D01*
X159704663Y-82761904D02*
X160180853Y-82809523D01*
X160180853Y-82809523D02*
X160133234Y-82761904D01*
X160133234Y-82761904D02*
X160085615Y-82666666D01*
X160085615Y-82666666D02*
X160085615Y-82428571D01*
X160085615Y-82428571D02*
X160133234Y-82333333D01*
X160133234Y-82333333D02*
X160180853Y-82285714D01*
X160180853Y-82285714D02*
X160276091Y-82238095D01*
X160276091Y-82238095D02*
X160514186Y-82238095D01*
X160514186Y-82238095D02*
X160609424Y-82285714D01*
X160609424Y-82285714D02*
X160657044Y-82333333D01*
X160657044Y-82333333D02*
X160704663Y-82428571D01*
X160704663Y-82428571D02*
X160704663Y-82666666D01*
X160704663Y-82666666D02*
X160657044Y-82761904D01*
X160657044Y-82761904D02*
X160609424Y-82809523D01*
X163731051Y-87433333D02*
X163731051Y-87909523D01*
X163445336Y-87338095D02*
X164445336Y-87671428D01*
X164445336Y-87671428D02*
X163445336Y-88004761D01*
X163969146Y-88338095D02*
X163969146Y-88671428D01*
X163445336Y-88814285D02*
X163445336Y-88338095D01*
X163445336Y-88338095D02*
X164445336Y-88338095D01*
X164445336Y-88338095D02*
X164445336Y-88814285D01*
X163445336Y-89766666D02*
X163445336Y-89195238D01*
X163445336Y-89480952D02*
X164445336Y-89480952D01*
X164445336Y-89480952D02*
X164302479Y-89385714D01*
X164302479Y-89385714D02*
X164207241Y-89290476D01*
X164207241Y-89290476D02*
X164159622Y-89195238D01*
X121833333Y-83954663D02*
X121500000Y-83478472D01*
X121261905Y-83954663D02*
X121261905Y-82954663D01*
X121261905Y-82954663D02*
X121642857Y-82954663D01*
X121642857Y-82954663D02*
X121738095Y-83002282D01*
X121738095Y-83002282D02*
X121785714Y-83049901D01*
X121785714Y-83049901D02*
X121833333Y-83145139D01*
X121833333Y-83145139D02*
X121833333Y-83287996D01*
X121833333Y-83287996D02*
X121785714Y-83383234D01*
X121785714Y-83383234D02*
X121738095Y-83430853D01*
X121738095Y-83430853D02*
X121642857Y-83478472D01*
X121642857Y-83478472D02*
X121261905Y-83478472D01*
X122738095Y-82954663D02*
X122261905Y-82954663D01*
X122261905Y-82954663D02*
X122214286Y-83430853D01*
X122214286Y-83430853D02*
X122261905Y-83383234D01*
X122261905Y-83383234D02*
X122357143Y-83335615D01*
X122357143Y-83335615D02*
X122595238Y-83335615D01*
X122595238Y-83335615D02*
X122690476Y-83383234D01*
X122690476Y-83383234D02*
X122738095Y-83430853D01*
X122738095Y-83430853D02*
X122785714Y-83526091D01*
X122785714Y-83526091D02*
X122785714Y-83764186D01*
X122785714Y-83764186D02*
X122738095Y-83859424D01*
X122738095Y-83859424D02*
X122690476Y-83907044D01*
X122690476Y-83907044D02*
X122595238Y-83954663D01*
X122595238Y-83954663D02*
X122357143Y-83954663D01*
X122357143Y-83954663D02*
X122261905Y-83907044D01*
X122261905Y-83907044D02*
X122214286Y-83859424D01*
X159209424Y-84142857D02*
X159257044Y-84190476D01*
X159257044Y-84190476D02*
X159304663Y-84333333D01*
X159304663Y-84333333D02*
X159304663Y-84428571D01*
X159304663Y-84428571D02*
X159257044Y-84571428D01*
X159257044Y-84571428D02*
X159161805Y-84666666D01*
X159161805Y-84666666D02*
X159066567Y-84714285D01*
X159066567Y-84714285D02*
X158876091Y-84761904D01*
X158876091Y-84761904D02*
X158733234Y-84761904D01*
X158733234Y-84761904D02*
X158542758Y-84714285D01*
X158542758Y-84714285D02*
X158447520Y-84666666D01*
X158447520Y-84666666D02*
X158352282Y-84571428D01*
X158352282Y-84571428D02*
X158304663Y-84428571D01*
X158304663Y-84428571D02*
X158304663Y-84333333D01*
X158304663Y-84333333D02*
X158352282Y-84190476D01*
X158352282Y-84190476D02*
X158399901Y-84142857D01*
X159304663Y-83190476D02*
X159304663Y-83761904D01*
X159304663Y-83476190D02*
X158304663Y-83476190D01*
X158304663Y-83476190D02*
X158447520Y-83571428D01*
X158447520Y-83571428D02*
X158542758Y-83666666D01*
X158542758Y-83666666D02*
X158590377Y-83761904D01*
X158637996Y-82333333D02*
X159304663Y-82333333D01*
X158257044Y-82571428D02*
X158971329Y-82809523D01*
X158971329Y-82809523D02*
X158971329Y-82190476D01*
X122659424Y-90992857D02*
X122707044Y-91040476D01*
X122707044Y-91040476D02*
X122754663Y-91183333D01*
X122754663Y-91183333D02*
X122754663Y-91278571D01*
X122754663Y-91278571D02*
X122707044Y-91421428D01*
X122707044Y-91421428D02*
X122611805Y-91516666D01*
X122611805Y-91516666D02*
X122516567Y-91564285D01*
X122516567Y-91564285D02*
X122326091Y-91611904D01*
X122326091Y-91611904D02*
X122183234Y-91611904D01*
X122183234Y-91611904D02*
X121992758Y-91564285D01*
X121992758Y-91564285D02*
X121897520Y-91516666D01*
X121897520Y-91516666D02*
X121802282Y-91421428D01*
X121802282Y-91421428D02*
X121754663Y-91278571D01*
X121754663Y-91278571D02*
X121754663Y-91183333D01*
X121754663Y-91183333D02*
X121802282Y-91040476D01*
X121802282Y-91040476D02*
X121849901Y-90992857D01*
X122754663Y-90040476D02*
X122754663Y-90611904D01*
X122754663Y-90326190D02*
X121754663Y-90326190D01*
X121754663Y-90326190D02*
X121897520Y-90421428D01*
X121897520Y-90421428D02*
X121992758Y-90516666D01*
X121992758Y-90516666D02*
X122040377Y-90611904D01*
X122183234Y-89469047D02*
X122135615Y-89564285D01*
X122135615Y-89564285D02*
X122087996Y-89611904D01*
X122087996Y-89611904D02*
X121992758Y-89659523D01*
X121992758Y-89659523D02*
X121945139Y-89659523D01*
X121945139Y-89659523D02*
X121849901Y-89611904D01*
X121849901Y-89611904D02*
X121802282Y-89564285D01*
X121802282Y-89564285D02*
X121754663Y-89469047D01*
X121754663Y-89469047D02*
X121754663Y-89278571D01*
X121754663Y-89278571D02*
X121802282Y-89183333D01*
X121802282Y-89183333D02*
X121849901Y-89135714D01*
X121849901Y-89135714D02*
X121945139Y-89088095D01*
X121945139Y-89088095D02*
X121992758Y-89088095D01*
X121992758Y-89088095D02*
X122087996Y-89135714D01*
X122087996Y-89135714D02*
X122135615Y-89183333D01*
X122135615Y-89183333D02*
X122183234Y-89278571D01*
X122183234Y-89278571D02*
X122183234Y-89469047D01*
X122183234Y-89469047D02*
X122230853Y-89564285D01*
X122230853Y-89564285D02*
X122278472Y-89611904D01*
X122278472Y-89611904D02*
X122373710Y-89659523D01*
X122373710Y-89659523D02*
X122564186Y-89659523D01*
X122564186Y-89659523D02*
X122659424Y-89611904D01*
X122659424Y-89611904D02*
X122707044Y-89564285D01*
X122707044Y-89564285D02*
X122754663Y-89469047D01*
X122754663Y-89469047D02*
X122754663Y-89278571D01*
X122754663Y-89278571D02*
X122707044Y-89183333D01*
X122707044Y-89183333D02*
X122659424Y-89135714D01*
X122659424Y-89135714D02*
X122564186Y-89088095D01*
X122564186Y-89088095D02*
X122373710Y-89088095D01*
X122373710Y-89088095D02*
X122278472Y-89135714D01*
X122278472Y-89135714D02*
X122230853Y-89183333D01*
X122230853Y-89183333D02*
X122183234Y-89278571D01*
X130784663Y-93166666D02*
X130308472Y-93499999D01*
X130784663Y-93738094D02*
X129784663Y-93738094D01*
X129784663Y-93738094D02*
X129784663Y-93357142D01*
X129784663Y-93357142D02*
X129832282Y-93261904D01*
X129832282Y-93261904D02*
X129879901Y-93214285D01*
X129879901Y-93214285D02*
X129975139Y-93166666D01*
X129975139Y-93166666D02*
X130117996Y-93166666D01*
X130117996Y-93166666D02*
X130213234Y-93214285D01*
X130213234Y-93214285D02*
X130260853Y-93261904D01*
X130260853Y-93261904D02*
X130308472Y-93357142D01*
X130308472Y-93357142D02*
X130308472Y-93738094D01*
X130784663Y-92214285D02*
X130784663Y-92785713D01*
X130784663Y-92499999D02*
X129784663Y-92499999D01*
X129784663Y-92499999D02*
X129927520Y-92595237D01*
X129927520Y-92595237D02*
X130022758Y-92690475D01*
X130022758Y-92690475D02*
X130070377Y-92785713D01*
X155859424Y-91042857D02*
X155907044Y-91090476D01*
X155907044Y-91090476D02*
X155954663Y-91233333D01*
X155954663Y-91233333D02*
X155954663Y-91328571D01*
X155954663Y-91328571D02*
X155907044Y-91471428D01*
X155907044Y-91471428D02*
X155811805Y-91566666D01*
X155811805Y-91566666D02*
X155716567Y-91614285D01*
X155716567Y-91614285D02*
X155526091Y-91661904D01*
X155526091Y-91661904D02*
X155383234Y-91661904D01*
X155383234Y-91661904D02*
X155192758Y-91614285D01*
X155192758Y-91614285D02*
X155097520Y-91566666D01*
X155097520Y-91566666D02*
X155002282Y-91471428D01*
X155002282Y-91471428D02*
X154954663Y-91328571D01*
X154954663Y-91328571D02*
X154954663Y-91233333D01*
X154954663Y-91233333D02*
X155002282Y-91090476D01*
X155002282Y-91090476D02*
X155049901Y-91042857D01*
X155954663Y-90090476D02*
X155954663Y-90661904D01*
X155954663Y-90376190D02*
X154954663Y-90376190D01*
X154954663Y-90376190D02*
X155097520Y-90471428D01*
X155097520Y-90471428D02*
X155192758Y-90566666D01*
X155192758Y-90566666D02*
X155240377Y-90661904D01*
X155954663Y-89138095D02*
X155954663Y-89709523D01*
X155954663Y-89423809D02*
X154954663Y-89423809D01*
X154954663Y-89423809D02*
X155097520Y-89519047D01*
X155097520Y-89519047D02*
X155192758Y-89614285D01*
X155192758Y-89614285D02*
X155240377Y-89709523D01*
X116488095Y-110454663D02*
X116488095Y-111264186D01*
X116488095Y-111264186D02*
X116535714Y-111359424D01*
X116535714Y-111359424D02*
X116583333Y-111407044D01*
X116583333Y-111407044D02*
X116678571Y-111454663D01*
X116678571Y-111454663D02*
X116869047Y-111454663D01*
X116869047Y-111454663D02*
X116964285Y-111407044D01*
X116964285Y-111407044D02*
X117011904Y-111359424D01*
X117011904Y-111359424D02*
X117059523Y-111264186D01*
X117059523Y-111264186D02*
X117059523Y-110454663D01*
X117964285Y-110787996D02*
X117964285Y-111454663D01*
X117726190Y-110407044D02*
X117488095Y-111121329D01*
X117488095Y-111121329D02*
X118107142Y-111121329D01*
X112954663Y-110499999D02*
X113192758Y-110499999D01*
X113097520Y-110738094D02*
X113192758Y-110499999D01*
X113192758Y-110499999D02*
X113097520Y-110261904D01*
X113383234Y-110642856D02*
X113192758Y-110499999D01*
X113192758Y-110499999D02*
X113383234Y-110357142D01*
X123054663Y-106466666D02*
X122578472Y-106799999D01*
X123054663Y-107038094D02*
X122054663Y-107038094D01*
X122054663Y-107038094D02*
X122054663Y-106657142D01*
X122054663Y-106657142D02*
X122102282Y-106561904D01*
X122102282Y-106561904D02*
X122149901Y-106514285D01*
X122149901Y-106514285D02*
X122245139Y-106466666D01*
X122245139Y-106466666D02*
X122387996Y-106466666D01*
X122387996Y-106466666D02*
X122483234Y-106514285D01*
X122483234Y-106514285D02*
X122530853Y-106561904D01*
X122530853Y-106561904D02*
X122578472Y-106657142D01*
X122578472Y-106657142D02*
X122578472Y-107038094D01*
X122054663Y-106133332D02*
X122054663Y-105514285D01*
X122054663Y-105514285D02*
X122435615Y-105847618D01*
X122435615Y-105847618D02*
X122435615Y-105704761D01*
X122435615Y-105704761D02*
X122483234Y-105609523D01*
X122483234Y-105609523D02*
X122530853Y-105561904D01*
X122530853Y-105561904D02*
X122626091Y-105514285D01*
X122626091Y-105514285D02*
X122864186Y-105514285D01*
X122864186Y-105514285D02*
X122959424Y-105561904D01*
X122959424Y-105561904D02*
X123007044Y-105609523D01*
X123007044Y-105609523D02*
X123054663Y-105704761D01*
X123054663Y-105704761D02*
X123054663Y-105990475D01*
X123054663Y-105990475D02*
X123007044Y-106085713D01*
X123007044Y-106085713D02*
X122959424Y-106133332D01*
X158459424Y-81666666D02*
X158507044Y-81714285D01*
X158507044Y-81714285D02*
X158554663Y-81857142D01*
X158554663Y-81857142D02*
X158554663Y-81952380D01*
X158554663Y-81952380D02*
X158507044Y-82095237D01*
X158507044Y-82095237D02*
X158411805Y-82190475D01*
X158411805Y-82190475D02*
X158316567Y-82238094D01*
X158316567Y-82238094D02*
X158126091Y-82285713D01*
X158126091Y-82285713D02*
X157983234Y-82285713D01*
X157983234Y-82285713D02*
X157792758Y-82238094D01*
X157792758Y-82238094D02*
X157697520Y-82190475D01*
X157697520Y-82190475D02*
X157602282Y-82095237D01*
X157602282Y-82095237D02*
X157554663Y-81952380D01*
X157554663Y-81952380D02*
X157554663Y-81857142D01*
X157554663Y-81857142D02*
X157602282Y-81714285D01*
X157602282Y-81714285D02*
X157649901Y-81666666D01*
X157649901Y-81285713D02*
X157602282Y-81238094D01*
X157602282Y-81238094D02*
X157554663Y-81142856D01*
X157554663Y-81142856D02*
X157554663Y-80904761D01*
X157554663Y-80904761D02*
X157602282Y-80809523D01*
X157602282Y-80809523D02*
X157649901Y-80761904D01*
X157649901Y-80761904D02*
X157745139Y-80714285D01*
X157745139Y-80714285D02*
X157840377Y-80714285D01*
X157840377Y-80714285D02*
X157983234Y-80761904D01*
X157983234Y-80761904D02*
X158554663Y-81333332D01*
X158554663Y-81333332D02*
X158554663Y-80714285D01*
X156828472Y-80526190D02*
X157304663Y-80526190D01*
X156304663Y-80859523D02*
X156828472Y-80526190D01*
X156828472Y-80526190D02*
X156304663Y-80192857D01*
X157304663Y-79335714D02*
X157304663Y-79907142D01*
X157304663Y-79621428D02*
X156304663Y-79621428D01*
X156304663Y-79621428D02*
X156447520Y-79716666D01*
X156447520Y-79716666D02*
X156542758Y-79811904D01*
X156542758Y-79811904D02*
X156590377Y-79907142D01*
X157459424Y-89242857D02*
X157507044Y-89290476D01*
X157507044Y-89290476D02*
X157554663Y-89433333D01*
X157554663Y-89433333D02*
X157554663Y-89528571D01*
X157554663Y-89528571D02*
X157507044Y-89671428D01*
X157507044Y-89671428D02*
X157411805Y-89766666D01*
X157411805Y-89766666D02*
X157316567Y-89814285D01*
X157316567Y-89814285D02*
X157126091Y-89861904D01*
X157126091Y-89861904D02*
X156983234Y-89861904D01*
X156983234Y-89861904D02*
X156792758Y-89814285D01*
X156792758Y-89814285D02*
X156697520Y-89766666D01*
X156697520Y-89766666D02*
X156602282Y-89671428D01*
X156602282Y-89671428D02*
X156554663Y-89528571D01*
X156554663Y-89528571D02*
X156554663Y-89433333D01*
X156554663Y-89433333D02*
X156602282Y-89290476D01*
X156602282Y-89290476D02*
X156649901Y-89242857D01*
X157554663Y-88290476D02*
X157554663Y-88861904D01*
X157554663Y-88576190D02*
X156554663Y-88576190D01*
X156554663Y-88576190D02*
X156697520Y-88671428D01*
X156697520Y-88671428D02*
X156792758Y-88766666D01*
X156792758Y-88766666D02*
X156840377Y-88861904D01*
X156554663Y-87957142D02*
X156554663Y-87290476D01*
X156554663Y-87290476D02*
X157554663Y-87719047D01*
X161238095Y-83754663D02*
X161238095Y-84564186D01*
X161238095Y-84564186D02*
X161285714Y-84659424D01*
X161285714Y-84659424D02*
X161333333Y-84707044D01*
X161333333Y-84707044D02*
X161428571Y-84754663D01*
X161428571Y-84754663D02*
X161619047Y-84754663D01*
X161619047Y-84754663D02*
X161714285Y-84707044D01*
X161714285Y-84707044D02*
X161761904Y-84659424D01*
X161761904Y-84659424D02*
X161809523Y-84564186D01*
X161809523Y-84564186D02*
X161809523Y-83754663D01*
X162238095Y-83849901D02*
X162285714Y-83802282D01*
X162285714Y-83802282D02*
X162380952Y-83754663D01*
X162380952Y-83754663D02*
X162619047Y-83754663D01*
X162619047Y-83754663D02*
X162714285Y-83802282D01*
X162714285Y-83802282D02*
X162761904Y-83849901D01*
X162761904Y-83849901D02*
X162809523Y-83945139D01*
X162809523Y-83945139D02*
X162809523Y-84040377D01*
X162809523Y-84040377D02*
X162761904Y-84183234D01*
X162761904Y-84183234D02*
X162190476Y-84754663D01*
X162190476Y-84754663D02*
X162809523Y-84754663D01*
X121654663Y-98933333D02*
X122368948Y-98933333D01*
X122368948Y-98933333D02*
X122511805Y-98980952D01*
X122511805Y-98980952D02*
X122607044Y-99076190D01*
X122607044Y-99076190D02*
X122654663Y-99219047D01*
X122654663Y-99219047D02*
X122654663Y-99314285D01*
X122654663Y-97933333D02*
X122654663Y-98504761D01*
X122654663Y-98219047D02*
X121654663Y-98219047D01*
X121654663Y-98219047D02*
X121797520Y-98314285D01*
X121797520Y-98314285D02*
X121892758Y-98409523D01*
X121892758Y-98409523D02*
X121940377Y-98504761D01*
X129088095Y-90454663D02*
X129088095Y-91264186D01*
X129088095Y-91264186D02*
X129135714Y-91359424D01*
X129135714Y-91359424D02*
X129183333Y-91407044D01*
X129183333Y-91407044D02*
X129278571Y-91454663D01*
X129278571Y-91454663D02*
X129469047Y-91454663D01*
X129469047Y-91454663D02*
X129564285Y-91407044D01*
X129564285Y-91407044D02*
X129611904Y-91359424D01*
X129611904Y-91359424D02*
X129659523Y-91264186D01*
X129659523Y-91264186D02*
X129659523Y-90454663D01*
X130040476Y-90454663D02*
X130659523Y-90454663D01*
X130659523Y-90454663D02*
X130326190Y-90835615D01*
X130326190Y-90835615D02*
X130469047Y-90835615D01*
X130469047Y-90835615D02*
X130564285Y-90883234D01*
X130564285Y-90883234D02*
X130611904Y-90930853D01*
X130611904Y-90930853D02*
X130659523Y-91026091D01*
X130659523Y-91026091D02*
X130659523Y-91264186D01*
X130659523Y-91264186D02*
X130611904Y-91359424D01*
X130611904Y-91359424D02*
X130564285Y-91407044D01*
X130564285Y-91407044D02*
X130469047Y-91454663D01*
X130469047Y-91454663D02*
X130183333Y-91454663D01*
X130183333Y-91454663D02*
X130088095Y-91407044D01*
X130088095Y-91407044D02*
X130040476Y-91359424D01*
X151309424Y-94466666D02*
X151357044Y-94514285D01*
X151357044Y-94514285D02*
X151404663Y-94657142D01*
X151404663Y-94657142D02*
X151404663Y-94752380D01*
X151404663Y-94752380D02*
X151357044Y-94895237D01*
X151357044Y-94895237D02*
X151261805Y-94990475D01*
X151261805Y-94990475D02*
X151166567Y-95038094D01*
X151166567Y-95038094D02*
X150976091Y-95085713D01*
X150976091Y-95085713D02*
X150833234Y-95085713D01*
X150833234Y-95085713D02*
X150642758Y-95038094D01*
X150642758Y-95038094D02*
X150547520Y-94990475D01*
X150547520Y-94990475D02*
X150452282Y-94895237D01*
X150452282Y-94895237D02*
X150404663Y-94752380D01*
X150404663Y-94752380D02*
X150404663Y-94657142D01*
X150404663Y-94657142D02*
X150452282Y-94514285D01*
X150452282Y-94514285D02*
X150499901Y-94466666D01*
X150404663Y-94133332D02*
X150404663Y-93514285D01*
X150404663Y-93514285D02*
X150785615Y-93847618D01*
X150785615Y-93847618D02*
X150785615Y-93704761D01*
X150785615Y-93704761D02*
X150833234Y-93609523D01*
X150833234Y-93609523D02*
X150880853Y-93561904D01*
X150880853Y-93561904D02*
X150976091Y-93514285D01*
X150976091Y-93514285D02*
X151214186Y-93514285D01*
X151214186Y-93514285D02*
X151309424Y-93561904D01*
X151309424Y-93561904D02*
X151357044Y-93609523D01*
X151357044Y-93609523D02*
X151404663Y-93704761D01*
X151404663Y-93704761D02*
X151404663Y-93990475D01*
X151404663Y-93990475D02*
X151357044Y-94085713D01*
X151357044Y-94085713D02*
X151309424Y-94133332D01*
X158433333Y-87354663D02*
X157957143Y-87354663D01*
X157957143Y-87354663D02*
X157957143Y-86354663D01*
X159290476Y-87354663D02*
X158719048Y-87354663D01*
X159004762Y-87354663D02*
X159004762Y-86354663D01*
X159004762Y-86354663D02*
X158909524Y-86497520D01*
X158909524Y-86497520D02*
X158814286Y-86592758D01*
X158814286Y-86592758D02*
X158719048Y-86640377D01*
X118666666Y-91054663D02*
X118666666Y-91768948D01*
X118666666Y-91768948D02*
X118619047Y-91911805D01*
X118619047Y-91911805D02*
X118523809Y-92007044D01*
X118523809Y-92007044D02*
X118380952Y-92054663D01*
X118380952Y-92054663D02*
X118285714Y-92054663D01*
X119047619Y-91054663D02*
X119666666Y-91054663D01*
X119666666Y-91054663D02*
X119333333Y-91435615D01*
X119333333Y-91435615D02*
X119476190Y-91435615D01*
X119476190Y-91435615D02*
X119571428Y-91483234D01*
X119571428Y-91483234D02*
X119619047Y-91530853D01*
X119619047Y-91530853D02*
X119666666Y-91626091D01*
X119666666Y-91626091D02*
X119666666Y-91864186D01*
X119666666Y-91864186D02*
X119619047Y-91959424D01*
X119619047Y-91959424D02*
X119571428Y-92007044D01*
X119571428Y-92007044D02*
X119476190Y-92054663D01*
X119476190Y-92054663D02*
X119190476Y-92054663D01*
X119190476Y-92054663D02*
X119095238Y-92007044D01*
X119095238Y-92007044D02*
X119047619Y-91959424D01*
X154159424Y-95242857D02*
X154207044Y-95290476D01*
X154207044Y-95290476D02*
X154254663Y-95433333D01*
X154254663Y-95433333D02*
X154254663Y-95528571D01*
X154254663Y-95528571D02*
X154207044Y-95671428D01*
X154207044Y-95671428D02*
X154111805Y-95766666D01*
X154111805Y-95766666D02*
X154016567Y-95814285D01*
X154016567Y-95814285D02*
X153826091Y-95861904D01*
X153826091Y-95861904D02*
X153683234Y-95861904D01*
X153683234Y-95861904D02*
X153492758Y-95814285D01*
X153492758Y-95814285D02*
X153397520Y-95766666D01*
X153397520Y-95766666D02*
X153302282Y-95671428D01*
X153302282Y-95671428D02*
X153254663Y-95528571D01*
X153254663Y-95528571D02*
X153254663Y-95433333D01*
X153254663Y-95433333D02*
X153302282Y-95290476D01*
X153302282Y-95290476D02*
X153349901Y-95242857D01*
X154254663Y-94290476D02*
X154254663Y-94861904D01*
X154254663Y-94576190D02*
X153254663Y-94576190D01*
X153254663Y-94576190D02*
X153397520Y-94671428D01*
X153397520Y-94671428D02*
X153492758Y-94766666D01*
X153492758Y-94766666D02*
X153540377Y-94861904D01*
X153254663Y-93957142D02*
X153254663Y-93338095D01*
X153254663Y-93338095D02*
X153635615Y-93671428D01*
X153635615Y-93671428D02*
X153635615Y-93528571D01*
X153635615Y-93528571D02*
X153683234Y-93433333D01*
X153683234Y-93433333D02*
X153730853Y-93385714D01*
X153730853Y-93385714D02*
X153826091Y-93338095D01*
X153826091Y-93338095D02*
X154064186Y-93338095D01*
X154064186Y-93338095D02*
X154159424Y-93385714D01*
X154159424Y-93385714D02*
X154207044Y-93433333D01*
X154207044Y-93433333D02*
X154254663Y-93528571D01*
X154254663Y-93528571D02*
X154254663Y-93814285D01*
X154254663Y-93814285D02*
X154207044Y-93909523D01*
X154207044Y-93909523D02*
X154159424Y-93957142D01*
X145154663Y-88061904D02*
X145964186Y-88061904D01*
X145964186Y-88061904D02*
X146059424Y-88014285D01*
X146059424Y-88014285D02*
X146107044Y-87966666D01*
X146107044Y-87966666D02*
X146154663Y-87871428D01*
X146154663Y-87871428D02*
X146154663Y-87680952D01*
X146154663Y-87680952D02*
X146107044Y-87585714D01*
X146107044Y-87585714D02*
X146059424Y-87538095D01*
X146059424Y-87538095D02*
X145964186Y-87490476D01*
X145964186Y-87490476D02*
X145154663Y-87490476D01*
X146154663Y-86490476D02*
X146154663Y-87061904D01*
X146154663Y-86776190D02*
X145154663Y-86776190D01*
X145154663Y-86776190D02*
X145297520Y-86871428D01*
X145297520Y-86871428D02*
X145392758Y-86966666D01*
X145392758Y-86966666D02*
X145440377Y-87061904D01*
D12*
%TO.C,SW1*%
X113670000Y-99150000D02*
X114430000Y-99150000D01*
X113670000Y-92450000D02*
X114430000Y-92450000D01*
X115350000Y-97220000D02*
X115350000Y-97380000D01*
X115350000Y-94220000D02*
X115350000Y-95880000D01*
D13*
X117250000Y-93550000D02*
G75*
G02*
X117050000Y-93550000I-100000J0D01*
G01*
X117050000Y-93550000D02*
G75*
G02*
X117250000Y-93550000I100000J0D01*
G01*
D12*
X112750000Y-98630000D02*
X112750000Y-92970000D01*
D14*
%TO.C,R4*%
X119080000Y-94746359D02*
X119080000Y-95053641D01*
X118320000Y-94746359D02*
X118320000Y-95053641D01*
%TO.C,C12*%
X152040000Y-92092164D02*
X152040000Y-92307836D01*
X152760000Y-92092164D02*
X152760000Y-92307836D01*
%TO.C,R6*%
X123237258Y-86227500D02*
X122762742Y-86227500D01*
X123237258Y-87272500D02*
X122762742Y-87272500D01*
%TO.C,J2*%
X133400000Y-79810000D02*
X133400000Y-88440000D01*
X134370000Y-88440000D02*
X134370000Y-88850000D01*
X135090000Y-88440000D02*
X135090000Y-88850000D01*
X136000000Y-79810000D02*
X136000000Y-88440000D01*
X136910000Y-88440000D02*
X136910000Y-88850000D01*
X137630000Y-88440000D02*
X137630000Y-88850000D01*
X138540000Y-79810000D02*
X138540000Y-88440000D01*
X139450000Y-88440000D02*
X139450000Y-88850000D01*
X140170000Y-88440000D02*
X140170000Y-88850000D01*
X141080000Y-79810000D02*
X141080000Y-88440000D01*
X141198100Y-79810000D02*
X141198100Y-88440000D01*
X141316195Y-79810000D02*
X141316195Y-88440000D01*
X141434290Y-79810000D02*
X141434290Y-88440000D01*
X141552385Y-79810000D02*
X141552385Y-88440000D01*
X141670480Y-79810000D02*
X141670480Y-88440000D01*
X141788575Y-79810000D02*
X141788575Y-88440000D01*
X141906670Y-79810000D02*
X141906670Y-88440000D01*
X141990000Y-88440000D02*
X141990000Y-88790000D01*
X142024765Y-79810000D02*
X142024765Y-88440000D01*
X142142860Y-79810000D02*
X142142860Y-88440000D01*
X142260955Y-79810000D02*
X142260955Y-88440000D01*
X142379050Y-79810000D02*
X142379050Y-88440000D01*
X142497145Y-79810000D02*
X142497145Y-88440000D01*
X142615240Y-79810000D02*
X142615240Y-88440000D01*
X142710000Y-88440000D02*
X142710000Y-88790000D01*
X142733335Y-79810000D02*
X142733335Y-88440000D01*
X142851430Y-79810000D02*
X142851430Y-88440000D01*
X142969525Y-79810000D02*
X142969525Y-88440000D01*
X143087620Y-79810000D02*
X143087620Y-88440000D01*
X143205715Y-79810000D02*
X143205715Y-88440000D01*
X143323810Y-79810000D02*
X143323810Y-88440000D01*
X143441905Y-79810000D02*
X143441905Y-88440000D01*
X143560000Y-79810000D02*
X143560000Y-88440000D01*
X143680000Y-79810000D02*
X133400000Y-79810000D01*
X143680000Y-79810000D02*
X143680000Y-88440000D01*
X143680000Y-88440000D02*
X133400000Y-88440000D01*
X143680000Y-89900000D02*
X143680000Y-91010000D01*
X143680000Y-91010000D02*
X142350000Y-91010000D01*
%TO.C,R2*%
X120677500Y-92762742D02*
X120677500Y-93237258D01*
X121722500Y-92762742D02*
X121722500Y-93237258D01*
%TO.C,C16*%
X159640000Y-86042164D02*
X159640000Y-86257836D01*
X160360000Y-86042164D02*
X160360000Y-86257836D01*
%TO.C,C19*%
X123265000Y-82311252D02*
X123265000Y-81788748D01*
X124735000Y-82311252D02*
X124735000Y-81788748D01*
%TO.C,C5*%
X145390000Y-89337836D02*
X145390000Y-89122164D01*
X146110000Y-89337836D02*
X146110000Y-89122164D01*
%TO.C,C6*%
X145407836Y-85440000D02*
X145192164Y-85440000D01*
X145407836Y-86160000D02*
X145192164Y-86160000D01*
%TO.C,SW2*%
X157350000Y-92950000D02*
X157350000Y-92850000D01*
X157350000Y-94450000D02*
X161750000Y-94450000D01*
X158400000Y-91350000D02*
X157350000Y-91350000D01*
X161750000Y-91350000D02*
X160700000Y-91350000D01*
X161750000Y-92950000D02*
X161750000Y-92850000D01*
%TO.C,C15*%
X156540000Y-84407836D02*
X156540000Y-84192164D01*
X157260000Y-84407836D02*
X157260000Y-84192164D01*
%TO.C,R5*%
X122762742Y-84477500D02*
X123237258Y-84477500D01*
X122762742Y-85522500D02*
X123237258Y-85522500D01*
%TO.C,C14*%
X155440000Y-84407836D02*
X155440000Y-84192164D01*
X156160000Y-84407836D02*
X156160000Y-84192164D01*
%TO.C,C18*%
X123265000Y-89638748D02*
X123265000Y-90161252D01*
X124735000Y-89638748D02*
X124735000Y-90161252D01*
%TO.C,R1*%
X128377500Y-92762742D02*
X128377500Y-93237258D01*
X129422500Y-92762742D02*
X129422500Y-93237258D01*
%TO.C,C11*%
X155090000Y-87459420D02*
X155090000Y-87740580D01*
X156110000Y-87459420D02*
X156110000Y-87740580D01*
D15*
%TO.C,U4*%
X113398301Y-103970785D02*
X113398301Y-108187215D01*
X121551701Y-108187215D02*
X121551701Y-103970785D01*
D16*
G36*
X116690502Y-102167400D02*
G01*
X116309502Y-102167400D01*
X116309502Y-101913400D01*
X116690502Y-101913400D01*
X116690502Y-102167400D01*
G37*
G36*
X119940500Y-110244600D02*
G01*
X119559500Y-110244600D01*
X119559500Y-109990600D01*
X119940500Y-109990600D01*
X119940500Y-110244600D01*
G37*
D14*
%TO.C,R3*%
X122120000Y-104046359D02*
X122120000Y-104353641D01*
X122880000Y-104046359D02*
X122880000Y-104353641D01*
%TO.C,C2*%
X156540000Y-81887836D02*
X156540000Y-81672164D01*
X157260000Y-81887836D02*
X157260000Y-81672164D01*
%TO.C,C9*%
X148640000Y-81807836D02*
X148640000Y-81592164D01*
X149360000Y-81807836D02*
X149360000Y-81592164D01*
%TO.C,C4*%
X146440000Y-81807836D02*
X146440000Y-81592164D01*
X147160000Y-81807836D02*
X147160000Y-81592164D01*
%TO.C,Y1*%
X153600000Y-80050000D02*
X153600000Y-82750000D01*
X155900000Y-80050000D02*
X153600000Y-80050000D01*
%TO.C,C17*%
X156640000Y-86112164D02*
X156640000Y-86327836D01*
X157360000Y-86112164D02*
X157360000Y-86327836D01*
%TO.C,C8*%
X147540000Y-81807836D02*
X147540000Y-81592164D01*
X148260000Y-81807836D02*
X148260000Y-81592164D01*
%TO.C,C7*%
X150840000Y-81807836D02*
X150840000Y-81592164D01*
X151560000Y-81807836D02*
X151560000Y-81592164D01*
%TO.C,J1*%
X123630000Y-98100000D02*
X124960000Y-98100000D01*
X123630000Y-99210000D02*
X123630000Y-98100000D01*
X123630000Y-103210000D02*
X164390000Y-103210000D01*
X123630000Y-111840000D02*
X123630000Y-103210000D01*
X123630000Y-111840000D02*
X164390000Y-111840000D01*
X123750000Y-111840000D02*
X123750000Y-103210000D01*
X123868095Y-111840000D02*
X123868095Y-103210000D01*
X123986190Y-111840000D02*
X123986190Y-103210000D01*
X124104285Y-111840000D02*
X124104285Y-103210000D01*
X124222380Y-111840000D02*
X124222380Y-103210000D01*
X124340475Y-111840000D02*
X124340475Y-103210000D01*
X124458570Y-111840000D02*
X124458570Y-103210000D01*
X124576665Y-111840000D02*
X124576665Y-103210000D01*
X124600000Y-100700000D02*
X124600000Y-100320000D01*
X124600000Y-103210000D02*
X124600000Y-102800000D01*
X124694760Y-111840000D02*
X124694760Y-103210000D01*
X124812855Y-111840000D02*
X124812855Y-103210000D01*
X124930950Y-111840000D02*
X124930950Y-103210000D01*
X125049045Y-111840000D02*
X125049045Y-103210000D01*
X125167140Y-111840000D02*
X125167140Y-103210000D01*
X125285235Y-111840000D02*
X125285235Y-103210000D01*
X125320000Y-100700000D02*
X125320000Y-100320000D01*
X125320000Y-103210000D02*
X125320000Y-102800000D01*
X125403330Y-111840000D02*
X125403330Y-103210000D01*
X125521425Y-111840000D02*
X125521425Y-103210000D01*
X125639520Y-111840000D02*
X125639520Y-103210000D01*
X125757615Y-111840000D02*
X125757615Y-103210000D01*
X125875710Y-111840000D02*
X125875710Y-103210000D01*
X125993805Y-111840000D02*
X125993805Y-103210000D01*
X126111900Y-111840000D02*
X126111900Y-103210000D01*
X126230000Y-111840000D02*
X126230000Y-103210000D01*
X127140000Y-100700000D02*
X127140000Y-100260000D01*
X127140000Y-103210000D02*
X127140000Y-102800000D01*
X127860000Y-100700000D02*
X127860000Y-100260000D01*
X127860000Y-103210000D02*
X127860000Y-102800000D01*
X128770000Y-111840000D02*
X128770000Y-103210000D01*
X129680000Y-100700000D02*
X129680000Y-100260000D01*
X129680000Y-103210000D02*
X129680000Y-102800000D01*
X130400000Y-100700000D02*
X130400000Y-100260000D01*
X130400000Y-103210000D02*
X130400000Y-102800000D01*
X131310000Y-111840000D02*
X131310000Y-103210000D01*
X132220000Y-100700000D02*
X132220000Y-100260000D01*
X132220000Y-103210000D02*
X132220000Y-102800000D01*
X132940000Y-100700000D02*
X132940000Y-100260000D01*
X132940000Y-103210000D02*
X132940000Y-102800000D01*
X133850000Y-111840000D02*
X133850000Y-103210000D01*
X134760000Y-100700000D02*
X134760000Y-100260000D01*
X134760000Y-103210000D02*
X134760000Y-102800000D01*
X135480000Y-100700000D02*
X135480000Y-100260000D01*
X135480000Y-103210000D02*
X135480000Y-102800000D01*
X136390000Y-111840000D02*
X136390000Y-103210000D01*
X137300000Y-100700000D02*
X137300000Y-100260000D01*
X137300000Y-103210000D02*
X137300000Y-102800000D01*
X138020000Y-100700000D02*
X138020000Y-100260000D01*
X138020000Y-103210000D02*
X138020000Y-102800000D01*
X138930000Y-111840000D02*
X138930000Y-103210000D01*
X139840000Y-100700000D02*
X139840000Y-100260000D01*
X139840000Y-103210000D02*
X139840000Y-102800000D01*
X140560000Y-100700000D02*
X140560000Y-100260000D01*
X140560000Y-103210000D02*
X140560000Y-102800000D01*
X141470000Y-111840000D02*
X141470000Y-103210000D01*
X142380000Y-100700000D02*
X142380000Y-100260000D01*
X142380000Y-103210000D02*
X142380000Y-102800000D01*
X143100000Y-100700000D02*
X143100000Y-100260000D01*
X143100000Y-103210000D02*
X143100000Y-102800000D01*
X144010000Y-111840000D02*
X144010000Y-103210000D01*
X144920000Y-100700000D02*
X144920000Y-100260000D01*
X144920000Y-103210000D02*
X144920000Y-102800000D01*
X145640000Y-100700000D02*
X145640000Y-100260000D01*
X145640000Y-103210000D02*
X145640000Y-102800000D01*
X146550000Y-111840000D02*
X146550000Y-103210000D01*
X147460000Y-100700000D02*
X147460000Y-100260000D01*
X147460000Y-103210000D02*
X147460000Y-102800000D01*
X148180000Y-100700000D02*
X148180000Y-100260000D01*
X148180000Y-103210000D02*
X148180000Y-102800000D01*
X149090000Y-111840000D02*
X149090000Y-103210000D01*
X150000000Y-100700000D02*
X150000000Y-100260000D01*
X150000000Y-103210000D02*
X150000000Y-102800000D01*
X150720000Y-100700000D02*
X150720000Y-100260000D01*
X150720000Y-103210000D02*
X150720000Y-102800000D01*
X151630000Y-111840000D02*
X151630000Y-103210000D01*
X152540000Y-100700000D02*
X152540000Y-100260000D01*
X152540000Y-103210000D02*
X152540000Y-102800000D01*
X153260000Y-100700000D02*
X153260000Y-100260000D01*
X153260000Y-103210000D02*
X153260000Y-102800000D01*
X154170000Y-111840000D02*
X154170000Y-103210000D01*
X155080000Y-100700000D02*
X155080000Y-100260000D01*
X155080000Y-103210000D02*
X155080000Y-102800000D01*
X155800000Y-100700000D02*
X155800000Y-100260000D01*
X155800000Y-103210000D02*
X155800000Y-102800000D01*
X156710000Y-111840000D02*
X156710000Y-103210000D01*
X157620000Y-100700000D02*
X157620000Y-100260000D01*
X157620000Y-103210000D02*
X157620000Y-102800000D01*
X158340000Y-100700000D02*
X158340000Y-100260000D01*
X158340000Y-103210000D02*
X158340000Y-102800000D01*
X159250000Y-111840000D02*
X159250000Y-103210000D01*
X160160000Y-100700000D02*
X160160000Y-100260000D01*
X160160000Y-103210000D02*
X160160000Y-102800000D01*
X160880000Y-100700000D02*
X160880000Y-100260000D01*
X160880000Y-103210000D02*
X160880000Y-102800000D01*
X161790000Y-111840000D02*
X161790000Y-103210000D01*
X162700000Y-100700000D02*
X162700000Y-100260000D01*
X162700000Y-103210000D02*
X162700000Y-102800000D01*
X163420000Y-100700000D02*
X163420000Y-100260000D01*
X163420000Y-103210000D02*
X163420000Y-102800000D01*
X164390000Y-111840000D02*
X164390000Y-103210000D01*
%TO.C,U3*%
X125440000Y-83650000D02*
X125440000Y-87410000D01*
X125440000Y-87410000D02*
X126700000Y-87410000D01*
X132260000Y-83650000D02*
X132260000Y-87410000D01*
X132260000Y-87410000D02*
X131000000Y-87410000D01*
X132490000Y-82610000D02*
X132160000Y-82370000D01*
X132490000Y-82130000D01*
X132490000Y-82610000D01*
G36*
X132490000Y-82610000D02*
G01*
X132160000Y-82370000D01*
X132490000Y-82130000D01*
X132490000Y-82610000D01*
G37*
%TO.C,C3*%
X150590000Y-92292164D02*
X150590000Y-92507836D01*
X151310000Y-92292164D02*
X151310000Y-92507836D01*
%TO.C,C1*%
X152040000Y-81392164D02*
X152040000Y-81607836D01*
X152760000Y-81392164D02*
X152760000Y-81607836D01*
%TO.C,J3*%
X112990000Y-80920000D02*
X112990000Y-90080000D01*
X114500000Y-80920000D02*
X112990000Y-80920000D01*
X114500000Y-90080000D02*
X112990000Y-90080000D01*
X118400000Y-80920000D02*
X116400000Y-80920000D01*
X118400000Y-90080000D02*
X116400000Y-90080000D01*
%TO.C,C13*%
X153140000Y-92092164D02*
X153140000Y-92307836D01*
X153860000Y-92092164D02*
X153860000Y-92307836D01*
%TO.C,C10*%
X149740000Y-81807836D02*
X149740000Y-81592164D01*
X150460000Y-81807836D02*
X150460000Y-81592164D01*
%TO.C,U1*%
X146890000Y-83390000D02*
X147365000Y-83390000D01*
X146890000Y-83865000D02*
X146890000Y-83390000D01*
X146890000Y-90135000D02*
X146890000Y-90310000D01*
X147365000Y-90610000D02*
X147130000Y-90610000D01*
X154110000Y-83390000D02*
X153635000Y-83390000D01*
X154110000Y-83865000D02*
X154110000Y-83390000D01*
X154110000Y-90135000D02*
X154110000Y-90610000D01*
X154110000Y-90610000D02*
X153635000Y-90610000D01*
X146890000Y-90610000D02*
X146560000Y-90850000D01*
X146560000Y-90370000D01*
X146890000Y-90610000D01*
G36*
X146890000Y-90610000D02*
G01*
X146560000Y-90850000D01*
X146560000Y-90370000D01*
X146890000Y-90610000D01*
G37*
%TD*%
%LPC*%
D17*
%TO.C,SW1*%
X114050000Y-97300000D03*
X114050000Y-94300000D03*
D18*
X112950000Y-99450000D03*
X112950000Y-92150000D03*
X115150000Y-99450000D03*
X115150000Y-92150000D03*
D19*
X115800000Y-98050000D03*
X115800000Y-96550000D03*
X115800000Y-93550000D03*
%TD*%
D20*
%TO.C,R4*%
X118700000Y-94390000D03*
X118700000Y-95410000D03*
%TD*%
D21*
%TO.C,C12*%
X152400000Y-91720000D03*
X152400000Y-92680000D03*
%TD*%
D22*
%TO.C,R6*%
X123825000Y-86750000D03*
X122175000Y-86750000D03*
%TD*%
D23*
%TO.C,J2*%
X142350000Y-89900000D03*
D24*
X139810000Y-89900000D03*
X137270000Y-89900000D03*
X134730000Y-89900000D03*
%TD*%
D25*
%TO.C,R2*%
X121200000Y-92175000D03*
X121200000Y-93825000D03*
%TD*%
D21*
%TO.C,C16*%
X160000000Y-85670000D03*
X160000000Y-86630000D03*
%TD*%
D26*
%TO.C,C19*%
X124000000Y-83000000D03*
X124000000Y-81100000D03*
%TD*%
D27*
%TO.C,C5*%
X145750000Y-89710000D03*
X145750000Y-88750000D03*
%TD*%
D28*
%TO.C,C6*%
X145780000Y-85800000D03*
X144820000Y-85800000D03*
%TD*%
D29*
%TO.C,SW2*%
X157500000Y-92100000D03*
X161600000Y-92100000D03*
X157500000Y-93700000D03*
X161600000Y-93700000D03*
D30*
X159550000Y-91475000D03*
%TD*%
D27*
%TO.C,C15*%
X156900000Y-84780000D03*
X156900000Y-83820000D03*
%TD*%
D31*
%TO.C,R5*%
X122175000Y-85000000D03*
X123825000Y-85000000D03*
%TD*%
D27*
%TO.C,C14*%
X155800000Y-84780000D03*
X155800000Y-83820000D03*
%TD*%
D32*
%TO.C,C18*%
X124000000Y-88950000D03*
X124000000Y-90850000D03*
%TD*%
D25*
%TO.C,R1*%
X128900000Y-92175000D03*
X128900000Y-93825000D03*
%TD*%
D33*
%TO.C,C11*%
X155600000Y-86825000D03*
X155600000Y-88375000D03*
%TD*%
D34*
%TO.C,U4*%
X113900002Y-109000000D03*
X114550001Y-109000000D03*
X115199999Y-109000000D03*
X115850000Y-109000000D03*
X116499999Y-109000000D03*
X117150000Y-109000000D03*
X117799999Y-109000000D03*
X118450000Y-109000000D03*
X119099999Y-109000000D03*
X119750000Y-109000000D03*
X120399999Y-109000000D03*
X121050000Y-109000000D03*
X121050000Y-103158000D03*
X120400001Y-103158000D03*
X119750000Y-103158000D03*
X119100002Y-103158000D03*
X118450000Y-103158000D03*
X117800002Y-103158000D03*
X117150003Y-103158000D03*
X116500002Y-103158000D03*
X115850003Y-103158000D03*
X115200002Y-103158000D03*
X114550003Y-103158000D03*
X113900002Y-103158000D03*
%TD*%
D20*
%TO.C,R3*%
X122500000Y-103690000D03*
X122500000Y-104710000D03*
%TD*%
D27*
%TO.C,C2*%
X156900000Y-82260000D03*
X156900000Y-81300000D03*
%TD*%
%TO.C,C9*%
X149000000Y-82180000D03*
X149000000Y-81220000D03*
%TD*%
%TO.C,C4*%
X146800000Y-82180000D03*
X146800000Y-81220000D03*
%TD*%
D35*
%TO.C,Y1*%
X154200000Y-80700000D03*
X154200000Y-82100000D03*
X155300000Y-82100000D03*
X155300000Y-80700000D03*
%TD*%
D21*
%TO.C,C17*%
X157000000Y-85740000D03*
X157000000Y-86700000D03*
%TD*%
D36*
%TO.C,U2*%
X161100000Y-85720000D03*
D37*
X161709600Y-85491400D03*
D36*
X162319200Y-85720000D03*
D37*
X161709600Y-85948600D03*
%TD*%
D27*
%TO.C,C8*%
X147900000Y-82180000D03*
X147900000Y-81220000D03*
%TD*%
%TO.C,C7*%
X151200000Y-82180000D03*
X151200000Y-81220000D03*
%TD*%
D23*
%TO.C,J1*%
X124960000Y-99210000D03*
D24*
X124960000Y-101750000D03*
X127500000Y-99210000D03*
X127500000Y-101750000D03*
X130040000Y-99210000D03*
X130040000Y-101750000D03*
X132580000Y-99210000D03*
X132580000Y-101750000D03*
X135120000Y-99210000D03*
X135120000Y-101750000D03*
X137660000Y-99210000D03*
X137660000Y-101750000D03*
X140200000Y-99210000D03*
X140200000Y-101750000D03*
X142740000Y-99210000D03*
X142740000Y-101750000D03*
X145280000Y-99210000D03*
X145280000Y-101750000D03*
X147820000Y-99210000D03*
X147820000Y-101750000D03*
X150360000Y-99210000D03*
X150360000Y-101750000D03*
X152900000Y-99210000D03*
X152900000Y-101750000D03*
X155440000Y-99210000D03*
X155440000Y-101750000D03*
X157980000Y-99210000D03*
X157980000Y-101750000D03*
X160520000Y-99210000D03*
X160520000Y-101750000D03*
X163060000Y-99210000D03*
X163060000Y-101750000D03*
%TD*%
D38*
%TO.C,U3*%
X131150000Y-82350000D03*
X128850000Y-82350000D03*
D39*
X128850000Y-88650000D03*
D38*
X126550000Y-82350000D03*
%TD*%
D21*
%TO.C,C3*%
X150950000Y-91920000D03*
X150950000Y-92880000D03*
%TD*%
D40*
%TO.C,L1*%
X158015000Y-85720000D03*
X158985000Y-85720000D03*
%TD*%
D21*
%TO.C,C1*%
X152400000Y-81020000D03*
X152400000Y-81980000D03*
%TD*%
D41*
%TO.C,J3*%
X119680000Y-85000000D03*
D42*
X119680000Y-87020000D03*
D43*
X119680000Y-88250000D03*
D41*
X119680000Y-86000000D03*
D42*
X119680000Y-83980000D03*
D43*
X119680000Y-82750000D03*
D44*
X119500000Y-81180000D03*
X115700000Y-81180000D03*
X119500000Y-89820000D03*
X115700000Y-89820000D03*
%TD*%
D21*
%TO.C,C13*%
X153500000Y-91720000D03*
X153500000Y-92680000D03*
%TD*%
D27*
%TO.C,C10*%
X150100000Y-82180000D03*
X150100000Y-81220000D03*
%TD*%
D45*
%TO.C,U1*%
X147750000Y-90437500D03*
X148250000Y-90437500D03*
X148750000Y-90437500D03*
X149250000Y-90437500D03*
X149750000Y-90437500D03*
X150250000Y-90437500D03*
X150750000Y-90437500D03*
X151250000Y-90437500D03*
X151750000Y-90437500D03*
X152250000Y-90437500D03*
X152750000Y-90437500D03*
X153250000Y-90437500D03*
D46*
X153937500Y-89750000D03*
X153937500Y-89250000D03*
X153937500Y-88750000D03*
X153937500Y-88250000D03*
X153937500Y-87750000D03*
X153937500Y-87250000D03*
X153937500Y-86750000D03*
X153937500Y-86250000D03*
X153937500Y-85750000D03*
X153937500Y-85250000D03*
X153937500Y-84750000D03*
X153937500Y-84250000D03*
D45*
X153250000Y-83562500D03*
X152750000Y-83562500D03*
X152250000Y-83562500D03*
X151750000Y-83562500D03*
X151250000Y-83562500D03*
X150750000Y-83562500D03*
X150250000Y-83562500D03*
X149750000Y-83562500D03*
X149250000Y-83562500D03*
X148750000Y-83562500D03*
X148250000Y-83562500D03*
X147750000Y-83562500D03*
D46*
X147062500Y-84250000D03*
X147062500Y-84750000D03*
X147062500Y-85250000D03*
X147062500Y-85750000D03*
X147062500Y-86250000D03*
X147062500Y-86750000D03*
X147062500Y-87250000D03*
X147062500Y-87750000D03*
X147062500Y-88250000D03*
X147062500Y-88750000D03*
X147062500Y-89250000D03*
X147062500Y-89750000D03*
D47*
X150500000Y-87000000D03*
%TD*%
%LPD*%
M02*
