M48
; DRILL file {KiCad 8.0.5} date 2024-09-24T02:20:12-0400
; FORMAT={-:-/ absolute / inch / decimal}
; #@! TF.CreationDate,2024-09-24T02:20:12-04:00
; #@! TF.GenerationSoftware,Kicad,Pcbnew,8.0.5
; #@! TF.FileFunction,Plated,1,2,PTH
FMAT,2
INCH
; #@! TA.AperFunction,Plated,PTH,ViaDrill
T1C0.0118
; #@! TA.AperFunction,Plated,PTH,ComponentDrill
T2C0.0197
; #@! TA.AperFunction,Plated,PTH,ComponentDrill
T3C0.0394
%
G90
G05
T1
X4.4921Y-4.2323
X4.5197Y-4.2323
X4.5551Y-4.1181
X4.5866Y-3.622
X4.6555Y-3.2579
X4.6555Y-3.4744
X4.8031Y-3.2382
X4.8071Y-4.2913
X4.9409Y-3.5728
X4.9606Y-3.3465
X4.9606Y-3.4154
X5.0197Y-3.6929
X5.1457Y-3.7205
X5.2244Y-3.2441
X5.2283Y-3.7165
X5.2323Y-3.6339
X5.3819Y-3.6024
X5.3819Y-3.7283
X5.6102Y-3.6378
X5.6438Y-3.6989
X5.6988Y-3.5039
X5.7008Y-3.4094
X5.73Y-3.2972
X5.732Y-3.3484
X5.748Y-3.2087
X5.8268Y-3.1693
X5.8661Y-3.1693
X5.9055Y-3.1693
X5.9098Y-3.6697
X5.9252Y-3.4252
X5.9547Y-3.1693
X6.0Y-3.6811
X6.0079Y-3.253
X6.0433Y-3.6811
X6.063Y-3.2835
X6.1319Y-3.5925
X6.1496Y-3.2008
X6.16Y-3.4517
X6.1732Y-3.4803
X6.2047Y-3.4449
X6.2165Y-3.315
X6.2205Y-3.2677
X6.248Y-3.689
X6.2677Y-3.4449
X6.315Y-3.689
X6.3465Y-3.3346
X6.3465Y-3.4173
T3
X4.9197Y-3.9059
X4.9197Y-4.0059
X5.0197Y-3.9059
X5.0197Y-4.0059
X5.1197Y-3.9059
X5.1197Y-4.0059
X5.2197Y-3.9059
X5.2197Y-4.0059
X5.3043Y-3.5394
X5.3197Y-3.9059
X5.3197Y-4.0059
X5.4043Y-3.5394
X5.4197Y-3.9059
X5.4197Y-4.0059
X5.5043Y-3.5394
X5.5197Y-3.9059
X5.5197Y-4.0059
X5.6043Y-3.5394
X5.6197Y-3.9059
X5.6197Y-4.0059
X5.7197Y-3.9059
X5.7197Y-4.0059
X5.8197Y-3.9059
X5.8197Y-4.0059
X5.9197Y-3.9059
X5.9197Y-4.0059
X6.0197Y-3.9059
X6.0197Y-4.0059
X6.1197Y-3.9059
X6.1197Y-4.0059
X6.2197Y-3.9059
X6.2197Y-4.0059
X6.3197Y-3.9059
X6.3197Y-4.0059
X6.4197Y-3.9059
X6.4197Y-4.0059
T2
G00X4.5689Y-3.1961
M15
G01X4.5413Y-3.1961
M16
G05
G00X4.5689Y-3.5362
M15
G01X4.5413Y-3.5362
M16
G05
G00X4.7185Y-3.1961
M15
G01X4.6909Y-3.1961
M16
G05
G00X4.7185Y-3.5362
M15
G01X4.6909Y-3.5362
M16
G05
M30
