%TF.GenerationSoftware,KiCad,Pcbnew,8.0.5*%
%TF.CreationDate,2024-09-24T02:20:12-04:00*%
%TF.ProjectId,ble_mcu_test_board,626c655f-6d63-4755-9f74-6573745f626f,rev?*%
%TF.SameCoordinates,Original*%
%TF.FileFunction,Copper,L1,Top*%
%TF.FilePolarity,Positive*%
%FSLAX46Y46*%
G04 Gerber Fmt 4.6, Leading zero omitted, Abs format (unit mm)*
G04 Created by KiCad (PCBNEW 8.0.5) date 2024-09-24 02:20:12*
%MOMM*%
%LPD*%
G01*
G04 APERTURE LIST*
G04 Aperture macros list*
%AMRoundRect*
0 Rectangle with rounded corners*
0 $1 Rounding radius*
0 $2 $3 $4 $5 $6 $7 $8 $9 X,Y pos of 4 corners*
0 Add a 4 corners polygon primitive as box body*
4,1,4,$2,$3,$4,$5,$6,$7,$8,$9,$2,$3,0*
0 Add four circle primitives for the rounded corners*
1,1,$1+$1,$2,$3*
1,1,$1+$1,$4,$5*
1,1,$1+$1,$6,$7*
1,1,$1+$1,$8,$9*
0 Add four rect primitives between the rounded corners*
20,1,$1+$1,$2,$3,$4,$5,0*
20,1,$1+$1,$4,$5,$6,$7,0*
20,1,$1+$1,$6,$7,$8,$9,0*
20,1,$1+$1,$8,$9,$2,$3,0*%
G04 Aperture macros list end*
%TA.AperFunction,SMDPad,CuDef*%
%ADD10R,0.800000X1.000000*%
%TD*%
%TA.AperFunction,SMDPad,CuDef*%
%ADD11R,1.500000X0.700000*%
%TD*%
%TA.AperFunction,SMDPad,CuDef*%
%ADD12RoundRect,0.135000X-0.185000X0.135000X-0.185000X-0.135000X0.185000X-0.135000X0.185000X0.135000X0*%
%TD*%
%TA.AperFunction,SMDPad,CuDef*%
%ADD13RoundRect,0.140000X-0.170000X0.140000X-0.170000X-0.140000X0.170000X-0.140000X0.170000X0.140000X0*%
%TD*%
%TA.AperFunction,SMDPad,CuDef*%
%ADD14RoundRect,0.200000X0.200000X0.275000X-0.200000X0.275000X-0.200000X-0.275000X0.200000X-0.275000X0*%
%TD*%
%TA.AperFunction,ComponentPad*%
%ADD15R,1.700000X1.700000*%
%TD*%
%TA.AperFunction,ComponentPad*%
%ADD16O,1.700000X1.700000*%
%TD*%
%TA.AperFunction,SMDPad,CuDef*%
%ADD17RoundRect,0.200000X-0.275000X0.200000X-0.275000X-0.200000X0.275000X-0.200000X0.275000X0.200000X0*%
%TD*%
%TA.AperFunction,SMDPad,CuDef*%
%ADD18RoundRect,0.250000X0.475000X-0.250000X0.475000X0.250000X-0.475000X0.250000X-0.475000X-0.250000X0*%
%TD*%
%TA.AperFunction,SMDPad,CuDef*%
%ADD19RoundRect,0.140000X0.170000X-0.140000X0.170000X0.140000X-0.170000X0.140000X-0.170000X-0.140000X0*%
%TD*%
%TA.AperFunction,SMDPad,CuDef*%
%ADD20RoundRect,0.140000X0.140000X0.170000X-0.140000X0.170000X-0.140000X-0.170000X0.140000X-0.170000X0*%
%TD*%
%TA.AperFunction,SMDPad,CuDef*%
%ADD21R,0.900000X1.000000*%
%TD*%
%TA.AperFunction,SMDPad,CuDef*%
%ADD22R,1.700000X0.550000*%
%TD*%
%TA.AperFunction,ConnectorPad*%
%ADD23R,0.400000X0.400000*%
%TD*%
%TA.AperFunction,SMDPad,CuDef*%
%ADD24RoundRect,0.200000X-0.200000X-0.275000X0.200000X-0.275000X0.200000X0.275000X-0.200000X0.275000X0*%
%TD*%
%TA.AperFunction,SMDPad,CuDef*%
%ADD25RoundRect,0.250000X-0.475000X0.250000X-0.475000X-0.250000X0.475000X-0.250000X0.475000X0.250000X0*%
%TD*%
%TA.AperFunction,SMDPad,CuDef*%
%ADD26RoundRect,0.225000X-0.250000X0.225000X-0.250000X-0.225000X0.250000X-0.225000X0.250000X0.225000X0*%
%TD*%
%TA.AperFunction,SMDPad,CuDef*%
%ADD27R,0.355600X1.473200*%
%TD*%
%TA.AperFunction,SMDPad,CuDef*%
%ADD28R,0.800000X0.900000*%
%TD*%
%TA.AperFunction,SMDPad,CuDef*%
%ADD29R,0.279400X0.711200*%
%TD*%
%TA.AperFunction,SMDPad,CuDef*%
%ADD30R,0.457200X0.254000*%
%TD*%
%TA.AperFunction,SMDPad,CuDef*%
%ADD31RoundRect,0.375000X-0.375000X0.625000X-0.375000X-0.625000X0.375000X-0.625000X0.375000X0.625000X0*%
%TD*%
%TA.AperFunction,SMDPad,CuDef*%
%ADD32RoundRect,0.500000X-1.400000X0.500000X-1.400000X-0.500000X1.400000X-0.500000X1.400000X0.500000X0*%
%TD*%
%TA.AperFunction,SMDPad,CuDef*%
%ADD33RoundRect,0.147500X-0.147500X-0.172500X0.147500X-0.172500X0.147500X0.172500X-0.147500X0.172500X0*%
%TD*%
%TA.AperFunction,SMDPad,CuDef*%
%ADD34RoundRect,0.175000X-0.625000X0.175000X-0.625000X-0.175000X0.625000X-0.175000X0.625000X0.175000X0*%
%TD*%
%TA.AperFunction,SMDPad,CuDef*%
%ADD35RoundRect,0.200000X-0.600000X0.200000X-0.600000X-0.200000X0.600000X-0.200000X0.600000X0.200000X0*%
%TD*%
%TA.AperFunction,SMDPad,CuDef*%
%ADD36RoundRect,0.225000X-0.575000X0.225000X-0.575000X-0.225000X0.575000X-0.225000X0.575000X0.225000X0*%
%TD*%
%TA.AperFunction,ComponentPad*%
%ADD37O,1.700000X1.000000*%
%TD*%
%TA.AperFunction,SMDPad,CuDef*%
%ADD38RoundRect,0.062500X0.062500X-0.375000X0.062500X0.375000X-0.062500X0.375000X-0.062500X-0.375000X0*%
%TD*%
%TA.AperFunction,SMDPad,CuDef*%
%ADD39RoundRect,0.062500X0.375000X-0.062500X0.375000X0.062500X-0.375000X0.062500X-0.375000X-0.062500X0*%
%TD*%
%TA.AperFunction,HeatsinkPad*%
%ADD40R,5.600000X5.600000*%
%TD*%
%TA.AperFunction,ViaPad*%
%ADD41C,0.600000*%
%TD*%
%TA.AperFunction,ViaPad*%
%ADD42C,0.500000*%
%TD*%
%TA.AperFunction,Conductor*%
%ADD43C,0.500000*%
%TD*%
%TA.AperFunction,Conductor*%
%ADD44C,0.300000*%
%TD*%
%TA.AperFunction,Conductor*%
%ADD45C,0.200000*%
%TD*%
%TA.AperFunction,Conductor*%
%ADD46C,0.400000*%
%TD*%
G04 APERTURE END LIST*
%TA.AperFunction,EtchedComponent*%
%TO.C,AE1*%
G36*
X163000000Y-85550000D02*
G01*
X164500000Y-85550000D01*
X164500000Y-85950000D01*
X163000000Y-85950000D01*
X163000000Y-85550000D01*
G37*
%TD.AperFunction*%
%TA.AperFunction,EtchedComponent*%
G36*
X164100000Y-83250000D02*
G01*
X164500000Y-83250000D01*
X164500000Y-85950000D01*
X164100000Y-85950000D01*
X164100000Y-83250000D01*
G37*
%TD.AperFunction*%
%TA.AperFunction,EtchedComponent*%
G36*
X164100000Y-83250000D02*
G01*
X165700000Y-83250000D01*
X165700000Y-83650000D01*
X164100000Y-83650000D01*
X164100000Y-83250000D01*
G37*
%TD.AperFunction*%
%TA.AperFunction,EtchedComponent*%
G36*
X165300000Y-83250000D02*
G01*
X165700000Y-83250000D01*
X165700000Y-92550000D01*
X165300000Y-92550000D01*
X165300000Y-83250000D01*
G37*
%TD.AperFunction*%
%TA.AperFunction,EtchedComponent*%
G36*
X165700000Y-92150000D02*
G01*
X166500000Y-92150000D01*
X166500000Y-92550000D01*
X165700000Y-92550000D01*
X165700000Y-92150000D01*
G37*
%TD.AperFunction*%
%TA.AperFunction,EtchedComponent*%
G36*
X166500000Y-83250000D02*
G01*
X166900000Y-83250000D01*
X166900000Y-92550000D01*
X166500000Y-92550000D01*
X166500000Y-83250000D01*
G37*
%TD.AperFunction*%
%TA.AperFunction,EtchedComponent*%
G36*
X166900000Y-83250000D02*
G01*
X167700000Y-83250000D01*
X167700000Y-83650000D01*
X166900000Y-83650000D01*
X166900000Y-83250000D01*
G37*
%TD.AperFunction*%
%TA.AperFunction,EtchedComponent*%
G36*
X167700000Y-83250000D02*
G01*
X168100000Y-83250000D01*
X168100000Y-92550000D01*
X167700000Y-92550000D01*
X167700000Y-83250000D01*
G37*
%TD.AperFunction*%
%TA.AperFunction,EtchedComponent*%
G36*
X168100000Y-92150000D02*
G01*
X168900000Y-92150000D01*
X168900000Y-92550000D01*
X168100000Y-92550000D01*
X168100000Y-92150000D01*
G37*
%TD.AperFunction*%
%TA.AperFunction,EtchedComponent*%
G36*
X168900000Y-85950000D02*
G01*
X169300000Y-85950000D01*
X169300000Y-92550000D01*
X168900000Y-92550000D01*
X168900000Y-85950000D01*
G37*
%TD.AperFunction*%
%TD*%
D10*
%TO.P,SW1,SH4*%
%TO.N,N/C*%
X112950000Y-99450000D03*
%TO.P,SW1,SH3*%
X112950000Y-92150000D03*
%TO.P,SW1,SH2*%
X115150000Y-99450000D03*
%TO.P,SW1,SH1*%
X115150000Y-92150000D03*
D11*
%TO.P,SW1,3,C*%
%TO.N,+3.3V*%
X115800000Y-98050000D03*
%TO.P,SW1,2,B*%
%TO.N,Net-(SW1-B)*%
X115800000Y-96550000D03*
%TO.P,SW1,1,A*%
%TO.N,GND*%
X115800000Y-93550000D03*
%TD*%
D12*
%TO.P,R4,1*%
%TO.N,BOOT0*%
X118700000Y-94390000D03*
%TO.P,R4,2*%
%TO.N,Net-(SW1-B)*%
X118700000Y-95410000D03*
%TD*%
D13*
%TO.P,C12,1*%
%TO.N,+3.3VA*%
X152400000Y-91720000D03*
%TO.P,C12,2*%
%TO.N,GND*%
X152400000Y-92680000D03*
%TD*%
D14*
%TO.P,R6,1*%
%TO.N,GND*%
X123825000Y-86750000D03*
%TO.P,R6,2*%
%TO.N,Net-(J3-CC2)*%
X122175000Y-86750000D03*
%TD*%
D15*
%TO.P,J2,1,Pin_1*%
%TO.N,+3.3V*%
X142350000Y-89900000D03*
D16*
%TO.P,J2,2,Pin_2*%
%TO.N,Net-(J2-Pin_2)*%
X139810000Y-89900000D03*
%TO.P,J2,3,Pin_3*%
%TO.N,Net-(J2-Pin_3)*%
X137270000Y-89900000D03*
%TO.P,J2,4,Pin_4*%
%TO.N,GND*%
X134730000Y-89900000D03*
%TD*%
D17*
%TO.P,R2,1*%
%TO.N,+3.3V*%
X121200000Y-92175000D03*
%TO.P,R2,2*%
%TO.N,Net-(U1-PB9)*%
X121200000Y-93825000D03*
%TD*%
D13*
%TO.P,C16,1*%
%TO.N,Net-(U2-IN)*%
X160000000Y-85670000D03*
%TO.P,C16,2*%
%TO.N,GND*%
X160000000Y-86630000D03*
%TD*%
D18*
%TO.P,C19,1*%
%TO.N,VBUS*%
X124000000Y-83000000D03*
%TO.P,C19,2*%
%TO.N,GND*%
X124000000Y-81100000D03*
%TD*%
D19*
%TO.P,C5,1*%
%TO.N,+3.3V*%
X145750000Y-89710000D03*
%TO.P,C5,2*%
%TO.N,GND*%
X145750000Y-88750000D03*
%TD*%
D20*
%TO.P,C6,1*%
%TO.N,+3.3V*%
X145780000Y-85800000D03*
%TO.P,C6,2*%
%TO.N,GND*%
X144820000Y-85800000D03*
%TD*%
D21*
%TO.P,SW2,1,1*%
%TO.N,Net-(U1-PA6)*%
X157500000Y-92100000D03*
X161600000Y-92100000D03*
%TO.P,SW2,2,2*%
%TO.N,GND*%
X157500000Y-93700000D03*
X161600000Y-93700000D03*
D22*
%TO.P,SW2,SH*%
%TO.N,N/C*%
X159550000Y-91475000D03*
%TD*%
D19*
%TO.P,C15,1*%
%TO.N,+3.3V*%
X156900000Y-84780000D03*
%TO.P,C15,2*%
%TO.N,GND*%
X156900000Y-83820000D03*
%TD*%
D23*
%TO.P,AE1,1,A*%
%TO.N,Net-(AE1-A)*%
X163200000Y-85750000D03*
%TD*%
D24*
%TO.P,R5,1*%
%TO.N,Net-(J3-CC1)*%
X122175000Y-85000000D03*
%TO.P,R5,2*%
%TO.N,GND*%
X123825000Y-85000000D03*
%TD*%
D19*
%TO.P,C14,1*%
%TO.N,+3.3V*%
X155800000Y-84780000D03*
%TO.P,C14,2*%
%TO.N,GND*%
X155800000Y-83820000D03*
%TD*%
D25*
%TO.P,C18,1*%
%TO.N,+3.3V*%
X124000000Y-88950000D03*
%TO.P,C18,2*%
%TO.N,GND*%
X124000000Y-90850000D03*
%TD*%
D17*
%TO.P,R1,1*%
%TO.N,+3.3V*%
X128900000Y-92175000D03*
%TO.P,R1,2*%
%TO.N,Net-(U1-PB8)*%
X128900000Y-93825000D03*
%TD*%
D26*
%TO.P,C11,1*%
%TO.N,+3.3V*%
X155600000Y-86825000D03*
%TO.P,C11,2*%
%TO.N,GND*%
X155600000Y-88375000D03*
%TD*%
D27*
%TO.P,U4,1,A0*%
%TO.N,GND*%
X113900002Y-109000000D03*
%TO.P,U4,2,A1*%
X114550001Y-109000000D03*
%TO.P,U4,3,\u002ARESET*%
%TO.N,Net-(U4-\u002ARESET)*%
X115199999Y-109000000D03*
%TO.P,U4,4,SD0*%
%TO.N,Net-(J1-Pin_4)*%
X115850000Y-109000000D03*
%TO.P,U4,5,SC0*%
%TO.N,Net-(J1-Pin_6)*%
X116499999Y-109000000D03*
%TO.P,U4,6,SD1*%
%TO.N,Net-(J1-Pin_12)*%
X117150000Y-109000000D03*
%TO.P,U4,7,SC1*%
%TO.N,Net-(J1-Pin_14)*%
X117799999Y-109000000D03*
%TO.P,U4,8,SD2*%
%TO.N,Net-(J1-Pin_20)*%
X118450000Y-109000000D03*
%TO.P,U4,9,SC2*%
%TO.N,Net-(J1-Pin_22)*%
X119099999Y-109000000D03*
%TO.P,U4,10,SD3*%
%TO.N,Net-(J1-Pin_28)*%
X119750000Y-109000000D03*
%TO.P,U4,11,SC3*%
%TO.N,Net-(J1-Pin_30)*%
X120399999Y-109000000D03*
%TO.P,U4,12,GND*%
%TO.N,GND*%
X121050000Y-109000000D03*
%TO.P,U4,13,SD4*%
%TO.N,Net-(J1-Pin_3)*%
X121050000Y-103158000D03*
%TO.P,U4,14,SC4*%
%TO.N,Net-(J1-Pin_5)*%
X120400001Y-103158000D03*
%TO.P,U4,15,SD5*%
%TO.N,Net-(J1-Pin_11)*%
X119750000Y-103158000D03*
%TO.P,U4,16,SC5*%
%TO.N,Net-(J1-Pin_13)*%
X119100002Y-103158000D03*
%TO.P,U4,17,SD6*%
%TO.N,Net-(J1-Pin_19)*%
X118450000Y-103158000D03*
%TO.P,U4,18,SC6*%
%TO.N,Net-(J1-Pin_21)*%
X117800002Y-103158000D03*
%TO.P,U4,19,SD7*%
%TO.N,Net-(J1-Pin_27)*%
X117150003Y-103158000D03*
%TO.P,U4,20,SC7*%
%TO.N,Net-(J1-Pin_29)*%
X116500002Y-103158000D03*
%TO.P,U4,21,A2*%
%TO.N,GND*%
X115850003Y-103158000D03*
%TO.P,U4,22,SCL*%
%TO.N,Net-(U1-PB8)*%
X115200002Y-103158000D03*
%TO.P,U4,23,SDA*%
%TO.N,Net-(U1-PB9)*%
X114550003Y-103158000D03*
%TO.P,U4,24,VCC*%
%TO.N,+3.3V*%
X113900002Y-103158000D03*
%TD*%
D12*
%TO.P,R3,1*%
%TO.N,+3.3V*%
X122500000Y-103690000D03*
%TO.P,R3,2*%
%TO.N,Net-(U4-\u002ARESET)*%
X122500000Y-104710000D03*
%TD*%
D19*
%TO.P,C2,1*%
%TO.N,Net-(U1-OSC_OUT)*%
X156900000Y-82260000D03*
%TO.P,C2,2*%
%TO.N,GND*%
X156900000Y-81300000D03*
%TD*%
%TO.P,C9,1*%
%TO.N,+3.3V*%
X149000000Y-82180000D03*
%TO.P,C9,2*%
%TO.N,GND*%
X149000000Y-81220000D03*
%TD*%
%TO.P,C4,1*%
%TO.N,+3.3V*%
X146800000Y-82180000D03*
%TO.P,C4,2*%
%TO.N,GND*%
X146800000Y-81220000D03*
%TD*%
D28*
%TO.P,Y1,1,1*%
%TO.N,Net-(U1-OSC_IN)*%
X154200000Y-80700000D03*
%TO.P,Y1,2,2*%
%TO.N,GND*%
X154200000Y-82100000D03*
%TO.P,Y1,3,3*%
%TO.N,Net-(U1-OSC_OUT)*%
X155300000Y-82100000D03*
%TO.P,Y1,4,4*%
%TO.N,GND*%
X155300000Y-80700000D03*
%TD*%
D13*
%TO.P,C17,1*%
%TO.N,RF_OUT*%
X157000000Y-85740000D03*
%TO.P,C17,2*%
%TO.N,GND*%
X157000000Y-86700000D03*
%TD*%
D29*
%TO.P,U2,1,IN*%
%TO.N,Net-(U2-IN)*%
X161100000Y-85720000D03*
D30*
%TO.P,U2,2,GND*%
%TO.N,GND*%
X161709600Y-85491400D03*
D29*
%TO.P,U2,3,OUT*%
%TO.N,Net-(AE1-A)*%
X162319200Y-85720000D03*
D30*
%TO.P,U2,4,GND*%
%TO.N,GND*%
X161709600Y-85948600D03*
%TD*%
D19*
%TO.P,C8,1*%
%TO.N,+3.3V*%
X147900000Y-82180000D03*
%TO.P,C8,2*%
%TO.N,GND*%
X147900000Y-81220000D03*
%TD*%
%TO.P,C7,1*%
%TO.N,+3.3V*%
X151200000Y-82180000D03*
%TO.P,C7,2*%
%TO.N,GND*%
X151200000Y-81220000D03*
%TD*%
D15*
%TO.P,J1,1,Pin_1*%
%TO.N,+3.3V*%
X124960000Y-99210000D03*
D16*
%TO.P,J1,2,Pin_2*%
X124960000Y-101750000D03*
%TO.P,J1,3,Pin_3*%
%TO.N,Net-(J1-Pin_3)*%
X127500000Y-99210000D03*
%TO.P,J1,4,Pin_4*%
%TO.N,Net-(J1-Pin_4)*%
X127500000Y-101750000D03*
%TO.P,J1,5,Pin_5*%
%TO.N,Net-(J1-Pin_5)*%
X130040000Y-99210000D03*
%TO.P,J1,6,Pin_6*%
%TO.N,Net-(J1-Pin_6)*%
X130040000Y-101750000D03*
%TO.P,J1,7,Pin_7*%
%TO.N,GND*%
X132580000Y-99210000D03*
%TO.P,J1,8,Pin_8*%
X132580000Y-101750000D03*
%TO.P,J1,9,Pin_9*%
%TO.N,+3.3V*%
X135120000Y-99210000D03*
%TO.P,J1,10,Pin_10*%
X135120000Y-101750000D03*
%TO.P,J1,11,Pin_11*%
%TO.N,Net-(J1-Pin_11)*%
X137660000Y-99210000D03*
%TO.P,J1,12,Pin_12*%
%TO.N,Net-(J1-Pin_12)*%
X137660000Y-101750000D03*
%TO.P,J1,13,Pin_13*%
%TO.N,Net-(J1-Pin_13)*%
X140200000Y-99210000D03*
%TO.P,J1,14,Pin_14*%
%TO.N,Net-(J1-Pin_14)*%
X140200000Y-101750000D03*
%TO.P,J1,15,Pin_15*%
%TO.N,GND*%
X142740000Y-99210000D03*
%TO.P,J1,16,Pin_16*%
X142740000Y-101750000D03*
%TO.P,J1,17,Pin_17*%
%TO.N,+3.3V*%
X145280000Y-99210000D03*
%TO.P,J1,18,Pin_18*%
X145280000Y-101750000D03*
%TO.P,J1,19,Pin_19*%
%TO.N,Net-(J1-Pin_19)*%
X147820000Y-99210000D03*
%TO.P,J1,20,Pin_20*%
%TO.N,Net-(J1-Pin_20)*%
X147820000Y-101750000D03*
%TO.P,J1,21,Pin_21*%
%TO.N,Net-(J1-Pin_21)*%
X150360000Y-99210000D03*
%TO.P,J1,22,Pin_22*%
%TO.N,Net-(J1-Pin_22)*%
X150360000Y-101750000D03*
%TO.P,J1,23,Pin_23*%
%TO.N,GND*%
X152900000Y-99210000D03*
%TO.P,J1,24,Pin_24*%
X152900000Y-101750000D03*
%TO.P,J1,25,Pin_25*%
%TO.N,+3.3V*%
X155440000Y-99210000D03*
%TO.P,J1,26,Pin_26*%
X155440000Y-101750000D03*
%TO.P,J1,27,Pin_27*%
%TO.N,Net-(J1-Pin_27)*%
X157980000Y-99210000D03*
%TO.P,J1,28,Pin_28*%
%TO.N,Net-(J1-Pin_28)*%
X157980000Y-101750000D03*
%TO.P,J1,29,Pin_29*%
%TO.N,Net-(J1-Pin_29)*%
X160520000Y-99210000D03*
%TO.P,J1,30,Pin_30*%
%TO.N,Net-(J1-Pin_30)*%
X160520000Y-101750000D03*
%TO.P,J1,31,Pin_31*%
%TO.N,GND*%
X163060000Y-99210000D03*
%TO.P,J1,32,Pin_32*%
X163060000Y-101750000D03*
%TD*%
D31*
%TO.P,U3,1,GND*%
%TO.N,GND*%
X131150000Y-82350000D03*
%TO.P,U3,2,VO*%
%TO.N,+3.3V*%
X128850000Y-82350000D03*
D32*
X128850000Y-88650000D03*
D31*
%TO.P,U3,3,VI*%
%TO.N,VBUS*%
X126550000Y-82350000D03*
%TD*%
D13*
%TO.P,C3,1*%
%TO.N,Net-(U1-NRST(PB11))*%
X150950000Y-91920000D03*
%TO.P,C3,2*%
%TO.N,GND*%
X150950000Y-92880000D03*
%TD*%
D33*
%TO.P,L1,1,1*%
%TO.N,RF_OUT*%
X158015000Y-85720000D03*
%TO.P,L1,2,2*%
%TO.N,Net-(U2-IN)*%
X158985000Y-85720000D03*
%TD*%
D13*
%TO.P,C1,1*%
%TO.N,Net-(U1-OSC_IN)*%
X152400000Y-81020000D03*
%TO.P,C1,2*%
%TO.N,GND*%
X152400000Y-81980000D03*
%TD*%
D34*
%TO.P,J3,A5,CC1*%
%TO.N,Net-(J3-CC1)*%
X119680000Y-85000000D03*
D35*
%TO.P,J3,A9,VBUS*%
%TO.N,VBUS*%
X119680000Y-87020000D03*
D36*
%TO.P,J3,A12,GND*%
%TO.N,GND*%
X119680000Y-88250000D03*
D34*
%TO.P,J3,B5,CC2*%
%TO.N,Net-(J3-CC2)*%
X119680000Y-86000000D03*
D35*
%TO.P,J3,B9,VBUS*%
%TO.N,VBUS*%
X119680000Y-83980000D03*
D36*
%TO.P,J3,B12,GND*%
%TO.N,GND*%
X119680000Y-82750000D03*
D37*
%TO.P,J3,S1,SHIELD*%
%TO.N,unconnected-(J3-SHIELD-PadS1)_1*%
X119500000Y-81180000D03*
%TO.N,unconnected-(J3-SHIELD-PadS1)_3*%
X115700000Y-81180000D03*
%TO.N,unconnected-(J3-SHIELD-PadS1)*%
X119500000Y-89820000D03*
%TO.N,unconnected-(J3-SHIELD-PadS1)_2*%
X115700000Y-89820000D03*
%TD*%
D13*
%TO.P,C13,1*%
%TO.N,+3.3VA*%
X153500000Y-91720000D03*
%TO.P,C13,2*%
%TO.N,GND*%
X153500000Y-92680000D03*
%TD*%
D19*
%TO.P,C10,1*%
%TO.N,+3.3V*%
X150100000Y-82180000D03*
%TO.P,C10,2*%
%TO.N,GND*%
X150100000Y-81220000D03*
%TD*%
D38*
%TO.P,U1,1,VBAT*%
%TO.N,+3.3V*%
X147750000Y-90437500D03*
%TO.P,U1,2,PC14*%
%TO.N,unconnected-(U1-PC14-Pad2)*%
X148250000Y-90437500D03*
%TO.P,U1,3,PC15*%
%TO.N,unconnected-(U1-PC15-Pad3)*%
X148750000Y-90437500D03*
%TO.P,U1,4,PH3*%
%TO.N,BOOT0*%
X149250000Y-90437500D03*
%TO.P,U1,5,PB8*%
%TO.N,Net-(U1-PB8)*%
X149750000Y-90437500D03*
%TO.P,U1,6,PB9*%
%TO.N,Net-(U1-PB9)*%
X150250000Y-90437500D03*
%TO.P,U1,7,NRST(PB11)*%
%TO.N,Net-(U1-NRST(PB11))*%
X150750000Y-90437500D03*
%TO.P,U1,8,VDDA*%
%TO.N,+3.3VA*%
X151250000Y-90437500D03*
%TO.P,U1,9,PA0*%
%TO.N,unconnected-(U1-PA0-Pad9)*%
X151750000Y-90437500D03*
%TO.P,U1,10,PA1*%
%TO.N,unconnected-(U1-PA1-Pad10)*%
X152250000Y-90437500D03*
%TO.P,U1,11,PA2*%
%TO.N,unconnected-(U1-PA2-Pad11)*%
X152750000Y-90437500D03*
%TO.P,U1,12,PA3*%
%TO.N,unconnected-(U1-PA3-Pad12)*%
X153250000Y-90437500D03*
D39*
%TO.P,U1,13,PA4*%
%TO.N,unconnected-(U1-PA4-Pad13)*%
X153937500Y-89750000D03*
%TO.P,U1,14,PA5*%
%TO.N,unconnected-(U1-PA5-Pad14)*%
X153937500Y-89250000D03*
%TO.P,U1,15,PA6*%
%TO.N,Net-(U1-PA6)*%
X153937500Y-88750000D03*
%TO.P,U1,16,PA7*%
%TO.N,unconnected-(U1-PA7-Pad16)*%
X153937500Y-88250000D03*
%TO.P,U1,17,PA8*%
%TO.N,unconnected-(U1-PA8-Pad17)*%
X153937500Y-87750000D03*
%TO.P,U1,18,PA9*%
%TO.N,unconnected-(U1-PA9-Pad18)*%
X153937500Y-87250000D03*
%TO.P,U1,19,PB2*%
%TO.N,unconnected-(U1-PB2-Pad19)*%
X153937500Y-86750000D03*
%TO.P,U1,20,VDD*%
%TO.N,+3.3V*%
X153937500Y-86250000D03*
%TO.P,U1,21,RF1*%
%TO.N,RF_OUT*%
X153937500Y-85750000D03*
%TO.P,U1,22,VSSRF*%
%TO.N,GND*%
X153937500Y-85250000D03*
%TO.P,U1,23,VDDRF*%
%TO.N,+3.3V*%
X153937500Y-84750000D03*
%TO.P,U1,24,OSC_OUT*%
%TO.N,Net-(U1-OSC_OUT)*%
X153937500Y-84250000D03*
D38*
%TO.P,U1,25,OSC_IN*%
%TO.N,Net-(U1-OSC_IN)*%
X153250000Y-83562500D03*
%TO.P,U1,26,AT0*%
%TO.N,unconnected-(U1-AT0-Pad26)*%
X152750000Y-83562500D03*
%TO.P,U1,27,AT1*%
%TO.N,unconnected-(U1-AT1-Pad27)*%
X152250000Y-83562500D03*
%TO.P,U1,28,PB0*%
%TO.N,unconnected-(U1-PB0-Pad28)*%
X151750000Y-83562500D03*
%TO.P,U1,29,PB1*%
%TO.N,unconnected-(U1-PB1-Pad29)*%
X151250000Y-83562500D03*
%TO.P,U1,30,PE4*%
%TO.N,unconnected-(U1-PE4-Pad30)*%
X150750000Y-83562500D03*
%TO.P,U1,31,VDD*%
%TO.N,+3.3V*%
X150250000Y-83562500D03*
%TO.P,U1,32,VSS*%
%TO.N,GND*%
X149750000Y-83562500D03*
%TO.P,U1,33,VDD*%
%TO.N,+3.3V*%
X149250000Y-83562500D03*
%TO.P,U1,34,VDD*%
X148750000Y-83562500D03*
%TO.P,U1,35,VDD*%
X148250000Y-83562500D03*
%TO.P,U1,36,PA10*%
%TO.N,unconnected-(U1-PA10-Pad36)*%
X147750000Y-83562500D03*
D39*
%TO.P,U1,37,PA11*%
%TO.N,unconnected-(U1-PA11-Pad37)*%
X147062500Y-84250000D03*
%TO.P,U1,38,PA12*%
%TO.N,unconnected-(U1-PA12-Pad38)*%
X147062500Y-84750000D03*
%TO.P,U1,39,PA13*%
%TO.N,Net-(J2-Pin_3)*%
X147062500Y-85250000D03*
%TO.P,U1,40,VDD*%
%TO.N,+3.3V*%
X147062500Y-85750000D03*
%TO.P,U1,41,PA14*%
%TO.N,Net-(J2-Pin_2)*%
X147062500Y-86250000D03*
%TO.P,U1,42,PA15*%
%TO.N,unconnected-(U1-PA15-Pad42)*%
X147062500Y-86750000D03*
%TO.P,U1,43,PB3*%
%TO.N,unconnected-(U1-PB3-Pad43)*%
X147062500Y-87250000D03*
%TO.P,U1,44,PB4*%
%TO.N,unconnected-(U1-PB4-Pad44)*%
X147062500Y-87750000D03*
%TO.P,U1,45,PB5*%
%TO.N,unconnected-(U1-PB5-Pad45)*%
X147062500Y-88250000D03*
%TO.P,U1,46,PB6*%
%TO.N,unconnected-(U1-PB6-Pad46)*%
X147062500Y-88750000D03*
%TO.P,U1,47,PB7*%
%TO.N,unconnected-(U1-PB7-Pad47)*%
X147062500Y-89250000D03*
%TO.P,U1,48,VDD*%
%TO.N,+3.3V*%
X147062500Y-89750000D03*
D40*
%TO.P,U1,49,VSS*%
%TO.N,GND*%
X150500000Y-87000000D03*
%TD*%
D41*
%TO.N,GND*%
X153500000Y-93500000D03*
X161200000Y-84700000D03*
X114100000Y-107500000D03*
X118250000Y-82750000D03*
X157600000Y-87500000D03*
X122100000Y-109000000D03*
X149000000Y-80500000D03*
X122000000Y-82250000D03*
D42*
X143352083Y-93952083D03*
X125500000Y-90750000D03*
D41*
X159200000Y-87500000D03*
X156800000Y-88400000D03*
X146000000Y-81500000D03*
X126000000Y-86750000D03*
D42*
X144750000Y-89000000D03*
D41*
X156200000Y-81300000D03*
D42*
X142500000Y-92400000D03*
D41*
X158000000Y-83000000D03*
X116500000Y-92000000D03*
X115700000Y-104600000D03*
X126000000Y-85000000D03*
X114800000Y-107500000D03*
X148000000Y-80500000D03*
X132700000Y-82400000D03*
X152400000Y-93500000D03*
X150500000Y-87000000D03*
D42*
X132900000Y-92300000D03*
D41*
X151250000Y-80500000D03*
X161200000Y-86800000D03*
X118250000Y-88250000D03*
D42*
X132800000Y-94400000D03*
D41*
X158700000Y-93700000D03*
X144800000Y-86600000D03*
X160400000Y-93700000D03*
X152600000Y-82625000D03*
X154000000Y-83400000D03*
X150000000Y-80500000D03*
X150109620Y-93209620D03*
%TO.N,+3.3V*%
X156464753Y-87673630D03*
D42*
X136700000Y-91500000D03*
D41*
X155750000Y-91250000D03*
X157900000Y-84200000D03*
X145542629Y-83750000D03*
D42*
X136700000Y-94700000D03*
D41*
X145592435Y-85050000D03*
%TO.N,Net-(U1-PB9)*%
X127500000Y-93800000D03*
X130700000Y-94500000D03*
%TD*%
D43*
%TO.N,+3.3V*%
X113900002Y-98600002D02*
X114349998Y-98600002D01*
X114349998Y-98600002D02*
X114900000Y-98050000D01*
X114900000Y-98050000D02*
X115800000Y-98050000D01*
X113900002Y-103158000D02*
X113900002Y-102300000D01*
X112950000Y-97650000D02*
X113900002Y-98600002D01*
X113900002Y-102300000D02*
X113900002Y-101818167D01*
X121200000Y-92175000D02*
X119425000Y-92175000D01*
X119425000Y-92175000D02*
X116800000Y-94800000D01*
X116800000Y-94800000D02*
X115164071Y-94800000D01*
X115164071Y-94800000D02*
X112950000Y-97014071D01*
X112950000Y-97014071D02*
X112950000Y-97650000D01*
X113900002Y-98600002D02*
X113900002Y-102300000D01*
D44*
%TO.N,GND*%
X113900002Y-109000000D02*
X113900002Y-107699998D01*
X161600000Y-93700000D02*
X160400000Y-93700000D01*
X114550001Y-107749999D02*
X114800000Y-107500000D01*
D45*
X161709600Y-85948600D02*
X161709600Y-86290400D01*
D43*
X132700000Y-82400000D02*
X131100000Y-82400000D01*
X116500000Y-92930000D02*
X116500000Y-92000000D01*
X146280000Y-81220000D02*
X146000000Y-81500000D01*
X144820000Y-85800000D02*
X144820000Y-86580000D01*
D44*
X157500000Y-93700000D02*
X158700000Y-93700000D01*
X150900000Y-92780000D02*
X150539240Y-92780000D01*
D43*
X151200000Y-80550000D02*
X151250000Y-80500000D01*
D45*
X159900000Y-86800000D02*
X159200000Y-87500000D01*
D44*
X124000000Y-90850000D02*
X125400000Y-90850000D01*
X145000000Y-88750000D02*
X144750000Y-89000000D01*
X153500000Y-92680000D02*
X153500000Y-93500000D01*
X125400000Y-90850000D02*
X125500000Y-90750000D01*
X115850003Y-104449997D02*
X115700000Y-104600000D01*
D45*
X142200000Y-92700000D02*
X142500000Y-92400000D01*
D43*
X146800000Y-81220000D02*
X146280000Y-81220000D01*
X155800000Y-83820000D02*
X156900000Y-83820000D01*
X158000000Y-83000000D02*
X157180000Y-83820000D01*
X144820000Y-86580000D02*
X144800000Y-86600000D01*
D44*
X150100000Y-80600000D02*
X150000000Y-80500000D01*
X149000000Y-81220000D02*
X149000000Y-80500000D01*
D45*
X159900000Y-86700000D02*
X159900000Y-86800000D01*
X161709600Y-85209600D02*
X161200000Y-84700000D01*
X143352083Y-93952083D02*
X143154166Y-94150000D01*
D44*
X150539240Y-92780000D02*
X150109620Y-93209620D01*
D43*
X151200000Y-81220000D02*
X146800000Y-81220000D01*
D45*
X143154166Y-94150000D02*
X133050000Y-94150000D01*
D43*
X131100000Y-82400000D02*
X131050000Y-82350000D01*
D44*
X147900000Y-81220000D02*
X147900000Y-80600000D01*
D45*
X157000000Y-86900000D02*
X157600000Y-87500000D01*
D44*
X115850003Y-103158000D02*
X115850003Y-104449997D01*
X155600000Y-88375000D02*
X156775000Y-88375000D01*
D43*
X157180000Y-83820000D02*
X156900000Y-83820000D01*
X119680000Y-88250000D02*
X118250000Y-88250000D01*
D44*
X150100000Y-81220000D02*
X150100000Y-80600000D01*
X156775000Y-88375000D02*
X156800000Y-88400000D01*
X114550001Y-109000000D02*
X114550001Y-107749999D01*
D45*
X161709600Y-85491400D02*
X161709600Y-85209600D01*
D44*
X154200000Y-83200000D02*
X154000000Y-83400000D01*
X147900000Y-80600000D02*
X148000000Y-80500000D01*
D43*
X115930000Y-93500000D02*
X116500000Y-92930000D01*
D45*
X157000000Y-86700000D02*
X157000000Y-86900000D01*
D43*
X151200000Y-81220000D02*
X151200000Y-80550000D01*
D45*
X133400000Y-92700000D02*
X133300000Y-92700000D01*
D43*
X119680000Y-82750000D02*
X118250000Y-82750000D01*
D44*
X124000000Y-81100000D02*
X123150000Y-81100000D01*
X149750000Y-86250000D02*
X150500000Y-87000000D01*
D45*
X133050000Y-94150000D02*
X132800000Y-94400000D01*
X161709600Y-86290400D02*
X161200000Y-86800000D01*
D44*
X153937500Y-85250000D02*
X152250000Y-85250000D01*
X113900002Y-107699998D02*
X114100000Y-107500000D01*
D45*
X133400000Y-92700000D02*
X142200000Y-92700000D01*
D44*
X123825000Y-85000000D02*
X126000000Y-85000000D01*
X123825000Y-86750000D02*
X126000000Y-86750000D01*
X152400000Y-92680000D02*
X152400000Y-93500000D01*
X152600000Y-82625000D02*
X152400000Y-82425000D01*
X145750000Y-88750000D02*
X145000000Y-88750000D01*
X152250000Y-85250000D02*
X150500000Y-87000000D01*
X155300000Y-80700000D02*
X155600000Y-80700000D01*
X154200000Y-82100000D02*
X154200000Y-83200000D01*
X123150000Y-81100000D02*
X122000000Y-82250000D01*
X121050000Y-109000000D02*
X122100000Y-109000000D01*
X149750000Y-83562500D02*
X149750000Y-86250000D01*
X152400000Y-82425000D02*
X152400000Y-81980000D01*
X155600000Y-80700000D02*
X156200000Y-81300000D01*
D45*
X133300000Y-92700000D02*
X132900000Y-92300000D01*
D44*
X156900000Y-81300000D02*
X156200000Y-81300000D01*
%TO.N,+3.3V*%
X145832500Y-89750000D02*
X145750000Y-89832500D01*
X149250000Y-83030000D02*
X150100000Y-82180000D01*
X148250000Y-82530000D02*
X147900000Y-82180000D01*
X155616123Y-86825000D02*
X156464753Y-87673630D01*
D43*
X143167500Y-89832500D02*
X145750000Y-89832500D01*
D44*
X155600000Y-86825000D02*
X155616123Y-86825000D01*
D43*
X130300000Y-83800000D02*
X145550000Y-83800000D01*
X141500000Y-91500000D02*
X142350000Y-90650000D01*
D44*
X143200000Y-91500000D02*
X142350000Y-90650000D01*
X147730000Y-91500000D02*
X143200000Y-91500000D01*
D43*
X145550000Y-83757371D02*
X145542629Y-83750000D01*
D44*
X156900000Y-84780000D02*
X157320000Y-84780000D01*
D43*
X124300000Y-88650000D02*
X124000000Y-88950000D01*
D44*
X124960000Y-100500000D02*
X134500000Y-100500000D01*
X161800000Y-99627057D02*
X161800000Y-98792943D01*
X124960000Y-99210000D02*
X124960000Y-100500000D01*
D43*
X136700000Y-91500000D02*
X133800000Y-91500000D01*
X122500000Y-103690000D02*
X122500000Y-102960000D01*
D44*
X148750000Y-83562500D02*
X148750000Y-82430000D01*
D43*
X145592435Y-85612435D02*
X145780000Y-85800000D01*
D44*
X155891371Y-93944975D02*
X154044975Y-93944975D01*
X148250000Y-83562500D02*
X148250000Y-82530000D01*
X159807057Y-96800000D02*
X158746396Y-96800000D01*
D43*
X131000000Y-90800000D02*
X128850000Y-88650000D01*
D44*
X135120000Y-100500000D02*
X135120000Y-101750000D01*
D43*
X113900002Y-104322399D02*
X113900002Y-103158000D01*
D44*
X158746396Y-96800000D02*
X155891371Y-93944975D01*
X148750000Y-82430000D02*
X149000000Y-82180000D01*
X156870000Y-84750000D02*
X156900000Y-84780000D01*
D43*
X116910661Y-104450000D02*
X116010661Y-105350000D01*
D44*
X155440000Y-100500000D02*
X160927057Y-100500000D01*
X157320000Y-84780000D02*
X157900000Y-84200000D01*
D43*
X128850000Y-92225000D02*
X128900000Y-92275000D01*
D44*
X145280000Y-100500000D02*
X145280000Y-101750000D01*
D43*
X114927603Y-105350000D02*
X113900002Y-104322399D01*
D44*
X155440000Y-99210000D02*
X155440000Y-100500000D01*
D43*
X136700000Y-94700000D02*
X153289950Y-94700000D01*
X128850000Y-82350000D02*
X130300000Y-83800000D01*
X142350000Y-90650000D02*
X143167500Y-89832500D01*
D44*
X145280000Y-100500000D02*
X134500000Y-100500000D01*
D43*
X128850000Y-88650000D02*
X128850000Y-92225000D01*
X128850000Y-88650000D02*
X124300000Y-88650000D01*
X116010661Y-105350000D02*
X114927603Y-105350000D01*
D46*
X153289950Y-94700000D02*
X154044975Y-93944975D01*
D44*
X153937500Y-84750000D02*
X156870000Y-84750000D01*
X147750000Y-90437500D02*
X147750000Y-91480000D01*
X147750000Y-91480000D02*
X147730000Y-91500000D01*
X161800000Y-98792943D02*
X159807057Y-96800000D01*
X155025000Y-86250000D02*
X153937500Y-86250000D01*
D46*
X154044975Y-93944975D02*
X155750000Y-92239950D01*
D44*
X147062500Y-89750000D02*
X145832500Y-89750000D01*
X135120000Y-99210000D02*
X135120000Y-100500000D01*
D43*
X133100000Y-90800000D02*
X131000000Y-90800000D01*
D44*
X145280000Y-99210000D02*
X145280000Y-100500000D01*
D43*
X133800000Y-91500000D02*
X133100000Y-90800000D01*
D44*
X155440000Y-100500000D02*
X145280000Y-100500000D01*
X145830000Y-85750000D02*
X145780000Y-85800000D01*
D43*
X145592435Y-85050000D02*
X145592435Y-85612435D01*
X128850000Y-88650000D02*
X128850000Y-82350000D01*
D44*
X149250000Y-83562500D02*
X149250000Y-83030000D01*
X150250000Y-83039904D02*
X151109904Y-82180000D01*
D43*
X122110000Y-103690000D02*
X121350000Y-104450000D01*
X121200000Y-91750000D02*
X121200000Y-92175000D01*
X122500000Y-103690000D02*
X122110000Y-103690000D01*
X146800000Y-82180000D02*
X151200000Y-82180000D01*
X121350000Y-104450000D02*
X116910661Y-104450000D01*
D44*
X134500000Y-100500000D02*
X135120000Y-100500000D01*
D43*
X124000000Y-88950000D02*
X121200000Y-91750000D01*
D46*
X155750000Y-92239950D02*
X155750000Y-91250000D01*
D43*
X145550000Y-83800000D02*
X145550000Y-83757371D01*
D44*
X124960000Y-100500000D02*
X124960000Y-101750000D01*
X150250000Y-83562500D02*
X150250000Y-83039904D01*
D43*
X145542629Y-83437371D02*
X146800000Y-82180000D01*
D44*
X160927057Y-100500000D02*
X161800000Y-99627057D01*
X147062500Y-85750000D02*
X145830000Y-85750000D01*
X151109904Y-82180000D02*
X151200000Y-82180000D01*
X155600000Y-86825000D02*
X155025000Y-86250000D01*
D43*
X136700000Y-91500000D02*
X141500000Y-91500000D01*
D44*
X155440000Y-100500000D02*
X155440000Y-101750000D01*
D43*
X145542629Y-83750000D02*
X145542629Y-83437371D01*
X122500000Y-102960000D02*
X124960000Y-100500000D01*
D44*
%TO.N,Net-(U1-PB8)*%
X115200002Y-102073801D02*
X122773803Y-94500000D01*
X129615465Y-93425000D02*
X129890465Y-93150000D01*
X142598529Y-93150000D02*
X142898529Y-92850000D01*
X129890465Y-93150000D02*
X142598529Y-93150000D01*
X148750000Y-92850000D02*
X149750000Y-91850000D01*
X128325000Y-94500000D02*
X129400000Y-93425000D01*
X142898529Y-92850000D02*
X148750000Y-92850000D01*
X149750000Y-91850000D02*
X149750000Y-90437500D01*
X129400000Y-93425000D02*
X129615465Y-93425000D01*
X122773803Y-94500000D02*
X128325000Y-94500000D01*
X115200002Y-103158000D02*
X115200002Y-102073801D01*
%TO.N,Net-(U1-OSC_IN)*%
X153250000Y-81650000D02*
X153250000Y-83562500D01*
X154200000Y-80700000D02*
X153250000Y-81650000D01*
X152520000Y-80700000D02*
X152400000Y-80820000D01*
X154200000Y-80700000D02*
X152520000Y-80700000D01*
%TO.N,Net-(U1-OSC_OUT)*%
X154150000Y-84250000D02*
X155300000Y-83100000D01*
X156740000Y-82100000D02*
X156900000Y-82260000D01*
X155300000Y-83100000D02*
X155300000Y-82100000D01*
X155300000Y-82100000D02*
X156740000Y-82100000D01*
X153937500Y-84250000D02*
X154150000Y-84250000D01*
%TO.N,Net-(J2-Pin_2)*%
X144750000Y-87250000D02*
X143600000Y-88400000D01*
X141100000Y-88400000D02*
X139810000Y-89690000D01*
X145350000Y-87250000D02*
X144750000Y-87250000D01*
X147062500Y-86250000D02*
X146350000Y-86250000D01*
X139810000Y-89690000D02*
X139810000Y-90650000D01*
X143600000Y-88400000D02*
X141100000Y-88400000D01*
X146350000Y-86250000D02*
X145350000Y-87250000D01*
%TO.N,Net-(U1-PB9)*%
X143105636Y-93350000D02*
X149050000Y-93350000D01*
X127475000Y-93825000D02*
X127500000Y-93800000D01*
X114550003Y-102016694D02*
X121200000Y-95366697D01*
X121200000Y-93825000D02*
X127475000Y-93825000D01*
X150250000Y-92150000D02*
X150250000Y-90437500D01*
X114550003Y-103158000D02*
X114550003Y-102016694D01*
X130700000Y-94500000D02*
X131550000Y-93650000D01*
X121200000Y-95366697D02*
X121200000Y-93825000D01*
X149050000Y-93350000D02*
X150250000Y-92150000D01*
X131550000Y-93650000D02*
X142805636Y-93650000D01*
X142805636Y-93650000D02*
X143105636Y-93350000D01*
%TO.N,Net-(J2-Pin_3)*%
X140300000Y-87700000D02*
X139470000Y-87700000D01*
X146275000Y-84985096D02*
X146275000Y-84575000D01*
X146100000Y-84400000D02*
X143600000Y-84400000D01*
X147062500Y-85250000D02*
X146539904Y-85250000D01*
X146275000Y-84575000D02*
X146100000Y-84400000D01*
X146539904Y-85250000D02*
X146275000Y-84985096D01*
X143600000Y-84400000D02*
X140300000Y-87700000D01*
X139470000Y-87700000D02*
X137270000Y-89900000D01*
%TO.N,Net-(U1-NRST(PB11))*%
X150750000Y-90437500D02*
X150750000Y-91720000D01*
X150750000Y-91720000D02*
X150950000Y-91920000D01*
%TO.N,BOOT0*%
X120077500Y-92925000D02*
X118700000Y-94302500D01*
X149250000Y-91299346D02*
X148549346Y-92000000D01*
X130733358Y-91600000D02*
X129408358Y-92925000D01*
X142792893Y-91800000D02*
X142048528Y-91800000D01*
X148549346Y-92000000D02*
X142992893Y-92000000D01*
X129408358Y-92925000D02*
X120077500Y-92925000D01*
X133551472Y-92100000D02*
X133051472Y-91600000D01*
X141748528Y-92100000D02*
X133551472Y-92100000D01*
X142048528Y-91800000D02*
X141748528Y-92100000D01*
X133051472Y-91600000D02*
X130733358Y-91600000D01*
X149250000Y-90437500D02*
X149250000Y-91299346D01*
X142992893Y-92000000D02*
X142792893Y-91800000D01*
D45*
%TO.N,RF_OUT*%
X153937500Y-85750000D02*
X156990000Y-85750000D01*
X156990000Y-85750000D02*
X157000000Y-85740000D01*
X157995000Y-85740000D02*
X158015000Y-85720000D01*
X157000000Y-85740000D02*
X157995000Y-85740000D01*
D44*
%TO.N,+3.3VA*%
X151250000Y-90437500D02*
X151250000Y-91163154D01*
X151806846Y-91720000D02*
X153500000Y-91720000D01*
X151250000Y-91163154D02*
X151806846Y-91720000D01*
%TO.N,Net-(U1-PA6)*%
X161600000Y-92100000D02*
X157500000Y-92100000D01*
X154680592Y-88750000D02*
X157500000Y-91569408D01*
X157500000Y-91569408D02*
X157500000Y-92100000D01*
X153937500Y-88750000D02*
X154680592Y-88750000D01*
X157260096Y-92100000D02*
X157500000Y-92100000D01*
D43*
%TO.N,VBUS*%
X126800000Y-87010661D02*
X126800000Y-82600000D01*
X126450000Y-82350000D02*
X126150000Y-82350000D01*
X124000000Y-83000000D02*
X123020000Y-83980000D01*
X119680000Y-87020000D02*
X120788734Y-87020000D01*
X121443734Y-87675000D02*
X126135661Y-87675000D01*
X120788734Y-87020000D02*
X121443734Y-87675000D01*
X126800000Y-82600000D02*
X126550000Y-82350000D01*
X126135661Y-87675000D02*
X126800000Y-87010661D01*
X125800000Y-83000000D02*
X126450000Y-82350000D01*
X124000000Y-83000000D02*
X125800000Y-83000000D01*
X123020000Y-83980000D02*
X119680000Y-83980000D01*
D45*
%TO.N,Net-(U4-\u002ARESET)*%
X122000000Y-105000000D02*
X122290000Y-104710000D01*
X115199999Y-108147715D02*
X118347714Y-105000000D01*
X122290000Y-104710000D02*
X122500000Y-104710000D01*
X115199999Y-109000000D02*
X115199999Y-108147715D01*
X118347714Y-105000000D02*
X122000000Y-105000000D01*
D44*
%TO.N,Net-(SW1-B)*%
X115930000Y-96500000D02*
X117097500Y-96500000D01*
X117097500Y-96500000D02*
X118100000Y-95497500D01*
X118100000Y-95497500D02*
X118700000Y-95497500D01*
D45*
%TO.N,Net-(U2-IN)*%
X159880000Y-85720000D02*
X159900000Y-85740000D01*
X161100000Y-85720000D02*
X159920000Y-85720000D01*
X158985000Y-85720000D02*
X159880000Y-85720000D01*
X159920000Y-85720000D02*
X159900000Y-85740000D01*
D46*
%TO.N,Net-(AE1-A)*%
X162368200Y-85750000D02*
X162338200Y-85720000D01*
X163200000Y-85750000D02*
X162368200Y-85750000D01*
D45*
%TO.N,Net-(J1-Pin_29)*%
X116500002Y-101410197D02*
X116500002Y-103158000D01*
X122660199Y-95250000D02*
X116500002Y-101410197D01*
X160520000Y-99210000D02*
X156560000Y-95250000D01*
X156560000Y-95250000D02*
X122660199Y-95250000D01*
%TO.N,Net-(J1-Pin_14)*%
X117799999Y-109000000D02*
X117799999Y-108063400D01*
X117799999Y-108063400D02*
X119263399Y-106600000D01*
X119263399Y-106600000D02*
X135350000Y-106600000D01*
X135350000Y-106600000D02*
X140200000Y-101750000D01*
%TO.N,Net-(J1-Pin_21)*%
X150360000Y-99210000D02*
X147200000Y-96050000D01*
X117800002Y-101241569D02*
X117800002Y-103158000D01*
X147200000Y-96050000D02*
X122991571Y-96050000D01*
X122991571Y-96050000D02*
X117800002Y-101241569D01*
%TO.N,Net-(J1-Pin_13)*%
X119100002Y-101072940D02*
X123322942Y-96850000D01*
X119100002Y-103158000D02*
X119100002Y-101072940D01*
X137840000Y-96850000D02*
X140200000Y-99210000D01*
X123322942Y-96850000D02*
X137840000Y-96850000D01*
%TO.N,Net-(J1-Pin_30)*%
X123800000Y-108200000D02*
X154070000Y-108200000D01*
X121900000Y-110100000D02*
X123800000Y-108200000D01*
X120563399Y-110100000D02*
X121900000Y-110100000D01*
X120399999Y-109000000D02*
X120399999Y-109936600D01*
X120399999Y-109936600D02*
X120563399Y-110100000D01*
X154070000Y-108200000D02*
X160520000Y-101750000D01*
%TO.N,Net-(J1-Pin_6)*%
X116499999Y-108063400D02*
X118763399Y-105800000D01*
X125990000Y-105800000D02*
X130040000Y-101750000D01*
X118763399Y-105800000D02*
X125990000Y-105800000D01*
X116499999Y-109000000D02*
X116499999Y-108063400D01*
%TO.N,Net-(J1-Pin_5)*%
X120400001Y-100904313D02*
X123644314Y-97660000D01*
X120400001Y-103158000D02*
X120400001Y-100904313D01*
X128490000Y-97660000D02*
X130040000Y-99210000D01*
X123644314Y-97660000D02*
X128490000Y-97660000D01*
%TO.N,Net-(J1-Pin_22)*%
X119099999Y-109000000D02*
X119099999Y-108063400D01*
X119099999Y-108063400D02*
X119763399Y-107400000D01*
X144710000Y-107400000D02*
X150360000Y-101750000D01*
X119763399Y-107400000D02*
X144710000Y-107400000D01*
%TO.N,Net-(J1-Pin_20)*%
X118450000Y-108063400D02*
X119513400Y-107000000D01*
X119513400Y-107000000D02*
X142570000Y-107000000D01*
X142570000Y-107000000D02*
X147820000Y-101750000D01*
X118450000Y-109000000D02*
X118450000Y-108063400D01*
%TO.N,Net-(J1-Pin_3)*%
X121050000Y-103158000D02*
X121050000Y-100820000D01*
X126350000Y-98060000D02*
X127500000Y-99210000D01*
X123810000Y-98060000D02*
X126350000Y-98060000D01*
X121050000Y-100820000D02*
X123810000Y-98060000D01*
%TO.N,Net-(J1-Pin_28)*%
X119750000Y-108063400D02*
X120013400Y-107800000D01*
X119750000Y-109000000D02*
X119750000Y-108063400D01*
X151930000Y-107800000D02*
X157980000Y-101750000D01*
X120013400Y-107800000D02*
X151930000Y-107800000D01*
%TO.N,Net-(J1-Pin_19)*%
X145060000Y-96450000D02*
X147820000Y-99210000D01*
X118450000Y-101157256D02*
X123157256Y-96450000D01*
X123157256Y-96450000D02*
X145060000Y-96450000D01*
X118450000Y-103158000D02*
X118450000Y-101157256D01*
%TO.N,Net-(J1-Pin_4)*%
X118513400Y-105400000D02*
X123850000Y-105400000D01*
X115850000Y-108063400D02*
X118513400Y-105400000D01*
X123850000Y-105400000D02*
X127500000Y-101750000D01*
X115850000Y-109000000D02*
X115850000Y-108063400D01*
%TO.N,Net-(J1-Pin_11)*%
X119750000Y-100988628D02*
X123488628Y-97250000D01*
X123488628Y-97250000D02*
X135700000Y-97250000D01*
X119750000Y-103158000D02*
X119750000Y-100988628D01*
X135700000Y-97250000D02*
X137660000Y-99210000D01*
%TO.N,Net-(J1-Pin_27)*%
X117322202Y-101153683D02*
X117487942Y-100987942D01*
X122825885Y-95650000D02*
X154420000Y-95650000D01*
X117487942Y-100987942D02*
X122825885Y-95650000D01*
X117322201Y-101153683D02*
X117150003Y-101325881D01*
X154420000Y-95650000D02*
X157980000Y-99210000D01*
X117322202Y-101153683D02*
X117322201Y-101153683D01*
X117150003Y-103158000D02*
X117150003Y-101325881D01*
%TO.N,Net-(J1-Pin_12)*%
X119085599Y-106200000D02*
X133210000Y-106200000D01*
X133210000Y-106200000D02*
X137660000Y-101750000D01*
X117150000Y-108135599D02*
X119085599Y-106200000D01*
X117150000Y-109000000D02*
X117150000Y-108135599D01*
D44*
%TO.N,Net-(J3-CC2)*%
X119680000Y-86000000D02*
X121425000Y-86000000D01*
X121425000Y-86000000D02*
X122175000Y-86750000D01*
%TO.N,Net-(J3-CC1)*%
X119680000Y-85000000D02*
X122175000Y-85000000D01*
%TD*%
M02*
