%TF.GenerationSoftware,KiCad,Pcbnew,8.0.5*%
%TF.CreationDate,2024-09-24T02:20:12-04:00*%
%TF.ProjectId,ble_mcu_test_board,626c655f-6d63-4755-9f74-6573745f626f,rev?*%
%TF.SameCoordinates,Original*%
%TF.FileFunction,Soldermask,Top*%
%TF.FilePolarity,Negative*%
%FSLAX46Y46*%
G04 Gerber Fmt 4.6, Leading zero omitted, Abs format (unit mm)*
G04 Created by KiCad (PCBNEW 8.0.5) date 2024-09-24 02:20:12*
%MOMM*%
%LPD*%
G01*
G04 APERTURE LIST*
G04 Aperture macros list*
%AMRoundRect*
0 Rectangle with rounded corners*
0 $1 Rounding radius*
0 $2 $3 $4 $5 $6 $7 $8 $9 X,Y pos of 4 corners*
0 Add a 4 corners polygon primitive as box body*
4,1,4,$2,$3,$4,$5,$6,$7,$8,$9,$2,$3,0*
0 Add four circle primitives for the rounded corners*
1,1,$1+$1,$2,$3*
1,1,$1+$1,$4,$5*
1,1,$1+$1,$6,$7*
1,1,$1+$1,$8,$9*
0 Add four rect primitives between the rounded corners*
20,1,$1+$1,$2,$3,$4,$5,0*
20,1,$1+$1,$4,$5,$6,$7,0*
20,1,$1+$1,$6,$7,$8,$9,0*
20,1,$1+$1,$8,$9,$2,$3,0*%
G04 Aperture macros list end*
%ADD10C,0.900000*%
%ADD11RoundRect,0.102000X-0.400000X0.500000X-0.400000X-0.500000X0.400000X-0.500000X0.400000X0.500000X0*%
%ADD12RoundRect,0.102000X-0.750000X0.350000X-0.750000X-0.350000X0.750000X-0.350000X0.750000X0.350000X0*%
%ADD13RoundRect,0.135000X-0.185000X0.135000X-0.185000X-0.135000X0.185000X-0.135000X0.185000X0.135000X0*%
%ADD14RoundRect,0.140000X-0.170000X0.140000X-0.170000X-0.140000X0.170000X-0.140000X0.170000X0.140000X0*%
%ADD15RoundRect,0.200000X0.200000X0.275000X-0.200000X0.275000X-0.200000X-0.275000X0.200000X-0.275000X0*%
%ADD16R,1.700000X1.700000*%
%ADD17O,1.700000X1.700000*%
%ADD18RoundRect,0.200000X-0.275000X0.200000X-0.275000X-0.200000X0.275000X-0.200000X0.275000X0.200000X0*%
%ADD19RoundRect,0.250000X0.475000X-0.250000X0.475000X0.250000X-0.475000X0.250000X-0.475000X-0.250000X0*%
%ADD20RoundRect,0.140000X0.170000X-0.140000X0.170000X0.140000X-0.170000X0.140000X-0.170000X-0.140000X0*%
%ADD21RoundRect,0.140000X0.140000X0.170000X-0.140000X0.170000X-0.140000X-0.170000X0.140000X-0.170000X0*%
%ADD22R,0.900000X1.000000*%
%ADD23R,1.700000X0.550000*%
%ADD24RoundRect,0.200000X-0.200000X-0.275000X0.200000X-0.275000X0.200000X0.275000X-0.200000X0.275000X0*%
%ADD25RoundRect,0.250000X-0.475000X0.250000X-0.475000X-0.250000X0.475000X-0.250000X0.475000X0.250000X0*%
%ADD26RoundRect,0.225000X-0.250000X0.225000X-0.250000X-0.225000X0.250000X-0.225000X0.250000X0.225000X0*%
%ADD27R,0.355600X1.473200*%
%ADD28R,0.800000X0.900000*%
%ADD29R,0.279400X0.711200*%
%ADD30R,0.457200X0.254000*%
%ADD31RoundRect,0.375000X-0.375000X0.625000X-0.375000X-0.625000X0.375000X-0.625000X0.375000X0.625000X0*%
%ADD32RoundRect,0.500000X-1.400000X0.500000X-1.400000X-0.500000X1.400000X-0.500000X1.400000X0.500000X0*%
%ADD33RoundRect,0.147500X-0.147500X-0.172500X0.147500X-0.172500X0.147500X0.172500X-0.147500X0.172500X0*%
%ADD34RoundRect,0.175000X-0.625000X0.175000X-0.625000X-0.175000X0.625000X-0.175000X0.625000X0.175000X0*%
%ADD35RoundRect,0.200000X-0.600000X0.200000X-0.600000X-0.200000X0.600000X-0.200000X0.600000X0.200000X0*%
%ADD36RoundRect,0.225000X-0.575000X0.225000X-0.575000X-0.225000X0.575000X-0.225000X0.575000X0.225000X0*%
%ADD37O,1.700000X1.000000*%
%ADD38RoundRect,0.062500X0.062500X-0.375000X0.062500X0.375000X-0.062500X0.375000X-0.062500X-0.375000X0*%
%ADD39RoundRect,0.062500X0.375000X-0.062500X0.375000X0.062500X-0.375000X0.062500X-0.375000X-0.062500X0*%
%ADD40R,5.600000X5.600000*%
G04 APERTURE END LIST*
D10*
%TO.C,SW1*%
X114050000Y-97300000D03*
X114050000Y-94300000D03*
D11*
X112950000Y-99450000D03*
X112950000Y-92150000D03*
X115150000Y-99450000D03*
X115150000Y-92150000D03*
D12*
X115800000Y-98050000D03*
X115800000Y-96550000D03*
X115800000Y-93550000D03*
%TD*%
D13*
%TO.C,R4*%
X118700000Y-94390000D03*
X118700000Y-95410000D03*
%TD*%
D14*
%TO.C,C12*%
X152400000Y-91720000D03*
X152400000Y-92680000D03*
%TD*%
D15*
%TO.C,R6*%
X123825000Y-86750000D03*
X122175000Y-86750000D03*
%TD*%
D16*
%TO.C,J2*%
X142350000Y-89900000D03*
D17*
X139810000Y-89900000D03*
X137270000Y-89900000D03*
X134730000Y-89900000D03*
%TD*%
D18*
%TO.C,R2*%
X121200000Y-92175000D03*
X121200000Y-93825000D03*
%TD*%
D14*
%TO.C,C16*%
X160000000Y-85670000D03*
X160000000Y-86630000D03*
%TD*%
D19*
%TO.C,C19*%
X124000000Y-83000000D03*
X124000000Y-81100000D03*
%TD*%
D20*
%TO.C,C5*%
X145750000Y-89710000D03*
X145750000Y-88750000D03*
%TD*%
D21*
%TO.C,C6*%
X145780000Y-85800000D03*
X144820000Y-85800000D03*
%TD*%
D22*
%TO.C,SW2*%
X157500000Y-92100000D03*
X161600000Y-92100000D03*
X157500000Y-93700000D03*
X161600000Y-93700000D03*
D23*
X159550000Y-91475000D03*
%TD*%
D20*
%TO.C,C15*%
X156900000Y-84780000D03*
X156900000Y-83820000D03*
%TD*%
D24*
%TO.C,R5*%
X122175000Y-85000000D03*
X123825000Y-85000000D03*
%TD*%
D20*
%TO.C,C14*%
X155800000Y-84780000D03*
X155800000Y-83820000D03*
%TD*%
D25*
%TO.C,C18*%
X124000000Y-88950000D03*
X124000000Y-90850000D03*
%TD*%
D18*
%TO.C,R1*%
X128900000Y-92175000D03*
X128900000Y-93825000D03*
%TD*%
D26*
%TO.C,C11*%
X155600000Y-86825000D03*
X155600000Y-88375000D03*
%TD*%
D27*
%TO.C,U4*%
X113900002Y-109000000D03*
X114550001Y-109000000D03*
X115199999Y-109000000D03*
X115850000Y-109000000D03*
X116499999Y-109000000D03*
X117150000Y-109000000D03*
X117799999Y-109000000D03*
X118450000Y-109000000D03*
X119099999Y-109000000D03*
X119750000Y-109000000D03*
X120399999Y-109000000D03*
X121050000Y-109000000D03*
X121050000Y-103158000D03*
X120400001Y-103158000D03*
X119750000Y-103158000D03*
X119100002Y-103158000D03*
X118450000Y-103158000D03*
X117800002Y-103158000D03*
X117150003Y-103158000D03*
X116500002Y-103158000D03*
X115850003Y-103158000D03*
X115200002Y-103158000D03*
X114550003Y-103158000D03*
X113900002Y-103158000D03*
%TD*%
D13*
%TO.C,R3*%
X122500000Y-103690000D03*
X122500000Y-104710000D03*
%TD*%
D20*
%TO.C,C2*%
X156900000Y-82260000D03*
X156900000Y-81300000D03*
%TD*%
%TO.C,C9*%
X149000000Y-82180000D03*
X149000000Y-81220000D03*
%TD*%
%TO.C,C4*%
X146800000Y-82180000D03*
X146800000Y-81220000D03*
%TD*%
D28*
%TO.C,Y1*%
X154200000Y-80700000D03*
X154200000Y-82100000D03*
X155300000Y-82100000D03*
X155300000Y-80700000D03*
%TD*%
D14*
%TO.C,C17*%
X157000000Y-85740000D03*
X157000000Y-86700000D03*
%TD*%
D29*
%TO.C,U2*%
X161100000Y-85720000D03*
D30*
X161709600Y-85491400D03*
D29*
X162319200Y-85720000D03*
D30*
X161709600Y-85948600D03*
%TD*%
D20*
%TO.C,C8*%
X147900000Y-82180000D03*
X147900000Y-81220000D03*
%TD*%
%TO.C,C7*%
X151200000Y-82180000D03*
X151200000Y-81220000D03*
%TD*%
D16*
%TO.C,J1*%
X124960000Y-99210000D03*
D17*
X124960000Y-101750000D03*
X127500000Y-99210000D03*
X127500000Y-101750000D03*
X130040000Y-99210000D03*
X130040000Y-101750000D03*
X132580000Y-99210000D03*
X132580000Y-101750000D03*
X135120000Y-99210000D03*
X135120000Y-101750000D03*
X137660000Y-99210000D03*
X137660000Y-101750000D03*
X140200000Y-99210000D03*
X140200000Y-101750000D03*
X142740000Y-99210000D03*
X142740000Y-101750000D03*
X145280000Y-99210000D03*
X145280000Y-101750000D03*
X147820000Y-99210000D03*
X147820000Y-101750000D03*
X150360000Y-99210000D03*
X150360000Y-101750000D03*
X152900000Y-99210000D03*
X152900000Y-101750000D03*
X155440000Y-99210000D03*
X155440000Y-101750000D03*
X157980000Y-99210000D03*
X157980000Y-101750000D03*
X160520000Y-99210000D03*
X160520000Y-101750000D03*
X163060000Y-99210000D03*
X163060000Y-101750000D03*
%TD*%
D31*
%TO.C,U3*%
X131150000Y-82350000D03*
X128850000Y-82350000D03*
D32*
X128850000Y-88650000D03*
D31*
X126550000Y-82350000D03*
%TD*%
D14*
%TO.C,C3*%
X150950000Y-91920000D03*
X150950000Y-92880000D03*
%TD*%
D33*
%TO.C,L1*%
X158015000Y-85720000D03*
X158985000Y-85720000D03*
%TD*%
D14*
%TO.C,C1*%
X152400000Y-81020000D03*
X152400000Y-81980000D03*
%TD*%
D34*
%TO.C,J3*%
X119680000Y-85000000D03*
D35*
X119680000Y-87020000D03*
D36*
X119680000Y-88250000D03*
D34*
X119680000Y-86000000D03*
D35*
X119680000Y-83980000D03*
D36*
X119680000Y-82750000D03*
D37*
X119500000Y-81180000D03*
X115700000Y-81180000D03*
X119500000Y-89820000D03*
X115700000Y-89820000D03*
%TD*%
D14*
%TO.C,C13*%
X153500000Y-91720000D03*
X153500000Y-92680000D03*
%TD*%
D20*
%TO.C,C10*%
X150100000Y-82180000D03*
X150100000Y-81220000D03*
%TD*%
D38*
%TO.C,U1*%
X147750000Y-90437500D03*
X148250000Y-90437500D03*
X148750000Y-90437500D03*
X149250000Y-90437500D03*
X149750000Y-90437500D03*
X150250000Y-90437500D03*
X150750000Y-90437500D03*
X151250000Y-90437500D03*
X151750000Y-90437500D03*
X152250000Y-90437500D03*
X152750000Y-90437500D03*
X153250000Y-90437500D03*
D39*
X153937500Y-89750000D03*
X153937500Y-89250000D03*
X153937500Y-88750000D03*
X153937500Y-88250000D03*
X153937500Y-87750000D03*
X153937500Y-87250000D03*
X153937500Y-86750000D03*
X153937500Y-86250000D03*
X153937500Y-85750000D03*
X153937500Y-85250000D03*
X153937500Y-84750000D03*
X153937500Y-84250000D03*
D38*
X153250000Y-83562500D03*
X152750000Y-83562500D03*
X152250000Y-83562500D03*
X151750000Y-83562500D03*
X151250000Y-83562500D03*
X150750000Y-83562500D03*
X150250000Y-83562500D03*
X149750000Y-83562500D03*
X149250000Y-83562500D03*
X148750000Y-83562500D03*
X148250000Y-83562500D03*
X147750000Y-83562500D03*
D39*
X147062500Y-84250000D03*
X147062500Y-84750000D03*
X147062500Y-85250000D03*
X147062500Y-85750000D03*
X147062500Y-86250000D03*
X147062500Y-86750000D03*
X147062500Y-87250000D03*
X147062500Y-87750000D03*
X147062500Y-88250000D03*
X147062500Y-88750000D03*
X147062500Y-89250000D03*
X147062500Y-89750000D03*
D40*
X150500000Y-87000000D03*
%TD*%
M02*
