%TF.GenerationSoftware,KiCad,Pcbnew,8.0.5*%
%TF.CreationDate,2024-09-24T02:20:12-04:00*%
%TF.ProjectId,ble_mcu_test_board,626c655f-6d63-4755-9f74-6573745f626f,rev?*%
%TF.SameCoordinates,Original*%
%TF.FileFunction,Soldermask,Bot*%
%TF.FilePolarity,Negative*%
%FSLAX46Y46*%
G04 Gerber Fmt 4.6, Leading zero omitted, Abs format (unit mm)*
G04 Created by KiCad (PCBNEW 8.0.5) date 2024-09-24 02:20:12*
%MOMM*%
%LPD*%
G01*
G04 APERTURE LIST*
%ADD10C,0.900000*%
%ADD11R,1.700000X1.700000*%
%ADD12O,1.700000X1.700000*%
%ADD13O,1.700000X1.000000*%
G04 APERTURE END LIST*
D10*
%TO.C,SW1*%
X114050000Y-97300000D03*
X114050000Y-94300000D03*
%TD*%
D11*
%TO.C,J2*%
X142350000Y-89900000D03*
D12*
X139810000Y-89900000D03*
X137270000Y-89900000D03*
X134730000Y-89900000D03*
%TD*%
D11*
%TO.C,J1*%
X124960000Y-99210000D03*
D12*
X124960000Y-101750000D03*
X127500000Y-99210000D03*
X127500000Y-101750000D03*
X130040000Y-99210000D03*
X130040000Y-101750000D03*
X132580000Y-99210000D03*
X132580000Y-101750000D03*
X135120000Y-99210000D03*
X135120000Y-101750000D03*
X137660000Y-99210000D03*
X137660000Y-101750000D03*
X140200000Y-99210000D03*
X140200000Y-101750000D03*
X142740000Y-99210000D03*
X142740000Y-101750000D03*
X145280000Y-99210000D03*
X145280000Y-101750000D03*
X147820000Y-99210000D03*
X147820000Y-101750000D03*
X150360000Y-99210000D03*
X150360000Y-101750000D03*
X152900000Y-99210000D03*
X152900000Y-101750000D03*
X155440000Y-99210000D03*
X155440000Y-101750000D03*
X157980000Y-99210000D03*
X157980000Y-101750000D03*
X160520000Y-99210000D03*
X160520000Y-101750000D03*
X163060000Y-99210000D03*
X163060000Y-101750000D03*
%TD*%
D13*
%TO.C,J3*%
X119500000Y-81180000D03*
X115700000Y-81180000D03*
X119500000Y-89820000D03*
X115700000Y-89820000D03*
%TD*%
M02*
